<svg id="Blazer_copy" data-name="Blazer copy" xmlns="http://www.w3.org/2000/svg" width="300" height="62" viewBox="0 0 300 62">
  <defs>
    <style>
      .cls-1 {
        fill-rule: evenodd;
      }
    </style>
  </defs>
  <g id="layer2">
    <path id="Tip:_No_one_wants_to_iron_in_a_hot_place._Pack_it._Shake_it_out" data-name="Tip: No one wants to iron in a hot place. Pack it. Shake it out" class="cls-1" d="M4.712,13.6H7.593V3.551h3.295V0.815H1.453V3.551H4.712V13.6Zm8.729,0H16.3V0.815H13.441V13.6ZM28.654,5.19a4.354,4.354,0,0,0-4.5-4.375H19.813V13.6h2.863V9.547h1.476A4.339,4.339,0,0,0,28.654,5.19Zm-2.773,0a1.682,1.682,0,0,1-1.765,1.675h-1.44V3.515h1.44A1.672,1.672,0,0,1,25.881,5.19Zm6.838,3.061a1.927,1.927,0,1,0-1.927-1.927A1.929,1.929,0,0,0,32.719,8.251Zm0,5.492a1.927,1.927,0,1,0-1.927-1.927A1.929,1.929,0,0,0,32.719,13.742ZM54.088,13.6V0.815H52.431v9.957L44.653,0.815H43.195V13.6h1.674V3.641L52.647,13.6h1.441ZM66.6,9.1a4.708,4.708,0,0,0-9.417,0A4.708,4.708,0,0,0,66.6,9.1Zm-7.832,0a3.126,3.126,0,1,1,6.248,0A3.126,3.126,0,1,1,58.765,9.1Zm24.752,0a4.708,4.708,0,0,0-9.417,0A4.708,4.708,0,0,0,83.517,9.1Zm-7.832,0a3.126,3.126,0,1,1,6.248,0A3.126,3.126,0,1,1,75.684,9.1Zm10.853,4.5h1.548V9.133c0-2.107,1.152-3.295,2.611-3.295a2.161,2.161,0,0,1,2.125,2.449V13.6h1.53V8.053a3.318,3.318,0,0,0-3.4-3.637,3.184,3.184,0,0,0-2.863,1.567V4.6H86.538v9Zm10.71-4.5a4.746,4.746,0,0,0,8.715,2.539l-1.224-.846A3.188,3.188,0,0,1,98.814,9.4H106.2a4.395,4.395,0,0,0,.018-0.468,4.2,4.2,0,0,0-4.285-4.519A4.562,4.562,0,0,0,97.248,9.1Zm4.627-3.313a2.694,2.694,0,0,1,2.755,2.359H98.922A2.943,2.943,0,0,1,101.875,5.784ZM121.73,13.6H123.1l3.061-9h-1.638l-2.179,6.572L120.091,4.6H118.9l-2.251,6.572L114.474,4.6h-1.621l3.061,9h1.368l2.233-6.482ZM127.9,9.1a4.505,4.505,0,0,0,4.411,4.681,3.947,3.947,0,0,0,3.169-1.566V13.6h1.549v-9h-1.549V5.982a3.947,3.947,0,0,0-3.169-1.567A4.505,4.505,0,0,0,127.9,9.1Zm7.706,0a3.075,3.075,0,1,1-6.139,0A3.075,3.075,0,1,1,135.607,9.1Zm5.146,4.5H142.3V9.133c0-2.107,1.152-3.295,2.61-3.295a2.161,2.161,0,0,1,2.125,2.449V13.6h1.53V8.053a3.318,3.318,0,0,0-3.4-3.637A3.182,3.182,0,0,0,142.3,5.982V4.6h-1.549v9Zm16.183-.126V12.086a3.422,3.422,0,0,1-1.1.18,1.3,1.3,0,0,1-1.494-1.53V6.018h2.592V4.6h-2.592v-2.5h-1.549V4.6h-1.908V6.018h1.908v4.916a2.535,2.535,0,0,0,2.755,2.755A4.307,4.307,0,0,0,156.936,13.472Zm8.623-2.377c0-1.35-.847-2.215-2.377-2.719l-0.972-.324c-1.063-.342-1.387-0.684-1.387-1.26a1.274,1.274,0,0,1,1.513-1.044,2.431,2.431,0,0,1,1.908.936l1.009-.972a3.493,3.493,0,0,0-2.881-1.3c-1.783,0-3.043.99-3.043,2.449a2.717,2.717,0,0,0,2.232,2.611l0.883,0.288c1.17,0.378,1.6.81,1.6,1.44a1.37,1.37,0,0,1-1.584,1.224,2.416,2.416,0,0,1-2.3-1.422l-1.26.684a3.575,3.575,0,0,0,3.529,2.089C164.244,13.778,165.559,12.86,165.559,11.1Zm12.8,2.377V12.086a3.422,3.422,0,0,1-1.1.18,1.3,1.3,0,0,1-1.5-1.53V6.018h2.593V4.6h-2.593v-2.5h-1.548V4.6h-1.909V6.018h1.909v4.916a2.534,2.534,0,0,0,2.755,2.755A4.307,4.307,0,0,0,178.356,13.472ZM189.715,9.1a4.708,4.708,0,0,0-9.416,0A4.708,4.708,0,0,0,189.715,9.1Zm-7.832,0a3.126,3.126,0,1,1,6.248,0A3.126,3.126,0,1,1,181.883,9.1Zm17.928-8.012a1.087,1.087,0,0,0-1.081-1.1,1.118,1.118,0,0,0-1.116,1.1,1.106,1.106,0,0,0,1.116,1.1A1.076,1.076,0,0,0,199.811,1.085ZM197.938,13.6h1.549v-9h-1.549v9Zm5.292,0h1.549V9.133c0-2.107,1.242-3.1,2.376-3.1A2.268,2.268,0,0,1,208,6.18v-1.6a3.222,3.222,0,0,0-.7-0.072,2.678,2.678,0,0,0-2.52,1.837V4.6H203.23v9ZM219,9.1a4.709,4.709,0,0,0-9.417,0A4.709,4.709,0,0,0,219,9.1Zm-7.832,0a3.126,3.126,0,1,1,6.247,0A3.126,3.126,0,1,1,211.169,9.1Zm10.853,4.5h1.548V9.133c0-2.107,1.153-3.295,2.611-3.295a2.161,2.161,0,0,1,2.125,2.449V13.6h1.53V8.053a3.318,3.318,0,0,0-3.4-3.637,3.185,3.185,0,0,0-2.863,1.567V4.6h-1.548v9ZM240.508,1.085a1.087,1.087,0,0,0-1.08-1.1,1.118,1.118,0,0,0-1.116,1.1,1.106,1.106,0,0,0,1.116,1.1A1.076,1.076,0,0,0,240.508,1.085ZM238.636,13.6h1.548v-9h-1.548v9Zm5.292,0h1.548V9.133c0-2.107,1.152-3.295,2.611-3.295a2.161,2.161,0,0,1,2.124,2.449V13.6h1.531V8.053a3.318,3.318,0,0,0-3.4-3.637,3.184,3.184,0,0,0-2.863,1.567V4.6h-1.548v9Zm15.911-4.5a4.5,4.5,0,0,0,4.411,4.681,3.947,3.947,0,0,0,3.169-1.566V13.6h1.549v-9h-1.549V5.982a3.947,3.947,0,0,0-3.169-1.567A4.5,4.5,0,0,0,259.839,9.1Zm7.706,0a3.075,3.075,0,1,1-6.14,0A3.075,3.075,0,1,1,267.545,9.1ZM2.515,37.6H4.064V33.133c0-2.107,1.152-3.3,2.611-3.3A2.161,2.161,0,0,1,8.8,32.287V37.6H10.33V32.053a3.318,3.318,0,0,0-3.4-3.637,3.184,3.184,0,0,0-2.863,1.566V24.094H2.515V37.6Zm20.108-4.5a4.708,4.708,0,1,0-4.7,4.681A4.62,4.62,0,0,0,22.624,33.1Zm-7.832,0a3.126,3.126,0,1,1,3.133,3.241A3.094,3.094,0,0,1,14.791,33.1Zm15.571,4.375V36.086a3.424,3.424,0,0,1-1.1.18,1.3,1.3,0,0,1-1.494-1.53V30.018h2.593V28.6H27.77v-2.5H26.221v2.5H24.313v1.422h1.909v4.915a2.534,2.534,0,0,0,2.755,2.755A4.309,4.309,0,0,0,30.363,37.472Zm7.99,3.889H39.9v-5.15a3.948,3.948,0,0,0,3.169,1.566A4.516,4.516,0,0,0,47.482,33.1a4.516,4.516,0,0,0-4.411-4.681A3.948,3.948,0,0,0,39.9,29.982V28.6H38.353V41.361ZM45.9,33.1a3.067,3.067,0,1,1-6.122,0A3.067,3.067,0,1,1,45.9,33.1Zm4.624,4.5h1.549v-13.5H50.521V37.6Zm4.59-4.5a4.5,4.5,0,0,0,4.411,4.681,3.948,3.948,0,0,0,3.169-1.566V37.6h1.548v-9H62.691v1.386a3.948,3.948,0,0,0-3.169-1.566A4.5,4.5,0,0,0,55.11,33.1Zm7.706,0a3.075,3.075,0,1,1-6.14,0A3.075,3.075,0,1,1,62.817,33.1Zm13.32,2.269-1.35-.756a3.052,3.052,0,0,1-2.809,1.729,3.242,3.242,0,0,1,0-6.482,3.052,3.052,0,0,1,2.809,1.728l1.35-.756a4.662,4.662,0,0,0-4.159-2.413,4.682,4.682,0,1,0,0,9.363A4.662,4.662,0,0,0,76.137,35.366Zm2.1-2.269a4.746,4.746,0,0,0,8.715,2.539L85.73,34.79A3.188,3.188,0,0,1,79.806,33.4h7.382a4.4,4.4,0,0,0,.018-0.468,4.2,4.2,0,0,0-4.285-4.519A4.562,4.562,0,0,0,78.24,33.1Zm4.627-3.313a2.694,2.694,0,0,1,2.755,2.359H79.915A2.943,2.943,0,0,1,82.867,29.784Zm9.485,6.608a1.333,1.333,0,1,0-1.332,1.35A1.357,1.357,0,0,0,92.353,36.392ZM104.9,24.815h-3.907V37.6h1.674V32.935H104.9A4.073,4.073,0,1,0,104.9,24.815Zm0,6.572h-2.233V26.381H104.9A2.513,2.513,0,1,1,104.9,31.387Zm6.245,1.71a4.5,4.5,0,0,0,4.411,4.681,3.948,3.948,0,0,0,3.169-1.566V37.6h1.548v-9h-1.548v1.386a3.948,3.948,0,0,0-3.169-1.566A4.5,4.5,0,0,0,111.144,33.1Zm7.706,0a3.075,3.075,0,1,1-6.14,0A3.075,3.075,0,1,1,118.85,33.1Zm13.32,2.269-1.35-.756a3.052,3.052,0,0,1-2.809,1.729,3.242,3.242,0,0,1,0-6.482,3.052,3.052,0,0,1,2.809,1.728l1.35-.756a4.662,4.662,0,0,0-4.159-2.413,4.682,4.682,0,1,0,0,9.363A4.662,4.662,0,0,0,132.17,35.366Zm2.805,2.233h1.549V33.1l4.879,4.5h2.089l-5.42-5.023L142.5,28.6h-2.053l-3.925,3.511V24.094h-1.549V37.6ZM152.2,25.085a1.087,1.087,0,0,0-1.081-1.1,1.118,1.118,0,0,0-1.116,1.1,1.106,1.106,0,0,0,1.116,1.1A1.076,1.076,0,0,0,152.2,25.085ZM150.329,37.6h1.549v-9h-1.549v9Zm10.171-.126V36.086a3.422,3.422,0,0,1-1.1.18,1.3,1.3,0,0,1-1.494-1.53V30.018H160.5V28.6h-2.592v-2.5h-1.549v2.5h-1.908v1.422h1.908v4.915a2.535,2.535,0,0,0,2.755,2.755A4.307,4.307,0,0,0,160.5,37.472Zm4.932-1.08a1.333,1.333,0,1,0-1.333,1.35A1.357,1.357,0,0,0,165.432,36.392Zm7.594-.882a4.938,4.938,0,0,0,4.484,2.3c2.377,0,4.069-1.368,4.069-3.547,0-1.891-1.08-2.971-2.971-3.691l-1.548-.594c-1.3-.486-1.927-0.972-1.927-2.053,0-1.062,1.044-1.765,2.3-1.765a3.165,3.165,0,0,1,2.539,1.26l1.224-1.08a4.663,4.663,0,0,0-3.727-1.746c-2.287,0-4,1.314-4,3.4,0,1.747.9,2.791,2.9,3.529l1.693,0.648a2.323,2.323,0,0,1,1.836,2.161c0,1.188-1.044,1.909-2.358,1.909a3.571,3.571,0,0,1-3.169-1.747ZM184.6,37.6h1.548V33.133c0-2.107,1.152-3.3,2.611-3.3a2.161,2.161,0,0,1,2.124,2.449V37.6h1.531V32.053a3.318,3.318,0,0,0-3.4-3.637,3.184,3.184,0,0,0-2.863,1.566V24.094H184.6V37.6Zm10.709-4.5a4.505,4.505,0,0,0,4.411,4.681,3.947,3.947,0,0,0,3.169-1.566V37.6h1.549v-9H202.89v1.386a3.947,3.947,0,0,0-3.169-1.566A4.505,4.505,0,0,0,195.31,33.1Zm7.707,0a3.075,3.075,0,1,1-6.14,0A3.075,3.075,0,1,1,203.017,33.1Zm5.145,4.5h1.549V33.1l4.879,4.5h2.089l-5.42-5.023,4.429-3.979h-2.052l-3.925,3.511V24.094h-1.549V37.6Zm9.234-4.5a4.746,4.746,0,0,0,8.714,2.539l-1.224-.846a3.188,3.188,0,0,1-5.924-1.386h7.382a4.4,4.4,0,0,0,.018-0.468,4.2,4.2,0,0,0-4.285-4.519A4.562,4.562,0,0,0,217.4,33.1Zm4.627-3.313a2.693,2.693,0,0,1,2.755,2.359H219.07A2.943,2.943,0,0,1,222.023,29.784Zm14.417-4.7a1.087,1.087,0,0,0-1.08-1.1,1.118,1.118,0,0,0-1.116,1.1,1.106,1.106,0,0,0,1.116,1.1A1.076,1.076,0,0,0,236.44,25.085ZM234.568,37.6h1.548v-9h-1.548v9Zm10.171-.126V36.086a3.422,3.422,0,0,1-1.1.18,1.3,1.3,0,0,1-1.5-1.53V30.018h2.593V28.6h-2.593v-2.5H240.6v2.5h-1.909v1.422H240.6v4.915a2.534,2.534,0,0,0,2.755,2.755A4.307,4.307,0,0,0,244.739,37.472ZM261.426,33.1a4.709,4.709,0,1,0-4.7,4.681A4.62,4.62,0,0,0,261.426,33.1Zm-7.832,0a3.126,3.126,0,1,1,3.132,3.241A3.094,3.094,0,0,1,253.594,33.1Zm10.727,1.026c0,2.233,1.332,3.655,3.313,3.655a3.1,3.1,0,0,0,2.773-1.566V37.6h1.548v-9h-1.548v4.465c0,2.071-1.1,3.3-2.5,3.3-1.242,0-2.035-.954-2.035-2.467V28.6h-1.548v5.528Zm16.237,3.349V36.086a3.422,3.422,0,0,1-1.1.18,1.3,1.3,0,0,1-1.494-1.53V30.018h2.592V28.6h-2.592v-2.5h-1.549v2.5h-1.908v1.422h1.908v4.915a2.535,2.535,0,0,0,2.755,2.755A4.307,4.307,0,0,0,280.558,37.472Zm4.932-1.08a1.333,1.333,0,1,0-1.333,1.35A1.357,1.357,0,0,0,285.49,36.392ZM5.342,61.6H6.981V50.4H10.96V48.815h-9.6V50.4H5.342V61.6Zm8.063,0h1.548V57.133c0-2.107,1.152-3.3,2.611-3.3a2.161,2.161,0,0,1,2.125,2.449V61.6H21.22V56.053a3.318,3.318,0,0,0-3.4-3.637,3.184,3.184,0,0,0-2.863,1.566V48.094H13.405V61.6Zm11.412,0h1.549V57.133c0-2.107,1.242-3.1,2.377-3.1a2.263,2.263,0,0,1,.846.144v-1.6a3.209,3.209,0,0,0-.7-0.072,2.678,2.678,0,0,0-2.521,1.836V52.6H24.817v9Zm15.771-4.5a4.708,4.708,0,1,0-4.7,4.681A4.62,4.62,0,0,0,40.588,57.1Zm-7.832,0a3.126,3.126,0,1,1,3.133,3.241A3.094,3.094,0,0,1,32.755,57.1Zm18.452,4.5h1.368l3.061-9H54l-2.179,6.572L49.569,52.6H48.38L46.13,59.168,43.951,52.6h-1.62l3.061,9H46.76l2.233-6.482Zm13.66-12.514a1.087,1.087,0,0,0-1.08-1.1,1.118,1.118,0,0,0-1.116,1.1,1.106,1.106,0,0,0,1.116,1.1A1.076,1.076,0,0,0,64.867,49.085ZM62.995,61.6h1.548v-9H62.995v9Zm10.171-.126V60.086a3.423,3.423,0,0,1-1.1.18,1.3,1.3,0,0,1-1.495-1.53V54.018h2.593V52.6H70.573v-2.5H69.025v2.5H67.116v1.422h1.908v4.915a2.534,2.534,0,0,0,2.755,2.755A4.308,4.308,0,0,0,73.166,61.472ZM89.853,57.1a4.708,4.708,0,1,0-4.7,4.681A4.62,4.62,0,0,0,89.853,57.1Zm-7.832,0a3.126,3.126,0,1,1,3.133,3.241A3.094,3.094,0,0,1,82.021,57.1Zm10.853,4.5h1.549V57.133c0-2.107,1.152-3.3,2.611-3.3a2.161,2.161,0,0,1,2.125,2.449V61.6h1.53V56.053a3.318,3.318,0,0,0-3.4-3.637,3.184,3.184,0,0,0-2.863,1.566V52.6H92.874v9Zm13.554-1.206a1.332,1.332,0,1,0-1.332,1.35A1.356,1.356,0,0,0,106.428,60.392Z"/>
  </g>
</svg>
