<svg id="Copy_copy" data-name="Copy copy" xmlns="http://www.w3.org/2000/svg" width="768" height="442" viewBox="0 0 768 442">
  <metadata><?xpacket begin="﻿" id="W5M0MpCehiHzreSzNTczkc9d"?>
<x:xmpmeta xmlns:x="adobe:ns:meta/" x:xmptk="Adobe XMP Core 5.6-c138 79.159824, 2016/09/14-01:09:01        ">
   <rdf:RDF xmlns:rdf="http://www.w3.org/1999/02/22-rdf-syntax-ns#">
      <rdf:Description rdf:about=""/>
   </rdf:RDF>
</x:xmpmeta>
                                                                                                    
                                                                                                    
                                                                                                    
                                                                                                    
                                                                                                    
                                                                                                    
                                                                                                    
                                                                                                    
                                                                                                    
                                                                                                    
                                                                                                    
                                                                                                    
                                                                                                    
                                                                                                    
                                                                                                    
                                                                                                    
                                                                                                    
                                                                                                    
                                                                                                    
                                                                                                    
                           
<?xpacket end="w"?></metadata>
<defs>
    <style>
      .cls-1, .cls-3 {
        fill: #fff;
      }

      .cls-1 {
        opacity: 0.8;
      }

      .cls-2 {
        fill: #b03f25;
      }

      .cls-2, .cls-3 {
        fill-rule: evenodd;
      }
    </style>
  </defs>
  <ellipse id="Ellipse_2_copy_2" data-name="Ellipse 2 copy 2" class="cls-1" cx="384" cy="222" rx="48" ry="48.594"/>
  <path id="Polygon_1_copy_2" data-name="Polygon 1 copy 2" class="cls-2" d="M406.175,222l-34.791,20.041V201.963Z"/>
  <path id="watch_the_video" data-name="watch the video" class="cls-3" d="M253.04,324.644h3.838l4.193-18.744H256.75l-2.465,11.88-5.082-12.2-5.058,12.2L241.68,305.9h-4.32l4.168,18.744h3.837l3.838-9.188Zm11.894,0h4.218l1.6-3.96h7.472l1.6,3.96h4.219L276.319,305.9h-3.66Zm7.293-7.6,2.262-5.649,2.262,5.649h-4.524Zm19.721,7.6h4.066V309.912h4.651V305.9H287.348v4.012h4.6v14.732Zm23.38,0.316a9.28,9.28,0,0,0,8.438-5.121l-3.558-2.007a5.34,5.34,0,0,1-4.88,3.063,5.636,5.636,0,0,1,0-11.247,5.34,5.34,0,0,1,4.88,3.063l3.558-2.007a9.282,9.282,0,0,0-8.438-5.121A9.7,9.7,0,0,0,315.328,324.96Zm15.375-.316h4.041v-7.419h7.268v7.419h4.041V305.9h-4.041v7.339h-7.268V305.9H330.7v18.744Zm36.417,0h4.067V309.912h4.65V305.9H362.521v4.012h4.6v14.732Zm15.757,0h4.04v-7.419h7.269v7.419h4.04V305.9h-4.04v7.339h-7.269V305.9h-4.04v18.744Zm23.736,0h11.436v-4.013h-7.4v-3.353h5.871v-4.013h-5.871v-3.353h7.4V305.9H406.613v18.744Zm34.028,0h3.634l7.4-18.744h-4.447l-4.778,12.487-4.8-12.487h-4.4Zm17.535,0h4.041V305.9h-4.041v18.744Zm12.427,0h6.15a9.374,9.374,0,0,0,0-18.744H470.6v18.744Zm4.04-3.855V309.754h2.11c3.049,0,5.108,2.508,5.108,5.518s-2.059,5.517-5.108,5.517h-2.11Zm18.705,3.855h11.436v-4.013h-7.4v-3.353h5.871v-4.013h-5.871v-3.353h7.4V305.9H493.348v18.744Zm26.938,0.316a9.7,9.7,0,1,0-9.327-9.688A9.536,9.536,0,0,0,520.286,324.96Zm0-4.065a5.638,5.638,0,1,1,5.235-5.623A5.467,5.467,0,0,1,520.286,320.9Z"/>
</svg>
