<svg id="tees_copy" data-name="tees copy" xmlns="http://www.w3.org/2000/svg" width="768" height="1128" viewBox="0 0 768 1128">
  <defs>
    <style>
      .cls-1, .cls-2, .cls-3, .cls-4 {
        fill-rule: evenodd;
      }

      .cls-2 {
        fill: #b03f25;
      }

      .cls-3 {
        fill: #fff;
      }

      .cls-4 {
        fill: #272727;
        opacity: 0.3;
      }
    </style>
  </defs>
  <path id="Our_softer_than_ever_Authentic_SUPIMA_Cotton_Tee_is_2x_as_str" data-name="Our softer than ever Authentic SUPIMA®  Cotton Tee is 2x as str" class="cls-1" d="M124.865,904.122a9.69,9.69,0,1,0-9.69,9.69A9.6,9.6,0,0,0,124.865,904.122Zm-16.9,0a7.223,7.223,0,1,1,7.208,7.367A7.188,7.188,0,0,1,107.967,904.122Zm21.622,4.277c0,3.274,1.953,5.36,4.858,5.36a4.541,4.541,0,0,0,4.066-2.3V913.5h2.271v-13.2h-2.271v6.549c0,3.036-1.611,4.831-3.67,4.831-1.822,0-2.984-1.4-2.984-3.617v-7.763h-2.27V908.4Zm17.054,5.1h2.27v-6.548c0-3.089,1.822-4.541,3.486-4.541a3.329,3.329,0,0,1,1.241.211v-2.35a4.725,4.725,0,0,0-1.03-.106,3.93,3.93,0,0,0-3.7,2.694v-2.562h-2.27v13.2Zm27.166-3.67c0-1.98-1.241-3.247-3.485-3.987l-1.426-.475c-1.558-.5-2.033-1-2.033-1.848,0-.977.977-1.532,2.218-1.532a3.567,3.567,0,0,1,2.8,1.373l1.479-1.426a5.123,5.123,0,0,0-4.225-1.9c-2.614,0-4.462,1.453-4.462,3.591,0,1.849,1.135,3.142,3.274,3.829l1.294,0.422c1.716,0.555,2.349,1.188,2.349,2.113,0,1.135-1.029,1.795-2.323,1.795a3.544,3.544,0,0,1-3.38-2.086l-1.848,1a5.243,5.243,0,0,0,5.175,3.063C171.882,913.759,173.809,912.413,173.809,909.825Zm17.583-2.931a6.9,6.9,0,1,0-6.891,6.865A6.775,6.775,0,0,0,191.392,906.894Zm-11.485,0a4.584,4.584,0,1,1,4.594,4.753A4.537,4.537,0,0,1,179.907,906.894Zm17.212,6.6h2.271V902.379h3.485v-2.086H199.39v-2.429c0-1.663.739-2.244,2.191-2.244a5.328,5.328,0,0,1,1.637.264v-2.007a6,6,0,0,0-2.059-.343,3.717,3.717,0,0,0-4.04,4.04v2.719h-2.8v2.086h2.8V913.5Zm15.816-.185v-2.033a5.176,5.176,0,0,1-1.637.264c-1.426,0-2.192-.554-2.192-2.244v-6.918h3.829v-2.086h-3.829v-3.67h-2.27v3.67h-2.482v2.086h2.482v7.209a3.735,3.735,0,0,0,4.066,4.039A6.567,6.567,0,0,0,212.935,913.31Zm3.271-6.416a6.96,6.96,0,0,0,12.779,3.723l-1.8-1.241a4.674,4.674,0,0,1-8.687-2.033h10.826a6.534,6.534,0,0,0,.026-0.686c-0.026-4.225-2.825-6.628-6.284-6.628A6.69,6.69,0,0,0,216.206,906.894Zm6.786-4.858a3.951,3.951,0,0,1,4.04,3.459h-8.37A4.315,4.315,0,0,1,222.992,902.036ZM234.158,913.5h2.271v-6.548c0-3.089,1.822-4.541,3.485-4.541a3.325,3.325,0,0,1,1.241.211v-2.35a4.719,4.719,0,0,0-1.03-.106,3.928,3.928,0,0,0-3.7,2.694v-2.562h-2.271v13.2Zm25.318-.185v-2.033a5,5,0,0,1-1.61.264c-1.426,0-2.192-.554-2.192-2.244v-6.918h3.8v-2.086h-3.8v-3.67H253.4v3.67h-2.8v2.086h2.8v7.209a3.715,3.715,0,0,0,4.039,4.039A6.308,6.308,0,0,0,259.476,913.31Zm4.487,0.185h2.271v-6.548c0-3.089,1.69-4.832,3.829-4.832,1.848,0,3.115,1.373,3.115,3.591V913.5h2.245v-8.132c0-3.274-2.033-5.334-4.991-5.334a4.669,4.669,0,0,0-4.2,2.3v-8.635h-2.271v19.8Zm16.1-6.6a6.606,6.606,0,0,0,6.469,6.865,5.787,5.787,0,0,0,4.647-2.3V913.5h2.271v-13.2h-2.271v2.034a5.788,5.788,0,0,0-4.647-2.3A6.606,6.606,0,0,0,280.067,906.894Zm11.3,0a4.51,4.51,0,1,1-4.489-4.779A4.508,4.508,0,0,1,291.368,906.894Zm7.944,6.6h2.271v-6.548c0-3.089,1.69-4.832,3.829-4.832,1.848,0,3.115,1.373,3.115,3.591V913.5h2.245v-8.132c0-3.274-2.033-5.334-4.991-5.334a4.669,4.669,0,0,0-4.2,2.3v-2.034h-2.271v13.2Zm24.129-6.6a6.96,6.96,0,0,0,12.78,3.723l-1.8-1.241a4.674,4.674,0,0,1-8.687-2.033h10.826a6.534,6.534,0,0,0,.026-0.686c-0.026-4.225-2.825-6.628-6.284-6.628A6.69,6.69,0,0,0,323.441,906.894Zm6.786-4.858a3.95,3.95,0,0,1,4.04,3.459H325.9A4.315,4.315,0,0,1,330.227,902.036ZM345.3,913.5h1.9l6.1-13.2h-2.534l-4.515,9.981-4.515-9.981H339.2Zm10.559-6.6a6.96,6.96,0,0,0,12.78,3.723l-1.8-1.241a4.674,4.674,0,0,1-8.686-2.033h10.825a6.294,6.294,0,0,0,.027-0.686c-0.027-4.225-2.826-6.628-6.285-6.628A6.69,6.69,0,0,0,355.86,906.894Zm6.786-4.858a3.95,3.95,0,0,1,4.04,3.459h-8.37A4.315,4.315,0,0,1,362.646,902.036ZM373.812,913.5h2.271v-6.548c0-3.089,1.822-4.541,3.486-4.541a3.324,3.324,0,0,1,1.24.211v-2.35a4.71,4.71,0,0,0-1.029-.106,3.928,3.928,0,0,0-3.7,2.694v-2.562h-2.271v13.2Zm15.761,0h2.535l2.4-5.465h8.739l2.4,5.465h2.561L399.9,894.749h-2.033Zm5.888-7.683,3.406-7.736,3.406,7.736h-6.812Zm16.156,2.587c0,3.274,1.954,5.36,4.859,5.36a4.541,4.541,0,0,0,4.066-2.3V913.5h2.271v-13.2h-2.271v6.549c0,3.036-1.611,4.831-3.67,4.831-1.822,0-2.984-1.4-2.984-3.617v-7.763h-2.271V908.4Zm24.21,4.911v-2.033a5,5,0,0,1-1.611.264c-1.425,0-2.191-.554-2.191-2.244v-6.918h3.8v-2.086h-3.8v-3.67h-2.271v3.67h-2.8v2.086h2.8v7.209a3.716,3.716,0,0,0,4.04,4.039A6.312,6.312,0,0,0,435.827,913.31Zm4.487,0.185h2.271v-6.548c0-3.089,1.689-4.832,3.828-4.832,1.848,0,3.116,1.373,3.116,3.591V913.5h2.244v-8.132c0-3.274-2.033-5.334-4.99-5.334a4.668,4.668,0,0,0-4.2,2.3v-8.635h-2.271v19.8Zm16.1-6.6a6.96,6.96,0,0,0,12.78,3.723l-1.8-1.241a4.674,4.674,0,0,1-8.686-2.033H469.54a6.294,6.294,0,0,0,.027-0.686c-0.027-4.225-2.826-6.628-6.285-6.628A6.69,6.69,0,0,0,456.417,906.894Zm6.786-4.858a3.95,3.95,0,0,1,4.04,3.459h-8.37A4.315,4.315,0,0,1,463.2,902.036ZM474.369,913.5h2.271v-6.548c0-3.089,1.69-4.832,3.829-4.832,1.848,0,3.115,1.373,3.115,3.591V913.5h2.245v-8.132c0-3.274-2.033-5.334-4.991-5.334a4.669,4.669,0,0,0-4.2,2.3v-2.034h-2.271v13.2Zm24.131-.185v-2.033a5.006,5.006,0,0,1-1.611.264c-1.426,0-2.191-.554-2.191-2.244v-6.918h3.8v-2.086h-3.8v-3.67h-2.271v3.67h-2.8v2.086h2.8v7.209a3.716,3.716,0,0,0,4.04,4.039A6.317,6.317,0,0,0,498.5,913.31Zm7.233-18.165a1.6,1.6,0,0,0-1.584-1.611,1.641,1.641,0,0,0-1.638,1.611,1.623,1.623,0,0,0,1.638,1.61A1.578,1.578,0,0,0,505.733,895.145Zm-2.746,18.35h2.27v-13.2h-2.27v13.2Zm20.145-3.274-1.981-1.109a4.475,4.475,0,0,1-4.119,2.535,4.754,4.754,0,0,1,0-9.5,4.474,4.474,0,0,1,4.119,2.534l1.981-1.109a6.838,6.838,0,0,0-6.1-3.538,6.865,6.865,0,1,0,0,13.73A6.836,6.836,0,0,0,523.132,910.221Zm11.349,0.211c0.977,1.928,3.485,3.38,6.575,3.38,3.485,0,5.967-2.007,5.967-5.2,0-2.773-1.584-4.357-4.357-5.413l-2.271-.871c-1.9-.713-2.825-1.426-2.825-3.011,0-1.557,1.532-2.587,3.38-2.587a4.64,4.64,0,0,1,3.723,1.848l1.795-1.584A6.835,6.835,0,0,0,541,894.432c-3.354,0-5.862,1.927-5.862,4.99,0,2.561,1.32,4.093,4.251,5.175l2.482,0.951c1.743,0.66,2.693,1.663,2.693,3.168,0,1.743-1.531,2.8-3.459,2.8a5.239,5.239,0,0,1-4.647-2.561Zm32.183-4.224V894.749h-2.455v11.512c0,3.353-1.954,5.228-4.885,5.228s-4.884-1.875-4.884-5.228V894.749h-2.456v11.459c0,4.673,3.01,7.6,7.34,7.6S566.664,910.881,566.664,906.208ZM578.7,894.749h-5.73V913.5h2.456v-6.838H578.7c3.907,0,6.442-2.561,6.442-5.941S582.609,894.749,578.7,894.749Zm0,9.637h-3.274v-7.34H578.7c2.587,0,4.013,1.584,4.013,3.67S581.289,904.386,578.7,904.386Zm11.324,9.109h2.456V894.749h-2.456V913.5ZM608.243,908L615,898.92V913.5h2.429V894.749h-2.218l-6.971,9.347-6.97-9.347h-2.245V913.5h2.456V898.92Zm13.436,5.492h2.535l2.4-5.465h8.74l2.4,5.465h2.561L632,894.749H629.97Zm5.888-7.683,3.406-7.736,3.406,7.736h-6.812Zm34.955-1.69a9.69,9.69,0,1,0-9.716,9.69A9.736,9.736,0,0,0,662.522,904.122Zm-17.5,0a7.816,7.816,0,1,1,7.789,7.815A7.843,7.843,0,0,1,645.017,904.122Zm4.673,4.911h1.875v-4.2h0.581l3.459,4.2h2.244l-3.565-4.383a2.565,2.565,0,0,0,2.086-2.588,2.808,2.808,0,0,0-3.01-2.878h-3.67v9.849Zm1.875-5.809v-2.3h1.584a1.171,1.171,0,0,1,1.373,1.135,1.2,1.2,0,0,1-1.373,1.162h-1.584Zm-569.6,42.9a9.743,9.743,0,0,0,17.981,5.149l-2.059-1.241a7.367,7.367,0,1,1,0-7.816l2.06-1.241A9.743,9.743,0,0,0,81.965,946.122Zm35.22,2.772a6.905,6.905,0,1,0-6.892,6.865A6.775,6.775,0,0,0,117.185,948.894Zm-11.486,0a4.584,4.584,0,1,1,4.594,4.753A4.537,4.537,0,0,1,105.7,948.894Zm32.474,6.417v-2.034a5,5,0,0,1-1.611.264c-1.425,0-2.191-.554-2.191-2.244v-6.918h3.8v-2.086h-3.8v-3.67H132.1v3.67h-2.271v2.086H132.1v7.209a3.716,3.716,0,0,0,4.04,4.039A6.342,6.342,0,0,0,138.173,955.311Zm-9.241,0v-2.034a5.006,5.006,0,0,1-1.611.264c-1.426,0-2.191-.554-2.191-2.244v-6.918h3.221v-2.086H125.13v-3.67h-2.271v3.67h-2.8v2.086h2.8v7.209a3.715,3.715,0,0,0,4.04,4.039A6.347,6.347,0,0,0,128.932,955.311Zm26.3-6.417a6.9,6.9,0,1,0-6.891,6.865A6.775,6.775,0,0,0,155.227,948.894Zm-11.486,0a4.584,4.584,0,1,1,4.595,4.753A4.537,4.537,0,0,1,143.741,948.894Zm16.315,6.6h2.271v-6.548c0-3.089,1.689-4.832,3.828-4.832,1.848,0,3.116,1.373,3.116,3.591V955.5h2.244v-8.132c0-3.274-2.033-5.334-4.99-5.334a4.669,4.669,0,0,0-4.2,2.3v-2.033h-2.271v13.2Zm28.433,0h2.4V939.072h5.835v-2.323H182.654v2.323h5.835V955.5Zm9.081-6.6a6.96,6.96,0,0,0,12.779,3.723l-1.795-1.241a4.674,4.674,0,0,1-8.687-2.033h10.825a6.294,6.294,0,0,0,.027-0.686c-0.027-4.225-2.825-6.628-6.284-6.628A6.69,6.69,0,0,0,197.57,948.894Zm6.785-4.858a3.95,3.95,0,0,1,4.04,3.459h-8.37A4.316,4.316,0,0,1,204.355,944.036Zm10.137,4.858a6.96,6.96,0,0,0,12.779,3.723l-1.795-1.241a4.674,4.674,0,0,1-8.687-2.033h10.826a6.534,6.534,0,0,0,.026-0.686c-0.026-4.225-2.825-6.628-6.284-6.628A6.69,6.69,0,0,0,214.492,948.894Zm6.786-4.858a3.951,3.951,0,0,1,4.04,3.459h-8.37A4.314,4.314,0,0,1,221.278,944.036Zm21.937-6.891a1.594,1.594,0,0,0-1.584-1.611,1.64,1.64,0,0,0-1.637,1.611,1.623,1.623,0,0,0,1.637,1.61A1.578,1.578,0,0,0,243.215,937.145Zm-2.746,18.35h2.271v-13.2h-2.271v13.2Zm16.712-3.67c0-1.98-1.24-3.248-3.485-3.987l-1.426-.475c-1.557-.5-2.033-1-2.033-1.848,0-.977.977-1.532,2.218-1.532a3.567,3.567,0,0,1,2.8,1.373l1.479-1.426a5.123,5.123,0,0,0-4.225-1.9c-2.614,0-4.462,1.453-4.462,3.591,0,1.849,1.135,3.142,3.274,3.829l1.294,0.422c1.716,0.555,2.35,1.188,2.35,2.113,0,1.135-1.03,1.795-2.324,1.795a3.544,3.544,0,0,1-3.38-2.086l-1.848,1a5.244,5.244,0,0,0,5.175,3.062C255.254,955.759,257.181,954.413,257.181,951.825Zm24.156,1.479H271.99c0.449-2.165,2.641-3.248,4.806-4.832,3.063-2.218,4.33-3.8,4.33-6.548,0-3.644-2.667-5.492-5.782-5.492-3.459,0-6.179,2.323-6.179,5.914h2.324a3.62,3.62,0,0,1,3.881-3.7A3.17,3.17,0,0,1,278.8,941.9c0,2.192-1.162,3.169-3.327,4.779-2.773,2.06-6.284,3.908-6.284,7.922v0.9h12.145V953.3Zm3.034,2.191H287.2l4.013-4.99,4.013,4.99h2.8l-5.386-6.68,4.964-6.522h-2.773l-3.617,4.753-3.644-4.753H284.82l4.964,6.522Zm24.552-6.6a6.606,6.606,0,0,0,6.469,6.865,5.787,5.787,0,0,0,4.647-2.3V955.5h2.271v-13.2h-2.271v2.033a5.79,5.79,0,0,0-4.647-2.3A6.607,6.607,0,0,0,308.923,948.894Zm11.3,0a4.51,4.51,0,1,1-4.489-4.779A4.508,4.508,0,0,1,320.224,948.894Zm16.5,2.931c0-1.98-1.241-3.248-3.485-3.987l-1.426-.475c-1.557-.5-2.033-1-2.033-1.848,0-.977.977-1.532,2.218-1.532a3.567,3.567,0,0,1,2.8,1.373l1.479-1.426a5.123,5.123,0,0,0-4.225-1.9c-2.614,0-4.462,1.453-4.462,3.591,0,1.849,1.135,3.142,3.274,3.829l1.294,0.422c1.716,0.555,2.35,1.188,2.35,2.113,0,1.135-1.03,1.795-2.324,1.795a3.544,3.544,0,0,1-3.38-2.086l-1.848,1a5.244,5.244,0,0,0,5.175,3.062C334.8,955.759,336.723,954.413,336.723,951.825Zm21.41,0c0-1.98-1.241-3.248-3.485-3.987l-1.426-.475c-1.558-.5-2.033-1-2.033-1.848,0-.977.977-1.532,2.218-1.532a3.567,3.567,0,0,1,2.8,1.373l1.478-1.426a5.119,5.119,0,0,0-4.224-1.9c-2.614,0-4.462,1.453-4.462,3.591,0,1.849,1.135,3.142,3.274,3.829l1.293,0.422c1.717,0.555,2.35,1.188,2.35,2.113,0,1.135-1.029,1.795-2.323,1.795a3.544,3.544,0,0,1-3.38-2.086l-1.848,1a5.243,5.243,0,0,0,5.175,3.062C356.206,955.759,358.133,954.413,358.133,951.825Zm11.827,3.486v-2.034a5,5,0,0,1-1.61.264c-1.426,0-2.192-.554-2.192-2.244v-6.918h3.8v-2.086h-3.8v-3.67h-2.271v3.67h-2.8v2.086h2.8v7.209a3.716,3.716,0,0,0,4.04,4.039A6.337,6.337,0,0,0,369.96,955.311Zm4.487,0.184h2.271v-6.548c0-3.089,1.822-4.541,3.485-4.541a3.325,3.325,0,0,1,1.241.211v-2.35a4.719,4.719,0,0,0-1.03-.106,3.928,3.928,0,0,0-3.7,2.694v-2.562h-2.271v13.2Zm23.524-6.6a6.9,6.9,0,1,0-6.891,6.865A6.774,6.774,0,0,0,397.971,948.894Zm-11.485,0a4.584,4.584,0,1,1,4.594,4.753A4.537,4.537,0,0,1,386.486,948.894Zm16.314,6.6h2.271v-6.548c0-3.089,1.69-4.832,3.829-4.832,1.848,0,3.115,1.373,3.115,3.591V955.5h2.245v-8.132c0-3.274-2.033-5.334-4.991-5.334a4.67,4.67,0,0,0-4.2,2.3v-2.033H402.8v13.2Zm29.438-.765V942.293h-2.271v2.033a5.616,5.616,0,0,0-4.594-2.3,6.726,6.726,0,0,0,0,13.44,5.634,5.634,0,0,0,4.594-2.324v1.5a4.22,4.22,0,0,1-4.409,4.568A5.647,5.647,0,0,1,420.937,957l-1.584,1.585a7.839,7.839,0,0,0,6.231,2.693C429.334,961.278,432.238,959.139,432.238,954.73Zm-11.01-5.994a4.465,4.465,0,1,1,4.462,4.621A4.4,4.4,0,0,1,421.228,948.736Zm23.864,0.158a6.606,6.606,0,0,0,6.469,6.865,5.786,5.786,0,0,0,4.647-2.3V955.5h2.271v-13.2h-2.271v2.033a5.789,5.789,0,0,0-4.647-2.3A6.607,6.607,0,0,0,445.092,948.894Zm11.3,0a4.51,4.51,0,1,1-4.488-4.779A4.507,4.507,0,0,1,456.393,948.894Zm16.5,2.931c0-1.98-1.241-3.248-3.486-3.987l-1.425-.475c-1.558-.5-2.034-1-2.034-1.848,0-.977.977-1.532,2.218-1.532a3.565,3.565,0,0,1,2.8,1.373l1.479-1.426a5.123,5.123,0,0,0-4.225-1.9c-2.614,0-4.462,1.453-4.462,3.591,0,1.849,1.135,3.142,3.274,3.829l1.294,0.422c1.716,0.555,2.35,1.188,2.35,2.113,0,1.135-1.03,1.795-2.324,1.795a3.544,3.544,0,0,1-3.38-2.086l-1.848,1a5.244,5.244,0,0,0,5.175,3.062C470.965,955.759,472.893,954.413,472.893,951.825Zm12.855,3.67h2.27v-6.548c0-3.089,1.822-4.541,3.486-4.541a3.329,3.329,0,0,1,1.241.211v-2.35a4.725,4.725,0,0,0-1.03-.106,3.929,3.929,0,0,0-3.7,2.694v-2.562h-2.27v13.2Zm9.741-6.6a6.96,6.96,0,0,0,12.78,3.723l-1.8-1.241a4.674,4.674,0,0,1-8.687-2.033h10.826a6.534,6.534,0,0,0,.026-0.686c-0.026-4.225-2.825-6.628-6.284-6.628A6.69,6.69,0,0,0,495.489,948.894Zm6.786-4.858a3.95,3.95,0,0,1,4.04,3.459h-8.37A4.315,4.315,0,0,1,502.275,944.036Zm23.47,10.694V942.293h-2.27v2.033a5.619,5.619,0,0,0-4.6-2.3,6.726,6.726,0,0,0,0,13.44,5.637,5.637,0,0,0,4.6-2.324v1.5a4.22,4.22,0,0,1-4.41,4.568,5.645,5.645,0,0,1-4.62-2.218l-1.585,1.585a7.841,7.841,0,0,0,6.232,2.693C522.841,961.278,525.745,959.139,525.745,954.73Zm-11.01-5.994a4.465,4.465,0,1,1,4.462,4.621A4.4,4.4,0,0,1,514.735,948.736Zm16.684,1.663c0,3.274,1.954,5.36,4.859,5.36a4.541,4.541,0,0,0,4.066-2.3V955.5h2.271v-13.2h-2.271v6.549c0,3.036-1.611,4.831-3.67,4.831-1.822,0-2.984-1.4-2.984-3.617v-7.763h-2.271V950.4Zm17.055,5.1h2.27v-19.8h-2.27v19.8Zm7.127-6.6a6.606,6.606,0,0,0,6.469,6.865,5.786,5.786,0,0,0,4.647-2.3V955.5h2.271v-13.2h-2.271v2.033a5.789,5.789,0,0,0-4.647-2.3A6.607,6.607,0,0,0,555.6,948.894Zm11.3,0a4.51,4.51,0,1,1-4.489-4.779A4.508,4.508,0,0,1,566.9,948.894Zm7.945,6.6h2.271v-6.548c0-3.089,1.821-4.541,3.485-4.541a3.329,3.329,0,0,1,1.241.211v-2.35a4.725,4.725,0,0,0-1.03-.106,3.928,3.928,0,0,0-3.7,2.694v-2.562h-2.271v13.2Zm30.6-3.274-1.98-1.109a4.476,4.476,0,0,1-4.119,2.535,4.754,4.754,0,0,1,0-9.5,4.475,4.475,0,0,1,4.119,2.534l1.98-1.109a6.838,6.838,0,0,0-6.1-3.538,6.865,6.865,0,1,0,0,13.73A6.836,6.836,0,0,0,605.446,952.221Zm17.265-3.327a6.9,6.9,0,1,0-6.891,6.865A6.774,6.774,0,0,0,622.711,948.894Zm-11.485,0a4.584,4.584,0,1,1,4.594,4.753A4.537,4.537,0,0,1,611.226,948.894Zm32.474,6.417v-2.034a5.006,5.006,0,0,1-1.611.264c-1.426,0-2.191-.554-2.191-2.244v-6.918h3.8v-2.086h-3.8v-3.67h-2.271v3.67h-2.271v2.086h2.271v7.209a3.716,3.716,0,0,0,4.04,4.039A6.347,6.347,0,0,0,643.7,955.311Zm-9.242,0v-2.034a5,5,0,0,1-1.61.264c-1.426,0-2.192-.554-2.192-2.244v-6.918h3.222v-2.086h-3.222v-3.67h-2.27v3.67h-2.8v2.086h2.8v7.209a3.715,3.715,0,0,0,4.039,4.039A6.337,6.337,0,0,0,634.458,955.311Zm26.3-6.417a6.905,6.905,0,1,0-6.892,6.865A6.775,6.775,0,0,0,660.754,948.894Zm-11.486,0a4.584,4.584,0,1,1,4.594,4.753A4.537,4.537,0,0,1,649.268,948.894Zm16.315,6.6h2.27v-6.548c0-3.089,1.69-4.832,3.829-4.832,1.848,0,3.116,1.373,3.116,3.591V955.5h2.244v-8.132c0-3.274-2.033-5.334-4.99-5.334a4.671,4.671,0,0,0-4.2,2.3v-2.033h-2.27v13.2Zm20.275-1.769a1.954,1.954,0,1,0-1.954,1.981A1.989,1.989,0,0,0,685.858,953.726Z"/>
  <g id="CTA_black_copy" data-name="CTA_black copy">
    <path class="cls-2" d="M407.993,1009.22H708.011v59.98H407.993v-59.98Z"/>
    <path id="shop_tees" data-name="shop tees" class="cls-3" d="M505.37,1046.66c2.6,0,4.385-1.62,4.4-3.94a3.927,3.927,0,0,0-2.929-3.82l-0.866-.32c-1.3-.49-1.906-0.8-1.906-1.48a1.261,1.261,0,0,1,1.49-.97,2.7,2.7,0,0,1,2.131,1.06l1.8-1.98a5.036,5.036,0,0,0-3.969-1.76c-2.461,0-4.245,1.45-4.245,3.94,0,1.74,1.109,2.99,3.1,3.69l0.867,0.31c1.23,0.43,1.716.88,1.716,1.53a1.257,1.257,0,0,1-1.491,1.06,3.186,3.186,0,0,1-2.547-1.46l-2.114,1.85A5.33,5.33,0,0,0,505.37,1046.66Zm9.426-.22h2.755v-5.05h4.956v5.05h2.755v-12.78h-2.755v5.01h-4.956v-5.01H514.8v12.78Zm21.85,0.22a6.61,6.61,0,1,0-6.36-6.61A6.5,6.5,0,0,0,536.646,1046.66Zm0-2.77a3.845,3.845,0,1,1,3.57-3.84A3.733,3.733,0,0,1,536.646,1043.89Zm19.892-5.85a4.272,4.272,0,0,0-4.333-4.38h-4.176v12.78h2.755v-4.05h1.421A4.253,4.253,0,0,0,556.538,1038.04Zm-2.669,0a1.648,1.648,0,0,1-1.7,1.67h-1.387v-3.35h1.387A1.639,1.639,0,0,1,553.869,1038.04Zm15.715,8.4h2.773V1036.4h3.171v-2.74h-9.08v2.74h3.136v10.04Zm10.743,0h7.8v-2.73h-5.043v-2.29h4v-2.74h-4v-2.28h5.043v-2.74h-7.8v12.78Zm13.012,0h7.8v-2.73H596.1v-2.29h4v-2.74h-4v-2.28h5.043v-2.74h-7.8v12.78Zm16.687,0.22c2.6,0,4.384-1.62,4.4-3.94a3.927,3.927,0,0,0-2.929-3.82l-0.866-.32c-1.3-.49-1.907-0.8-1.907-1.48a1.261,1.261,0,0,1,1.491-.97,2.7,2.7,0,0,1,2.131,1.06l1.8-1.98a5.032,5.032,0,0,0-3.968-1.76c-2.461,0-4.246,1.45-4.246,3.94,0,1.74,1.109,2.99,3.1,3.69l0.867,0.31c1.23,0.43,1.715.88,1.715,1.53a1.256,1.256,0,0,1-1.49,1.06,3.186,3.186,0,0,1-2.547-1.46l-2.115,1.85A5.333,5.333,0,0,0,610.026,1046.66Z"/>
  </g>
  <g id="CTA_black_copy_2" data-name="CTA_black copy 2">
    <path class="cls-2" d="M59.993,1009.22H360.011v59.98H59.993v-59.98Z"/>
    <path id="shop_the_look" data-name="shop the look" class="cls-3" d="M128.356,1046.66c2.6,0,4.384-1.62,4.4-3.94a3.927,3.927,0,0,0-2.929-3.82l-0.866-.32c-1.3-.49-1.907-0.8-1.907-1.48a1.261,1.261,0,0,1,1.491-.97,2.7,2.7,0,0,1,2.131,1.06l1.8-1.98a5.032,5.032,0,0,0-3.968-1.76c-2.461,0-4.246,1.45-4.246,3.94,0,1.74,1.109,2.99,3.1,3.69l0.867,0.31c1.23,0.43,1.715.88,1.715,1.53a1.256,1.256,0,0,1-1.49,1.06,3.186,3.186,0,0,1-2.547-1.46l-2.115,1.85A5.333,5.333,0,0,0,128.356,1046.66Zm9.425-.22h2.756v-5.05h4.956v5.05h2.755v-12.78h-2.755v5.01h-4.956v-5.01h-2.756v12.78Zm21.851,0.22a6.61,6.61,0,1,0-6.36-6.61A6.5,6.5,0,0,0,159.632,1046.66Zm0-2.77a3.845,3.845,0,1,1,3.57-3.84A3.733,3.733,0,0,1,159.632,1043.89Zm19.892-5.85a4.272,4.272,0,0,0-4.333-4.38h-4.176v12.78h2.755v-4.05h1.421A4.253,4.253,0,0,0,179.524,1038.04Zm-2.669,0a1.649,1.649,0,0,1-1.7,1.67H173.77v-3.35h1.387A1.64,1.64,0,0,1,176.855,1038.04Zm15.715,8.4h2.773V1036.4h3.171v-2.74h-9.081v2.74h3.137v10.04Zm10.743,0h2.755v-5.05h4.956v5.05h2.755v-12.78h-2.755v5.01h-4.956v-5.01h-2.755v12.78Zm16.183,0h7.8v-2.73h-5.043v-2.29h4v-2.74h-4v-2.28h5.043v-2.74h-7.8v12.78Zm19.944,0h7.85v-2.73H242.2v-10.05H239.44v12.78Zm17.8,0.22a6.61,6.61,0,1,0-6.36-6.61A6.5,6.5,0,0,0,257.235,1046.66Zm0-2.77a3.845,3.845,0,1,1,3.57-3.84A3.733,3.733,0,0,1,257.235,1043.89Zm17.05,2.77a6.61,6.61,0,1,0-6.36-6.61A6.5,6.5,0,0,0,274.285,1046.66Zm0-2.77a3.845,3.845,0,1,1,3.57-3.84A3.733,3.733,0,0,1,274.285,1043.89Zm11.383,2.55h2.738v-5.72l5.008,5.72h3.535l-5.84-6.64,4.853-6.14h-3.38l-4.176,5.35v-5.35h-2.738v12.78Z"/>
  </g>
  <path id="extra-_soft_tees" data-name="extra- soft tees" class="cls-3" d="M34.139,440.032h43.2V425.441H49.4V413.25H71.576V398.659H49.4V386.468H77.335V371.877h-43.2v68.155Zm104.06,0h17.759L130.52,405.57l23.9-33.693H136.759l-15.454,21.886L105.85,371.877H88.187l24,33.693L86.651,440.032h17.855L121.4,417.473Zm42.146,0H195.7V386.468h17.567V371.877h-50.3v14.591h17.375v53.564Zm48,0h15.263V411.906h2.5l22.654,28.126h18.335L263,409.986c8.639-3.072,13.343-8.735,13.343-17.567,0-11.327-8.256-20.542-21.119-20.542H228.345v68.155Zm15.263-41.085V385.892H253.4c4.512,0,7.776,2.4,7.776,6.527,0,3.936-3.264,6.528-7.776,6.528h-9.791Zm46.753,41.085H306.3l6.048-14.4h28.222l6.047,14.4h15.935l-29.182-68.155H319.542Zm27.55-27.646,8.543-20.543L335,412.386H317.911Zm51.939,0.48h28.222V399.043H369.85v13.823ZM54.489,519.184c14.4,0,24.286-8.64,24.382-21.023,0.1-10.271-6.336-16.8-16.223-20.35l-4.8-1.728c-7.2-2.592-10.559-4.224-10.559-7.872,0-3.551,4.128-5.183,8.255-5.183a15.161,15.161,0,0,1,11.807,5.663l9.983-10.559c-6.336-6.815-13.727-9.407-21.982-9.407-13.631,0-23.518,7.775-23.518,21.022,0,9.312,6.143,15.935,17.183,19.679l4.8,1.632c6.815,2.3,9.5,4.7,9.5,8.159,0,3.264-3.168,5.664-8.255,5.664a17.83,17.83,0,0,1-14.111-7.776l-11.711,9.888C34.523,514.672,43.738,519.184,54.489,519.184Zm72.094,0a35.23,35.23,0,1,0-35.229-35.23A35.315,35.315,0,0,0,126.583,519.184Zm0-14.783c-11.135,0-19.87-9.408-19.87-20.447s8.735-20.446,19.87-20.446c11.039,0,19.775,9.407,19.775,20.446S137.622,504.4,126.583,504.4Zm51.553,13.631H193.4V491.346h20.83V476.755H193.4V464.468h26.686V449.877H178.136v68.155Zm70.367,0h15.359V464.468h17.567V449.877h-50.3v14.591H248.5v53.564Zm-202.077,78H61.785V542.468H79.351V527.877h-50.3v14.591H46.426v53.564Zm48,0h43.2V581.441H109.689V569.25h22.174V554.659H109.689V542.468h27.934V527.877h-43.2v68.155Zm60.576,0h43.2V581.441H170.265V569.25h22.174V554.659H170.265V542.468H198.2V527.877H155v68.155Zm80.926,1.152c14.4,0,24.286-8.64,24.382-21.023,0.1-10.271-6.335-16.8-16.222-20.35l-4.8-1.728c-7.2-2.592-10.559-4.224-10.559-7.872,0-3.551,4.127-5.183,8.255-5.183a15.16,15.16,0,0,1,11.807,5.663l9.984-10.559c-6.336-6.815-13.727-9.407-21.983-9.407-13.631,0-23.518,7.775-23.518,21.022,0,9.312,6.143,15.935,17.183,19.679l4.8,1.632c6.816,2.3,9.5,4.7,9.5,8.159,0,3.264-3.168,5.664-8.256,5.664a17.832,17.832,0,0,1-14.111-7.776l-11.711,9.888C215.962,592.672,225.177,597.184,235.928,597.184Z"/>
  <path id="_2" data-name="2" class="cls-4" d="M190.049,258.181H125.24c4.445-8.423,21.525-17.547,29.48-23.4,19.419-14.271,34.159-29.011,34.159-58.725,0-34.393-25.737-51.941-53.813-51.941-33.691,0-58.959,22.929-58.959,55.684h35.329c-0.234-11,8.657-20.823,22.461-20.823,13.336,0,19.653,8.891,19.653,19.654,0,11.932-11.933,22.46-25.035,31.819C104.183,227.766,75.4,243.441,75.4,281.11v11.932H190.049V258.181Z"/>
</svg>
