<svg id="blazers_copy" data-name="blazers copy" xmlns="http://www.w3.org/2000/svg" width="768" height="1156" viewBox="0 0 768 1156">
  <defs>
    <style>
      .cls-1, .cls-2, .cls-3, .cls-4 {
        fill-rule: evenodd;
      }

      .cls-2 {
        fill: #b03f25;
      }

      .cls-3 {
        fill: #fff;
      }

      .cls-4 {
        fill: #272727;
        opacity: 0.3;
      }
    </style>
  </defs>
  <path id="Light_breathable_fabric_made_to_take_the_heat." data-name="Light, breathable fabric made to take the heat." class="cls-1" d="M70.309,988.237H81.821v-2.324H72.765V969.484H70.309v18.753Zm17.9-18.357a1.6,1.6,0,0,0-1.584-1.611,1.641,1.641,0,0,0-1.637,1.611,1.623,1.623,0,0,0,1.637,1.611A1.578,1.578,0,0,0,88.209,969.88Zm-2.746,18.357h2.271V975.031H85.463v13.206Zm19.933-.766v-12.44h-2.27v2.034a5.617,5.617,0,0,0-4.595-2.3,6.728,6.728,0,0,0,0,13.444,5.638,5.638,0,0,0,4.595-2.325v1.506a4.221,4.221,0,0,1-4.41,4.569,5.647,5.647,0,0,1-4.621-2.218l-1.584,1.585a7.837,7.837,0,0,0,6.231,2.694C102.492,994.022,105.4,991.882,105.4,987.471Zm-11.01-6a4.465,4.465,0,1,1,4.462,4.622A4.4,4.4,0,0,1,94.386,981.476Zm16.341,6.761H113v-6.55c0-3.09,1.69-4.834,3.828-4.834,1.849,0,3.116,1.374,3.116,3.592v7.792h2.244V980.1c0-3.275-2.033-5.335-4.99-5.335a4.666,4.666,0,0,0-4.2,2.3v-8.637h-2.271v19.809Zm23.6-.185v-2.033a5.027,5.027,0,0,1-1.61.264c-1.426,0-2.192-.555-2.192-2.245v-6.921h3.8v-2.086h-3.8v-3.672h-2.27v3.672h-2.8v2.086h2.8v7.211a3.716,3.716,0,0,0,4.039,4.041A6.308,6.308,0,0,0,134.329,988.052Zm6.785-.4a2.257,2.257,0,0,0,.369-1.188,1.954,1.954,0,1,0-3.908,0,1.965,1.965,0,0,0,1.083,1.769l-1.769,3.777h1.5Zm14.757-1.453a5.787,5.787,0,0,0,4.647,2.3,6.879,6.879,0,0,0,0-13.734,5.787,5.787,0,0,0-4.647,2.3v-8.637H153.6v19.809h2.271V986.2Zm8.792-4.569a4.5,4.5,0,1,1-4.488-4.781A4.509,4.509,0,0,1,164.663,981.634Zm6.625,6.6h2.27v-6.55c0-3.09,1.822-4.543,3.486-4.543a3.329,3.329,0,0,1,1.241.211V975a4.722,4.722,0,0,0-1.03-.105,3.929,3.929,0,0,0-3.7,2.694v-2.562h-2.27v13.206Zm9.213-6.6a6.96,6.96,0,0,0,12.78,3.724l-1.8-1.241a4.674,4.674,0,0,1-8.687-2.034h10.826a6.553,6.553,0,0,0,.026-0.687c-0.026-4.226-2.825-6.629-6.284-6.629A6.691,6.691,0,0,0,180.5,981.634Zm6.786-4.86a3.95,3.95,0,0,1,4.04,3.46h-8.37A4.316,4.316,0,0,1,187.287,976.774Zm9.609,4.86a6.607,6.607,0,0,0,6.468,6.867,5.79,5.79,0,0,0,4.648-2.3v2.034h2.27V975.031h-2.27v2.034a5.79,5.79,0,0,0-4.648-2.3A6.607,6.607,0,0,0,196.9,981.634Zm11.3,0a4.51,4.51,0,1,1-4.488-4.781A4.508,4.508,0,0,1,208.2,981.634Zm14.572,6.418v-2.033a5.027,5.027,0,0,1-1.61.264c-1.426,0-2.192-.555-2.192-2.245v-6.921h3.8v-2.086h-3.8v-3.672H216.7v3.672h-2.8v2.086h2.8v7.211a3.716,3.716,0,0,0,4.039,4.041A6.308,6.308,0,0,0,222.768,988.052Zm3.959,0.185H229v-6.55c0-3.09,1.69-4.834,3.829-4.834,1.848,0,3.115,1.374,3.115,3.592v7.792h2.245V980.1c0-3.275-2.033-5.335-4.991-5.335a4.667,4.667,0,0,0-4.2,2.3v-8.637h-2.271v19.809Zm15.576-6.6a6.607,6.607,0,0,0,6.469,6.867,5.788,5.788,0,0,0,4.647-2.3v2.034h2.271V975.031h-2.271v2.034a5.788,5.788,0,0,0-4.647-2.3A6.607,6.607,0,0,0,242.3,981.634Zm11.3,0a4.51,4.51,0,1,1-4.489-4.781A4.509,4.509,0,0,1,253.6,981.634Zm9.687,4.569a5.788,5.788,0,0,0,4.647,2.3,6.879,6.879,0,0,0,0-13.734,5.788,5.788,0,0,0-4.647,2.3v-8.637H261.02v19.809h2.271V986.2Zm8.793-4.569a4.5,4.5,0,1,1-4.489-4.781A4.509,4.509,0,0,1,272.084,981.634Zm6.624,6.6h2.271V968.428h-2.271v19.809Zm6.6-6.6a6.959,6.959,0,0,0,12.779,3.724l-1.8-1.241a4.674,4.674,0,0,1-8.687-2.034H298.43a6.311,6.311,0,0,0,.027-0.687c-0.027-4.226-2.825-6.629-6.284-6.629A6.691,6.691,0,0,0,285.308,981.634Zm6.786-4.86a3.95,3.95,0,0,1,4.039,3.46h-8.37A4.317,4.317,0,0,1,292.094,976.774ZM311,988.237h2.271v-11.12h3.828v-2.086h-3.828V972.6c0-1.664.739-2.245,2.191-2.245a5.293,5.293,0,0,1,1.637.264v-2.008a6,6,0,0,0-2.059-.343,3.771,3.771,0,0,0-4.04,4.094v2.668h-2.8v2.086H311v11.12Zm8.263-6.6a6.608,6.608,0,0,0,6.469,6.867,5.788,5.788,0,0,0,4.647-2.3v2.034h2.271V975.031h-2.271v2.034a5.788,5.788,0,0,0-4.647-2.3A6.608,6.608,0,0,0,319.258,981.634Zm11.3,0a4.51,4.51,0,1,1-4.489-4.781A4.509,4.509,0,0,1,330.559,981.634Zm9.687,4.569a5.79,5.79,0,0,0,4.647,2.3,6.879,6.879,0,0,0,0-13.734,5.79,5.79,0,0,0-4.647,2.3v-8.637h-2.27v19.809h2.27V986.2Zm8.793-4.569a4.5,4.5,0,1,1-4.489-4.781A4.509,4.509,0,0,1,349.039,981.634Zm6.624,6.6h2.271v-6.55c0-3.09,1.822-4.543,3.485-4.543a3.325,3.325,0,0,1,1.241.211V975a4.707,4.707,0,0,0-1.029-.105,3.927,3.927,0,0,0-3.7,2.694v-2.562h-2.271v13.206Zm13.465-18.357a1.6,1.6,0,0,0-1.585-1.611,1.641,1.641,0,0,0-1.637,1.611,1.623,1.623,0,0,0,1.637,1.611A1.579,1.579,0,0,0,369.128,969.88Zm-2.746,18.357h2.27V975.031h-2.27v13.206ZM386,984.962l-1.98-1.109a4.475,4.475,0,0,1-4.119,2.535,4.756,4.756,0,0,1,0-9.508,4.475,4.475,0,0,1,4.119,2.535l1.98-1.109a6.834,6.834,0,0,0-6.1-3.539,6.867,6.867,0,1,0,0,13.734A6.834,6.834,0,0,0,386,984.962Zm11.482,3.275h2.271v-6.55c0-2.985,1.5-4.834,3.644-4.834,1.716,0,2.587,1.479,2.587,3.619v7.765h2.271v-6.55c0-2.985,1.478-4.834,3.617-4.834,1.716,0,2.614,1.479,2.614,3.619v7.765h2.271v-8.109c0-3.222-1.743-5.361-4.621-5.361a4.569,4.569,0,0,0-4.33,2.826,4.15,4.15,0,0,0-4.066-2.826,4.438,4.438,0,0,0-3.987,2.3v-2.034H397.48v13.206Zm23.39-6.6a6.608,6.608,0,0,0,6.469,6.867,5.788,5.788,0,0,0,4.647-2.3v2.034h2.271V975.031h-2.271v2.034a5.788,5.788,0,0,0-4.647-2.3A6.608,6.608,0,0,0,420.87,981.634Zm11.3,0a4.51,4.51,0,1,1-4.489-4.781A4.509,4.509,0,0,1,432.171,981.634Zm6.387,0a6.607,6.607,0,0,0,6.469,6.867,5.788,5.788,0,0,0,4.647-2.3v2.034h2.271V968.428h-2.271v8.637a5.788,5.788,0,0,0-4.647-2.3A6.607,6.607,0,0,0,438.558,981.634Zm11.3,0a4.51,4.51,0,1,1-4.489-4.781A4.509,4.509,0,0,1,449.859,981.634Zm6.387,0a6.959,6.959,0,0,0,12.779,3.724l-1.795-1.241a4.674,4.674,0,0,1-8.687-2.034h10.825a6.311,6.311,0,0,0,.027-0.687c-0.027-4.226-2.825-6.629-6.284-6.629A6.691,6.691,0,0,0,456.246,981.634Zm6.785-4.86a3.95,3.95,0,0,1,4.04,3.46H458.7A4.317,4.317,0,0,1,463.031,976.774Zm24.843,11.278v-2.033a5.038,5.038,0,0,1-1.611.264c-1.426,0-2.192-.555-2.192-2.245v-6.921h3.8v-2.086h-3.8v-3.672H481.8v3.672H479v2.086h2.8v7.211a3.716,3.716,0,0,0,4.04,4.041A6.317,6.317,0,0,0,487.874,988.052Zm16.527-6.418a6.9,6.9,0,1,0-6.891,6.867A6.776,6.776,0,0,0,504.4,981.634Zm-11.486,0a4.584,4.584,0,1,1,4.595,4.754A4.539,4.539,0,0,1,492.915,981.634Zm29.991,6.418v-2.033a5.028,5.028,0,0,1-1.611.264c-1.425,0-2.191-.555-2.191-2.245v-6.921h3.8v-2.086h-3.8v-3.672h-2.271v3.672h-2.8v2.086h2.8v7.211a3.717,3.717,0,0,0,4.04,4.041A6.312,6.312,0,0,0,522.906,988.052Zm2.745-6.418a6.607,6.607,0,0,0,6.469,6.867,5.79,5.79,0,0,0,4.647-2.3v2.034h2.27V975.031h-2.27v2.034a5.79,5.79,0,0,0-4.647-2.3A6.607,6.607,0,0,0,525.651,981.634Zm11.3,0a4.51,4.51,0,1,1-4.488-4.781A4.508,4.508,0,0,1,536.951,981.634Zm7.417,6.6h2.271v-6.6l7.155,6.6h3.063l-7.947-7.369,6.5-5.837H552.4l-5.756,5.15V968.428h-2.271v19.809Zm13.411-6.6a6.959,6.959,0,0,0,12.779,3.724l-1.795-1.241a4.674,4.674,0,0,1-8.687-2.034H570.9a6.553,6.553,0,0,0,.026-0.687c-0.026-4.226-2.825-6.629-6.284-6.629A6.691,6.691,0,0,0,557.779,981.634Zm6.786-4.86a3.949,3.949,0,0,1,4.039,3.46h-8.37A4.317,4.317,0,0,1,564.565,976.774Zm24.842,11.278v-2.033a5.033,5.033,0,0,1-1.611.264c-1.426,0-2.191-.555-2.191-2.245v-6.921h3.8v-2.086h-3.8v-3.672h-2.271v3.672h-2.8v2.086h2.8v7.211a3.717,3.717,0,0,0,4.04,4.041A6.317,6.317,0,0,0,589.407,988.052Zm3.959,0.185h2.27v-6.55c0-3.09,1.69-4.834,3.829-4.834,1.848,0,3.116,1.374,3.116,3.592v7.792h2.244V980.1c0-3.275-2.033-5.335-4.99-5.335a4.668,4.668,0,0,0-4.2,2.3v-8.637h-2.27v19.809Zm15.575-6.6a6.96,6.96,0,0,0,12.78,3.724l-1.8-1.241a4.674,4.674,0,0,1-8.687-2.034h10.826a6.553,6.553,0,0,0,.026-0.687c-0.026-4.226-2.825-6.629-6.284-6.629A6.691,6.691,0,0,0,608.941,981.634Zm6.786-4.86a3.95,3.95,0,0,1,4.04,3.46H611.4A4.316,4.316,0,0,1,615.727,976.774Zm18.136,11.463h2.27v-6.55c0-3.09,1.69-4.834,3.829-4.834,1.848,0,3.115,1.374,3.115,3.592v7.792h2.245V980.1c0-3.275-2.033-5.335-4.991-5.335a4.667,4.667,0,0,0-4.2,2.3v-8.637h-2.27v19.809Zm15.575-6.6a6.96,6.96,0,0,0,12.78,3.724l-1.8-1.241a4.674,4.674,0,0,1-8.687-2.034h10.826a6.553,6.553,0,0,0,.026-0.687c-0.026-4.226-2.825-6.629-6.284-6.629A6.691,6.691,0,0,0,649.438,981.634Zm6.786-4.86a3.95,3.95,0,0,1,4.04,3.46h-8.37A4.316,4.316,0,0,1,656.224,976.774Zm9.608,4.86A6.608,6.608,0,0,0,672.3,988.5a5.787,5.787,0,0,0,4.647-2.3v2.034h2.271V975.031h-2.271v2.034a5.787,5.787,0,0,0-4.647-2.3A6.608,6.608,0,0,0,665.832,981.634Zm11.3,0a4.51,4.51,0,1,1-4.488-4.781A4.509,4.509,0,0,1,677.133,981.634Zm14.572,6.418v-2.033a5.027,5.027,0,0,1-1.61.264c-1.426,0-2.192-.555-2.192-2.245v-6.921h3.8v-2.086h-3.8v-3.672h-2.271v3.672h-2.8v2.086h2.8v7.211a3.717,3.717,0,0,0,4.04,4.041A6.308,6.308,0,0,0,691.705,988.052Zm7.1-1.584a1.954,1.954,0,1,0-1.954,1.981A1.989,1.989,0,0,0,698.806,986.468Z"/>
  <g id="CTA_black_copy" data-name="CTA_black copy">
    <path class="cls-2" d="M407.993,1041.98H708.011v60.01H407.993v-60.01Z"/>
    <path id="shop_blazers" data-name="shop blazers" class="cls-3" d="M482.369,1079.43c2.6,0,4.384-1.62,4.4-3.94a3.925,3.925,0,0,0-2.928-3.82l-0.867-.32c-1.3-.49-1.906-0.79-1.906-1.48a1.261,1.261,0,0,1,1.49-.97,2.7,2.7,0,0,1,2.132,1.06l1.8-1.98a5.034,5.034,0,0,0-3.968-1.76c-2.461,0-4.246,1.45-4.246,3.94,0,1.75,1.109,2.99,3.1,3.69l0.866,0.31c1.231,0.43,1.716.88,1.716,1.53a1.256,1.256,0,0,1-1.49,1.06,3.188,3.188,0,0,1-2.548-1.46l-2.114,1.86A5.324,5.324,0,0,0,482.369,1079.43Zm9.425-.21h2.755v-5.06h4.957v5.06h2.755v-12.79h-2.755v5.01h-4.957v-5.01h-2.755v12.79Zm21.85,0.21a6.61,6.61,0,1,0-6.359-6.61A6.5,6.5,0,0,0,513.644,1079.43Zm0-2.77a3.845,3.845,0,1,1,3.57-3.84A3.727,3.727,0,0,1,513.644,1076.66Zm19.892-5.85a4.272,4.272,0,0,0-4.332-4.38h-4.176v12.79h2.755v-4.05H529.2A4.261,4.261,0,0,0,533.536,1070.81Zm-2.669,0a1.648,1.648,0,0,1-1.7,1.67h-1.386v-3.35h1.386A1.639,1.639,0,0,1,530.867,1070.81Zm14,8.41h5.407a3.71,3.71,0,0,0,3.743-3.77,3.351,3.351,0,0,0-1.751-3.02,3.072,3.072,0,0,0,.884-2.2,3.729,3.729,0,0,0-3.656-3.8h-4.627v12.79Zm2.755-7.62v-2.56h1.56a1.279,1.279,0,0,1,1.282,1.3,1.258,1.258,0,0,1-1.282,1.26h-1.56Zm0,4.99v-2.56h2.409a1.277,1.277,0,0,1,1.3,1.28,1.261,1.261,0,0,1-1.283,1.28h-2.426Zm11.366,2.63h7.851v-2.74h-5.1v-10.05h-2.756v12.79Zm11.367,0h2.876l1.092-2.7h5.1l1.092,2.7h2.876l-5.268-12.79h-2.5Zm4.973-5.19,1.543-3.85,1.542,3.85h-3.085Zm11.834,5.19h9.5v-2.74h-5.771l5.667-8.09v-1.96h-9.306v2.74h5.563l-5.65,8.08v1.97Zm14.59,0h7.8v-2.74h-5.043v-2.29h4v-2.73h-4v-2.29h5.043v-2.74h-7.8v12.79Zm13.013,0h2.755v-5.28h0.45l4.09,5.28h3.31l-4.35-5.64a3.286,3.286,0,0,0,2.409-3.29,3.705,3.705,0,0,0-3.812-3.86h-4.852v12.79Zm2.755-7.71v-2.45h1.768a1.243,1.243,0,0,1,1.4,1.23,1.263,1.263,0,0,1-1.4,1.22H617.52Zm15.508,7.92c2.6,0,4.384-1.62,4.4-3.94a3.925,3.925,0,0,0-2.928-3.82l-0.867-.32c-1.3-.49-1.906-0.79-1.906-1.48a1.261,1.261,0,0,1,1.49-.97,2.7,2.7,0,0,1,2.132,1.06l1.8-1.98a5.034,5.034,0,0,0-3.968-1.76c-2.461,0-4.246,1.45-4.246,3.94,0,1.75,1.109,2.99,3.1,3.69l0.866,0.31c1.231,0.43,1.716.88,1.716,1.53a1.256,1.256,0,0,1-1.49,1.06,3.188,3.188,0,0,1-2.548-1.46l-2.114,1.86A5.324,5.324,0,0,0,633.028,1079.43Z"/>
  </g>
  <g id="CTA_black_copy_2" data-name="CTA_black copy 2">
    <path class="cls-2" d="M59.993,1041.98H360.011v60.01H59.993v-60.01Z"/>
    <path id="shop_the_look" data-name="shop the look" class="cls-3" d="M128.356,1079.43c2.6,0,4.384-1.62,4.4-3.94a3.927,3.927,0,0,0-2.929-3.82l-0.866-.32c-1.3-.49-1.907-0.79-1.907-1.48a1.261,1.261,0,0,1,1.491-.97,2.7,2.7,0,0,1,2.131,1.06l1.8-1.98a5.032,5.032,0,0,0-3.968-1.76c-2.461,0-4.246,1.45-4.246,3.94,0,1.75,1.109,2.99,3.1,3.69l0.867,0.31c1.23,0.43,1.715.88,1.715,1.53a1.256,1.256,0,0,1-1.49,1.06,3.186,3.186,0,0,1-2.547-1.46l-2.115,1.86A5.325,5.325,0,0,0,128.356,1079.43Zm9.425-.21h2.756v-5.06h4.956v5.06h2.755v-12.79h-2.755v5.01h-4.956v-5.01h-2.756v12.79Zm21.851,0.21a6.61,6.61,0,1,0-6.36-6.61A6.5,6.5,0,0,0,159.632,1079.43Zm0-2.77a3.845,3.845,0,1,1,3.57-3.84A3.727,3.727,0,0,1,159.632,1076.66Zm19.892-5.85a4.272,4.272,0,0,0-4.333-4.38h-4.176v12.79h2.755v-4.05h1.421A4.262,4.262,0,0,0,179.524,1070.81Zm-2.669,0a1.649,1.649,0,0,1-1.7,1.67H173.77v-3.35h1.387A1.64,1.64,0,0,1,176.855,1070.81Zm15.715,8.41h2.773v-10.05h3.171v-2.74h-9.081v2.74h3.137v10.05Zm10.743,0h2.755v-5.06h4.956v5.06h2.755v-12.79h-2.755v5.01h-4.956v-5.01h-2.755v12.79Zm16.183,0h7.8v-2.74h-5.043v-2.29h4v-2.73h-4v-2.29h5.043v-2.74h-7.8v12.79Zm19.944,0h7.85v-2.74H242.2v-10.05H239.44v12.79Zm17.8,0.21a6.61,6.61,0,1,0-6.36-6.61A6.5,6.5,0,0,0,257.235,1079.43Zm0-2.77a3.845,3.845,0,1,1,3.57-3.84A3.727,3.727,0,0,1,257.235,1076.66Zm17.05,2.77a6.61,6.61,0,1,0-6.36-6.61A6.5,6.5,0,0,0,274.285,1079.43Zm0-2.77a3.845,3.845,0,1,1,3.57-3.84A3.727,3.727,0,0,1,274.285,1076.66Zm11.383,2.56h2.738v-5.73l5.008,5.73h3.535l-5.84-6.65,4.853-6.14h-3.38l-4.176,5.35v-5.35h-2.738v12.79Z"/>
  </g>
  <path id="summer-_weight_blazers" data-name="summer- weight blazers" class="cls-2" d="M307.689,288.884c14.4,0,24.286-8.643,24.382-21.03,0.1-10.275-6.335-16.8-16.223-20.358l-4.8-1.728c-7.2-2.593-10.559-4.225-10.559-7.874,0-3.553,4.127-5.186,8.255-5.186a15.158,15.158,0,0,1,11.807,5.666l9.983-10.563c-6.335-6.818-13.727-9.411-21.982-9.411-13.631,0-23.518,7.779-23.518,21.03,0,9.315,6.143,15.941,17.182,19.686l4.8,1.632c6.816,2.305,9.5,4.7,9.5,8.162,0,3.265-3.167,5.666-8.255,5.666a17.83,17.83,0,0,1-14.111-7.778l-11.711,9.89C287.723,284.37,296.938,288.884,307.689,288.884Zm67.966,0c16.319,0,28.03-11.139,28.03-28.136V219.553H388.423V260.94c0,8.162-5.184,13.156-12.768,13.156s-12.767-4.994-12.767-13.156V219.553H347.626v41.195C347.626,277.745,359.241,288.884,375.655,288.884Zm82.655-15.653,19.87-27.559v42.059h15.359V219.553H479.62l-21.31,29.384L437,219.553H423.08v68.178h15.263V245.672Zm90.622,0L568.8,245.672v42.059h15.359V219.553H570.243l-21.311,29.384-21.31-29.384H513.7v68.178h15.263V245.672Zm55.394,14.5h43.2v-14.6H619.589V260.94h22.174v-14.6H619.589V234.149h27.934v-14.6h-43.2v68.178Zm60.576,0h15.263V259.6h2.5l22.655,28.135h18.334l-24.094-30.056C708.2,254.6,712.9,248.937,712.9,240.1c0-11.331-8.255-20.549-21.118-20.549H664.9v68.178Zm15.263-41.1V233.573h9.791c4.512,0,7.775,2.4,7.775,6.529,0,3.937-3.263,6.53-7.775,6.53h-9.791Zm49.344,13.924h28.222V246.728H729.509v13.828ZM341,365.758h14.5l15.838-68.178H355.014L345.7,340.792l-19.2-44.365-19.1,44.365L298.09,297.58H281.771l15.743,68.178h14.5l14.5-33.417Zm44.739,0h43.2v-14.6H401V338.967h22.174v-14.6H401V312.176h27.934v-14.6h-43.2v68.178Zm60.576,0h15.263V297.58H446.314v68.178Zm68.733,1.153c11.039,0,21.886-3.265,27.934-10.083V324.467H514.759v14.308H528.1v10.083c-2.88,2.3-7.872,3.265-13.247,3.265-13.343,0-21.5-8.835-21.5-20.454,0-11.043,8.16-20.454,20.543-20.454a22.632,22.632,0,0,1,17.183,7.3l10.751-10.466c-6.528-7.2-15.839-11.62-27.934-11.62-21.119,0-35.9,15.845-35.9,35.242C477.993,351.643,493.832,366.911,515.047,366.911Zm45.7-1.153h15.263V338.775h27.454v26.983h15.262V297.58H603.461v26.695H576.007V297.58H560.744v68.178Zm90.431,0h15.359V312.176H684.1v-14.6H633.8v14.6h17.375v53.582ZM287.339,443.785h29.949c11.712,0,20.735-8.834,20.735-20.069a17.816,17.816,0,0,0-9.7-16.132,16.052,16.052,0,0,0,4.9-11.716,20.261,20.261,0,0,0-20.254-20.261h-25.63v68.178ZM302.6,403.166V389.531h8.64a6.928,6.928,0,0,1,7.1,6.913,6.833,6.833,0,0,1-7.1,6.722H302.6Zm0,26.6V416.13h13.343a6.935,6.935,0,0,1,7.2,6.818,6.851,6.851,0,0,1-7.1,6.818H302.6Zm51.457,14.019h43.485v-14.6H369.321V375.607H354.058v68.178Zm51.455,0h15.935l6.048-14.4h28.222l6.047,14.4H477.7l-29.182-68.178H434.7Zm27.55-27.655,8.544-20.55,8.543,20.55H433.063Zm54.05,27.655h52.6v-14.6H507.752l31.389-43.115V375.607H487.593v14.6h30.814l-31.294,43.116v10.466Zm69.311,0h43.2v-14.6H571.687V416.994h22.174V402.4H571.687V390.2h27.934v-14.6h-43.2v68.178Zm60.576,0h15.263V415.65h2.5l22.654,28.135h18.335l-24.1-30.056c8.64-3.073,13.343-8.738,13.343-17.573,0-11.331-8.255-20.549-21.118-20.549H617v68.178Zm15.263-41.1V389.627h9.791c4.512,0,7.775,2.4,7.775,6.529,0,3.937-3.263,6.53-7.775,6.53h-9.791Zm74.4,42.252c14.4,0,24.286-8.643,24.382-21.03,0.1-10.275-6.335-16.805-16.222-20.358l-4.8-1.728c-7.2-2.593-10.559-4.225-10.559-7.874,0-3.553,4.127-5.186,8.255-5.186a15.158,15.158,0,0,1,11.807,5.666l9.983-10.563c-6.335-6.818-13.727-9.411-21.982-9.411-13.631,0-23.518,7.779-23.518,21.03,0,9.315,6.143,15.941,17.183,19.686l4.8,1.632c6.816,2.305,9.5,4.7,9.5,8.162,0,3.265-3.167,5.666-8.255,5.666a17.83,17.83,0,0,1-14.111-7.778l-11.711,9.89C686.7,440.424,695.91,444.938,706.661,444.938Z"/>
  <path id="_3" data-name="3" class="cls-4" d="M355.836,186.48c35.095,0,58.492-20.83,58.492-50.086,0-18.724-10.763-31.362-21.993-36.745a46.346,46.346,0,0,0,17.313-35.809c0-25.979-18.951-48.916-54.514-48.916-29.012,0-58.491,20.362-58.491,55.7h35.329C331.738,59.393,341.1,49.8,355.134,49.8c10.763,0,19.186,7.021,18.952,17.085C373.852,77.414,367.067,84.9,352.327,84.9H339.693v28.319h14.5c14.974,0,24.8,8.192,24.567,20.129-0.234,10.766-9.359,18.255-22.929,18.255-15.208,0-25.736-7.255-27.374-22.468H293.367C294.771,167.288,324.953,186.48,355.836,186.48Z"/>
</svg>
