<svg id="shirt_copy" data-name="shirt copy" xmlns="http://www.w3.org/2000/svg" width="720" height="108" viewBox="0 0 720 108">
  <defs>
    <style>
      .cls-1 {
        fill: #b03f25;
        fill-rule: evenodd;
      }
    </style>
  </defs>
  <g id="layer2">
    <path id="Go_with_the_flow_in_a_linen_shirt._It_s_breezy_and_lightweight" data-name="Go with the flow in a linen shirt.  It’s breezy and lightweight" class="cls-1" d="M262.452,11.871h-5.131a1.859,1.859,0,0,1,.72,1.59v0.36l-0.48,3.931a5.276,5.276,0,0,1-4.051,1.56c-3.421,0-6.241-2.761-6.241-7.922,0-5.941,3.15-9.632,7.8-9.632a6.465,6.465,0,0,1,6.421,4.291V1.759c-1.26-.75-3.06-1.62-6.9-1.62-5.911,0-10.922,4.291-10.922,11.4,0,5.581,3.331,9.482,9.512,9.482a16.563,16.563,0,0,0,8.011-2.521,1.63,1.63,0,0,1-.3-0.99c0-.09.03-0.18,0.03-0.27l0.36-3.211A2.476,2.476,0,0,1,262.452,11.871Zm15.778,0.45c0-3.781-2.49-5.851-5.581-5.851-4.8,0-7.411,4.561-7.411,8.672,0,3.751,2.46,5.881,5.581,5.881C275.74,21.023,278.23,16.552,278.23,12.321Zm-3.18.03c0,3.481-1.26,7.291-3.871,7.291-1.5,0-2.76-1.92-2.76-4.5,0-3.421,1.26-7.291,3.84-7.291C273.79,7.85,275.05,9.77,275.05,12.351Zm33.242-1.47c0-3.3-1.951-4.771-3.6-4.771a3.238,3.238,0,0,0-2.281.75c1.291,0.12,2.911,1.62,2.911,4.8,0,5.881-3.871,7.291-3.871,7.291L300.01,9.92c-0.24-1.5-.36-3.061-0.36-3.061h-1.53a111.755,111.755,0,0,1-4.5,10.862L292.539,9.8a7.853,7.853,0,0,1-.09-1.17c0-1.11.39-1.59,0.93-1.77h-5.431c0.6,0.24.99,0.72,1.26,2.371l1.77,11.822h3l3.451-8.492,1.38,8.492C304.631,21.053,308.292,14.811,308.292,10.881ZM316.6,2.269a1.786,1.786,0,1,0-1.8,1.8A1.812,1.812,0,0,0,316.6,2.269Zm-0.87,4.2-4.141.72a1.2,1.2,0,0,1,.66,1.38,10.057,10.057,0,0,1-.18,1.65l-0.36,2.431a54.366,54.366,0,0,0-.72,6.6,1.49,1.49,0,0,0,1.68,1.68c0.36,0,2.281-.06,2.731-0.15-0.81-.39-1.05-0.9-1.05-3.241a53.878,53.878,0,0,1,.63-6.121ZM327.64,6.86h-3.961l0.57-3.181L318.908,8.45h1.5l-1.29,7.892a6.771,6.771,0,0,0-.09,1.05c0,2.49,1.38,3.631,3.631,3.631a3.735,3.735,0,0,0,3.9-2.911,3.259,3.259,0,0,1-2.4,1.05c-0.81,0-1.92-.36-1.92-2.31a5.072,5.072,0,0,1,.09-0.9l1.08-7.5H327.4Zm15.181,13.923c-0.81-.39-1.02-0.9-1.02-3.241,0-1.71.39-5.011,0.39-5.971,0-3.541-1.741-5.1-4.171-5.1a4.38,4.38,0,0,0-3.841,2.22l1.41-8.642-4.2.75c0.39,0.09.6,0.57,0.6,1.47a13.535,13.535,0,0,1-.21,2.19L329.558,18.8c-0.18,1.29-.51,1.74-0.99,1.98h4.621a1.641,1.641,0,0,1-.57-1.5,5.336,5.336,0,0,1,.06-0.93l1.23-7.861a3.314,3.314,0,0,1,2.7-1.95c1.44,0,2.43.87,2.43,3.031,0,2.371-.45,5.281-0.45,7.681a1.4,1.4,0,0,0,1.56,1.68C340.51,20.933,342.4,20.873,342.821,20.783ZM361.27,6.86h-3.961l0.57-3.181L352.538,8.45h1.5l-1.29,7.892a6.771,6.771,0,0,0-.09,1.05c0,2.49,1.38,3.631,3.631,3.631a3.733,3.733,0,0,0,3.9-2.911,3.255,3.255,0,0,1-2.4,1.05c-0.81,0-1.921-.36-1.921-2.31a5.072,5.072,0,0,1,.09-0.9l1.081-7.5h3.99Zm15.181,13.923c-0.811-.39-1.021-0.9-1.021-3.241,0-1.71.39-5.011,0.39-5.971,0-3.541-1.74-5.1-4.17-5.1a4.38,4.38,0,0,0-3.841,2.22l1.41-8.642-4.2.75c0.39,0.09.6,0.57,0.6,1.47a13.535,13.535,0,0,1-.21,2.19L363.188,18.8c-0.18,1.29-.51,1.74-0.99,1.98h4.621a1.641,1.641,0,0,1-.57-1.5,5.336,5.336,0,0,1,.06-0.93l1.23-7.861a3.314,3.314,0,0,1,2.7-1.95c1.441,0,2.431.87,2.431,3.031,0,2.371-.45,5.281-0.45,7.681a1.4,1.4,0,0,0,1.56,1.68C374.14,20.933,376.03,20.873,376.451,20.783Zm15.209-7.741c0-4.321-1.92-6.571-5.431-6.571-3.9,0-6.961,3.421-6.961,7.952,0,4.111,2.46,6.6,6.151,6.6a6.2,6.2,0,0,0,5.941-4.831,6.768,6.768,0,0,1-4.861,2.64c-1.89,0-4.021-1.26-4.021-4.531a5.8,5.8,0,0,1,.12-1.26h9.062Zm-2.91-1.41h-5.912c0.541-2.25,1.711-3.811,3.3-3.811C388.27,7.82,388.75,10.131,388.75,11.631Zm22.26-7.772V0.919a4.087,4.087,0,0,0-2.821-.87c-2.64,0-4.2,1.32-4.771,5.161l-0.24,1.68H401.8l-0.24,1.47h1.38l-1.38,9.272c-0.84,5.551-2.911,6.061-3.841,6.241a1.951,1.951,0,0,0,1.95,1.2c2.251,0,4.171-1.47,4.921-6.721L406,8.36h3.81l0.241-1.47h-3.841l0.33-2.4c0.24-1.56.66-3,2.13-3C410.229,1.489,411.01,3.859,411.01,3.859Zm7.679-3.721-4.171.72a1.182,1.182,0,0,1,.66,1.35,8.673,8.673,0,0,1-.15,1.59l-1.411,9.032a52.22,52.22,0,0,0-.72,6.451,1.49,1.49,0,0,0,1.711,1.65c0.36,0,2.28-.06,2.7-0.15-0.81-.36-1.02-0.87-1.02-3.18a45.489,45.489,0,0,1,.63-5.971ZM433.75,12.321c0-3.781-2.49-5.851-5.581-5.851-4.8,0-7.412,4.561-7.412,8.672,0,3.751,2.461,5.881,5.582,5.881C431.26,21.023,433.75,16.552,433.75,12.321Zm-3.181.03c0,3.481-1.26,7.291-3.87,7.291-1.5,0-2.761-1.92-2.761-4.5,0-3.421,1.26-7.291,3.841-7.291C429.309,7.85,430.569,9.77,430.569,12.351Zm25.592-1.47c0-3.3-1.95-4.771-3.6-4.771a3.235,3.235,0,0,0-2.281.75c1.29,0.12,2.911,1.62,2.911,4.8,0,5.881-3.871,7.291-3.871,7.291L447.88,9.92c-0.24-1.5-.36-3.061-0.36-3.061h-1.531a111.175,111.175,0,0,1-4.5,10.862L440.408,9.8a7.989,7.989,0,0,1-.09-1.17c0-1.11.39-1.59,0.93-1.77h-5.431c0.6,0.24.99,0.72,1.261,2.371l1.77,11.822h3l3.451-8.492,1.38,8.492C452.5,21.053,456.161,14.811,456.161,10.881Zm15.477-8.612a1.785,1.785,0,1,0-1.8,1.8A1.812,1.812,0,0,0,471.638,2.269Zm-0.87,4.2-4.141.72a1.2,1.2,0,0,1,.661,1.38,10.057,10.057,0,0,1-.18,1.65l-0.361,2.431a54.366,54.366,0,0,0-.72,6.6,1.49,1.49,0,0,0,1.681,1.68c0.36,0,2.28-.06,2.73-0.15-0.81-.39-1.05-0.9-1.05-3.241a53.878,53.878,0,0,1,.63-6.121ZM487.3,20.783c-0.81-.39-1.02-0.9-1.02-3.241,0-1.71.42-5.011,0.42-5.971,0-3.541-1.771-5.1-4.2-5.1a4.4,4.4,0,0,0-3.871,2.28l0.33-2.31-4.081.72c0.33,0.12.631,0.6,0.631,1.68a13.589,13.589,0,0,1-.12,1.38L474.067,18.8c-0.21,1.29-.54,1.74-0.99,1.98h4.591a1.641,1.641,0,0,1-.57-1.5,5.68,5.68,0,0,1,.09-0.93l1.2-7.861a3.314,3.314,0,0,1,2.7-1.95c1.47,0,2.46.99,2.46,3.031,0,2.371-.48,5.281-0.48,7.681a1.41,1.41,0,0,0,1.56,1.68C484.989,20.933,486.88,20.873,487.3,20.783ZM510.31,6.47l-3.181.96a5.753,5.753,0,0,0-3.181-.96c-3.15,0-7.021,2.34-7.021,9.152,0,2.761,1.08,5.4,4.351,5.4a5.637,5.637,0,0,0,3.961-1.74,1.388,1.388,0,0,0,1.56,1.65c0.36,0,2.371-.06,2.821-0.15-0.841-.39-1.051-0.9-1.051-3.241A75.868,75.868,0,0,1,510.31,6.47ZM506.529,9.5c-0.12.75-.48,2.911-0.57,3.451-0.24,1.44-.51,3.181-0.66,4.831a3.958,3.958,0,0,1-2.611,1.32c-0.93,0-2.55-.84-2.55-3.841,0-3.06,1.38-7.351,4.261-7.351A2.211,2.211,0,0,1,506.529,9.5Zm18.959-9.362-4.171.72a1.182,1.182,0,0,1,.66,1.35,8.673,8.673,0,0,1-.15,1.59l-1.41,9.032a52.22,52.22,0,0,0-.72,6.451,1.489,1.489,0,0,0,1.71,1.65c0.36,0,2.281-.06,2.7-0.15-0.81-.36-1.021-0.87-1.021-3.18a45.367,45.367,0,0,1,.631-5.971Zm8.13,2.13a1.786,1.786,0,1,0-1.8,1.8A1.812,1.812,0,0,0,533.618,2.269Zm-0.87,4.2-4.141.72a1.2,1.2,0,0,1,.66,1.38,10.057,10.057,0,0,1-.18,1.65l-0.36,2.431a54.366,54.366,0,0,0-.72,6.6,1.49,1.49,0,0,0,1.68,1.68c0.36,0,2.281-.06,2.731-0.15-0.81-.39-1.05-0.9-1.05-3.241a53.878,53.878,0,0,1,.63-6.121Zm16.531,14.313c-0.81-.39-1.02-0.9-1.02-3.241,0-1.71.42-5.011,0.42-5.971,0-3.541-1.77-5.1-4.2-5.1a4.4,4.4,0,0,0-3.87,2.28l0.33-2.31-4.081.72c0.33,0.12.63,0.6,0.63,1.68a13.589,13.589,0,0,1-.12,1.38l-1.32,8.582c-0.21,1.29-.54,1.74-0.99,1.98h4.591a1.641,1.641,0,0,1-.571-1.5,5.68,5.68,0,0,1,.09-0.93l1.2-7.861a3.314,3.314,0,0,1,2.7-1.95c1.471,0,2.461.99,2.461,3.031,0,2.371-.48,5.281-0.48,7.681a1.41,1.41,0,0,0,1.56,1.68C546.969,20.933,548.859,20.873,549.279,20.783Zm15.541-7.741c0-4.321-1.921-6.571-5.431-6.571-3.9,0-6.962,3.421-6.962,7.952,0,4.111,2.461,6.6,6.151,6.6a6.2,6.2,0,0,0,5.942-4.831,6.772,6.772,0,0,1-4.861,2.64c-1.891,0-4.021-1.26-4.021-4.531a5.8,5.8,0,0,1,.12-1.26h9.062Zm-2.911-1.41H556c0.54-2.25,1.71-3.811,3.3-3.811C561.429,7.82,561.909,10.131,561.909,11.631Zm18.9,9.152c-0.81-.39-1.02-0.9-1.02-3.241,0-1.71.42-5.011,0.42-5.971,0-3.541-1.771-5.1-4.2-5.1a4.4,4.4,0,0,0-3.871,2.28l0.33-2.31-4.081.72c0.33,0.12.63,0.6,0.63,1.68a13.589,13.589,0,0,1-.12,1.38l-1.32,8.582c-0.21,1.29-.54,1.74-0.99,1.98h4.591a1.641,1.641,0,0,1-.57-1.5,5.68,5.68,0,0,1,.09-0.93l1.2-7.861a3.314,3.314,0,0,1,2.7-1.95c1.47,0,2.46.99,2.46,3.031,0,2.371-.48,5.281-0.48,7.681a1.41,1.41,0,0,0,1.56,1.68C578.5,20.933,580.39,20.873,580.81,20.783ZM598.989,7.4a6.419,6.419,0,0,0-3.571-.93c-2.07,0-4.261,1.2-4.261,3.961a4.754,4.754,0,0,0,2.01,3.451c1.261,1.08,2.371,1.98,2.371,3.391a2.039,2.039,0,0,1-2.16,2.16c-1.561,0-2.641-1.26-3.061-3.571l-0.27,3.721a4.913,4.913,0,0,0,3.9,1.44c2.22,0,4.891-1.23,4.891-4.231,0-1.89-1.411-3.271-3-4.561-1.2-.96-1.65-1.65-1.65-2.611a1.726,1.726,0,0,1,1.86-1.77c1.86,0,2.491,1.92,2.821,3Zm16.53,13.383c-0.81-.39-1.02-0.9-1.02-3.241,0-1.71.39-5.011,0.39-5.971,0-3.541-1.74-5.1-4.171-5.1a4.38,4.38,0,0,0-3.84,2.22l1.41-8.642-4.2.75c0.39,0.09.6,0.57,0.6,1.47a13.535,13.535,0,0,1-.21,2.19L602.257,18.8c-0.18,1.29-.51,1.74-0.991,1.98h4.621a1.641,1.641,0,0,1-.57-1.5,5.336,5.336,0,0,1,.06-0.93l1.231-7.861a3.314,3.314,0,0,1,2.7-1.95c1.44,0,2.431.87,2.431,3.031,0,2.371-.451,5.281-0.451,7.681a1.4,1.4,0,0,0,1.561,1.68C613.209,20.933,615.1,20.873,615.519,20.783Zm8.788-18.514a1.785,1.785,0,1,0-1.8,1.8A1.812,1.812,0,0,0,624.307,2.269Zm-0.87,4.2-4.141.72a1.2,1.2,0,0,1,.661,1.38,10.057,10.057,0,0,1-.18,1.65l-0.361,2.431a54.366,54.366,0,0,0-.72,6.6,1.49,1.49,0,0,0,1.681,1.68c0.36,0,2.28-.06,2.73-0.15-0.81-.39-1.05-0.9-1.05-3.241a53.878,53.878,0,0,1,.63-6.121Zm13.441,3.721c0-2.61-.81-3.721-2.58-3.721-2.22,0-3.241,2.7-3.241,2.7l0.42-2.7-4.08.72a1.657,1.657,0,0,1,.6,1.59,8.71,8.71,0,0,1-.12,1.44L626.556,18.8c-0.21,1.41-.54,1.74-1.02,1.98h4.681a1.707,1.707,0,0,1-.51-1.5c0-.27.03-0.6,0.06-0.93l0.81-5.311c0.27-1.74,1.35-4.081,3.541-4.081A3.505,3.505,0,0,1,636.878,10.19ZM648.037,6.86h-3.96l0.57-3.181L639.306,8.45h1.5l-1.29,7.892a6.771,6.771,0,0,0-.09,1.05c0,2.49,1.38,3.631,3.631,3.631a3.733,3.733,0,0,0,3.9-2.911,3.255,3.255,0,0,1-2.4,1.05c-0.81,0-1.921-.36-1.921-2.31a5.072,5.072,0,0,1,.09-0.9l1.081-7.5H647.8Zm5.64,12.3a1.831,1.831,0,1,0-1.831,1.86A1.838,1.838,0,0,0,653.677,19.162ZM250.9,40.379h-5.041a1.657,1.657,0,0,1,.66,1.53,4.729,4.729,0,0,1-.09.84l-2.46,15.663c-0.24,1.47-.63,2.13-1.11,2.371H247.9a1.657,1.657,0,0,1-.66-1.53,4.728,4.728,0,0,1,.09-0.84l2.46-15.663C250.029,41.279,250.419,40.619,250.9,40.379ZM261.28,46.86h-3.961l0.57-3.181-5.341,4.771h1.5l-1.29,7.892a6.77,6.77,0,0,0-.09,1.05c0,2.491,1.38,3.631,3.631,3.631a3.735,3.735,0,0,0,3.9-2.911,3.26,3.26,0,0,1-2.4,1.05c-0.81,0-1.92-.36-1.92-2.31a5.072,5.072,0,0,1,.09-0.9l1.08-7.5h3.991Zm6.6-4.411c0-1.56-.75-2.4-1.86-2.4a1.844,1.844,0,0,0-1.831,1.86,1.713,1.713,0,0,0,1.711,1.8,1.632,1.632,0,0,0,.33-0.06,4.908,4.908,0,0,1-.03.6,3.467,3.467,0,0,1-1.8,2.881c-0.15.03-.21,0.12-0.18,0.15a0.2,0.2,0,0,0,.18.09C266.109,47.16,267.879,44.549,267.879,42.449ZM276.31,47.4a6.413,6.413,0,0,0-3.57-.93c-2.071,0-4.261,1.2-4.261,3.961a4.754,4.754,0,0,0,2.01,3.451c1.26,1.08,2.371,1.98,2.371,3.391a2.04,2.04,0,0,1-2.161,2.16c-1.56,0-2.64-1.26-3.061-3.571l-0.27,3.721a4.916,4.916,0,0,0,3.9,1.44c2.221,0,4.891-1.23,4.891-4.231,0-1.89-1.41-3.271-3-4.561-1.2-.96-1.651-1.65-1.651-2.611a1.726,1.726,0,0,1,1.861-1.77c1.86,0,2.49,1.92,2.82,3Zm22.471,4.861c0-3.331-1.471-5.821-4.411-5.821a5.15,5.15,0,0,0-3.691,1.74l1.26-8.042-4.17.72a1.352,1.352,0,0,1,.63,1.44,10.139,10.139,0,0,1-.15,1.47l-1.621,10.142c-0.78,4.951-1.74,6.481-2.88,6.871,0.42,0.09,2.43.15,2.79,0.15a1.931,1.931,0,0,0,1.861-1.11,4.39,4.39,0,0,0,3.3,1.2C295.78,61.023,298.781,57.152,298.781,52.261Zm-3.031-.18c-0.03,2.25-1.05,7.591-4.231,7.591a2.494,2.494,0,0,1-2.49-1.86s0.63-2.791,1.38-7.982a3.222,3.222,0,0,1,2.551-1.56C294.22,48.27,295.75,49.17,295.75,52.081Zm16.53-1.89c0-2.61-.81-3.721-2.58-3.721-2.221,0-3.241,2.7-3.241,2.7l0.42-2.7-4.081.72a1.658,1.658,0,0,1,.6,1.59,8.711,8.711,0,0,1-.12,1.44l-1.32,8.582c-0.21,1.41-.54,1.74-1.02,1.98h4.681a1.708,1.708,0,0,1-.51-1.5c0-.27.03-0.6,0.06-0.93l0.81-5.311c0.27-1.74,1.35-4.081,3.541-4.081A3.505,3.505,0,0,1,312.28,50.19Zm13.771,2.851c0-4.321-1.921-6.571-5.431-6.571-3.9,0-6.962,3.421-6.962,7.952,0,4.111,2.461,6.6,6.151,6.6a6.2,6.2,0,0,0,5.942-4.831,6.772,6.772,0,0,1-4.861,2.64c-1.891,0-4.021-1.26-4.021-4.531a5.794,5.794,0,0,1,.12-1.26h9.062Zm-2.911-1.41h-5.911c0.54-2.251,1.71-3.811,3.3-3.811C322.66,47.82,323.14,50.13,323.14,51.631Zm18.271,1.41c0-4.321-1.921-6.571-5.431-6.571-3.9,0-6.962,3.421-6.962,7.952,0,4.111,2.461,6.6,6.151,6.6a6.2,6.2,0,0,0,5.942-4.831,6.772,6.772,0,0,1-4.861,2.64c-1.891,0-4.021-1.26-4.021-4.531a5.794,5.794,0,0,1,.12-1.26h9.062Zm-2.911-1.41h-5.911c0.54-2.251,1.71-3.811,3.3-3.811C338.02,47.82,338.5,50.13,338.5,51.631Zm19.081,9.452a3.354,3.354,0,0,1-1.89.57c-4.951,0-5.492-2.311-8.192-2.311a5.256,5.256,0,0,0-.9.09l9.092-12.572H345.4l-0.96,2.4c0.96-.72,2.431-0.96,6.842-0.96l-9,12.483a4.666,4.666,0,0,1,1.62-.3c3.781,0,5.7,4.021,9.632,4.021C357.641,64.5,357.581,61.083,357.581,61.083Zm16.77-14.193a5.067,5.067,0,0,0-2.1-.81c-1.74,0-3.51,1.89-4.53,4.261-0.151.36-1.471,3.271-2.971,6.6l-1.74-7.142a6.767,6.767,0,0,1-.24-1.53,1.381,1.381,0,0,1,.66-1.38h-5.221a4.1,4.1,0,0,1,1.35,2.34l3.331,11.642c-1.411,2.61-2.941,4.351-4.621,4.351a2.439,2.439,0,0,1-2.221-.9,3.268,3.268,0,0,0-.54,1.65,2.075,2.075,0,0,0,2.1,2.04c3.9,0,5.852-5.161,7.682-8.882C366.519,56.612,371.17,46.89,374.351,46.89Zm19.769-.42-3.181.96a5.752,5.752,0,0,0-3.18-.96c-3.151,0-7.022,2.34-7.022,9.152,0,2.761,1.08,5.4,4.351,5.4a5.635,5.635,0,0,0,3.961-1.74,1.388,1.388,0,0,0,1.56,1.65c0.36,0,2.371-.06,2.821-0.15-0.84-.39-1.05-0.9-1.05-3.241A75.847,75.847,0,0,1,394.12,46.47ZM390.339,49.5c-0.12.75-.48,2.911-0.57,3.451-0.24,1.44-.51,3.181-0.66,4.831A3.956,3.956,0,0,1,386.5,59.1c-0.93,0-2.55-.84-2.55-3.841,0-3.061,1.38-7.352,4.261-7.352A2.211,2.211,0,0,1,390.339,49.5ZM410.32,60.783c-0.81-.39-1.02-0.9-1.02-3.241,0-1.71.42-5.011,0.42-5.971,0-3.541-1.771-5.1-4.2-5.1a4.4,4.4,0,0,0-3.871,2.28l0.33-2.31-4.08.72c0.33,0.12.63,0.6,0.63,1.68a13.593,13.593,0,0,1-.12,1.38L397.087,58.8c-0.21,1.29-.54,1.74-0.99,1.98h4.591a1.641,1.641,0,0,1-.57-1.5,5.678,5.678,0,0,1,.09-0.93l1.2-7.862a3.314,3.314,0,0,1,2.7-1.95c1.47,0,2.46.99,2.46,3.031,0,2.37-.48,5.281-0.48,7.682a1.41,1.41,0,0,0,1.56,1.68C408.009,60.933,409.9,60.873,410.32,60.783Zm17.25-20.644-4.171.72a1.222,1.222,0,0,1,.63,1.32,14.566,14.566,0,0,1-.15,1.62l-0.57,3.751a3.581,3.581,0,0,0-2.7-1.08c-4.681,0-7.232,5.011-7.232,9.152,0,2.761,1.081,5.4,4.351,5.4a5.908,5.908,0,0,0,4.021-1.74,1.369,1.369,0,0,0,1.53,1.65c0.36,0,2.371-.06,2.821-0.15-0.81-.36-1.02-0.87-1.02-3.181C425.08,55.712,427.57,40.139,427.57,40.139ZM422.979,49.5l-0.54,3.451c-0.15,1.02-.51,3.271-0.66,4.831a4.267,4.267,0,0,1-2.64,1.32c-0.931,0-2.551-.84-2.551-3.841,0-2.641,1.17-7.352,4.441-7.352A2.106,2.106,0,0,1,422.979,49.5ZM442.3,40.139l-4.171.72a1.181,1.181,0,0,1,.661,1.35,8.672,8.672,0,0,1-.15,1.59l-1.411,9.032a52.217,52.217,0,0,0-.72,6.451,1.489,1.489,0,0,0,1.711,1.65c0.36,0,2.28-.06,2.7-0.15-0.81-.36-1.02-0.87-1.02-3.181a45.485,45.485,0,0,1,.63-5.971Zm8.13,2.13a1.785,1.785,0,1,0-1.8,1.8A1.812,1.812,0,0,0,450.428,42.269Zm-0.87,4.2-4.141.72a1.2,1.2,0,0,1,.661,1.38,9.97,9.97,0,0,1-.181,1.65l-0.36,2.43a54.366,54.366,0,0,0-.72,6.6,1.49,1.49,0,0,0,1.681,1.68c0.36,0,2.28-.06,2.73-0.15-0.81-.39-1.05-0.9-1.05-3.241a53.876,53.876,0,0,1,.63-6.121Zm16.322,0-2.971.99a5.341,5.341,0,0,0-3.21-.99c-3.151,0-7.082,2.43-7.082,8.7,0,2.761,1.17,5.4,4.471,5.4a5.832,5.832,0,0,0,3.751-1.56l-0.27,1.98c-0.42,3.181-1.951,4.771-4.321,4.771-2.671,0-4.141-2.28-4.471-4.321l-0.33,4.111a7.9,7.9,0,0,0,4.951,1.77c4.261,0,6.931-1.71,7.471-6.841,0.21-1.77.39-3.751,0.51-4.5ZM462.189,49.5l-0.72,4.591c-0.21,1.26-.39,2.55-0.48,3.241a4.438,4.438,0,0,1-2.611,1.32c-0.93,0-2.52-.84-2.52-3.841,0-2.941,1.05-6.9,4.321-6.9A2.291,2.291,0,0,1,462.189,49.5ZM481.87,60.783c-0.811-.39-1.021-0.9-1.021-3.241,0-1.71.39-5.011,0.39-5.971,0-3.541-1.74-5.1-4.17-5.1a4.38,4.38,0,0,0-3.841,2.22l1.41-8.642-4.2.75c0.39,0.09.6,0.57,0.6,1.47a13.535,13.535,0,0,1-.21,2.19L468.607,58.8c-0.18,1.29-.51,1.74-0.99,1.98h4.621a1.641,1.641,0,0,1-.57-1.5,5.335,5.335,0,0,1,.06-0.93l1.23-7.862a3.314,3.314,0,0,1,2.7-1.95c1.441,0,2.431.87,2.431,3.031,0,2.37-.45,5.281-0.45,7.682a1.4,1.4,0,0,0,1.56,1.68C479.559,60.933,481.449,60.873,481.87,60.783ZM493.659,46.86H489.7l0.57-3.181-5.341,4.771h1.5l-1.29,7.892a6.77,6.77,0,0,0-.09,1.05c0,2.491,1.38,3.631,3.631,3.631a3.733,3.733,0,0,0,3.9-2.911,3.255,3.255,0,0,1-2.4,1.05c-0.81,0-1.921-.36-1.921-2.31a5.072,5.072,0,0,1,.09-0.9l1.081-7.5h3.99Zm22.8,4.021c0-3.3-1.95-4.771-3.6-4.771a3.234,3.234,0,0,0-2.28.75c1.29,0.12,2.91,1.62,2.91,4.8,0,5.881-3.87,7.291-3.87,7.291l-1.441-9.032c-0.24-1.5-.36-3.061-0.36-3.061h-1.53a111.191,111.191,0,0,1-4.5,10.862l-1.08-7.922a7.988,7.988,0,0,1-.09-1.17c0-1.11.39-1.59,0.93-1.77h-5.431c0.6,0.24.99,0.72,1.26,2.371l1.771,11.822h3l3.451-8.492,1.38,8.492C512.8,61.053,516.461,54.811,516.461,50.881Zm15.178,2.16c0-4.321-1.92-6.571-5.431-6.571-3.9,0-6.961,3.421-6.961,7.952,0,4.111,2.46,6.6,6.151,6.6a6.2,6.2,0,0,0,5.941-4.831,6.768,6.768,0,0,1-4.861,2.64c-1.89,0-4.02-1.26-4.02-4.531a5.794,5.794,0,0,1,.12-1.26h9.061Zm-2.91-1.41h-5.911c0.54-2.251,1.71-3.811,3.3-3.811C528.249,47.82,528.729,50.13,528.729,51.631Zm11.489-9.362a1.786,1.786,0,1,0-1.8,1.8A1.812,1.812,0,0,0,540.218,42.269Zm-0.87,4.2-4.141.72a1.2,1.2,0,0,1,.66,1.38,10.06,10.06,0,0,1-.18,1.65l-0.36,2.43a54.366,54.366,0,0,0-.72,6.6,1.49,1.49,0,0,0,1.68,1.68c0.36,0,2.281-.06,2.731-0.15-0.81-.39-1.05-0.9-1.05-3.241a53.876,53.876,0,0,1,.63-6.121Zm16.322,0-2.971.99a5.343,5.343,0,0,0-3.211-.99c-3.15,0-7.081,2.43-7.081,8.7,0,2.761,1.17,5.4,4.471,5.4a5.835,5.835,0,0,0,3.751-1.56l-0.271,1.98c-0.42,3.181-1.95,4.771-4.32,4.771-2.671,0-4.141-2.28-4.471-4.321l-0.33,4.111a7.9,7.9,0,0,0,4.951,1.77c4.261,0,6.931-1.71,7.471-6.841,0.21-1.77.39-3.751,0.51-4.5ZM551.979,49.5l-0.72,4.591c-0.21,1.26-.39,2.55-0.48,3.241a4.444,4.444,0,0,1-2.611,1.32c-0.93,0-2.52-.84-2.52-3.841,0-2.941,1.05-6.9,4.32-6.9A2.292,2.292,0,0,1,551.979,49.5Zm19.68,11.282c-0.81-.39-1.02-0.9-1.02-3.241,0-1.71.39-5.011,0.39-5.971,0-3.541-1.74-5.1-4.171-5.1a4.38,4.38,0,0,0-3.84,2.22l1.41-8.642-4.2.75c0.39,0.09.6,0.57,0.6,1.47a13.535,13.535,0,0,1-.21,2.19L558.4,58.8c-0.18,1.29-.51,1.74-0.991,1.98h4.621a1.641,1.641,0,0,1-.57-1.5,5.335,5.335,0,0,1,.06-0.93l1.231-7.862a3.314,3.314,0,0,1,2.7-1.95c1.44,0,2.43.87,2.43,3.031,0,2.37-.45,5.281-0.45,7.682a1.4,1.4,0,0,0,1.561,1.68C569.349,60.933,571.239,60.873,571.659,60.783ZM583.448,46.86h-3.961l0.571-3.181-5.342,4.771h1.5l-1.29,7.892a6.649,6.649,0,0,0-.09,1.05c0,2.491,1.38,3.631,3.63,3.631a3.733,3.733,0,0,0,3.9-2.911,3.255,3.255,0,0,1-2.4,1.05c-0.811,0-1.921-.36-1.921-2.31a5.072,5.072,0,0,1,.09-0.9l1.08-7.5h3.991Zm17.07,0.54a6.414,6.414,0,0,0-3.571-.93c-2.07,0-4.26,1.2-4.26,3.961a4.754,4.754,0,0,0,2.01,3.451c1.26,1.08,2.37,1.98,2.37,3.391a2.039,2.039,0,0,1-2.16,2.16c-1.56,0-2.641-1.26-3.061-3.571l-0.27,3.721a4.916,4.916,0,0,0,3.9,1.44c2.221,0,4.891-1.23,4.891-4.231,0-1.89-1.41-3.271-3-4.561-1.2-.96-1.651-1.65-1.651-2.611a1.726,1.726,0,0,1,1.861-1.77c1.86,0,2.49,1.92,2.82,3Zm16.231,4.921c0-3.781-2.491-5.851-5.581-5.851-4.8,0-7.412,4.561-7.412,8.672,0,3.751,2.461,5.881,5.581,5.881C614.258,61.023,616.749,56.552,616.749,52.321Zm-3.181.03c0,3.481-1.26,7.291-3.871,7.291-1.5,0-2.76-1.92-2.76-4.5,0-3.421,1.26-7.291,3.84-7.291C612.308,47.85,613.568,49.77,613.568,52.351ZM259.181,86.89a5.066,5.066,0,0,0-2.1-.81c-1.741,0-3.511,1.89-4.531,4.261-0.15.36-1.471,3.271-2.971,6.6l-1.74-7.141a6.768,6.768,0,0,1-.24-1.53,1.38,1.38,0,0,1,.66-1.38h-5.221a4.1,4.1,0,0,1,1.35,2.34l3.331,11.643c-1.411,2.61-2.941,4.35-4.621,4.35a2.439,2.439,0,0,1-2.221-.9,3.268,3.268,0,0,0-.54,1.651,2.075,2.075,0,0,0,2.1,2.04c3.9,0,5.851-5.161,7.681-8.882C251.349,96.612,256,86.89,259.181,86.89ZM271.3,92.321c0-3.781-2.49-5.851-5.581-5.851-4.8,0-7.411,4.561-7.411,8.672,0,3.751,2.46,5.882,5.581,5.882C268.81,101.023,271.3,96.552,271.3,92.321Zm-3.18.03c0,3.481-1.26,7.291-3.871,7.291-1.5,0-2.761-1.92-2.761-4.5,0-3.421,1.261-7.291,3.841-7.291C266.86,87.85,268.12,89.77,268.12,92.351Zm19.47-5.881-4.2.72c0.54,0.21.69,0.81,0.54,2.22a12.353,12.353,0,0,1-.15,1.35l-0.27,1.65c-0.36,2.25-.72,4.651-0.81,5.341a3.783,3.783,0,0,1-2.61,1.23c-1.291,0-2.041-.75-2.041-2.521a23.99,23.99,0,0,1,.33-3.571l0.961-6.421-4.171.72a1.062,1.062,0,0,1,.66,1.23,17.136,17.136,0,0,1-.15,1.8l-0.6,3.751a15.12,15.12,0,0,0-.24,2.851c0,2.61,1.38,4.2,3.9,4.2a6.184,6.184,0,0,0,3.961-1.741,1.389,1.389,0,0,0,1.561,1.651c0.36,0,2.37-.06,2.82-0.15-0.84-.391-1.05-0.9-1.05-3.241C286.03,95.412,287.59,86.47,287.59,86.47Zm21.089,1.2a7.121,7.121,0,0,0-3.9-1.2c-5.191,0-7.562,4.321-7.562,8.222,0,3.421,1.62,6.332,5.311,6.332a5.563,5.563,0,0,0,5.431-4.231,5.18,5.18,0,0,1-3.87,1.98c-2.281,0-3.6-1.68-3.6-4.531,0-3.121,1.41-6.331,4.471-6.331a3.729,3.729,0,0,1,3.36,3.061Zm15.691-1.2-3.181.96a5.752,5.752,0,0,0-3.18-.96c-3.151,0-7.022,2.34-7.022,9.152,0,2.761,1.081,5.4,4.351,5.4a5.635,5.635,0,0,0,3.961-1.741,1.389,1.389,0,0,0,1.56,1.651c0.36,0,2.371-.06,2.821-0.15-0.84-.391-1.05-0.9-1.05-3.241A75.847,75.847,0,0,1,324.37,86.47ZM320.589,89.5c-0.12.75-.48,2.911-0.57,3.451-0.24,1.44-.51,3.181-0.66,4.831a3.956,3.956,0,0,1-2.61,1.32c-0.931,0-2.551-.84-2.551-3.841,0-3.061,1.38-7.351,4.261-7.351A2.211,2.211,0,0,1,320.589,89.5Zm19.981,11.283c-0.81-.391-1.02-0.9-1.02-3.241,0-1.71.42-5.011,0.42-5.971,0-3.541-1.77-5.1-4.2-5.1A4.4,4.4,0,0,0,331.9,88.75l0.33-2.311-4.08.72c0.33,0.12.63,0.6,0.63,1.68a13.588,13.588,0,0,1-.12,1.38L327.337,98.8c-0.21,1.29-.54,1.74-0.99,1.981h4.591a1.644,1.644,0,0,1-.57-1.5,5.678,5.678,0,0,1,.09-0.93l1.2-7.862a3.314,3.314,0,0,1,2.7-1.95c1.47,0,2.46.99,2.46,3.031,0,2.37-.48,5.281-0.48,7.682a1.41,1.41,0,0,0,1.56,1.681C338.26,100.933,340.15,100.873,340.57,100.783Zm19.739-16.924V80.919a4.085,4.085,0,0,0-2.82-.87c-2.641,0-4.2,1.32-4.771,5.161l-0.24,1.68H351.1l-0.24,1.47h1.381l-1.381,9.272c-0.84,5.551-2.91,6.061-3.84,6.241a1.951,1.951,0,0,0,1.95,1.2c2.25,0,4.171-1.47,4.921-6.721l1.41-9.992h3.811l0.24-1.47h-3.841l0.33-2.4c0.24-1.56.66-3,2.131-3C359.529,81.489,360.309,83.859,360.309,83.859Zm7.679-3.721-4.171.72a1.182,1.182,0,0,1,.66,1.35,8.672,8.672,0,0,1-.15,1.59l-1.41,9.032a52.22,52.22,0,0,0-.72,6.451,1.49,1.49,0,0,0,1.71,1.651c0.36,0,2.281-.06,2.7-0.15-0.81-.361-1.02-0.871-1.02-3.181a45.488,45.488,0,0,1,.63-5.971ZM383.05,92.321c0-3.781-2.491-5.851-5.581-5.851-4.8,0-7.412,4.561-7.412,8.672,0,3.751,2.461,5.882,5.581,5.882C380.559,101.023,383.05,96.552,383.05,92.321Zm-3.181.03c0,3.481-1.26,7.291-3.871,7.291-1.5,0-2.76-1.92-2.76-4.5,0-3.421,1.26-7.291,3.84-7.291C378.609,87.85,379.869,89.77,379.869,92.351ZM399.82,86.47l-3.181.96a5.752,5.752,0,0,0-3.18-.96c-3.151,0-7.022,2.34-7.022,9.152,0,2.761,1.08,5.4,4.351,5.4a5.637,5.637,0,0,0,3.961-1.741,1.389,1.389,0,0,0,1.56,1.651c0.36,0,2.371-.06,2.821-0.15-0.841-.391-1.051-0.9-1.051-3.241A75.868,75.868,0,0,1,399.82,86.47ZM396.039,89.5c-0.12.75-.48,2.911-0.57,3.451-0.24,1.44-.51,3.181-0.66,4.831A3.956,3.956,0,0,1,392.2,99.1c-0.93,0-2.55-.84-2.55-3.841,0-3.061,1.38-7.351,4.261-7.351A2.211,2.211,0,0,1,396.039,89.5Zm15.51-2.64h-3.961l0.57-3.181-5.341,4.771h1.5l-1.29,7.891a6.773,6.773,0,0,0-.09,1.05c0,2.49,1.38,3.631,3.631,3.631a3.735,3.735,0,0,0,3.9-2.911,3.259,3.259,0,0,1-2.4,1.05c-0.81,0-1.92-.36-1.92-2.311a5.074,5.074,0,0,1,.09-0.9l1.08-7.5h3.991Zm17.52,0h-3.961l0.57-3.181-5.341,4.771h1.5l-1.29,7.891a6.773,6.773,0,0,0-.09,1.05c0,2.49,1.38,3.631,3.631,3.631a3.733,3.733,0,0,0,3.9-2.911,3.255,3.255,0,0,1-2.4,1.05c-0.81,0-1.92-.36-1.92-2.311a5.074,5.074,0,0,1,.09-0.9l1.08-7.5h3.991Zm15.181,13.923c-0.81-.391-1.02-0.9-1.02-3.241,0-1.71.39-5.011,0.39-5.971,0-3.541-1.741-5.1-4.171-5.1a4.38,4.38,0,0,0-3.841,2.22l1.41-8.642-4.2.75c0.39,0.09.6,0.57,0.6,1.47a13.424,13.424,0,0,1-.211,2.191L430.987,98.8c-0.18,1.29-.51,1.74-0.99,1.981h4.621a1.644,1.644,0,0,1-.57-1.5,5.335,5.335,0,0,1,.06-0.93l1.23-7.862a3.314,3.314,0,0,1,2.7-1.95c1.441,0,2.431.87,2.431,3.031,0,2.37-.45,5.281-0.45,7.682a1.4,1.4,0,0,0,1.56,1.681C441.939,100.933,443.83,100.873,444.25,100.783Zm13.469-10.593c0-2.611-.81-3.721-2.58-3.721-2.221,0-3.241,2.7-3.241,2.7l0.42-2.7-4.081.72a1.657,1.657,0,0,1,.6,1.59,8.71,8.71,0,0,1-.12,1.44L447.4,98.8c-0.21,1.41-.54,1.74-1.02,1.981h4.681a1.71,1.71,0,0,1-.51-1.5c0-.27.03-0.6,0.06-0.93l0.81-5.311c0.27-1.74,1.35-4.081,3.541-4.081A3.505,3.505,0,0,1,457.719,90.191Zm13.861,2.13c0-3.781-2.491-5.851-5.581-5.851-4.8,0-7.412,4.561-7.412,8.672,0,3.751,2.461,5.882,5.581,5.882C469.089,101.023,471.58,96.552,471.58,92.321Zm-3.181.03c0,3.481-1.26,7.291-3.871,7.291-1.5,0-2.76-1.92-2.76-4.5,0-3.421,1.26-7.291,3.841-7.291C467.139,87.85,468.4,89.77,468.4,92.351ZM487.87,86.47l-4.2.72c0.54,0.21.69,0.81,0.54,2.22a12.353,12.353,0,0,1-.15,1.35l-0.27,1.65c-0.36,2.25-.72,4.651-0.81,5.341a3.787,3.787,0,0,1-2.611,1.23c-1.29,0-2.04-.75-2.04-2.521a23.99,23.99,0,0,1,.33-3.571l0.96-6.421-4.171.72a1.062,1.062,0,0,1,.66,1.23,17.136,17.136,0,0,1-.15,1.8l-0.6,3.751a15.12,15.12,0,0,0-.24,2.851c0,2.61,1.38,4.2,3.9,4.2a6.189,6.189,0,0,0,3.961-1.741,1.389,1.389,0,0,0,1.56,1.651c0.36,0,2.37-.06,2.82-0.15-0.84-.391-1.05-0.9-1.05-3.241C486.309,95.412,487.87,86.47,487.87,86.47Zm16.019,0-2.97.99a5.343,5.343,0,0,0-3.211-.99c-3.15,0-7.081,2.43-7.081,8.7,0,2.761,1.17,5.4,4.471,5.4a5.83,5.83,0,0,0,3.75-1.56l-0.27,1.981c-0.42,3.18-1.95,4.77-4.32,4.77-2.671,0-4.141-2.28-4.471-4.32l-0.33,4.111a7.905,7.905,0,0,0,4.951,1.77c4.26,0,6.931-1.711,7.471-6.841,0.21-1.771.39-3.751,0.51-4.5ZM500.2,89.5l-0.72,4.591c-0.21,1.26-.39,2.55-0.48,3.241a4.443,4.443,0,0,1-2.611,1.32c-0.93,0-2.52-.84-2.52-3.841,0-2.941,1.05-6.9,4.32-6.9A2.292,2.292,0,0,1,500.2,89.5Zm19.68,11.283c-0.81-.391-1.02-0.9-1.02-3.241,0-1.71.39-5.011,0.39-5.971,0-3.541-1.74-5.1-4.171-5.1a4.38,4.38,0,0,0-3.84,2.22l1.41-8.642-4.2.75c0.39,0.09.6,0.57,0.6,1.47a13.534,13.534,0,0,1-.21,2.191L506.617,98.8c-0.18,1.29-.511,1.74-0.991,1.981h4.621a1.644,1.644,0,0,1-.57-1.5,5.335,5.335,0,0,1,.06-0.93l1.231-7.862a3.314,3.314,0,0,1,2.7-1.95c1.44,0,2.43.87,2.43,3.031,0,2.37-.45,5.281-0.45,7.682a1.4,1.4,0,0,0,1.561,1.681C517.569,100.933,519.459,100.873,519.879,100.783ZM538.328,86.86h-3.961l0.57-3.181L529.6,88.45h1.5l-1.291,7.891a6.773,6.773,0,0,0-.09,1.05c0,2.49,1.381,3.631,3.631,3.631a3.734,3.734,0,0,0,3.9-2.911,3.255,3.255,0,0,1-2.4,1.05c-0.81,0-1.92-.36-1.92-2.311a5.074,5.074,0,0,1,.09-0.9l1.08-7.5h3.991Zm15.181,13.923c-0.81-.391-1.02-0.9-1.02-3.241,0-1.71.39-5.011,0.39-5.971,0-3.541-1.74-5.1-4.171-5.1a4.382,4.382,0,0,0-3.841,2.22l1.411-8.642-4.2.75c0.39,0.09.6,0.57,0.6,1.47a13.534,13.534,0,0,1-.21,2.191L540.246,98.8c-0.18,1.29-.51,1.74-0.99,1.981h4.621a1.644,1.644,0,0,1-.57-1.5,5.335,5.335,0,0,1,.06-0.93l1.23-7.862a3.314,3.314,0,0,1,2.7-1.95c1.44,0,2.43.87,2.43,3.031,0,2.37-.45,5.281-0.45,7.682a1.4,1.4,0,0,0,1.56,1.681C551.2,100.933,553.089,100.873,553.509,100.783Zm15.21-7.742c0-4.321-1.921-6.571-5.431-6.571-3.9,0-6.962,3.421-6.962,7.952,0,4.111,2.461,6.6,6.151,6.6a6.2,6.2,0,0,0,5.942-4.831,6.772,6.772,0,0,1-4.861,2.641c-1.891,0-4.021-1.26-4.021-4.531a5.8,5.8,0,0,1,.12-1.26h9.062Zm-2.911-1.41H559.9c0.54-2.25,1.71-3.811,3.3-3.811C565.328,87.82,565.808,90.13,565.808,91.631Zm26.311-11.492-4.171.72a1.222,1.222,0,0,1,.63,1.32,14.559,14.559,0,0,1-.15,1.62l-0.57,3.751a3.581,3.581,0,0,0-2.7-1.08c-4.681,0-7.232,5.011-7.232,9.152,0,2.761,1.08,5.4,4.351,5.4a5.907,5.907,0,0,0,4.021-1.741,1.37,1.37,0,0,0,1.53,1.651c0.36,0,2.371-.06,2.821-0.15-0.811-.361-1.021-0.871-1.021-3.181C589.628,95.712,592.119,80.139,592.119,80.139ZM587.528,89.5l-0.54,3.451c-0.15,1.02-.51,3.271-0.66,4.831a4.27,4.27,0,0,1-2.641,1.32c-0.93,0-2.55-.84-2.55-3.841,0-2.64,1.17-7.351,4.441-7.351A2.106,2.106,0,0,1,587.528,89.5Zm19.831-3.031-3.181.96a5.752,5.752,0,0,0-3.18-.96c-3.151,0-7.022,2.34-7.022,9.152,0,2.761,1.08,5.4,4.351,5.4a5.637,5.637,0,0,0,3.961-1.741,1.389,1.389,0,0,0,1.56,1.651c0.36,0,2.371-.06,2.821-0.15-0.84-.391-1.05-0.9-1.05-3.241A75.847,75.847,0,0,1,607.359,86.47ZM603.578,89.5c-0.12.75-.48,2.911-0.57,3.451-0.24,1.44-.51,3.181-0.66,4.831a3.956,3.956,0,0,1-2.611,1.32c-0.93,0-2.55-.84-2.55-3.841,0-3.061,1.38-7.351,4.261-7.351A2.211,2.211,0,0,1,603.578,89.5Zm22.261-2.611a5.066,5.066,0,0,0-2.1-.81c-1.741,0-3.511,1.89-4.531,4.261-0.15.36-1.47,3.271-2.971,6.6L614.5,89.8a6.768,6.768,0,0,1-.24-1.53,1.38,1.38,0,0,1,.66-1.38H609.7a4.1,4.1,0,0,1,1.35,2.34l3.331,11.643c-1.41,2.61-2.941,4.35-4.621,4.35a2.438,2.438,0,0,1-2.22-.9,3.269,3.269,0,0,0-.541,1.651,2.076,2.076,0,0,0,2.1,2.04c3.9,0,5.851-5.161,7.681-8.882C618.008,96.612,622.659,86.89,625.839,86.89Zm0.148,12.272a1.831,1.831,0,1,0-1.831,1.861A1.838,1.838,0,0,0,625.987,99.162Z"/>
  </g>
</svg>
