<svg id="shirt_copy" data-name="shirt copy" xmlns="http://www.w3.org/2000/svg" width="658" height="182" viewBox="0 0 658 182">
  <defs>
    <style>
      .cls-1 {
        fill: #b03f25;
      }

      .cls-1, .cls-2 {
        fill-rule: evenodd;
      }

      .cls-2 {
        fill: #272727;
        opacity: 0.36;
      }
    </style>
  </defs>
  <g id="layer1">
    <path id="linen_shirts" data-name="linen shirts" class="cls-1" d="M185.45,85.724h54.365V67.482H204.532V0.516H185.45V85.724Zm73.438,0H277.97V0.516H258.888V85.724Zm121.326,0V0.516h-19.2V53.081l-41.4-52.565H303.167V85.724h19.082V33.039l41.524,52.685h16.441Zm25.192,0h54.005V67.482H424.488V52.241H452.21V34H424.488V18.758h34.923V0.516h-54V85.724Zm152.767,0V0.516h-19.2V53.081l-41.4-52.565H481.126V85.724h19.082V33.039l41.523,52.685h16.442Zm-347.281,96.44c18,0,30.363-10.8,30.483-26.282,0.12-12.841-7.921-21-20.282-25.443l-6-2.16c-9-3.24-13.2-5.28-13.2-9.841,0-4.44,5.161-6.48,10.321-6.48a18.955,18.955,0,0,1,14.762,7.08l12.481-13.2c-7.921-8.52-17.162-11.761-27.483-11.761-17.041,0-29.4,9.721-29.4,26.283,0,11.641,7.68,19.921,21.482,24.6l6,2.04c8.521,2.88,11.881,5.88,11.881,10.2,0,4.08-3.96,7.08-10.321,7.08a22.292,22.292,0,0,1-17.641-9.72l-14.642,12.361C185.93,176.523,197.451,182.164,210.892,182.164Zm50.877-1.44H280.85V147h34.323v33.723h19.082V95.516H315.173v33.363H280.85V95.516H261.769v85.208Zm97.679,0H378.53V95.516H359.448v85.208Zm44.279,0h19.082V145.561h3.12l28.323,35.163h22.922l-30.123-37.563c10.8-3.841,16.681-10.921,16.681-21.962,0-14.162-10.32-25.683-26.4-25.683h-33.6v85.208Zm19.082-51.365V113.038H435.05c5.64,0,9.721,3,9.721,8.161,0,4.92-4.081,8.16-9.721,8.16H422.809Zm80.279,51.365h19.2V113.758h21.962V95.516H481.367v18.242h21.721v66.966Zm84.241,1.44c18,0,30.363-10.8,30.483-26.282,0.12-12.841-7.921-21-20.282-25.443l-6-2.16c-9-3.24-13.2-5.28-13.2-9.841,0-4.44,5.161-6.48,10.321-6.48a18.955,18.955,0,0,1,14.762,7.08l12.481-13.2c-7.921-8.52-17.162-11.761-27.483-11.761-17.041,0-29.4,9.721-29.4,26.283,0,11.641,7.68,19.921,21.482,24.6l6,2.04c8.521,2.88,11.881,5.88,11.881,10.2,0,4.08-3.96,7.08-10.321,7.08a22.292,22.292,0,0,1-17.641-9.72l-14.642,12.361C562.367,176.523,573.888,182.164,587.329,182.164Z"/>
    <path id="_4" data-name="4" class="cls-2" d="M67.4,139.2H96.839V109.176h17.743V82.27H96.839V0.772H70.323L-0.257,85.39v23.787H67.4V139.2Zm0-56.932H35.618L67.4,44.055V82.27Z"/>
  </g>
</svg>
