<svg id="shirt_copy" data-name="shirt copy" xmlns="http://www.w3.org/2000/svg" width="660" height="187" viewBox="0 0 660 187">
  <defs>
    <style>
      .cls-1 {
        fill-rule: evenodd;
      }
    </style>
  </defs>
  <g id="layer2">
    <path id="Tip:_Pack_comfortable_pieces_that_can_be_worn_on_your_daily_ad" data-name="Tip: Pack comfortable pieces that  can be worn on your daily ad" class="cls-1" d="M3.655,13.6H6.536V3.551H9.831V0.815H0.4V3.551H3.655V13.6Zm9.359,0h2.863V0.815H13.014V13.6ZM28.857,5.19a4.354,4.354,0,0,0-4.5-4.375H20.016V13.6h2.863V9.547h1.476A4.339,4.339,0,0,0,28.857,5.19Zm-2.773,0a1.682,1.682,0,0,1-1.764,1.674h-1.44V3.515h1.44A1.672,1.672,0,0,1,26.084,5.19Zm7.468,3.061a1.927,1.927,0,1,0-1.927-1.927A1.929,1.929,0,0,0,33.552,8.251Zm0,5.492a1.927,1.927,0,1,0-1.927-1.927A1.929,1.929,0,0,0,33.552,13.742ZM49.195,0.815H45.288V13.6h1.675V8.935h2.233A4.073,4.073,0,1,0,49.195.815Zm0,6.572H46.962V2.381h2.233a2.46,2.46,0,0,1,2.737,2.5A2.46,2.46,0,0,1,49.195,7.386ZM56.069,9.1a4.5,4.5,0,0,0,4.411,4.681,3.948,3.948,0,0,0,3.169-1.566V13.6H65.2v-9H63.65V5.982a3.948,3.948,0,0,0-3.169-1.566A4.5,4.5,0,0,0,56.069,9.1Zm7.706,0a3.075,3.075,0,1,1-6.14,0A3.075,3.075,0,1,1,63.776,9.1Zm13.95,2.269-1.35-.756a3.052,3.052,0,0,1-2.809,1.728A3.109,3.109,0,0,1,70.416,9.1a3.109,3.109,0,0,1,3.151-3.241,3.052,3.052,0,0,1,2.809,1.729l1.35-.756a4.662,4.662,0,0,0-4.159-2.413A4.613,4.613,0,0,0,68.849,9.1a4.613,4.613,0,0,0,4.717,4.681A4.662,4.662,0,0,0,77.726,11.366ZM81.161,13.6H82.71V9.1l4.879,4.5h2.089l-5.42-5.023L88.688,4.6H86.635L82.71,8.107V0.094H81.161V13.6Zm24.788-2.233-1.35-.756a3.051,3.051,0,0,1-2.809,1.728A3.109,3.109,0,0,1,98.639,9.1a3.109,3.109,0,0,1,3.151-3.241A3.051,3.051,0,0,1,104.6,7.585l1.35-.756a4.661,4.661,0,0,0-4.159-2.413A4.613,4.613,0,0,0,97.073,9.1a4.613,4.613,0,0,0,4.717,4.681A4.661,4.661,0,0,0,105.949,11.366ZM118.081,9.1a4.708,4.708,0,0,0-9.416,0A4.708,4.708,0,0,0,118.081,9.1Zm-7.832,0a3.126,3.126,0,1,1,6.248,0A3.126,3.126,0,1,1,110.249,9.1Zm11.483,4.5h1.549V9.133c0-2.035,1.026-3.295,2.485-3.295,1.17,0,1.764,1.008,1.764,2.467V13.6h1.549V9.133c0-2.035,1.008-3.295,2.466-3.295,1.171,0,1.783,1.008,1.783,2.467V13.6h1.548V8.071c0-2.2-1.188-3.655-3.15-3.655a3.115,3.115,0,0,0-2.953,1.927A2.831,2.831,0,0,0,126,4.416a3.026,3.026,0,0,0-2.719,1.566V4.6h-1.549v9Zm18.019,0H141.3V6.018h2.611V4.6H141.3V2.939a1.3,1.3,0,0,1,1.5-1.531,3.623,3.623,0,0,1,1.116.18V0.22a4.091,4.091,0,0,0-1.405-.234,2.571,2.571,0,0,0-2.754,2.791V4.6h-1.909V6.018h1.909V13.6ZM155.5,9.1a4.709,4.709,0,0,0-9.417,0A4.709,4.709,0,0,0,155.5,9.1Zm-7.832,0a3.126,3.126,0,1,1,6.248,0A3.126,3.126,0,1,1,147.671,9.1Zm11.483,4.5H160.7V9.133c0-2.107,1.242-3.1,2.377-3.1a2.261,2.261,0,0,1,.846.144v-1.6a3.206,3.206,0,0,0-.7-0.072A2.678,2.678,0,0,0,160.7,6.342V4.6h-1.549v9Zm12.908-.126V12.086a3.423,3.423,0,0,1-1.1.18,1.3,1.3,0,0,1-1.494-1.53V6.018h2.593V4.6h-2.593v-2.5H167.92V4.6h-1.908V6.018h1.908v4.916a2.534,2.534,0,0,0,2.755,2.755A4.314,4.314,0,0,0,172.062,13.472Zm2.59-4.375a4.505,4.505,0,0,0,4.412,4.681,3.946,3.946,0,0,0,3.168-1.566V13.6h1.549v-9h-1.549V5.982a3.946,3.946,0,0,0-3.168-1.566A4.505,4.505,0,0,0,174.652,9.1Zm7.706,0a3.075,3.075,0,1,1-6.139,0A3.075,3.075,0,1,1,182.358,9.1Zm7.325,3.115a3.947,3.947,0,0,0,3.169,1.566A4.517,4.517,0,0,0,197.263,9.1a4.517,4.517,0,0,0-4.411-4.681,3.947,3.947,0,0,0-3.169,1.566V0.094h-1.549V13.6h1.549V12.212Zm6-3.115a3.067,3.067,0,1,1-6.121,0A3.067,3.067,0,1,1,195.678,9.1Zm5.236,4.5h1.549V0.094h-1.549V13.6Zm5.22-4.5a4.746,4.746,0,0,0,8.714,2.539l-1.224-.846A3.188,3.188,0,0,1,207.7,9.4h7.382a4.394,4.394,0,0,0,.018-0.468,4.2,4.2,0,0,0-4.285-4.519A4.562,4.562,0,0,0,206.134,9.1Zm4.627-3.313a2.693,2.693,0,0,1,2.755,2.359h-5.708A2.943,2.943,0,0,1,210.761,5.784Zm13.805,11.577h1.548V12.212a3.948,3.948,0,0,0,3.169,1.566A4.516,4.516,0,0,0,233.694,9.1a4.516,4.516,0,0,0-4.411-4.681,3.948,3.948,0,0,0-3.169,1.566V4.6h-1.548V17.361ZM232.11,9.1a3.067,3.067,0,1,1-6.122,0A3.067,3.067,0,1,1,232.11,9.1Zm7.126-8.012a1.087,1.087,0,0,0-1.08-1.1,1.119,1.119,0,0,0-1.117,1.1,1.107,1.107,0,0,0,1.117,1.1A1.076,1.076,0,0,0,239.236,1.085ZM237.364,13.6h1.548v-9h-1.548v9Zm5.219-4.5a4.746,4.746,0,0,0,8.715,2.539l-1.225-.846A3.187,3.187,0,0,1,244.15,9.4h7.382a4.394,4.394,0,0,0,.018-0.468,4.2,4.2,0,0,0-4.285-4.519A4.562,4.562,0,0,0,242.583,9.1Zm4.628-3.313a2.693,2.693,0,0,1,2.754,2.359h-5.707A2.943,2.943,0,0,1,247.211,5.784Zm16.147,5.582-1.351-.756a3.051,3.051,0,0,1-2.809,1.728,3.108,3.108,0,0,1-3.15-3.241,3.108,3.108,0,0,1,3.15-3.241,3.051,3.051,0,0,1,2.809,1.729l1.351-.756a4.664,4.664,0,0,0-4.16-2.413A4.614,4.614,0,0,0,254.481,9.1a4.614,4.614,0,0,0,4.717,4.681A4.664,4.664,0,0,0,263.358,11.366ZM266.091,9.1a4.746,4.746,0,0,0,8.715,2.539l-1.225-.846A3.188,3.188,0,0,1,267.657,9.4h7.383a4.394,4.394,0,0,0,.018-0.468,4.2,4.2,0,0,0-4.286-4.519A4.562,4.562,0,0,0,266.091,9.1Zm4.627-3.313a2.693,2.693,0,0,1,2.755,2.359h-5.708A2.943,2.943,0,0,1,270.718,5.784ZM284.525,11.1c0-1.35-.847-2.215-2.377-2.719l-0.972-.324c-1.063-.342-1.387-0.684-1.387-1.26A1.275,1.275,0,0,1,281.3,5.748a2.431,2.431,0,0,1,1.908.936l1.009-.972a3.493,3.493,0,0,0-2.881-1.3c-1.783,0-3.043.99-3.043,2.449a2.717,2.717,0,0,0,2.233,2.611l0.882,0.288c1.17,0.378,1.6.81,1.6,1.44a1.37,1.37,0,0,1-1.584,1.224,2.416,2.416,0,0,1-2.305-1.422l-1.26.684a3.575,3.575,0,0,0,3.529,2.089C283.21,13.778,284.525,12.86,284.525,11.1Zm14.057,2.377V12.086a3.421,3.421,0,0,1-1.1.18,1.3,1.3,0,0,1-1.5-1.53V6.018h2.593V4.6h-2.593v-2.5h-1.548V4.6h-1.909V6.018h1.909v4.916a2.534,2.534,0,0,0,2.755,2.755A4.307,4.307,0,0,0,298.582,13.472ZM302,13.6h1.548V9.133c0-2.107,1.152-3.295,2.611-3.295a2.161,2.161,0,0,1,2.124,2.449V13.6h1.531V8.053a3.318,3.318,0,0,0-3.4-3.637,3.184,3.184,0,0,0-2.863,1.566V0.094H302V13.6ZM313.34,9.1a4.505,4.505,0,0,0,4.412,4.681,3.946,3.946,0,0,0,3.168-1.566V13.6h1.549v-9H320.92V5.982a3.946,3.946,0,0,0-3.168-1.566A4.505,4.505,0,0,0,313.34,9.1Zm7.706,0a3.075,3.075,0,1,1-6.139,0A3.075,3.075,0,1,1,321.046,9.1ZM331.7,13.472V12.086a3.428,3.428,0,0,1-1.1.18,1.3,1.3,0,0,1-1.494-1.53V6.018H331.7V4.6h-2.593v-2.5H327.56V4.6h-1.908V6.018h1.908v4.916a2.534,2.534,0,0,0,2.755,2.755A4.318,4.318,0,0,0,331.7,13.472ZM9.633,35.366l-1.35-.756a3.052,3.052,0,0,1-2.809,1.729,3.242,3.242,0,0,1,0-6.482,3.052,3.052,0,0,1,2.809,1.728l1.35-.756a4.662,4.662,0,0,0-4.159-2.413,4.682,4.682,0,1,0,0,9.363A4.662,4.662,0,0,0,9.633,35.366ZM12.366,33.1a4.5,4.5,0,0,0,4.411,4.681,3.948,3.948,0,0,0,3.169-1.566V37.6h1.549v-9H19.946v1.386a3.948,3.948,0,0,0-3.169-1.566A4.5,4.5,0,0,0,12.366,33.1Zm7.706,0a3.075,3.075,0,1,1-6.14,0A3.075,3.075,0,1,1,20.072,33.1Zm5.776,4.5H27.4V33.133c0-2.107,1.152-3.3,2.611-3.3a2.161,2.161,0,0,1,2.125,2.449V37.6h1.53V32.053a3.318,3.318,0,0,0-3.4-3.637A3.183,3.183,0,0,0,27.4,29.982V28.6H25.848v9ZM45.27,36.212a3.948,3.948,0,0,0,3.169,1.566A4.516,4.516,0,0,0,52.85,33.1a4.516,4.516,0,0,0-4.411-4.681,3.948,3.948,0,0,0-3.169,1.566V24.094H43.722V37.6H45.27V36.212Zm6-3.115a3.067,3.067,0,1,1-6.122,0A3.067,3.067,0,1,1,51.266,33.1Zm4.533,0a4.746,4.746,0,0,0,8.715,2.539l-1.224-.846A3.187,3.187,0,0,1,57.366,33.4h7.382a4.4,4.4,0,0,0,.018-0.468,4.2,4.2,0,0,0-4.285-4.519A4.562,4.562,0,0,0,55.8,33.1Zm4.627-3.313a2.694,2.694,0,0,1,2.755,2.359H57.474A2.943,2.943,0,0,1,60.427,29.784ZM81.542,37.6H82.91l3.061-9H84.332l-2.179,6.572L79.9,28.6H78.715l-2.251,6.572L74.285,28.6h-1.62l3.061,9h1.368l2.233-6.482Zm16.2-4.5a4.708,4.708,0,1,0-4.7,4.681A4.62,4.62,0,0,0,97.742,33.1Zm-7.832,0a3.126,3.126,0,1,1,3.133,3.241A3.094,3.094,0,0,1,89.909,33.1Zm11.484,4.5h1.548V33.133c0-2.107,1.243-3.1,2.377-3.1a2.261,2.261,0,0,1,.846.144v-1.6a3.207,3.207,0,0,0-.7-0.072,2.679,2.679,0,0,0-2.521,1.836V28.6h-1.548v9Zm8.028,0h1.548V33.133c0-2.107,1.153-3.3,2.611-3.3a2.161,2.161,0,0,1,2.125,2.449V37.6h1.53V32.053a3.318,3.318,0,0,0-3.4-3.637,3.184,3.184,0,0,0-2.863,1.566V28.6h-1.548v9Zm26.57-4.5a4.709,4.709,0,1,0-4.7,4.681A4.62,4.62,0,0,0,135.991,33.1Zm-7.832,0a3.126,3.126,0,1,1,3.133,3.241A3.094,3.094,0,0,1,128.159,33.1Zm11.483,4.5h1.549V33.133c0-2.107,1.152-3.3,2.61-3.3a2.161,2.161,0,0,1,2.125,2.449V37.6h1.53V32.053a3.318,3.318,0,0,0-3.4-3.637,3.182,3.182,0,0,0-2.862,1.566V28.6h-1.549v9ZM159.5,41.361L165.4,28.6h-1.728L160.6,35.42,157.5,28.6h-1.711l3.944,8.535-1.963,4.231H159.5Zm17.39-8.264a4.709,4.709,0,1,0-4.7,4.681A4.62,4.62,0,0,0,176.887,33.1Zm-7.833,0a3.126,3.126,0,1,1,3.133,3.241A3.095,3.095,0,0,1,169.054,33.1Zm11.358,1.026c0,2.233,1.332,3.655,3.313,3.655a3.1,3.1,0,0,0,2.773-1.566V37.6h1.548v-9H186.5v4.465c0,2.071-1.1,3.3-2.5,3.3-1.243,0-2.035-.954-2.035-2.467V28.6h-1.548v5.528ZM192.4,37.6h1.548V33.133c0-2.107,1.243-3.1,2.377-3.1a2.261,2.261,0,0,1,.846.144v-1.6a3.207,3.207,0,0,0-.7-0.072,2.679,2.679,0,0,0-2.521,1.836V28.6H192.4v9Zm12.707-4.5a4.505,4.505,0,0,0,4.412,4.681,3.95,3.95,0,0,0,3.169-1.566V37.6h1.548v-13.5h-1.548v5.888a3.95,3.95,0,0,0-3.169-1.566A4.505,4.505,0,0,0,205.107,33.1Zm7.707,0a3.075,3.075,0,1,1-6.14,0A3.075,3.075,0,1,1,212.814,33.1Zm5.073,0a4.505,4.505,0,0,0,4.411,4.681,3.947,3.947,0,0,0,3.169-1.566V37.6h1.549v-9h-1.549v1.386a3.947,3.947,0,0,0-3.169-1.566A4.505,4.505,0,0,0,217.887,33.1Zm7.706,0a3.075,3.075,0,1,1-6.139,0A3.075,3.075,0,1,1,225.593,33.1Zm7.649-8.012a1.087,1.087,0,0,0-1.081-1.1,1.118,1.118,0,0,0-1.116,1.1,1.106,1.106,0,0,0,1.116,1.1A1.076,1.076,0,0,0,233.242,25.085ZM231.369,37.6h1.549v-9h-1.549v9Zm5.922,0h1.548v-13.5h-1.548V37.6Zm8.317,3.763L251.513,28.6h-1.728l-3.079,6.824-3.1-6.824H241.9l3.943,8.535-1.963,4.231h1.729ZM259.233,33.1a4.5,4.5,0,0,0,4.411,4.681,3.948,3.948,0,0,0,3.169-1.566V37.6h1.548v-9h-1.548v1.386a3.948,3.948,0,0,0-3.169-1.566A4.5,4.5,0,0,0,259.233,33.1Zm7.706,0a3.075,3.075,0,1,1-6.14,0A3.075,3.075,0,1,1,266.939,33.1Zm5.073,0a4.505,4.505,0,0,0,4.412,4.681,3.948,3.948,0,0,0,3.169-1.566V37.6h1.548v-13.5h-1.548v5.888a3.948,3.948,0,0,0-3.169-1.566A4.505,4.505,0,0,0,272.012,33.1Zm7.707,0a3.075,3.075,0,1,1-6.14,0A3.075,3.075,0,1,1,279.719,33.1Zm8.584,4.5h1.3l4.159-9H292.03L288.952,35.4,285.873,28.6h-1.729Zm7.559-4.5a4.746,4.746,0,0,0,8.715,2.539l-1.224-.846a3.188,3.188,0,0,1-5.924-1.386h7.382a4.4,4.4,0,0,0,.018-0.468,4.2,4.2,0,0,0-4.285-4.519A4.562,4.562,0,0,0,295.862,33.1Zm4.628-3.313a2.694,2.694,0,0,1,2.755,2.359h-5.708A2.943,2.943,0,0,1,300.49,29.784Zm7.972,7.814h1.549V33.133c0-2.107,1.152-3.3,2.611-3.3a2.161,2.161,0,0,1,2.124,2.449V37.6h1.531V32.053a3.318,3.318,0,0,0-3.4-3.637,3.183,3.183,0,0,0-2.863,1.566V28.6h-1.549v9Zm16.814-.126V36.086a3.423,3.423,0,0,1-1.1.18,1.3,1.3,0,0,1-1.494-1.53V30.018h2.593V28.6h-2.593v-2.5h-1.548v2.5h-1.909v1.422h1.909v4.915a2.534,2.534,0,0,0,2.754,2.755A4.313,4.313,0,0,0,325.276,37.472Zm3.292-3.349c0,2.233,1.333,3.655,3.313,3.655a3.1,3.1,0,0,0,2.773-1.566V37.6H336.2v-9h-1.549v4.465c0,2.071-1.1,3.3-2.5,3.3-1.242,0-2.034-.954-2.034-2.467V28.6h-1.549v5.528ZM340.556,37.6h1.549V33.133c0-2.107,1.242-3.1,2.376-3.1a2.269,2.269,0,0,1,.847.144v-1.6a3.216,3.216,0,0,0-.7-0.072,2.678,2.678,0,0,0-2.52,1.836V28.6h-1.549v9Zm7-4.5a4.746,4.746,0,0,0,8.715,2.539l-1.225-.846a3.187,3.187,0,0,1-5.923-1.386h7.382a4.4,4.4,0,0,0,.018-0.468,4.2,4.2,0,0,0-4.286-4.519A4.562,4.562,0,0,0,347.558,33.1Zm4.627-3.313a2.693,2.693,0,0,1,2.755,2.359h-5.707A2.942,2.942,0,0,1,352.185,29.784ZM365.992,35.1c0-1.35-.846-2.215-2.377-2.719l-0.972-.324c-1.062-.342-1.386-0.684-1.386-1.26a1.274,1.274,0,0,1,1.512-1.044,2.435,2.435,0,0,1,1.909.936l1.008-.972a3.492,3.492,0,0,0-2.881-1.3c-1.783,0-3.043.99-3.043,2.449A2.717,2.717,0,0,0,362,33.475l0.882,0.288c1.17,0.378,1.6.81,1.6,1.441a1.37,1.37,0,0,1-1.584,1.224,2.417,2.417,0,0,1-2.305-1.422l-1.26.684a3.576,3.576,0,0,0,3.529,2.089C364.678,37.778,365.992,36.86,365.992,35.1ZM6.338,61.472V60.086a3.423,3.423,0,0,1-1.1.18,1.3,1.3,0,0,1-1.494-1.531V54.018H6.338V52.6H3.745v-2.5H2.2v2.5H0.288v1.422H2.2v4.915a2.534,2.534,0,0,0,2.755,2.755A4.306,4.306,0,0,0,6.338,61.472ZM9.756,61.6H11.3V57.133c0-2.107,1.152-3.3,2.611-3.3a2.161,2.161,0,0,1,2.125,2.449V61.6h1.531V56.053a3.318,3.318,0,0,0-3.4-3.637A3.183,3.183,0,0,0,11.3,53.982V48.094H9.756V61.6ZM21.1,57.1a4.506,4.506,0,0,0,4.663,4.681,4.522,4.522,0,0,0,4.051-2.143l-1.224-.846a3.011,3.011,0,0,1-2.809,1.567A2.993,2.993,0,0,1,22.662,57.4h7.382a4.37,4.37,0,0,0,.018-0.468,4.2,4.2,0,0,0-4.285-4.519A4.562,4.562,0,0,0,21.1,57.1Zm4.627-3.313a2.693,2.693,0,0,1,2.755,2.359H22.771A2.943,2.943,0,0,1,25.723,53.784ZM33.7,61.6h1.549V57.133c0-2.107,1.152-3.3,2.611-3.3a2.161,2.161,0,0,1,2.125,2.449V61.6h1.53V56.053a3.318,3.318,0,0,0-3.4-3.637,3.183,3.183,0,0,0-2.863,1.567V52.6H33.7v9Zm17.171-4.5a4.746,4.746,0,0,0,8.715,2.539l-1.224-.846A3.187,3.187,0,0,1,52.434,57.4h7.382a4.394,4.394,0,0,0,.018-0.468,4.2,4.2,0,0,0-4.285-4.519A4.562,4.562,0,0,0,50.867,57.1Zm4.627-3.313a2.694,2.694,0,0,1,2.755,2.359H52.542A2.943,2.943,0,0,1,55.495,53.784ZM62.765,57.1a4.5,4.5,0,0,0,4.411,4.681,3.948,3.948,0,0,0,3.169-1.566V61.6h1.548v-9H70.346v1.386a3.948,3.948,0,0,0-3.169-1.567A4.5,4.5,0,0,0,62.765,57.1Zm7.706,0a3.075,3.075,0,1,1-3.061-3.259A3.074,3.074,0,0,1,70.472,57.1Zm11.609,2c0-1.35-.846-2.215-2.377-2.719l-0.972-.324c-1.062-.342-1.386-0.684-1.386-1.26a1.274,1.274,0,0,1,1.513-1.044,2.432,2.432,0,0,1,1.909.936l1.008-.972a3.491,3.491,0,0,0-2.881-1.3c-1.782,0-3.043.99-3.043,2.449a2.717,2.717,0,0,0,2.233,2.611l0.882,0.288c1.17,0.378,1.6.81,1.6,1.44a1.37,1.37,0,0,1-1.584,1.224,2.416,2.416,0,0,1-2.3-1.422l-1.26.684a3.576,3.576,0,0,0,3.529,2.089C80.767,61.778,82.081,60.86,82.081,59.1Zm5.525-10.011a1.087,1.087,0,0,0-1.08-1.1,1.118,1.118,0,0,0-1.116,1.1,1.107,1.107,0,0,0,1.116,1.1A1.076,1.076,0,0,0,87.606,49.085ZM85.733,61.6h1.549v-9H85.733v9Zm5.922,0H93.2v-13.5H91.655V61.6Zm8.317,3.763L105.877,52.6h-1.728L101.07,59.42l-3.1-6.824h-1.71l3.943,8.535-1.963,4.231h1.729ZM113.6,57.1a4.5,4.5,0,0,0,4.411,4.681,3.948,3.948,0,0,0,3.169-1.566V61.6h1.548v-13.5h-1.548v5.888a3.948,3.948,0,0,0-3.169-1.567A4.5,4.5,0,0,0,113.6,57.1Zm7.706,0a3.075,3.075,0,1,1-3.061-3.259A3.074,3.074,0,0,1,121.3,57.1Zm5.776,4.5h1.548V57.133c0-2.107,1.242-3.1,2.377-3.1a2.261,2.261,0,0,1,.846.144v-1.6a3.207,3.207,0,0,0-.7-0.072,2.679,2.679,0,0,0-2.521,1.837V52.6h-1.548v9Zm7-4.5a4.746,4.746,0,0,0,8.714,2.539l-1.224-.846a3.188,3.188,0,0,1-5.924-1.386h7.382a4.394,4.394,0,0,0,.018-0.468,4.2,4.2,0,0,0-4.285-4.519A4.562,4.562,0,0,0,134.081,57.1Zm4.627-3.313a2.694,2.694,0,0,1,2.755,2.359h-5.708A2.944,2.944,0,0,1,138.708,53.784ZM152.514,59.1c0-1.35-.846-2.215-2.376-2.719l-0.973-.324c-1.062-.342-1.386-0.684-1.386-1.26a1.275,1.275,0,0,1,1.513-1.044,2.431,2.431,0,0,1,1.908.936l1.008-.972a3.49,3.49,0,0,0-2.881-1.3c-1.782,0-3.042.99-3.042,2.449a2.717,2.717,0,0,0,2.232,2.611l0.882,0.288c1.171,0.378,1.6.81,1.6,1.44a1.37,1.37,0,0,1-1.584,1.224,2.416,2.416,0,0,1-2.305-1.422l-1.261.684a3.577,3.577,0,0,0,3.53,2.089C151.2,61.778,152.514,60.86,152.514,59.1Zm9.468,0c0-1.35-.846-2.215-2.376-2.719l-0.973-.324c-1.062-.342-1.386-0.684-1.386-1.26a1.275,1.275,0,0,1,1.513-1.044,2.431,2.431,0,0,1,1.908.936l1.008-.972a3.49,3.49,0,0,0-2.881-1.3c-1.782,0-3.042.99-3.042,2.449a2.717,2.717,0,0,0,2.232,2.611l0.882,0.288c1.171,0.378,1.6.81,1.6,1.44a1.37,1.37,0,0,1-1.584,1.224,2.416,2.416,0,0,1-2.305-1.422l-1.261.684a3.577,3.577,0,0,0,3.53,2.089C160.668,61.778,161.982,60.86,161.982,59.1Zm2.95-2a4.746,4.746,0,0,0,8.715,2.539l-1.224-.846A3.188,3.188,0,0,1,166.5,57.4h7.382a4.394,4.394,0,0,0,.018-0.468,4.2,4.2,0,0,0-4.285-4.519A4.562,4.562,0,0,0,164.932,57.1Zm4.628-3.313a2.7,2.7,0,0,1,2.755,2.359h-5.708A2.943,2.943,0,0,1,169.56,53.784Zm7.27,3.313a4.505,4.505,0,0,0,4.412,4.681,3.95,3.95,0,0,0,3.169-1.566V61.6h1.548v-13.5h-1.548v5.888a3.95,3.95,0,0,0-3.169-1.567A4.505,4.505,0,0,0,176.83,57.1Zm7.707,0a3.075,3.075,0,1,1-3.061-3.259A3.074,3.074,0,0,1,184.537,57.1Zm11.481,1.026c0,2.233,1.332,3.655,3.313,3.655a3.1,3.1,0,0,0,2.773-1.566V61.6h1.548v-9H202.1v4.465c0,2.071-1.1,3.3-2.5,3.3-1.242,0-2.035-.954-2.035-2.467V52.6h-1.548v5.528Zm11.988,7.238h1.548v-5.15a3.95,3.95,0,0,0,3.169,1.566,4.69,4.69,0,0,0,0-9.363,3.95,3.95,0,0,0-3.169,1.567V52.6h-1.548V65.362ZM215.55,57.1a3.067,3.067,0,1,1-3.061-3.259A3.074,3.074,0,0,1,215.55,57.1Zm10.383,0a4.505,4.505,0,0,0,4.412,4.681,3.948,3.948,0,0,0,3.169-1.566V61.6h1.548v-9h-1.548v1.386a3.948,3.948,0,0,0-3.169-1.567A4.505,4.505,0,0,0,225.933,57.1Zm7.707,0a3.075,3.075,0,1,1-3.061-3.259A3.074,3.074,0,0,1,233.64,57.1ZM244.3,61.472V60.086a3.421,3.421,0,0,1-1.1.18,1.3,1.3,0,0,1-1.5-1.531V54.018H244.3V52.6H241.7v-2.5h-1.548v2.5h-1.909v1.422h1.909v4.915a2.534,2.534,0,0,0,2.755,2.755A4.3,4.3,0,0,0,244.3,61.472Zm9.25,0.126h1.549V57.133c0-2.107,1.152-3.3,2.61-3.3a2.161,2.161,0,0,1,2.125,2.449V61.6h1.531V56.053a3.318,3.318,0,0,0-3.4-3.637,3.183,3.183,0,0,0-2.863,1.567V52.6h-1.549v9ZM267.46,49.085a1.088,1.088,0,0,0-1.081-1.1,1.118,1.118,0,0,0-1.116,1.1,1.106,1.106,0,0,0,1.116,1.1A1.077,1.077,0,0,0,267.46,49.085ZM265.587,61.6h1.548v-9h-1.548v9Zm14.312-.522V52.6h-1.548v1.386a3.831,3.831,0,0,0-3.133-1.567,4.586,4.586,0,0,0,0,9.165A3.845,3.845,0,0,0,278.351,60v1.026a2.878,2.878,0,0,1-3.007,3.115,3.852,3.852,0,0,1-3.151-1.513l-1.08,1.08a5.343,5.343,0,0,0,4.249,1.837C277.919,65.542,279.9,64.083,279.9,61.076Zm-7.508-4.087a3.045,3.045,0,1,1,3.043,3.151A3,3,0,0,1,272.391,56.989ZM284.253,61.6H285.8V57.133c0-2.107,1.153-3.3,2.611-3.3a2.161,2.161,0,0,1,2.125,2.449V61.6h1.53V56.053a3.318,3.318,0,0,0-3.4-3.637,3.184,3.184,0,0,0-2.863,1.567V48.094h-1.548V61.6Zm16.813-.126V60.086a3.421,3.421,0,0,1-1.1.18,1.3,1.3,0,0,1-1.5-1.531V54.018h2.593V52.6h-2.593v-2.5h-1.548v2.5h-1.909v1.422h1.909v4.915a2.534,2.534,0,0,0,2.755,2.755A4.3,4.3,0,0,0,301.066,61.472Zm5.561-1.08a1.333,1.333,0,1,0-1.332,1.35A1.356,1.356,0,0,0,306.627,60.392Z"/>
  </g>
</svg>
