<svg id="tee_copy" data-name="tee copy" xmlns="http://www.w3.org/2000/svg" width="658" height="282" viewBox="0 0 658 282">
  <defs>
    <style>
      .cls-1 {
        fill: #b03f25;
      }

      .cls-1, .cls-2 {
        fill-rule: evenodd;
      }

      .cls-2 {
        fill: #272727;
        opacity: 0.36;
      }
    </style>
  </defs>
  <g id="layer1">
    <path id="extra-_soft_tees" data-name="extra- soft tees" class="cls-1" d="M186.45,90.724h54.005V72.482H205.532V57.241h27.722V39H205.532V23.758h34.923V5.516H186.45V90.724Zm130.085,0h22.2l-31.8-43.084L336.816,5.516H314.735L295.413,32.879,276.091,5.516H254.009l30,42.124L252.089,90.724h22.322l21.122-28.2Zm52.676,0h19.2V23.758h21.962V5.516H347.489V23.758h21.722V90.724Zm60,0H448.29V55.561h3.12l28.323,35.163h22.922L472.532,53.161c10.8-3.84,16.682-10.921,16.682-21.962,0-14.161-10.321-25.682-26.4-25.682h-33.6V90.724ZM448.29,39.359V23.038h12.241c5.641,0,9.721,3,9.721,8.161,0,4.921-4.08,8.161-9.721,8.161H448.29Zm58.436,51.365h19.922l7.561-18h35.283l7.56,18h19.922L560.491,5.516H543.209Zm34.443-34.563L551.85,30.479l10.681,25.682H541.169Zm64.919,0.6h35.284V39.479H606.088V56.761Zm-394.2,130.4c18,0,30.363-10.8,30.483-26.282,0.12-12.841-7.921-21-20.282-25.443l-6-2.16c-9-3.24-13.2-5.28-13.2-9.841,0-4.44,5.161-6.48,10.321-6.48a18.955,18.955,0,0,1,14.762,7.08l12.481-13.2c-7.921-8.52-17.162-11.761-27.483-11.761-17.041,0-29.4,9.721-29.4,26.283,0,11.641,7.68,19.921,21.482,24.6l6,2.04c8.521,2.88,11.881,5.88,11.881,10.2,0,4.08-3.96,7.08-10.321,7.08a22.292,22.292,0,0,1-17.641-9.72L180.33,171.923C186.93,181.523,198.451,187.164,211.892,187.164Zm90.12,0a44.044,44.044,0,1,0-44.044-44.044A44.15,44.15,0,0,0,302.012,187.164Zm0-18.482c-13.921,0-24.842-11.761-24.842-25.562s10.921-25.562,24.842-25.562c13.8,0,24.722,11.761,24.722,25.562S315.813,168.682,302.012,168.682Zm64.435,17.042h19.082V152.361h26.042V134.119H385.529V118.758h33.363V100.516H366.447v85.208Zm87.961,0h19.2V118.758h21.962V100.516H432.686v18.242h21.722v66.966Zm-252.6,95h19.2V213.758h21.962V195.516H180.089v18.242h21.722v66.966Zm60,0h54.005V262.482H280.891V247.241h27.722V229H280.891V213.758h34.923V195.516h-54v85.208Zm75.72,0h54.005V262.482H356.611V247.241h27.722V229H356.611V213.758h34.923V195.516h-54v85.208Zm101.162,1.44c18,0,30.363-10.8,30.483-26.282,0.12-12.841-7.921-21-20.282-25.443l-6-2.16c-9-3.24-13.2-5.28-13.2-9.841,0-4.44,5.161-6.48,10.321-6.48a18.955,18.955,0,0,1,14.762,7.08l12.481-13.2c-7.921-8.52-17.162-11.761-27.483-11.761-17.041,0-29.4,9.721-29.4,26.283,0,11.641,7.68,19.921,21.482,24.6l6,2.04c8.521,2.88,11.881,5.88,11.881,10.2,0,4.08-3.96,7.08-10.321,7.08a22.292,22.292,0,0,1-17.641-9.72l-14.642,12.361C413.729,276.523,425.25,282.164,438.691,282.164Z"/>
    <path id="_2" data-name="2" class="cls-2" d="M95.374,112.151H41.367c3.7-7.019,17.937-14.623,24.567-19.5C82.116,80.761,94.4,68.477,94.4,43.716,94.4,15.055,72.952.432,49.555,0.432c-28.076,0-49.133,19.107-49.133,46.4H29.863c-0.195-9.164,7.214-17.352,18.717-17.352,11.113,0,16.378,7.409,16.378,16.378,0,9.944-9.944,18.717-20.862,26.516C23.819,86.8-.163,99.868-0.163,131.258V141.2H95.374V112.151Z"/>
  </g>
</svg>
