<svg id="accessories_copy_2" data-name="accessories copy 2" xmlns="http://www.w3.org/2000/svg" width="768" height="1092" viewBox="0 0 768 1092">
  <defs>
    <style>
      .cls-1 {
        fill: #fff;
      }

      .cls-1, .cls-2, .cls-3 {
        fill-rule: evenodd;
      }

      .cls-2 {
        fill: #b03f25;
      }

      .cls-3 {
        fill: #272727;
        opacity: 0.3;
      }
    </style>
  </defs>
  <path id="Ground_each_look_with_shoes_and_totes_full_of_function_and_per" data-name="Ground each look with shoes and totes  full of function and per" class="cls-1" d="M157.089,907.183v-7.634H150.1v2.089h4.825V906.2a7.544,7.544,0,0,1-4.537,1.272,6.7,6.7,0,1,1-.288-13.395,7,7,0,0,1,4.921,1.872l1.488-1.608a9,9,0,0,0-6.409-2.376,8.7,8.7,0,0,0-8.882,8.809c0,4.97,3.793,8.81,9.17,8.81A9.367,9.367,0,0,0,157.089,907.183Zm4.749,2.112H163.9v-5.953c0-2.809,1.656-4.129,3.168-4.129a3.025,3.025,0,0,1,1.129.192v-2.136a4.291,4.291,0,0,0-.937-0.1,3.57,3.57,0,0,0-3.36,2.448v-2.328h-2.065v12Zm21.387-6a6.278,6.278,0,1,0-6.266,6.241A6.159,6.159,0,0,0,183.225,903.294Zm-10.442,0a4.167,4.167,0,1,1,4.176,4.321A4.125,4.125,0,0,1,172.783,903.294Zm14.663,1.368c0,2.977,1.776,4.873,4.417,4.873a4.13,4.13,0,0,0,3.7-2.088V909.3h2.064v-12H195.56v5.953c0,2.761-1.465,4.393-3.337,4.393-1.656,0-2.713-1.272-2.713-3.289v-7.057h-2.064v7.369Zm15.5,4.633h2.064v-5.953c0-2.809,1.537-4.393,3.481-4.393,1.68,0,2.833,1.248,2.833,3.265V909.3h2.04V901.9c0-2.977-1.848-4.849-4.537-4.849a4.246,4.246,0,0,0-3.817,2.088v-1.848H202.95v12Zm14.639-6a6.006,6.006,0,0,0,5.882,6.241,5.266,5.266,0,0,0,4.225-2.088V909.3h2.064v-18H227.7v7.849a5.266,5.266,0,0,0-4.225-2.088A6.006,6.006,0,0,0,217.589,903.294Zm10.275,0a4.1,4.1,0,1,1-4.081-4.345A4.1,4.1,0,0,1,227.864,903.294Zm13.581,0a6.328,6.328,0,0,0,11.618,3.385l-1.632-1.128a4.25,4.25,0,0,1-7.9-1.849h9.842a5.856,5.856,0,0,0,.024-0.624c-0.024-3.841-2.568-6.025-5.713-6.025A6.081,6.081,0,0,0,241.445,903.294Zm6.169-4.417a3.591,3.591,0,0,1,3.673,3.145h-7.61A3.924,3.924,0,0,1,247.614,898.877Zm9.215,4.417a6.005,6.005,0,0,0,5.881,6.241,5.264,5.264,0,0,0,4.225-2.088V909.3H269v-12h-2.064v1.848a5.264,5.264,0,0,0-4.225-2.088A6.005,6.005,0,0,0,256.829,903.294Zm10.274,0a4.1,4.1,0,1,1-4.081-4.345A4.1,4.1,0,0,1,267.1,903.294Zm18.12,3.025-1.8-1.009a4.068,4.068,0,0,1-3.745,2.305,4.323,4.323,0,0,1,0-8.642,4.068,4.068,0,0,1,3.745,2.305l1.8-1.009a6.216,6.216,0,0,0-5.545-3.216,6.241,6.241,0,1,0,0,12.482A6.216,6.216,0,0,0,285.223,906.319Zm4.1,2.976h2.065v-5.953c0-2.809,1.536-4.393,3.481-4.393,1.68,0,2.832,1.248,2.832,3.265V909.3h2.041V901.9c0-2.977-1.849-4.849-4.537-4.849a4.244,4.244,0,0,0-3.817,2.088v-7.849h-2.065v18Zm22.872,0h2.064v-18H312.2v18Zm19.01-6a6.278,6.278,0,1,0-6.265,6.241A6.159,6.159,0,0,0,331.206,903.294Zm-10.442,0a4.168,4.168,0,1,1,4.177,4.321A4.125,4.125,0,0,1,320.764,903.294Zm26.426,0a6.278,6.278,0,1,0-6.265,6.241A6.159,6.159,0,0,0,347.19,903.294Zm-10.442,0a4.167,4.167,0,1,1,4.177,4.321A4.125,4.125,0,0,1,336.748,903.294Zm14.831,6h2.065v-6l6.5,6h2.785l-7.226-6.7,5.9-5.3h-2.736l-5.233,4.681V891.292h-2.065v18Zm30.938,0h1.825l4.08-12h-2.184l-2.9,8.762-3-8.762h-1.585l-3,8.762-2.9-8.762h-2.16l4.081,12h1.824l2.977-8.642Zm12.07-16.683a1.45,1.45,0,0,0-1.44-1.465,1.492,1.492,0,0,0-1.488,1.465,1.475,1.475,0,0,0,1.488,1.464A1.434,1.434,0,0,0,394.587,892.612Zm-2.5,16.683h2.064v-12h-2.064v12Zm13.921-.168v-1.848a4.562,4.562,0,0,1-1.464.24c-1.3,0-1.993-.5-1.993-2.041v-6.289h3.457v-1.9h-3.457v-3.337h-2.064v3.337h-2.545v1.9h2.545v6.554a3.378,3.378,0,0,0,3.672,3.672A5.744,5.744,0,0,0,406.012,909.127Zm4.078,0.168h2.065v-5.953c0-2.809,1.536-4.393,3.481-4.393,1.68,0,2.832,1.248,2.832,3.265V909.3h2.041V901.9c0-2.977-1.849-4.849-4.537-4.849a4.244,4.244,0,0,0-3.817,2.088v-7.849H410.09v18Zm30.649-3.336c0-1.8-1.128-2.953-3.168-3.625l-1.3-.432c-1.417-.456-1.849-0.912-1.849-1.681,0-.888.888-1.392,2.017-1.392a3.242,3.242,0,0,1,2.544,1.248l1.344-1.3a4.654,4.654,0,0,0-3.84-1.728c-2.377,0-4.057,1.32-4.057,3.264,0,1.681,1.032,2.857,2.976,3.481l1.177,0.384c1.56,0.5,2.136,1.08,2.136,1.921,0,1.032-.936,1.632-2.112,1.632a3.221,3.221,0,0,1-3.073-1.9l-1.68.912a4.767,4.767,0,0,0,4.7,2.784C438.987,909.535,440.739,908.311,440.739,905.959Zm4.391,3.336h2.064v-5.953c0-2.809,1.536-4.393,3.481-4.393,1.68,0,2.832,1.248,2.832,3.265V909.3h2.041V901.9c0-2.977-1.849-4.849-4.537-4.849a4.245,4.245,0,0,0-3.817,2.088v-7.849H445.13v18Zm27.17-6a6.278,6.278,0,1,0-6.265,6.241A6.159,6.159,0,0,0,472.3,903.294Zm-10.442,0a4.167,4.167,0,1,1,4.177,4.321A4.125,4.125,0,0,1,461.858,903.294Zm13.895,0a6.328,6.328,0,0,0,11.618,3.385l-1.632-1.128a4.25,4.25,0,0,1-7.9-1.849h9.842a5.856,5.856,0,0,0,.024-0.624c-0.024-3.841-2.568-6.025-5.713-6.025A6.081,6.081,0,0,0,475.753,903.294Zm6.169-4.417a3.591,3.591,0,0,1,3.673,3.145h-7.61A3.924,3.924,0,0,1,481.922,898.877Zm17.929,7.082c0-1.8-1.129-2.953-3.169-3.625l-1.3-.432c-1.417-.456-1.849-0.912-1.849-1.681,0-.888.888-1.392,2.017-1.392a3.242,3.242,0,0,1,2.544,1.248l1.345-1.3a4.657,4.657,0,0,0-3.841-1.728c-2.377,0-4.057,1.32-4.057,3.264,0,1.681,1.032,2.857,2.976,3.481l1.177,0.384c1.56,0.5,2.136,1.08,2.136,1.921,0,1.032-.936,1.632-2.112,1.632a3.221,3.221,0,0,1-3.073-1.9l-1.68.912a4.767,4.767,0,0,0,4.7,2.784C498.1,909.535,499.851,908.311,499.851,905.959Zm10.749-2.665a6.006,6.006,0,0,0,5.881,6.241,5.263,5.263,0,0,0,4.225-2.088V909.3h2.065v-12h-2.065v1.848a5.263,5.263,0,0,0-4.225-2.088A6.006,6.006,0,0,0,510.6,903.294Zm10.274,0a4.1,4.1,0,1,1-4.08-4.345A4.1,4.1,0,0,1,520.874,903.294Zm7.222,6h2.065v-5.953c0-2.809,1.536-4.393,3.48-4.393,1.681,0,2.833,1.248,2.833,3.265V909.3h2.04V901.9c0-2.977-1.848-4.849-4.537-4.849a4.243,4.243,0,0,0-3.816,2.088v-1.848H528.1v12Zm14.64-6a6.005,6.005,0,0,0,5.881,6.241,5.264,5.264,0,0,0,4.225-2.088V909.3h2.064v-18h-2.064v7.849a5.264,5.264,0,0,0-4.225-2.088A6.005,6.005,0,0,0,542.736,903.294Zm10.274,0a4.1,4.1,0,1,1-4.081-4.345A4.1,4.1,0,0,1,553.01,903.294Zm20.615,5.833v-1.848a4.562,4.562,0,0,1-1.464.24c-1.3,0-1.993-.5-1.993-2.041v-6.289h3.457v-1.9h-3.457v-3.337H568.1v3.337h-2.545v1.9H568.1v6.554a3.378,3.378,0,0,0,3.672,3.672A5.744,5.744,0,0,0,573.625,909.127Zm15.5-5.833a6.278,6.278,0,1,0-6.265,6.241A6.159,6.159,0,0,0,589.13,903.294Zm-10.442,0a4.168,4.168,0,1,1,4.177,4.321A4.125,4.125,0,0,1,578.688,903.294Zm21.121,5.833v-1.848a4.562,4.562,0,0,1-1.464.24c-1.3,0-1.993-.5-1.993-2.041v-6.289h3.457v-1.9h-3.457v-3.337h-2.064v3.337h-2.545v1.9h2.545v6.554a3.378,3.378,0,0,0,3.673,3.672A5.743,5.743,0,0,0,599.809,909.127Zm2.975-5.833a6.328,6.328,0,0,0,11.618,3.385l-1.632-1.128a4.25,4.25,0,0,1-7.9-1.849h9.842a5.856,5.856,0,0,0,.024-0.624c-0.024-3.841-2.568-6.025-5.713-6.025A6.081,6.081,0,0,0,602.784,903.294Zm6.169-4.417a3.591,3.591,0,0,1,3.673,3.145h-7.61A3.924,3.924,0,0,1,608.953,898.877Zm17.928,7.082c0-1.8-1.128-2.953-3.168-3.625l-1.3-.432c-1.416-.456-1.848-0.912-1.848-1.681,0-.888.888-1.392,2.016-1.392a3.243,3.243,0,0,1,2.545,1.248l1.344-1.3a4.654,4.654,0,0,0-3.841-1.728c-2.376,0-4.056,1.32-4.056,3.264,0,1.681,1.032,2.857,2.976,3.481l1.176,0.384c1.561,0.5,2.137,1.08,2.137,1.921,0,1.032-.936,1.632-2.113,1.632a3.221,3.221,0,0,1-3.072-1.9l-1.681.912a4.769,4.769,0,0,0,4.7,2.784C625.129,909.535,626.881,908.311,626.881,905.959ZM188.837,945.3H190.9V935.189h3.48v-1.9H190.9v-2.209c0-1.512.672-2.04,1.992-2.04a4.833,4.833,0,0,1,1.488.24v-1.825a5.454,5.454,0,0,0-1.872-.312,3.429,3.429,0,0,0-3.673,3.721v2.425h-2.544v1.9h2.544V945.3Zm9.072-4.633c0,2.977,1.776,4.873,4.417,4.873a4.129,4.129,0,0,0,3.7-2.088V945.3h2.065v-12h-2.065v5.953c0,2.761-1.464,4.393-3.336,4.393-1.657,0-2.713-1.272-2.713-3.289v-7.057h-2.064v7.369Zm15.5,4.633h2.064v-18h-2.064v18Zm7.415,0h2.065v-18h-2.065v18Zm26.306-6a6.277,6.277,0,1,0-6.265,6.241A6.159,6.159,0,0,0,247.134,939.294Zm-10.442,0a4.168,4.168,0,1,1,4.177,4.321A4.126,4.126,0,0,1,236.692,939.294Zm15.648,6H254.4V935.189h3.481v-1.9H254.4v-2.209c0-1.512.673-2.04,1.993-2.04a4.833,4.833,0,0,1,1.488.24v-1.825a5.454,5.454,0,0,0-1.872-.312,3.428,3.428,0,0,0-3.673,3.721v2.425H249.8v1.9h2.545V945.3Zm16.608,0h2.065V935.189h3.48v-1.9h-3.48v-2.209c0-1.512.672-2.04,1.992-2.04a4.833,4.833,0,0,1,1.488.24v-1.825a5.454,5.454,0,0,0-1.872-.312,3.428,3.428,0,0,0-3.673,3.721v2.425H266.4v1.9h2.544V945.3Zm9.072-4.633c0,2.977,1.776,4.873,4.417,4.873a4.129,4.129,0,0,0,3.7-2.088V945.3H288.2v-12h-2.065v5.953c0,2.761-1.464,4.393-3.336,4.393-1.657,0-2.713-1.272-2.713-3.289v-7.057H278.02v7.369Zm15.5,4.633h2.064v-5.953c0-2.809,1.536-4.393,3.481-4.393,1.68,0,2.832,1.248,2.832,3.265V945.3h2.041V937.9c0-2.977-1.849-4.849-4.537-4.849a4.244,4.244,0,0,0-3.817,2.088v-1.848h-2.064v12ZM320,942.319l-1.8-1.009a4.067,4.067,0,0,1-3.745,2.305,4.323,4.323,0,0,1,0-8.642,4.067,4.067,0,0,1,3.745,2.305l1.8-1.009a6.218,6.218,0,0,0-5.546-3.216,6.241,6.241,0,1,0,0,12.482A6.218,6.218,0,0,0,320,942.319Zm10.606,2.808v-1.848a4.562,4.562,0,0,1-1.464.24c-1.3,0-1.992-.5-1.992-2.04v-6.29H330.6v-1.9h-3.456v-3.337h-2.065v3.337h-2.544v1.9h2.544v6.554a3.379,3.379,0,0,0,3.673,3.672A5.743,5.743,0,0,0,330.6,945.127Zm6.575-16.515a1.45,1.45,0,0,0-1.44-1.465,1.492,1.492,0,0,0-1.488,1.465,1.475,1.475,0,0,0,1.488,1.464A1.434,1.434,0,0,0,337.179,928.612Zm-2.5,16.683h2.064v-12h-2.064v12Zm19.01-6a6.277,6.277,0,1,0-6.265,6.241A6.159,6.159,0,0,0,353.693,939.294Zm-10.442,0a4.168,4.168,0,1,1,4.177,4.321A4.126,4.126,0,0,1,343.251,939.294Zm14.831,6h2.065v-5.953c0-2.809,1.536-4.393,3.481-4.393,1.68,0,2.832,1.248,2.832,3.265V945.3H368.5V937.9c0-2.977-1.849-4.849-4.537-4.849a4.244,4.244,0,0,0-3.817,2.088v-1.848h-2.065v12Zm21.936-6a6.005,6.005,0,0,0,5.881,6.241,5.264,5.264,0,0,0,4.225-2.088V945.3h2.064v-12h-2.064v1.848a5.264,5.264,0,0,0-4.225-2.088A6.005,6.005,0,0,0,380.018,939.294Zm10.274,0a4.1,4.1,0,1,1-4.081-4.345A4.1,4.1,0,0,1,390.292,939.294Zm7.222,6h2.064v-5.953c0-2.809,1.536-4.393,3.481-4.393,1.68,0,2.832,1.248,2.832,3.265V945.3h2.041V937.9c0-2.977-1.849-4.849-4.537-4.849a4.245,4.245,0,0,0-3.817,2.088v-1.848h-2.064v12Zm14.639-6a6.006,6.006,0,0,0,5.881,6.241,5.263,5.263,0,0,0,4.225-2.088V945.3h2.065v-18h-2.065v7.85a5.263,5.263,0,0,0-4.225-2.088A6.006,6.006,0,0,0,412.153,939.294Zm10.274,0a4.1,4.1,0,1,1-4.081-4.345A4.1,4.1,0,0,1,422.427,939.294Zm14.518,11.018h2.064v-6.865a5.264,5.264,0,0,0,4.225,2.088,6.252,6.252,0,0,0,0-12.482,5.264,5.264,0,0,0-4.225,2.088v-1.848h-2.064v17.019ZM447,939.294a4.089,4.089,0,1,1-4.081-4.345A4.1,4.1,0,0,1,447,939.294Zm5.59,0a6.328,6.328,0,0,0,11.618,3.385l-1.632-1.129a4.25,4.25,0,0,1-7.9-1.848h9.842a5.856,5.856,0,0,0,.024-0.624c-0.024-3.841-2.568-6.025-5.713-6.025A6.081,6.081,0,0,0,452.593,939.294Zm6.169-4.417a3.591,3.591,0,0,1,3.673,3.145h-7.61A3.923,3.923,0,0,1,458.762,934.877ZM468.913,945.3h2.064v-5.953c0-2.809,1.656-4.129,3.169-4.129a3.017,3.017,0,0,1,1.128.192v-2.136a4.276,4.276,0,0,0-.936-0.1,3.57,3.57,0,0,0-3.361,2.448v-2.328h-2.064v12Zm17.786-3.336c0-1.8-1.129-2.953-3.169-3.625l-1.3-.432c-1.417-.456-1.849-0.912-1.849-1.681,0-.888.888-1.392,2.017-1.392a3.242,3.242,0,0,1,2.544,1.248l1.344-1.3a4.654,4.654,0,0,0-3.84-1.728c-2.377,0-4.057,1.32-4.057,3.264,0,1.681,1.032,2.857,2.976,3.481l1.177,0.384c1.56,0.5,2.136,1.08,2.136,1.921,0,1.032-.936,1.632-2.112,1.632a3.221,3.221,0,0,1-3.073-1.9l-1.68.912a4.767,4.767,0,0,0,4.7,2.784C484.946,945.535,486.7,944.311,486.7,941.959Zm15.984-2.665a6.278,6.278,0,1,0-6.265,6.241A6.159,6.159,0,0,0,502.683,939.294Zm-10.442,0a4.168,4.168,0,1,1,4.177,4.321A4.126,4.126,0,0,1,492.241,939.294Zm14.831,6h2.065v-5.953c0-2.809,1.536-4.393,3.481-4.393,1.68,0,2.832,1.248,2.832,3.265V945.3h2.041V937.9c0-2.977-1.849-4.849-4.537-4.849a4.244,4.244,0,0,0-3.817,2.088v-1.848h-2.065v12Zm14.64-6a6.005,6.005,0,0,0,5.881,6.241,5.263,5.263,0,0,0,4.225-2.088V945.3h2.064v-12h-2.064v1.848a5.263,5.263,0,0,0-4.225-2.088A6.005,6.005,0,0,0,521.712,939.294Zm10.274,0a4.1,4.1,0,1,1-4.081-4.345A4.1,4.1,0,0,1,531.986,939.294Zm7.222,6h2.064v-18h-2.064v18Zm9.912-16.683a1.45,1.45,0,0,0-1.44-1.465,1.492,1.492,0,0,0-1.488,1.465,1.475,1.475,0,0,0,1.488,1.464A1.434,1.434,0,0,0,549.12,928.612Zm-2.5,16.683h2.064v-12h-2.064v12Zm13.921-.168v-1.848a4.562,4.562,0,0,1-1.464.24c-1.3,0-1.993-.5-1.993-2.04v-6.29h3.457v-1.9h-3.457v-3.337h-2.064v3.337h-2.545v1.9h2.545v6.554a3.378,3.378,0,0,0,3.672,3.672A5.744,5.744,0,0,0,560.545,945.127Zm7.271,5.185,7.874-17.019h-2.305l-4.105,9.1-4.128-9.1h-2.281l5.257,11.378-2.616,5.641h2.3Zm13.056-6.625a1.777,1.777,0,1,0-1.776,1.8A1.808,1.808,0,0,0,580.872,943.687Z"/>
  <g id="CTA_black_copy" data-name="CTA_black copy">
    <path class="cls-2" d="M232.793,999.616H532.811V1059.6H232.793V999.616Z"/>
    <path id="shop_accessories" data-name="shop accessories" class="cls-1" d="M279.575,1037.06c2.6,0,4.384-1.62,4.4-3.94a3.927,3.927,0,0,0-2.929-3.82l-0.866-.32c-1.3-.49-1.907-0.8-1.907-1.48a1.261,1.261,0,0,1,1.491-.97,2.7,2.7,0,0,1,2.131,1.06l1.8-1.98a5.032,5.032,0,0,0-3.968-1.76c-2.461,0-4.246,1.45-4.246,3.94,0,1.74,1.109,2.99,3.1,3.69l0.867,0.31c1.23,0.43,1.715.88,1.715,1.53a1.256,1.256,0,0,1-1.49,1.06,3.186,3.186,0,0,1-2.547-1.46l-2.115,1.85A5.333,5.333,0,0,0,279.575,1037.06Zm9.425-.22h2.756v-5.05h4.956v5.05h2.755v-12.78h-2.755v5.01h-4.956v-5.01H289v12.78Zm21.851,0.22a6.61,6.61,0,1,0-6.36-6.61A6.5,6.5,0,0,0,310.851,1037.06Zm0-2.77a3.845,3.845,0,1,1,3.57-3.84A3.733,3.733,0,0,1,310.851,1034.29Zm19.892-5.85a4.272,4.272,0,0,0-4.333-4.38h-4.176v12.78h2.755v-4.05h1.421A4.253,4.253,0,0,0,330.743,1028.44Zm-2.669,0a1.649,1.649,0,0,1-1.7,1.67h-1.387v-3.35h1.387A1.64,1.64,0,0,1,328.074,1028.44Zm12.162,8.4h2.877l1.092-2.7h5.1l1.091,2.7h2.877L348,1024.06h-2.5Zm4.974-5.18,1.542-3.85,1.542,3.85H345.21Zm17.57,5.4a6.336,6.336,0,0,0,5.753-3.49l-2.426-1.37a3.639,3.639,0,0,1-3.327,2.09,3.844,3.844,0,0,1,0-7.67,3.639,3.639,0,0,1,3.327,2.09l2.426-1.37a6.318,6.318,0,0,0-5.753-3.49A6.61,6.61,0,0,0,362.78,1037.06Zm16.149,0a6.336,6.336,0,0,0,5.753-3.49l-2.426-1.37a3.639,3.639,0,0,1-3.327,2.09,3.844,3.844,0,0,1,0-7.67,3.639,3.639,0,0,1,3.327,2.09l2.426-1.37a6.318,6.318,0,0,0-5.753-3.49A6.61,6.61,0,0,0,378.929,1037.06Zm10.482-.22h7.8v-2.73h-5.042v-2.29h4v-2.74h-4v-2.28h5.042v-2.74h-7.8v12.78Zm16.687,0.22c2.6,0,4.384-1.62,4.4-3.94a3.927,3.927,0,0,0-2.929-3.82l-0.867-.32c-1.3-.49-1.906-0.8-1.906-1.48a1.261,1.261,0,0,1,1.491-.97,2.7,2.7,0,0,1,2.131,1.06l1.8-1.98a5.034,5.034,0,0,0-3.968-1.76c-2.461,0-4.246,1.45-4.246,3.94,0,1.74,1.109,2.99,3.1,3.69l0.867,0.31c1.23,0.43,1.715.88,1.715,1.53a1.256,1.256,0,0,1-1.49,1.06,3.189,3.189,0,0,1-2.548-1.46l-2.114,1.85A5.332,5.332,0,0,0,406.1,1037.06Zm13.1,0c2.6,0,4.384-1.62,4.4-3.94a3.927,3.927,0,0,0-2.929-3.82l-0.866-.32c-1.3-.49-1.907-0.8-1.907-1.48a1.262,1.262,0,0,1,1.491-.97,2.7,2.7,0,0,1,2.131,1.06l1.8-1.98a5.032,5.032,0,0,0-3.968-1.76c-2.461,0-4.246,1.45-4.246,3.94,0,1.74,1.109,2.99,3.1,3.69l0.867,0.31c1.23,0.43,1.715.88,1.715,1.53a1.256,1.256,0,0,1-1.49,1.06,3.186,3.186,0,0,1-2.547-1.46l-2.114,1.85A5.33,5.33,0,0,0,419.2,1037.06Zm15.092,0a6.61,6.61,0,1,0-6.36-6.61A6.5,6.5,0,0,0,434.289,1037.06Zm0-2.77a3.845,3.845,0,1,1,3.57-3.84A3.733,3.733,0,0,1,434.289,1034.29Zm11.383,2.55h2.756v-5.27h0.45l4.09,5.27h3.31l-4.35-5.63a3.289,3.289,0,0,0,2.409-3.3,3.7,3.7,0,0,0-3.812-3.85h-4.853v12.78Zm2.756-7.7v-2.45H450.2a1.241,1.241,0,0,1,1.4,1.22,1.265,1.265,0,0,1-1.4,1.23h-1.767Zm11.834,7.7h2.755v-12.78h-2.755v12.78Zm8.473,0h7.8v-2.73H471.49v-2.29h4v-2.74h-4v-2.28h5.043v-2.74h-7.8v12.78Zm16.686,0.22c2.6,0,4.384-1.62,4.4-3.94a3.927,3.927,0,0,0-2.929-3.82l-0.866-.32c-1.3-.49-1.907-0.8-1.907-1.48a1.262,1.262,0,0,1,1.491-.97,2.7,2.7,0,0,1,2.131,1.06l1.8-1.98a5.032,5.032,0,0,0-3.968-1.76c-2.461,0-4.246,1.45-4.246,3.94,0,1.74,1.109,2.99,3.1,3.69l0.867,0.31c1.23,0.43,1.715.88,1.715,1.53a1.256,1.256,0,0,1-1.49,1.06,3.186,3.186,0,0,1-2.547-1.46l-2.114,1.85A5.33,5.33,0,0,0,485.421,1037.06Z"/>
  </g>
  <path id="on-the-go_extras" data-name="on-the-go extras" class="cls-2" d="M214.65,110.345A31.141,31.141,0,1,0,183.509,79.2,31.217,31.217,0,0,0,214.65,110.345Zm0-13.068c-9.843,0-17.565-8.316-17.565-18.074S204.807,61.13,214.65,61.13c9.758,0,17.48,8.315,17.48,18.074S224.408,97.277,214.65,97.277ZM314.7,109.327V49.081H301.12V86.247L271.845,49.081H260.22v60.246h13.492V72.076l29.359,37.251H314.7Zm16.382-24.014h24.946V73.094H331.078V85.313Zm46.161,24.014h13.577V61.979h15.528v-12.9H361.881v12.9h15.358v47.349Zm42.43,0h13.492V85.483h24.268v23.844H470.92V49.081H457.429V72.67H433.161V49.081H419.669v60.246Zm69.076,0h38.183v-12.9H502.236V85.653h19.6v-12.9h-19.6V61.979h24.692v-12.9H488.745v60.246Zm50.237-24.014h24.947V73.094H538.982V85.313Zm70.77,25.032c9.758,0,19.346-2.885,24.692-8.91V72.84H609.5V85.483h11.8v8.91c-2.546,2.037-6.958,2.885-11.71,2.885-11.794,0-19.007-7.806-19.007-18.074A17.685,17.685,0,0,1,608.734,61.13a20.005,20.005,0,0,1,15.188,6.449l9.5-9.249c-5.77-6.364-14-10.267-24.692-10.267-18.668,0-31.735,14-31.735,31.141C577,96.853,591,110.345,609.752,110.345Zm68.141,0A31.141,31.141,0,1,0,646.752,79.2,31.217,31.217,0,0,0,677.893,110.345Zm0-13.068c-9.843,0-17.565-8.316-17.565-18.074S668.05,61.13,677.893,61.13c9.758,0,17.48,8.315,17.48,18.074S687.651,97.277,677.893,97.277Zm-490.99,81h38.184v-12.9H200.4V154.6H220V141.7H200.4V130.927h24.692v-12.9H186.9v60.246Zm91.985,0h15.7L272.1,147.813l21.128-29.784H277.615l-13.661,19.347-13.662-19.347H234.679l21.214,29.784-22.571,30.462H249.1l14.934-19.941Zm37.255,0h13.576V130.927h15.528v-12.9H300.784v12.9h15.359v47.348Zm42.43,0h13.491V153.413h2.206L394.3,178.275H410.5l-21.3-26.559C396.841,149,401,143.994,401,136.188c0-10.013-7.3-18.159-18.668-18.159H358.573v60.246Zm13.491-36.317v-11.54h8.655c3.988,0,6.873,2.121,6.873,5.77,0,3.479-2.885,5.77-6.873,5.77h-8.655Zm41.327,36.317h14.086l5.346-12.728h24.946l5.346,12.728H477.2l-25.8-60.246H439.187Zm24.353-24.438,7.552-18.158,7.552,18.158h-15.1Zm67.209,25.456c12.728,0,21.468-7.637,21.553-18.583,0.085-9.079-5.6-14.849-14.341-17.989l-4.242-1.527c-6.364-2.291-9.334-3.734-9.334-6.958,0-3.14,3.649-4.582,7.3-4.582a13.4,13.4,0,0,1,10.437,5.006l8.825-9.334a25.139,25.139,0,0,0-19.431-8.315c-12.05,0-20.789,6.873-20.789,18.583,0,8.23,5.43,14.085,15.188,17.4l4.243,1.442c6.025,2.037,8.4,4.158,8.4,7.213,0,2.885-2.8,5.006-7.3,5.006a15.763,15.763,0,0,1-12.473-6.873l-10.352,8.74C487.3,175.305,495.449,179.293,504.953,179.293Z"/>
  <path id="_5" data-name="5" class="cls-3" d="M96.229,197.216c35.563,0,58.491-20.823,58.491-55.216,0-33.691-19.653-57.322-51.472-57.322-8.423,0-15.676,1.638-21.291,4.445l5.615-26.438h54.514V28.526H60.432L41.247,124.218l30.65,9.593C75.172,123.75,84.062,116.5,96.463,116.5c13.1,0,22.928,9.827,22.928,22.929,0,12.868-7.955,22.929-23.162,22.929-11.464,0-21.057-7.019-23.631-16.846H36.1C37.5,176.393,65.579,197.216,96.229,197.216Z"/>
</svg>
