<svg id="tee_copy" data-name="tee copy" xmlns="http://www.w3.org/2000/svg" width="298" height="66" viewBox="0 0 298 66">
  <defs>
    <style>
      .cls-1 {
        fill-rule: evenodd;
      }
    </style>
  </defs>
  <g id="layer2">
    <path id="Roll_with_it_in_our_softer_than_ever_Authentic_SUPIMA_Cotton_T" data-name="Roll with it in our softer than ever Authentic SUPIMA® Cotton T" class="cls-1" d="M-43.062,463.578c-1.95-.69-2.19-1.59-4.319-6.21l-0.39-.809c-1.29-2.79-2.94-3.18-2.94-3.18s5.309-.87,5.309-5.789c0-3.6-3.33-4.41-5.039-4.41H-57.46a1.657,1.657,0,0,1,.66,1.53,4.726,4.726,0,0,1-.09.84l-2.46,15.658c-0.24,1.47-.63,2.13-1.11,2.37h5.219a1.777,1.777,0,0,1-.81-1.74,4.87,4.87,0,0,1,.03-0.63l1.14-7.229s0.45-.03.93-0.03c0.78,0,1.74.78,2.67,2.939l2.28,5.19a2.081,2.081,0,0,0,1.92,1.53Zm-5.789-15.628c0,3.449-2.43,4.619-4.739,4.619a7.35,7.35,0,0,1-1.08-.06l1.14-7.5a2.913,2.913,0,0,1,1.59-.36C-50.171,444.65-48.851,445.64-48.851,447.95Zm19.44,7.169c0-3.78-2.49-5.849-5.579-5.849-4.8,0-7.409,4.559-7.409,8.668,0,3.75,2.46,5.879,5.579,5.879C-31.9,463.817-29.411,459.348-29.411,455.119Zm-3.18.03c0,3.479-1.26,7.289-3.869,7.289-1.5,0-2.76-1.92-2.76-4.5,0-3.419,1.26-7.289,3.839-7.289C-33.851,450.649-32.591,452.569-32.591,455.149ZM-20.26,442.94l-4.169.72a1.182,1.182,0,0,1,.66,1.35,8.669,8.669,0,0,1-.15,1.59l-1.41,9.029a52.162,52.162,0,0,0-.72,6.449,1.488,1.488,0,0,0,1.71,1.649c0.36,0,2.28-.06,2.7-0.149-0.81-.36-1.02-0.87-1.02-3.18a45.455,45.455,0,0,1,.63-5.969Zm8.58,0-4.169.72a1.182,1.182,0,0,1,.66,1.35,8.669,8.669,0,0,1-.15,1.59l-1.41,9.029a52.162,52.162,0,0,0-.72,6.449,1.488,1.488,0,0,0,1.71,1.649c0.36,0,2.28-.06,2.7-0.149-0.81-.36-1.02-0.87-1.02-3.18a45.455,45.455,0,0,1,.63-5.969Zm29.308,10.739c0-3.3-1.95-4.769-3.6-4.769a3.236,3.236,0,0,0-2.28.749c1.29,0.12,2.909,1.62,2.909,4.8,0,5.879-3.869,7.289-3.869,7.289l-1.44-9.029c-0.24-1.5-.36-3.06-0.36-3.06H7.459a111.226,111.226,0,0,1-4.5,10.859L1.88,452.6a7.988,7.988,0,0,1-.09-1.17c0-1.11.39-1.59,0.93-1.77H-2.71c0.6,0.24.99,0.72,1.26,2.37l1.77,11.818h3l3.45-8.488,1.38,8.488C13.968,463.847,17.627,457.608,17.627,453.679Zm8.312-8.609a1.785,1.785,0,1,0-1.8,1.8A1.812,1.812,0,0,0,25.94,445.07Zm-0.87,4.2-4.139.719a1.2,1.2,0,0,1,.66,1.38,10.054,10.054,0,0,1-.18,1.65l-0.36,2.43a54.326,54.326,0,0,0-.72,6.6,1.489,1.489,0,0,0,1.68,1.679c0.36,0,2.28-.06,2.73-0.149-0.81-.39-1.05-0.9-1.05-3.24a53.817,53.817,0,0,1,.63-6.119Zm11.909,0.389H33.02l0.57-3.179-5.339,4.769h1.5l-1.29,7.889a6.78,6.78,0,0,0-.09,1.05c0,2.49,1.38,3.629,3.629,3.629a3.731,3.731,0,0,0,3.9-2.909,3.255,3.255,0,0,1-2.4,1.05c-0.81,0-1.92-.36-1.92-2.31a5.07,5.07,0,0,1,.09-0.9l1.08-7.5H36.74Zm15.18,13.919c-0.81-.39-1.02-0.9-1.02-3.24,0-1.71.39-5.009,0.39-5.969,0-3.54-1.74-5.1-4.169-5.1a4.379,4.379,0,0,0-3.839,2.219l1.41-8.639-4.2.75c0.39,0.09.6,0.57,0.6,1.47a13.529,13.529,0,0,1-.21,2.19L38.9,461.6c-0.18,1.29-.51,1.74-0.99,1.98H42.53a1.641,1.641,0,0,1-.57-1.5,5.342,5.342,0,0,1,.06-0.93l1.23-7.859a3.313,3.313,0,0,1,2.7-1.95c1.44,0,2.43.87,2.43,3.03,0,2.369-.45,5.279-0.45,7.679a1.4,1.4,0,0,0,1.56,1.679C49.849,463.727,51.739,463.667,52.159,463.578ZM67.64,445.07a1.785,1.785,0,1,0-1.8,1.8A1.812,1.812,0,0,0,67.64,445.07Zm-0.87,4.2-4.139.719a1.2,1.2,0,0,1,.66,1.38,10.054,10.054,0,0,1-.18,1.65l-0.36,2.43a54.306,54.306,0,0,0-.72,6.6,1.489,1.489,0,0,0,1.68,1.679c0.36,0,2.28-.06,2.73-0.149-0.81-.39-1.05-0.9-1.05-3.24a53.841,53.841,0,0,1,.63-6.119Zm11.91,0.389H74.72l0.57-3.179-5.339,4.769h1.5l-1.29,7.889a6.769,6.769,0,0,0-.09,1.05c0,2.49,1.38,3.629,3.63,3.629a3.731,3.731,0,0,0,3.9-2.909,3.255,3.255,0,0,1-2.4,1.05c-0.81,0-1.92-.36-1.92-2.31a5.079,5.079,0,0,1,.09-0.9l1.08-7.5h3.989Zm14.55-4.589a1.785,1.785,0,1,0-1.8,1.8A1.812,1.812,0,0,0,93.23,445.07Zm-0.87,4.2-4.14.719a1.2,1.2,0,0,1,.66,1.38,10.054,10.054,0,0,1-.18,1.65l-0.36,2.43a54.326,54.326,0,0,0-.72,6.6,1.489,1.489,0,0,0,1.68,1.679c0.36,0,2.28-.06,2.73-0.149-0.81-.39-1.05-0.9-1.05-3.24a53.817,53.817,0,0,1,.63-6.119Zm16.529,14.308c-0.81-.39-1.02-0.9-1.02-3.24,0-1.71.42-5.009,0.42-5.969,0-3.54-1.77-5.1-4.2-5.1a4.4,4.4,0,0,0-3.869,2.279l0.33-2.309-4.08.719c0.33,0.12.63,0.6,0.63,1.68a13.586,13.586,0,0,1-.12,1.38l-1.32,8.579c-0.21,1.29-.54,1.74-0.99,1.98H99.26a1.641,1.641,0,0,1-.57-1.5,5.676,5.676,0,0,1,.09-0.93l1.2-7.859a3.314,3.314,0,0,1,2.7-1.95c1.47,0,2.46.99,2.46,3.03,0,2.369-.48,5.279-0.48,7.679a1.409,1.409,0,0,0,1.56,1.679C106.579,463.727,108.469,463.667,108.889,463.578Zm22.65-8.459c0-3.78-2.49-5.849-5.58-5.849-4.8,0-7.409,4.559-7.409,8.668,0,3.75,2.46,5.879,5.58,5.879C129.049,463.817,131.539,459.348,131.539,455.119Zm-3.18.03c0,3.479-1.26,7.289-3.869,7.289-1.5,0-2.76-1.92-2.76-4.5,0-3.419,1.26-7.289,3.839-7.289C127.1,450.649,128.359,452.569,128.359,455.149Zm19.469-5.879-4.2.719c0.54,0.21.69,0.81,0.54,2.22a12.35,12.35,0,0,1-.15,1.35l-0.27,1.65c-0.36,2.249-.72,4.649-0.81,5.339a3.783,3.783,0,0,1-2.61,1.23c-1.29,0-2.039-.75-2.039-2.52a24.058,24.058,0,0,1,.329-3.569l0.96-6.419-4.169.719a1.062,1.062,0,0,1,.66,1.23,17.132,17.132,0,0,1-.15,1.8l-0.6,3.749a15.115,15.115,0,0,0-.24,2.85c0,2.61,1.38,4.2,3.9,4.2a6.181,6.181,0,0,0,3.96-1.739,1.387,1.387,0,0,0,1.56,1.649c0.36,0,2.369-.06,2.819-0.149-0.84-.39-1.05-0.9-1.05-3.24C146.268,458.208,147.828,449.27,147.828,449.27Zm13.531,3.719c0-2.61-.81-3.719-2.58-3.719-2.22,0-3.24,2.7-3.24,2.7l0.42-2.7-4.079.719a1.657,1.657,0,0,1,.6,1.59,8.707,8.707,0,0,1-.12,1.44l-1.32,8.579c-0.21,1.41-.54,1.74-1.02,1.98h4.68a1.707,1.707,0,0,1-.51-1.5c0-.27.03-0.6,0.06-0.93l0.809-5.309c0.27-1.74,1.35-4.08,3.54-4.08A3.505,3.505,0,0,1,161.359,452.989Zm16.41-2.79a6.413,6.413,0,0,0-3.57-.929c-2.07,0-4.259,1.2-4.259,3.959a4.751,4.751,0,0,0,2.009,3.449c1.26,1.08,2.37,1.98,2.37,3.39a2.039,2.039,0,0,1-2.16,2.16c-1.559,0-2.639-1.26-3.059-3.57l-0.27,3.72a4.913,4.913,0,0,0,3.9,1.439c2.22,0,4.89-1.229,4.89-4.229,0-1.89-1.41-3.269-3-4.559-1.2-.96-1.65-1.65-1.65-2.61a1.726,1.726,0,0,1,1.86-1.77c1.86,0,2.49,1.92,2.82,3ZM194,455.119c0-3.78-2.49-5.849-5.579-5.849-4.8,0-7.409,4.559-7.409,8.668,0,3.75,2.459,5.879,5.579,5.879C191.508,463.817,194,459.348,194,455.119Zm-3.18.03c0,3.479-1.26,7.289-3.869,7.289-1.5,0-2.76-1.92-2.76-4.5,0-3.419,1.26-7.289,3.84-7.289C189.558,450.649,190.818,452.569,190.818,455.149Zm16.02-8.489v-2.94a4.084,4.084,0,0,0-2.819-.87c-2.64,0-4.2,1.32-4.77,5.16l-0.24,1.679h-1.38l-0.24,1.47h1.38l-1.38,9.269c-0.839,5.549-2.909,6.059-3.839,6.239a1.951,1.951,0,0,0,1.95,1.2c2.249,0,4.169-1.47,4.919-6.719l1.41-9.989h3.809l0.24-1.47h-3.839l0.33-2.4c0.24-1.56.66-3,2.129-3C206.058,444.29,206.838,446.66,206.838,446.66Zm9.93,3h-3.959l0.57-3.179-5.339,4.769h1.5l-1.289,7.889a6.769,6.769,0,0,0-.09,1.05c0,2.49,1.379,3.629,3.629,3.629a3.732,3.732,0,0,0,3.9-2.909,3.255,3.255,0,0,1-2.4,1.05c-0.81,0-1.92-.36-1.92-2.31a5.07,5.07,0,0,1,.09-0.9l1.08-7.5h3.989Zm13.23,6.18c0-4.32-1.92-6.569-5.429-6.569-3.9,0-6.959,3.419-6.959,7.948,0,4.11,2.459,6.6,6.149,6.6a6.2,6.2,0,0,0,5.939-4.829,6.768,6.768,0,0,1-4.859,2.64c-1.89,0-4.02-1.26-4.02-4.53a5.784,5.784,0,0,1,.12-1.259H230Zm-2.91-1.41h-5.909c0.54-2.25,1.71-3.81,3.3-3.81C226.608,450.619,227.088,452.929,227.088,454.429Zm16.051-1.44c0-2.61-.81-3.719-2.58-3.719-2.22,0-3.24,2.7-3.24,2.7l0.42-2.7-4.079.719a1.657,1.657,0,0,1,.6,1.59,8.707,8.707,0,0,1-.12,1.44l-1.32,8.579c-0.21,1.41-.54,1.74-1.02,1.98h4.679a1.71,1.71,0,0,1-.509-1.5c0-.27.03-0.6,0.06-0.93l0.809-5.309c0.27-1.74,1.35-4.08,3.54-4.08A3.505,3.505,0,0,1,243.139,452.989Zm16.86-3.33h-3.96l0.57-3.179-5.339,4.769h1.5l-1.29,7.889a6.769,6.769,0,0,0-.09,1.05c0,2.49,1.38,3.629,3.629,3.629a3.732,3.732,0,0,0,3.9-2.909,3.255,3.255,0,0,1-2.4,1.05c-0.81,0-1.92-.36-1.92-2.31a5.07,5.07,0,0,1,.09-0.9l1.08-7.5h3.99Zm15.179,13.919c-0.81-.39-1.02-0.9-1.02-3.24,0-1.71.39-5.009,0.39-5.969,0-3.54-1.74-5.1-4.169-5.1a4.38,4.38,0,0,0-3.84,2.219l1.41-8.639-4.2.75c0.39,0.09.6,0.57,0.6,1.47a13.529,13.529,0,0,1-.21,2.19L261.92,461.6c-0.18,1.29-.51,1.74-0.99,1.98h4.619a1.643,1.643,0,0,1-.569-1.5,5.333,5.333,0,0,1,.06-0.93l1.229-7.859a3.314,3.314,0,0,1,2.7-1.95c1.44,0,2.43.87,2.43,3.03,0,2.369-.45,5.279-0.45,7.679a1.4,1.4,0,0,0,1.559,1.679C272.868,463.727,274.758,463.667,275.178,463.578Zm16.44-14.308-3.18.959a5.751,5.751,0,0,0-3.179-.959c-3.15,0-7.019,2.339-7.019,9.148,0,2.76,1.08,5.4,4.349,5.4a5.632,5.632,0,0,0,3.96-1.739,1.387,1.387,0,0,0,1.559,1.649c0.36,0,2.37-.06,2.82-0.149-0.84-.39-1.05-0.9-1.05-3.24A75.776,75.776,0,0,1,291.618,449.27Zm-3.779,3.029c-0.12.75-.48,2.91-0.57,3.45-0.24,1.439-.51,3.179-0.66,4.829A3.956,3.956,0,0,1,284,461.9c-0.93,0-2.55-.84-2.55-3.84,0-3.059,1.38-7.349,4.26-7.349A2.21,2.21,0,0,1,287.839,452.3Zm19.979,11.279c-0.81-.39-1.02-0.9-1.02-3.24,0-1.71.42-5.009,0.42-5.969,0-3.54-1.77-5.1-4.2-5.1a4.4,4.4,0,0,0-3.87,2.279l0.33-2.309-4.079.719c0.33,0.12.63,0.6,0.63,1.68a13.586,13.586,0,0,1-.12,1.38l-1.32,8.579c-0.21,1.29-.54,1.74-0.99,1.98h4.589a1.641,1.641,0,0,1-.57-1.5,5.676,5.676,0,0,1,.09-0.93l1.2-7.859a3.314,3.314,0,0,1,2.7-1.95c1.47,0,2.46.99,2.46,3.03,0,2.369-.48,5.279-0.48,7.679a1.409,1.409,0,0,0,1.559,1.679C305.508,463.727,307.4,463.667,307.818,463.578ZM-47.261,495.839c0-4.32-1.92-6.569-5.429-6.569-3.9,0-6.959,3.419-6.959,7.948,0,4.11,2.46,6.6,6.149,6.6a6.2,6.2,0,0,0,5.939-4.829,6.767,6.767,0,0,1-4.859,2.64c-1.89,0-4.019-1.26-4.019-4.53a5.784,5.784,0,0,1,.12-1.259h9.059Zm-2.91-1.41H-56.08c0.54-2.25,1.71-3.81,3.3-3.81C-50.651,490.619-50.171,492.929-50.171,494.429Zm18.27-.75c0-3.3-1.95-4.679-3.6-4.679a3.392,3.392,0,0,0-2.28.659c1.29,0.12,2.88,1.62,2.88,4.8,0,5.909-4.02,7.289-4.02,7.289l-1.65-9.149a8.131,8.131,0,0,1-.12-1.2,1.68,1.68,0,0,1,.81-1.71h-5.1a3.356,3.356,0,0,1,1.14,2.34l2.16,11.818C-35.951,503.847-31.9,497.608-31.9,493.679Zm15.45,2.16c0-4.32-1.92-6.569-5.429-6.569-3.9,0-6.959,3.419-6.959,7.948,0,4.11,2.46,6.6,6.149,6.6a6.2,6.2,0,0,0,5.939-4.829,6.767,6.767,0,0,1-4.859,2.64c-1.89,0-4.02-1.26-4.02-4.53a5.784,5.784,0,0,1,.12-1.259h9.059Zm-2.91-1.41H-25.27c0.54-2.25,1.71-3.81,3.3-3.81C-19.841,490.619-19.361,492.929-19.361,494.429Zm16.05-1.44c0-2.61-.81-3.719-2.58-3.719-2.22,0-3.24,2.7-3.24,2.7l0.42-2.7-4.079.719a1.657,1.657,0,0,1,.6,1.59,8.707,8.707,0,0,1-.12,1.44l-1.32,8.579c-0.21,1.41-.54,1.74-1.02,1.98H-9.97a1.707,1.707,0,0,1-.51-1.5c0-.27.03-0.6,0.06-0.93l0.81-5.309c0.27-1.74,1.35-4.08,3.54-4.08A3.5,3.5,0,0,1-3.311,492.989Zm22.5,10.589a3.041,3.041,0,0,1-1.56-2.37l-4.169-18.6L3.771,500.428a8.815,8.815,0,0,1-2.31,3.15H5a0.959,0.959,0,0,1-.42-0.9,3.971,3.971,0,0,1,.54-1.71l1.95-3.69h6.239l0.72,3.93a3.363,3.363,0,0,1,.09.72,1.778,1.778,0,0,1-.75,1.65h5.819Zm-6.149-7.739H7.82l3.839-7.289Zm20.819-6.569-4.2.719c0.54,0.21.69,0.81,0.54,2.22a12.35,12.35,0,0,1-.15,1.35l-0.27,1.65c-0.36,2.249-.72,4.649-0.81,5.339a3.783,3.783,0,0,1-2.61,1.23c-1.29,0-2.04-.75-2.04-2.52a23.961,23.961,0,0,1,.33-3.569l0.96-6.419-4.169.719a1.061,1.061,0,0,1,.66,1.23,17.127,17.127,0,0,1-.15,1.8l-0.6,3.749a15.122,15.122,0,0,0-.24,2.85c0,2.61,1.38,4.2,3.9,4.2a6.18,6.18,0,0,0,3.96-1.739,1.387,1.387,0,0,0,1.56,1.649c0.36,0,2.37-.06,2.82-0.149-0.84-.39-1.05-0.9-1.05-3.24C32.3,498.208,33.858,489.27,33.858,489.27Zm11.791,0.389H41.69l0.57-3.179-5.339,4.769h1.5l-1.29,7.889a6.769,6.769,0,0,0-.09,1.05c0,2.49,1.38,3.629,3.63,3.629a3.731,3.731,0,0,0,3.9-2.909,3.255,3.255,0,0,1-2.4,1.05c-0.81,0-1.92-.36-1.92-2.31a5.07,5.07,0,0,1,.09-0.9l1.08-7.5h3.989Zm15.18,13.919c-0.81-.39-1.02-0.9-1.02-3.24,0-1.71.39-5.009,0.39-5.969,0-3.54-1.74-5.1-4.169-5.1a4.379,4.379,0,0,0-3.84,2.219l1.41-8.639-4.2.75c0.39,0.09.6,0.57,0.6,1.47a13.529,13.529,0,0,1-.21,2.19L47.571,501.6c-0.18,1.29-.51,1.74-0.99,1.98H51.2a1.641,1.641,0,0,1-.57-1.5,5.333,5.333,0,0,1,.06-0.93l1.23-7.859a3.313,3.313,0,0,1,2.7-1.95c1.44,0,2.43.87,2.43,3.03,0,2.369-.45,5.279-0.45,7.679a1.4,1.4,0,0,0,1.56,1.679C58.519,503.727,60.409,503.667,60.829,503.578Zm15.21-7.739c0-4.32-1.92-6.569-5.429-6.569-3.9,0-6.959,3.419-6.959,7.948,0,4.11,2.46,6.6,6.149,6.6a6.2,6.2,0,0,0,5.939-4.829,6.767,6.767,0,0,1-4.859,2.64c-1.89,0-4.019-1.26-4.019-4.53a5.784,5.784,0,0,1,.12-1.259h9.059Zm-2.91-1.41H67.22c0.54-2.25,1.71-3.81,3.3-3.81C72.649,490.619,73.129,492.929,73.129,494.429Zm18.9,9.149c-0.81-.39-1.02-0.9-1.02-3.24,0-1.71.42-5.009,0.42-5.969,0-3.54-1.77-5.1-4.2-5.1a4.4,4.4,0,0,0-3.869,2.279l0.33-2.309-4.079.719c0.33,0.12.63,0.6,0.63,1.68a13.586,13.586,0,0,1-.12,1.38L78.8,501.6c-0.21,1.29-.54,1.74-0.99,1.98H82.4a1.641,1.641,0,0,1-.57-1.5,5.676,5.676,0,0,1,.09-0.93l1.2-7.859a3.313,3.313,0,0,1,2.7-1.95c1.47,0,2.46.99,2.46,3.03,0,2.369-.48,5.279-0.48,7.679a1.409,1.409,0,0,0,1.56,1.679C89.719,503.727,91.608,503.667,92.028,503.578Zm11.941-13.919h-3.96l0.57-3.179-5.339,4.769h1.5l-1.29,7.889a6.769,6.769,0,0,0-.09,1.05c0,2.49,1.38,3.629,3.629,3.629a3.731,3.731,0,0,0,3.9-2.909,3.255,3.255,0,0,1-2.4,1.05c-0.809,0-1.919-.36-1.919-2.31a5.07,5.07,0,0,1,.09-0.9l1.08-7.5h3.989Zm7.891-4.589a1.785,1.785,0,1,0-1.8,1.8A1.812,1.812,0,0,0,111.86,485.07Zm-0.87,4.2-4.14.719a1.2,1.2,0,0,1,.66,1.38,10.054,10.054,0,0,1-.18,1.65l-0.36,2.43a54.308,54.308,0,0,0-.72,6.6,1.489,1.489,0,0,0,1.68,1.679c0.36,0,2.28-.06,2.73-0.149-0.81-.39-1.05-0.9-1.05-3.24a53.825,53.825,0,0,1,.63-6.119Zm14.609,1.2a7.126,7.126,0,0,0-3.9-1.2c-5.189,0-7.559,4.319-7.559,8.218,0,3.42,1.62,6.329,5.31,6.329a5.561,5.561,0,0,0,5.429-4.229,5.18,5.18,0,0,1-3.87,1.98c-2.279,0-3.6-1.68-3.6-4.53,0-3.119,1.41-6.329,4.469-6.329a3.729,3.729,0,0,1,3.36,3.06Zm20.46-6.389a9.158,9.158,0,0,0-4.89-1.26c-3.059,0-5.969,1.71-5.969,5.61,0,2.339,1.89,4.049,3.33,5.279,1.739,1.44,3.419,2.909,3.419,4.979a3.45,3.45,0,0,1-3.629,3.51c-2.16,0-4.02-1.62-4.74-4.11l-0.27,3.81c0.54,0.48,2.01,1.979,5.61,1.979,3.269,0,6.569-1.769,6.569-6.029,0-2.069-1.17-3.719-3.27-5.549-0.42-.36-0.84-0.69-1.2-0.99-1.8-1.47-2.489-2.519-2.489-4.049a2.8,2.8,0,0,1,3.089-2.88,4.521,4.521,0,0,1,4.29,3.15Zm20.759-.9h-3.87a1.891,1.891,0,0,1,.72,1.77,6.8,6.8,0,0,1-.12,1.26l-1.41,9.419c-0.629,4.169-2.519,6.3-5.1,6.3-2.549,0-3.869-1.53-3.869-4.08a14.975,14.975,0,0,1,.21-2.4l1.529-9.9c0.24-1.47.63-2.13,1.11-2.37H150.98a1.657,1.657,0,0,1,.66,1.53,4.726,4.726,0,0,1-.09.84l-1.74,10.769a10.2,10.2,0,0,0-.15,1.649c0,3.63,2.01,5.879,6.719,5.879,4.68,0,6.569-3.6,7.259-8.1,0.51-3.27,1.44-8.969,1.44-8.969C165.558,483.81,166.338,483.42,166.818,483.18Zm15.841,5.19c0-2.73-1.77-5.19-5.7-5.19H170.42a1.657,1.657,0,0,1,.66,1.53,4.726,4.726,0,0,1-.09.84l-2.459,15.658c-0.24,1.47-.63,2.13-1.11,2.37h4.8a1.1,1.1,0,0,1-.54-1.02v-0.33l1.29-8.1a7.989,7.989,0,0,0,3.12.57C178.7,494.7,182.659,492.929,182.659,488.37Zm-3.36-.09c0,3.509-2.13,4.979-4.409,4.979a5.858,5.858,0,0,1-1.74-.24l1.29-8.069a3.4,3.4,0,0,1,1.38-.3A3.3,3.3,0,0,1,179.3,488.28Zm12.9-5.1H187.16a1.657,1.657,0,0,1,.66,1.53,4.726,4.726,0,0,1-.09.84l-2.46,15.658c-0.24,1.47-.63,2.13-1.109,2.37H189.2a1.657,1.657,0,0,1-.66-1.53,4.726,4.726,0,0,1,.09-0.84l2.46-15.658C191.33,484.08,191.719,483.42,192.2,483.18Zm23.968,0h-3.089c-1.32,0-1.86,1.2-2.7,2.79l-5.969,11.188-2.07-11.428c-0.27-1.5-.84-2.55-2.009-2.55h-3.18a1.728,1.728,0,0,1,.66,1.53,4.461,4.461,0,0,1-.09.84l-2.85,14.428c-0.51,2.52-1.26,3.36-1.739,3.6h3.779a1.736,1.736,0,0,1-.6-1.56,7.73,7.73,0,0,1,.18-1.47l2.58-13.918,3.449,17.4,9.269-17.307-1.71,14.488c-0.18,1.44-.66,2.13-1.11,2.37h5.07c-0.39-.27-0.69-0.72-0.69-2.01a10.64,10.64,0,0,1,.06-1.32L215,485.55A2.8,2.8,0,0,1,216.167,483.18Zm17.491,20.4a3.04,3.04,0,0,1-1.559-2.37l-4.17-18.6-9.688,17.818a8.815,8.815,0,0,1-2.31,3.15h3.539a0.959,0.959,0,0,1-.42-0.9,3.97,3.97,0,0,1,.54-1.71l1.95-3.69h6.239l0.72,3.93a3.363,3.363,0,0,1,.09.72,1.778,1.778,0,0,1-.75,1.65h5.819Zm-6.149-7.739H222.29l3.839-7.289Zm21.6-8.129a5.3,5.3,0,0,0-5.249-4.95,6.131,6.131,0,0,0-6.029,6.39,5.242,5.242,0,0,0,5.189,4.919A6.136,6.136,0,0,0,249.108,487.71Zm-0.42.09a5.7,5.7,0,0,1-5.669,5.909,4.9,4.9,0,0,1-4.8-4.619,5.734,5.734,0,0,1,5.669-5.97A4.871,4.871,0,0,1,248.688,487.8Zm-1.949-.78a1.762,1.762,0,0,0-2.07-1.65H241.25l-0.96,6.059h0.54l0.39-2.459h2.549l1.41,2.489h0.66l-1.5-2.489h0.3A1.816,1.816,0,0,0,246.739,487.02Zm-0.6-.06c0.06,1.2-.6,1.56-1.65,1.56H241.28l0.449-2.67h2.85A1.278,1.278,0,0,1,246.139,486.96Zm28.528,2.49v-4.74a13.612,13.612,0,0,0-7.079-1.77c-6.809,0-10.708,5.61-10.708,11.639,0,5.009,2.939,9.238,9.3,9.238a11.8,11.8,0,0,0,6.749-2.039l1.05-4.32c-0.78,1.17-2.759,4.44-7.049,4.44-3.3,0-6.479-2.52-6.479-7.709,0-5.069,2.46-9.629,7.589-9.629C272.807,484.56,274.157,488.28,274.667,489.45Zm14.491,5.669c0-3.78-2.489-5.849-5.579-5.849-4.8,0-7.409,4.559-7.409,8.668,0,3.75,2.46,5.879,5.579,5.879C286.669,503.817,289.158,499.348,289.158,495.119Zm-3.179.03c0,3.479-1.26,7.289-3.87,7.289-1.5,0-2.759-1.92-2.759-4.5,0-3.419,1.259-7.289,3.839-7.289C284.719,490.649,285.979,492.569,285.979,495.149Zm15.24-5.49h-3.96l0.57-3.179-5.339,4.769h1.5l-1.29,7.889a6.769,6.769,0,0,0-.09,1.05c0,2.49,1.38,3.629,3.63,3.629a3.731,3.731,0,0,0,3.9-2.909,3.255,3.255,0,0,1-2.4,1.05c-0.81,0-1.919-.36-1.919-2.31a5.07,5.07,0,0,1,.09-0.9l1.079-7.5h3.99Zm10.8,0H308.06l0.569-3.179-5.339,4.769h1.5l-1.29,7.889a6.769,6.769,0,0,0-.09,1.05c0,2.49,1.38,3.629,3.63,3.629a3.731,3.731,0,0,0,3.9-2.909,3.254,3.254,0,0,1-2.4,1.05c-0.81,0-1.92-.36-1.92-2.31a5.07,5.07,0,0,1,.09-0.9l1.08-7.5h3.989Zm13.89,5.46c0-3.78-2.49-5.849-5.58-5.849-4.8,0-7.409,4.559-7.409,8.668,0,3.75,2.46,5.879,5.58,5.879C323.419,503.817,325.909,499.348,325.909,495.119Zm-3.18.03c0,3.479-1.26,7.289-3.87,7.289-1.5,0-2.759-1.92-2.759-4.5,0-3.419,1.26-7.289,3.839-7.289C321.469,490.649,322.729,492.569,322.729,495.149Zm19.469,8.429c-0.81-.39-1.019-0.9-1.019-3.24,0-1.71.419-5.009,0.419-5.969,0-3.54-1.769-5.1-4.2-5.1a4.4,4.4,0,0,0-3.869,2.279l0.33-2.309-4.08.719c0.33,0.12.63,0.6,0.63,1.68a13.586,13.586,0,0,1-.12,1.38l-1.32,8.579c-0.21,1.29-.54,1.74-0.99,1.98h4.59a1.641,1.641,0,0,1-.57-1.5,5.676,5.676,0,0,1,.09-0.93l1.2-7.859a3.311,3.311,0,0,1,2.7-1.95c1.47,0,2.46.99,2.46,3.03,0,2.369-.48,5.279-0.48,7.679a1.409,1.409,0,0,0,1.56,1.679C339.889,503.727,341.778,503.667,342.2,503.578ZM-44.112,526.15v-2.97H-58.6l-0.87,2.97s0.66-1.41,4.289-1.41c0.57,0,1.35.03,2.04,0.09l-2.49,15.538c-0.45,2.79-1.35,3.21-1.35,3.21h5.369s-0.66-.48-0.66-2.16a16.718,16.718,0,0,1,.15-1.98l2.28-14.608c0.6-.06,1.32-0.12,1.95-0.12C-44.652,524.71-44.112,526.15-44.112,526.15Zm9.451,9.689c0-4.32-1.92-6.569-5.429-6.569-3.9,0-6.959,3.419-6.959,7.948,0,4.11,2.46,6.6,6.149,6.6a6.2,6.2,0,0,0,5.939-4.829,6.767,6.767,0,0,1-4.859,2.64c-1.89,0-4.019-1.26-4.019-4.53a5.784,5.784,0,0,1,.12-1.259h9.059Zm-2.91-1.41H-43.48c0.54-2.25,1.71-3.81,3.3-3.81C-38.051,530.619-37.571,532.929-37.571,534.429Zm18.27,1.41c0-4.32-1.92-6.569-5.429-6.569-3.9,0-6.959,3.419-6.959,7.948,0,4.11,2.46,6.6,6.149,6.6a6.2,6.2,0,0,0,5.939-4.829,6.767,6.767,0,0,1-4.859,2.64c-1.89,0-4.019-1.26-4.019-4.53a5.784,5.784,0,0,1,.12-1.259H-19.3Zm-2.91-1.41H-28.12c0.54-2.25,1.71-3.81,3.3-3.81C-22.691,530.619-22.211,532.929-22.211,534.429Zm24.3,0.24H-14.8l-0.33,1.919H1.788Zm13.681-7.2c0-2.61-2.19-4.59-5.159-4.59a5.738,5.738,0,0,0-5.759,5.16c1.26-1.68,2.55-2.91,4.469-2.91a2.83,2.83,0,0,1,2.82,3.03c0,2.489-1.56,5.159-6.9,10.858l-4.229,4.56H13.729l1.02-4.17s-0.78,1.23-3.21,1.23H5.9l3.15-3.06C14.089,532.689,15.768,530.649,15.768,527.47Zm18.9,2.189a5.277,5.277,0,0,0-2.46-.839c-2.22,0-2.82.989-4.619,3.329l-1.86,2.4-1.32-2.43a2.862,2.862,0,0,1-.48-1.41,1.215,1.215,0,0,1,.63-1.05H18.77a4.147,4.147,0,0,1,2.58,2.31l2.58,4.679-3.509,4.26a9.26,9.26,0,0,1-3.03,2.67h4.859a0.81,0.81,0,0,1-.3-0.66,4.663,4.663,0,0,1,.99-2.19l1.86-2.52,2.04,3.66c0.69,1.23.99,1.71,1.8,1.71h3.569c-0.9-.24-1.59-0.39-2.7-2.37l-2.91-5.129,2.37-2.64C31.728,530.379,33.378,529.659,34.667,529.659Zm20.16-.389-3.18.959a5.755,5.755,0,0,0-3.18-.959c-3.15,0-7.019,2.339-7.019,9.148,0,2.76,1.08,5.4,4.349,5.4a5.631,5.631,0,0,0,3.959-1.739,1.387,1.387,0,0,0,1.56,1.649c0.36,0,2.37-.06,2.82-0.149-0.84-.39-1.05-0.9-1.05-3.24A75.786,75.786,0,0,1,54.828,529.27ZM51.048,532.3c-0.12.75-.48,2.91-0.57,3.45-0.24,1.439-.51,3.179-0.66,4.829a3.955,3.955,0,0,1-2.61,1.32c-0.93,0-2.55-.84-2.55-3.84,0-3.059,1.38-7.349,4.259-7.349A2.21,2.21,0,0,1,51.048,532.3Zm14.88-2.1a6.412,6.412,0,0,0-3.57-.929c-2.07,0-4.259,1.2-4.259,3.959a4.749,4.749,0,0,0,2.01,3.449c1.26,1.08,2.37,1.98,2.37,3.39a2.039,2.039,0,0,1-2.16,2.16c-1.56,0-2.64-1.26-3.06-3.57l-0.27,3.72a4.913,4.913,0,0,0,3.9,1.439c2.22,0,4.889-1.229,4.889-4.229,0-1.89-1.41-3.269-3-4.559-1.2-.96-1.65-1.65-1.65-2.61a1.726,1.726,0,0,1,1.86-1.77c1.86,0,2.49,1.92,2.82,3Zm17.73,0a6.412,6.412,0,0,0-3.569-.929c-2.07,0-4.259,1.2-4.259,3.959a4.749,4.749,0,0,0,2.01,3.449c1.26,1.08,2.37,1.98,2.37,3.39a2.039,2.039,0,0,1-2.16,2.16c-1.56,0-2.64-1.26-3.06-3.57l-0.27,3.72a4.913,4.913,0,0,0,3.9,1.439c2.22,0,4.889-1.229,4.889-4.229,0-1.89-1.41-3.269-3-4.559-1.2-.96-1.65-1.65-1.65-2.61a1.726,1.726,0,0,1,1.86-1.77c1.86,0,2.49,1.92,2.82,3Zm12.09-.54h-3.96l0.57-3.179-5.339,4.769h1.5l-1.29,7.889a6.769,6.769,0,0,0-.09,1.05c0,2.49,1.38,3.629,3.629,3.629a3.731,3.731,0,0,0,3.9-2.909,3.254,3.254,0,0,1-2.4,1.05c-0.81,0-1.92-.36-1.92-2.31a5.07,5.07,0,0,1,.09-0.9l1.08-7.5h3.989Zm12.689,3.33c0-2.61-.81-3.719-2.579-3.719-2.22,0-3.24,2.7-3.24,2.7l0.42-2.7-4.079.719a1.657,1.657,0,0,1,.6,1.59,8.717,8.717,0,0,1-.12,1.44l-1.32,8.579c-0.21,1.41-.54,1.74-1.02,1.98h4.679a1.707,1.707,0,0,1-.51-1.5c0-.27.03-0.6,0.06-0.93l0.81-5.309c0.27-1.74,1.35-4.08,3.54-4.08A3.5,3.5,0,0,1,108.437,532.989Zm13.86,2.13c0-3.78-2.49-5.849-5.579-5.849-4.8,0-7.409,4.559-7.409,8.668,0,3.75,2.46,5.879,5.579,5.879C119.807,543.817,122.3,539.348,122.3,535.119Zm-3.179.03c0,3.479-1.26,7.289-3.87,7.289-1.5,0-2.76-1.92-2.76-4.5,0-3.419,1.26-7.289,3.84-7.289C117.858,530.649,119.118,532.569,119.118,535.149Zm19.469,8.429c-0.81-.39-1.02-0.9-1.02-3.24,0-1.71.42-5.009,0.42-5.969,0-3.54-1.77-5.1-4.2-5.1a4.4,4.4,0,0,0-3.87,2.279l0.33-2.309-4.079.719c0.33,0.12.63,0.6,0.63,1.68a13.586,13.586,0,0,1-.12,1.38l-1.32,8.579c-0.21,1.29-.54,1.74-0.99,1.98h4.589a1.641,1.641,0,0,1-.57-1.5,5.676,5.676,0,0,1,.09-0.93l1.2-7.859a3.314,3.314,0,0,1,2.7-1.95c1.47,0,2.459.99,2.459,3.03,0,2.369-.479,5.279-0.479,7.679a1.409,1.409,0,0,0,1.559,1.679C136.277,543.727,138.167,543.667,138.587,543.578ZM155,529.27l-2.969.989a5.345,5.345,0,0,0-3.21-.989c-3.15,0-7.079,2.429-7.079,8.7,0,2.76,1.17,5.4,4.469,5.4a5.83,5.83,0,0,0,3.75-1.56l-0.27,1.979c-0.42,3.18-1.95,4.77-4.319,4.77-2.67,0-4.14-2.28-4.47-4.32l-0.33,4.11a7.9,7.9,0,0,0,4.95,1.77c4.259,0,6.929-1.71,7.468-6.839,0.21-1.77.39-3.75,0.51-4.5Zm-3.689,3.029-0.72,4.589c-0.21,1.26-.39,2.55-0.48,3.24a4.438,4.438,0,0,1-2.61,1.32c-0.93,0-2.519-.84-2.519-3.84,0-2.939,1.049-6.9,4.319-6.9A2.291,2.291,0,0,1,151.308,532.3Zm26.1-3.029-3.18.959a5.755,5.755,0,0,0-3.179-.959c-3.15,0-7.019,2.339-7.019,9.148,0,2.76,1.08,5.4,4.349,5.4a5.632,5.632,0,0,0,3.96-1.739,1.387,1.387,0,0,0,1.559,1.649c0.36,0,2.37-.06,2.82-0.149-0.84-.39-1.05-0.9-1.05-3.24A75.776,75.776,0,0,1,177.407,529.27Zm-3.78,3.029c-0.12.75-.48,2.91-0.57,3.45-0.24,1.439-.51,3.179-0.66,4.829a3.951,3.951,0,0,1-2.609,1.32c-0.93,0-2.55-.84-2.55-3.84,0-3.059,1.38-7.349,4.26-7.349A2.21,2.21,0,0,1,173.627,532.3Zm14.88-2.1a6.408,6.408,0,0,0-3.569-.929c-2.07,0-4.259,1.2-4.259,3.959a4.748,4.748,0,0,0,2.009,3.449c1.26,1.08,2.37,1.98,2.37,3.39a2.039,2.039,0,0,1-2.16,2.16c-1.56,0-2.639-1.26-3.059-3.57l-0.27,3.72a4.913,4.913,0,0,0,3.9,1.439c2.22,0,4.889-1.229,4.889-4.229,0-1.89-1.409-3.269-3-4.559-1.2-.96-1.65-1.65-1.65-2.61a1.726,1.726,0,0,1,1.86-1.77c1.86,0,2.489,1.92,2.819,3Zm20.04,2.79c0-2.61-.81-3.719-2.58-3.719-2.22,0-3.24,2.7-3.24,2.7l0.42-2.7-4.079.719a1.657,1.657,0,0,1,.6,1.59,8.707,8.707,0,0,1-.12,1.44l-1.32,8.579c-0.21,1.41-.54,1.74-1.02,1.98h4.68a1.707,1.707,0,0,1-.51-1.5c0-.27.03-0.6,0.06-0.93l0.81-5.309c0.269-1.74,1.349-4.08,3.539-4.08A3.505,3.505,0,0,1,208.547,532.989Zm13.77,2.85c0-4.32-1.92-6.569-5.43-6.569-3.9,0-6.959,3.419-6.959,7.948,0,4.11,2.46,6.6,6.149,6.6a6.2,6.2,0,0,0,5.94-4.829,6.768,6.768,0,0,1-4.86,2.64c-1.889,0-4.019-1.26-4.019-4.53a5.784,5.784,0,0,1,.12-1.259h9.059Zm-2.91-1.41H213.5c0.54-2.25,1.71-3.81,3.3-3.81C218.927,530.619,219.407,532.929,219.407,534.429Zm19.05-5.159-2.97.989a5.344,5.344,0,0,0-3.209-.989c-3.15,0-7.079,2.429-7.079,8.7,0,2.76,1.169,5.4,4.469,5.4a5.825,5.825,0,0,0,3.749-1.56l-0.27,1.979c-0.42,3.18-1.949,4.77-4.319,4.77-2.67,0-4.139-2.28-4.469-4.32l-0.33,4.11a7.9,7.9,0,0,0,4.949,1.77c4.259,0,6.929-1.71,7.469-6.839,0.21-1.77.39-3.75,0.51-4.5Zm-3.69,3.029-0.72,4.589c-0.21,1.26-.39,2.55-0.48,3.24a4.436,4.436,0,0,1-2.609,1.32c-0.93,0-2.52-.84-2.52-3.84,0-2.939,1.05-6.9,4.319-6.9A2.291,2.291,0,0,1,234.767,532.3Zm19.56-3.029-4.2.719c0.54,0.21.69,0.81,0.54,2.22a12.35,12.35,0,0,1-.15,1.35l-0.27,1.65c-0.36,2.249-.72,4.649-0.81,5.339a3.781,3.781,0,0,1-2.609,1.23c-1.29,0-2.04-.75-2.04-2.52a23.961,23.961,0,0,1,.33-3.569l0.96-6.419-4.17.719a1.062,1.062,0,0,1,.66,1.23,17.132,17.132,0,0,1-.15,1.8l-0.6,3.749a15.187,15.187,0,0,0-.239,2.85c0,2.61,1.379,4.2,3.9,4.2a6.176,6.176,0,0,0,3.959-1.739,1.387,1.387,0,0,0,1.56,1.649c0.36,0,2.37-.06,2.82-0.149-0.84-.39-1.05-0.9-1.05-3.24C252.767,538.208,254.327,529.27,254.327,529.27Zm8.821-6.33-4.17.72a1.182,1.182,0,0,1,.66,1.35,8.669,8.669,0,0,1-.15,1.59l-1.41,9.029a52.164,52.164,0,0,0-.72,6.449,1.488,1.488,0,0,0,1.71,1.649c0.36,0,2.28-.06,2.7-0.149-0.81-.36-1.02-0.87-1.02-3.18a45.443,45.443,0,0,1,.63-5.969Zm15.509,6.33-3.18.959a5.756,5.756,0,0,0-3.18-.959c-3.149,0-7.019,2.339-7.019,9.148,0,2.76,1.08,5.4,4.35,5.4a5.629,5.629,0,0,0,3.959-1.739,1.387,1.387,0,0,0,1.56,1.649c0.36,0,2.37-.06,2.82-0.149-0.84-.39-1.05-0.9-1.05-3.24A75.776,75.776,0,0,1,278.657,529.27Zm-3.78,3.029c-0.12.75-.48,2.91-0.57,3.45-0.24,1.439-.51,3.179-0.66,4.829a3.956,3.956,0,0,1-2.609,1.32c-0.93,0-2.55-.84-2.55-3.84,0-3.059,1.38-7.349,4.259-7.349A2.21,2.21,0,0,1,274.877,532.3Zm17.04,0.69c0-2.61-.81-3.719-2.58-3.719-2.22,0-3.239,2.7-3.239,2.7l0.419-2.7-4.079.719a1.657,1.657,0,0,1,.6,1.59,8.707,8.707,0,0,1-.12,1.44L281.6,541.6c-0.21,1.41-.54,1.74-1.02,1.98h4.68a1.707,1.707,0,0,1-.51-1.5c0-.27.03-0.6,0.06-0.93l0.81-5.309c0.27-1.74,1.349-4.08,3.539-4.08A3.505,3.505,0,0,1,291.917,532.989Zm-340.138,37.48a7.124,7.124,0,0,0-3.9-1.2c-5.189,0-7.559,4.319-7.559,8.218,0,3.42,1.62,6.329,5.309,6.329a5.561,5.561,0,0,0,5.429-4.229,5.179,5.179,0,0,1-3.869,1.98c-2.28,0-3.6-1.68-3.6-4.53,0-3.119,1.41-6.329,4.469-6.329a3.729,3.729,0,0,1,3.36,3.06Zm15.42,4.65c0-3.78-2.49-5.849-5.579-5.849-4.8,0-7.409,4.559-7.409,8.668,0,3.75,2.46,5.879,5.579,5.879C-35.291,583.817-32.8,579.348-32.8,575.119Zm-3.18.03c0,3.479-1.26,7.289-3.869,7.289-1.5,0-2.76-1.92-2.76-4.5,0-3.419,1.26-7.289,3.839-7.289C-37.241,570.649-35.981,572.569-35.981,575.149Zm15.24-5.49H-24.7l0.57-3.179-5.339,4.769h1.5l-1.29,7.889a6.769,6.769,0,0,0-.09,1.05c0,2.49,1.38,3.629,3.629,3.629a3.731,3.731,0,0,0,3.9-2.909,3.255,3.255,0,0,1-2.4,1.05c-0.81,0-1.92-.36-1.92-2.31a5.07,5.07,0,0,1,.09-0.9l1.08-7.5h3.99Zm10.8,0H-13.9l0.57-3.179-5.339,4.769h1.5l-1.29,7.889a6.769,6.769,0,0,0-.09,1.05c0,2.49,1.38,3.629,3.629,3.629a3.731,3.731,0,0,0,3.9-2.909,3.254,3.254,0,0,1-2.4,1.05c-0.81,0-1.92-.36-1.92-2.31a5.07,5.07,0,0,1,.09-0.9l1.08-7.5h3.989Zm13.889,5.46c0-3.78-2.49-5.849-5.579-5.849-4.8,0-7.409,4.559-7.409,8.668,0,3.75,2.46,5.879,5.579,5.879C1.459,583.817,3.949,579.348,3.949,575.119Zm-3.18.03c0,3.479-1.26,7.289-3.869,7.289-1.5,0-2.76-1.92-2.76-4.5,0-3.419,1.26-7.289,3.839-7.289C-0.491,570.649.769,572.569,0.769,575.149Zm19.469,8.429c-0.81-.39-1.02-0.9-1.02-3.24,0-1.71.42-5.009,0.42-5.969,0-3.54-1.77-5.1-4.2-5.1a4.4,4.4,0,0,0-3.869,2.279l0.33-2.309-4.079.719c0.33,0.12.63,0.6,0.63,1.68a13.588,13.588,0,0,1-.12,1.38L7.01,581.6c-0.21,1.29-.54,1.74-0.99,1.98H10.61a1.641,1.641,0,0,1-.57-1.5,5.676,5.676,0,0,1,.09-0.93l1.2-7.859a3.313,3.313,0,0,1,2.7-1.95c1.47,0,2.46.99,2.46,3.03,0,2.369-.48,5.279-0.48,7.679a1.409,1.409,0,0,0,1.56,1.679C17.929,583.727,19.819,583.667,20.239,583.578Zm6.632-1.62a1.83,1.83,0,1,0-1.83,1.859A1.837,1.837,0,0,0,26.87,581.958Z"/>
    <path id="TIP:_Make_yourself_comfortable._Natural_fabrics_like_cotton_and" data-name="TIP: Make yourself comfortable. Natural fabrics like cotton and" class="cls-1" d="M3.655,13.6H6.536V3.551H9.831V0.815H0.4V3.551H3.655V13.6Zm8.819,0h2.863V0.815H12.474V13.6Zm15.3-8.408a4.354,4.354,0,0,0-4.5-4.375H18.936V13.6H21.8V9.547h1.476A4.339,4.339,0,0,0,27.777,5.19ZM25,5.19a1.682,1.682,0,0,1-1.765,1.675H21.8V3.515h1.44A1.672,1.672,0,0,1,25,5.19Zm6.928,3.061a1.927,1.927,0,1,0-1.927-1.927A1.929,1.929,0,0,0,31.932,8.251Zm0,5.492a1.927,1.927,0,1,0-1.927-1.927A1.929,1.929,0,0,0,31.932,13.742ZM48.872,9.853l4.609-6.194V13.6h1.657V0.815H53.625L48.872,7.188,44.118,0.815H42.588V13.6h1.675V3.659ZM58.337,9.1a4.5,4.5,0,0,0,4.411,4.681,3.948,3.948,0,0,0,3.169-1.566V13.6h1.549v-9H65.918V5.982a3.948,3.948,0,0,0-3.169-1.566A4.5,4.5,0,0,0,58.337,9.1Zm7.706,0a3.075,3.075,0,1,1-6.14,0A3.075,3.075,0,1,1,66.044,9.1Zm5.236,4.5h1.548V9.1l4.88,4.5H79.8l-5.42-5.023L78.806,4.6H76.753L72.828,8.107V0.094H71.28V13.6ZM80.6,9.1a4.746,4.746,0,0,0,8.715,2.539l-1.224-.846A3.187,3.187,0,0,1,82.17,9.4h7.382a4.394,4.394,0,0,0,.018-0.468,4.2,4.2,0,0,0-4.285-4.519A4.562,4.562,0,0,0,80.6,9.1ZM85.23,5.784a2.693,2.693,0,0,1,2.755,2.359H82.278A2.943,2.943,0,0,1,85.23,5.784ZM99.936,17.362L105.841,4.6h-1.728l-3.079,6.824L97.937,4.6h-1.71l3.943,8.535-1.963,4.231h1.728ZM116.786,9.1a4.709,4.709,0,0,0-9.417,0A4.709,4.709,0,0,0,116.786,9.1Zm-7.833,0a3.126,3.126,0,1,1,6.248,0A3.126,3.126,0,1,1,108.953,9.1Zm10.818,1.026c0,2.233,1.332,3.655,3.313,3.655a3.1,3.1,0,0,0,2.773-1.566V13.6h1.548v-9h-1.548V9.061c0,2.071-1.1,3.3-2.5,3.3-1.242,0-2.035-.954-2.035-2.467V4.6h-1.548v5.528ZM131.219,13.6h1.548V9.133c0-2.107,1.243-3.1,2.377-3.1a2.262,2.262,0,0,1,.846.144v-1.6a3.207,3.207,0,0,0-.7-0.072,2.679,2.679,0,0,0-2.521,1.837V4.6h-1.548v9Zm13.16-2.5c0-1.35-.846-2.215-2.377-2.719l-0.972-.324c-1.063-.342-1.387-0.684-1.387-1.26a1.275,1.275,0,0,1,1.513-1.044,2.431,2.431,0,0,1,1.908.936l1.009-.972a3.492,3.492,0,0,0-2.881-1.3c-1.783,0-3.043.99-3.043,2.449a2.717,2.717,0,0,0,2.233,2.611l0.882,0.288c1.17,0.378,1.6.81,1.6,1.44a1.37,1.37,0,0,1-1.584,1.224,2.417,2.417,0,0,1-2.305-1.422l-1.26.684a3.575,3.575,0,0,0,3.529,2.089C143.064,13.778,144.379,12.86,144.379,11.1Zm2.41-2a4.746,4.746,0,0,0,8.714,2.539l-1.224-.846A3.188,3.188,0,0,1,148.355,9.4h7.382a4.394,4.394,0,0,0,.018-0.468,4.2,4.2,0,0,0-4.285-4.519A4.562,4.562,0,0,0,146.789,9.1Zm4.627-3.313a2.694,2.694,0,0,1,2.755,2.359h-5.708A2.943,2.943,0,0,1,151.416,5.784Zm7.433,7.814H160.4V0.094h-1.548V13.6Zm6.138,0h1.548V6.018h2.611V4.6h-2.611V2.939a1.3,1.3,0,0,1,1.5-1.53,3.624,3.624,0,0,1,1.116.18V0.22a4.09,4.09,0,0,0-1.4-.234,2.571,2.571,0,0,0-2.755,2.791V4.6h-1.909V6.018h1.909V13.6Zm19.748-2.233-1.35-.756a3.053,3.053,0,0,1-2.809,1.729A3.109,3.109,0,0,1,177.425,9.1a3.109,3.109,0,0,1,3.151-3.241,3.053,3.053,0,0,1,2.809,1.729l1.35-.756a4.662,4.662,0,0,0-4.159-2.413A4.614,4.614,0,0,0,175.858,9.1a4.614,4.614,0,0,0,4.718,4.681A4.662,4.662,0,0,0,184.735,11.366ZM196.327,9.1a4.709,4.709,0,0,0-9.417,0A4.709,4.709,0,0,0,196.327,9.1Zm-7.832,0a3.126,3.126,0,1,1,6.247,0A3.126,3.126,0,1,1,188.5,9.1Zm10.943,4.5h1.549V9.133c0-2.035,1.026-3.295,2.484-3.295,1.171,0,1.765,1.008,1.765,2.467V13.6h1.548V9.133c0-2.035,1.009-3.295,2.467-3.295,1.17,0,1.783,1.008,1.783,2.467V13.6h1.548V8.071c0-2.2-1.188-3.655-3.151-3.655a3.116,3.116,0,0,0-2.953,1.927,2.83,2.83,0,0,0-2.773-1.927,3.025,3.025,0,0,0-2.718,1.566V4.6h-1.549v9Zm17.478,0h1.549V6.018h2.61V4.6h-2.61V2.939a1.3,1.3,0,0,1,1.494-1.53,3.624,3.624,0,0,1,1.116.18V0.22a4.09,4.09,0,0,0-1.4-.234,2.571,2.571,0,0,0-2.755,2.791V4.6h-1.908V6.018h1.908V13.6Zm15.213-4.5a4.709,4.709,0,0,0-9.417,0A4.709,4.709,0,0,0,232.129,9.1Zm-7.833,0a3.126,3.126,0,1,1,6.248,0A3.126,3.126,0,1,1,224.3,9.1Zm10.944,4.5h1.548V9.133c0-2.107,1.243-3.1,2.377-3.1a2.262,2.262,0,0,1,.846.144v-1.6a3.207,3.207,0,0,0-.7-0.072,2.679,2.679,0,0,0-2.521,1.837V4.6H235.24v9Zm12.367-.126V12.086a3.422,3.422,0,0,1-1.1.18,1.3,1.3,0,0,1-1.495-1.53V6.018h2.593V4.6h-2.593v-2.5h-1.548V4.6h-1.909V6.018h1.909v4.915a2.534,2.534,0,0,0,2.755,2.755A4.307,4.307,0,0,0,247.607,13.472ZM249.658,9.1a4.5,4.5,0,0,0,4.411,4.681,3.948,3.948,0,0,0,3.169-1.566V13.6h1.548v-9h-1.548V5.982a3.948,3.948,0,0,0-3.169-1.566A4.5,4.5,0,0,0,249.658,9.1Zm7.706,0a3.075,3.075,0,1,1-6.14,0A3.075,3.075,0,1,1,257.364,9.1Zm6.784,3.115a3.948,3.948,0,0,0,3.169,1.566A4.516,4.516,0,0,0,271.728,9.1a4.516,4.516,0,0,0-4.411-4.681,3.948,3.948,0,0,0-3.169,1.566V0.094H262.6V13.6h1.548V12.212Zm6-3.115a3.067,3.067,0,1,1-6.122,0A3.067,3.067,0,1,1,270.144,9.1Zm4.7,4.5h1.548V0.094H274.84V13.6Zm4.679-4.5a4.746,4.746,0,0,0,8.715,2.539l-1.225-.846A3.187,3.187,0,0,1,281.086,9.4h7.382a4.394,4.394,0,0,0,.018-0.468A4.2,4.2,0,0,0,284.2,4.416,4.562,4.562,0,0,0,279.519,9.1Zm4.628-3.313A2.693,2.693,0,0,1,286.9,8.143h-5.707A2.943,2.943,0,0,1,284.147,5.784Zm9.575,6.608a1.333,1.333,0,1,0-1.332,1.35A1.356,1.356,0,0,0,293.722,12.392ZM12.586,37.6V24.815H10.929v9.957L3.151,24.815H1.693V37.6H3.367V27.641L11.145,37.6h1.441Zm3.2-4.5A4.5,4.5,0,0,0,20.2,37.778a3.948,3.948,0,0,0,3.169-1.566V37.6h1.548v-9H23.367v1.386A3.948,3.948,0,0,0,20.2,28.416,4.5,4.5,0,0,0,15.786,33.1Zm7.706,0a3.075,3.075,0,1,1-6.14,0A3.075,3.075,0,1,1,23.493,33.1Zm10.115,4.375V36.086a3.424,3.424,0,0,1-1.1.18,1.3,1.3,0,0,1-1.494-1.53V30.018h2.593V28.6H31.015v-2.5H29.467v2.5H27.558v1.422h1.909v4.915a2.534,2.534,0,0,0,2.755,2.755A4.309,4.309,0,0,0,33.608,37.472Zm2.752-3.349c0,2.233,1.332,3.655,3.313,3.655a3.1,3.1,0,0,0,2.773-1.566V37.6h1.549v-9H42.446v4.465c0,2.071-1.1,3.3-2.5,3.3-1.242,0-2.035-.954-2.035-2.467V28.6H36.36v5.528ZM47.808,37.6h1.548V33.133c0-2.107,1.242-3.1,2.377-3.1a2.264,2.264,0,0,1,.846.144v-1.6a3.21,3.21,0,0,0-.7-0.072,2.678,2.678,0,0,0-2.521,1.837V28.6H47.808v9Zm6.48-4.5A4.5,4.5,0,0,0,58.7,37.778a3.948,3.948,0,0,0,3.169-1.566V37.6h1.548v-9H61.868v1.386A3.948,3.948,0,0,0,58.7,28.416,4.5,4.5,0,0,0,54.288,33.1Zm7.706,0a3.075,3.075,0,1,1-6.14,0A3.075,3.075,0,1,1,61.994,33.1Zm5.236,4.5h1.548v-13.5H67.23V37.6Zm11.2,0h1.548v-7.58h2.611V28.6H79.975V26.939a1.3,1.3,0,0,1,1.494-1.53,3.623,3.623,0,0,1,1.116.18V24.22a4.093,4.093,0,0,0-1.4-.234,2.571,2.571,0,0,0-2.755,2.791V28.6H76.518v1.422h1.909V37.6Zm5.814-4.5a4.5,4.5,0,0,0,4.411,4.681,3.948,3.948,0,0,0,3.169-1.566V37.6h1.549v-9H91.82v1.386a3.948,3.948,0,0,0-3.169-1.566A4.5,4.5,0,0,0,84.24,33.1Zm7.706,0a3.075,3.075,0,1,1-6.14,0A3.075,3.075,0,1,1,91.946,33.1Zm6.784,3.115a3.948,3.948,0,0,0,3.169,1.566A4.516,4.516,0,0,0,106.31,33.1a4.516,4.516,0,0,0-4.411-4.681,3.948,3.948,0,0,0-3.169,1.566V24.094H97.182V37.6H98.73V36.212Zm6-3.115a3.067,3.067,0,1,1-6.122,0A3.067,3.067,0,1,1,104.726,33.1Zm4.7,4.5h1.548V33.133c0-2.107,1.242-3.1,2.377-3.1a2.263,2.263,0,0,1,.846.144v-1.6a3.207,3.207,0,0,0-.7-0.072,2.678,2.678,0,0,0-2.521,1.837V28.6h-1.548v9Zm9.36-12.514a1.087,1.087,0,0,0-1.08-1.1,1.119,1.119,0,0,0-1.117,1.1,1.107,1.107,0,0,0,1.117,1.1A1.076,1.076,0,0,0,118.782,25.085ZM116.91,37.6h1.548v-9H116.91v9Zm13.556-2.233-1.351-.756a3.051,3.051,0,0,1-2.808,1.729,3.242,3.242,0,0,1,0-6.482,3.051,3.051,0,0,1,2.808,1.728l1.351-.756a4.662,4.662,0,0,0-4.159-2.413,4.682,4.682,0,1,0,0,9.363A4.662,4.662,0,0,0,130.466,35.366Zm8.729-.27c0-1.35-.846-2.215-2.377-2.719l-0.972-.324c-1.062-.342-1.387-0.684-1.387-1.26a1.275,1.275,0,0,1,1.513-1.044,2.435,2.435,0,0,1,1.909.936l1.008-.972a3.492,3.492,0,0,0-2.881-1.3c-1.783,0-3.043.99-3.043,2.449a2.717,2.717,0,0,0,2.233,2.611l0.882,0.288c1.17,0.378,1.6.81,1.6,1.44a1.37,1.37,0,0,1-1.584,1.224,2.417,2.417,0,0,1-2.305-1.422l-1.26.684a3.575,3.575,0,0,0,3.529,2.089C137.881,37.778,139.2,36.86,139.2,35.1Zm8.4,2.5h1.548v-13.5H147.6V37.6Zm7.254-12.514a1.087,1.087,0,0,0-1.08-1.1,1.118,1.118,0,0,0-1.116,1.1,1.106,1.106,0,0,0,1.116,1.1A1.076,1.076,0,0,0,154.853,25.085ZM152.981,37.6h1.548v-9h-1.548v9Zm5.382,0h1.548V33.1l4.879,4.5h2.089l-5.42-5.023,4.43-3.979h-2.053l-3.925,3.511V24.094h-1.548V37.6Zm9.323-4.5a4.746,4.746,0,0,0,8.715,2.539l-1.225-.846a3.187,3.187,0,0,1-5.923-1.386h7.382a4.4,4.4,0,0,0,.018-0.468,4.2,4.2,0,0,0-4.285-4.519A4.562,4.562,0,0,0,167.686,33.1Zm4.627-3.313a2.693,2.693,0,0,1,2.755,2.359h-5.707A2.942,2.942,0,0,1,172.313,29.784Zm20.9,5.582-1.35-.756a3.051,3.051,0,0,1-2.809,1.729,3.242,3.242,0,0,1,0-6.482,3.051,3.051,0,0,1,2.809,1.728l1.35-.756a4.661,4.661,0,0,0-4.159-2.413,4.682,4.682,0,1,0,0,9.363A4.661,4.661,0,0,0,193.212,35.366ZM204.8,33.1a4.708,4.708,0,1,0-4.7,4.681A4.62,4.62,0,0,0,204.8,33.1Zm-7.832,0a3.126,3.126,0,1,1,3.133,3.241A3.094,3.094,0,0,1,196.972,33.1Zm21.963,4.375V36.086a3.422,3.422,0,0,1-1.1.18,1.3,1.3,0,0,1-1.495-1.53V30.018h2.593V28.6h-2.593v-2.5h-1.548v2.5h-1.549v1.422h1.549v4.915a2.534,2.534,0,0,0,2.755,2.755A4.307,4.307,0,0,0,218.935,37.472Zm-6.3,0V36.086a3.422,3.422,0,0,1-1.1.18,1.3,1.3,0,0,1-1.5-1.53V30.018h2.2V28.6h-2.2v-2.5h-1.548v2.5h-1.909v1.422h1.909v4.915a2.534,2.534,0,0,0,2.755,2.755A4.307,4.307,0,0,0,212.633,37.472ZM230.382,33.1a4.708,4.708,0,1,0-4.7,4.681A4.62,4.62,0,0,0,230.382,33.1Zm-7.832,0a3.126,3.126,0,1,1,3.133,3.241A3.094,3.094,0,0,1,222.55,33.1Zm10.944,4.5h1.548V33.133c0-2.107,1.152-3.3,2.611-3.3a2.161,2.161,0,0,1,2.124,2.449V37.6h1.531V32.053a3.318,3.318,0,0,0-3.4-3.637,3.183,3.183,0,0,0-2.863,1.566V28.6h-1.548v9Zm16.091-4.5A4.5,4.5,0,0,0,254,37.778a3.947,3.947,0,0,0,3.169-1.566V37.6h1.549v-9h-1.549v1.386A3.947,3.947,0,0,0,254,28.416,4.5,4.5,0,0,0,249.585,33.1Zm7.706,0a3.075,3.075,0,1,1-6.14,0A3.075,3.075,0,1,1,257.291,33.1Zm5.236,4.5h1.548V33.133c0-2.107,1.153-3.3,2.611-3.3a2.161,2.161,0,0,1,2.125,2.449V37.6h1.53V32.053a3.318,3.318,0,0,0-3.4-3.637,3.185,3.185,0,0,0-2.863,1.566V28.6h-1.548v9Zm10.8-4.5a4.5,4.5,0,0,0,4.411,4.681,3.948,3.948,0,0,0,3.169-1.566V37.6h1.548v-13.5h-1.548v5.888a3.948,3.948,0,0,0-3.169-1.566A4.5,4.5,0,0,0,273.327,33.1Zm7.706,0a3.075,3.075,0,1,1-6.14,0A3.075,3.075,0,1,1,281.033,33.1ZM1.458,61.6H3.007v-13.5H1.458V61.6ZM8.713,49.085a1.087,1.087,0,0,0-1.08-1.1,1.118,1.118,0,0,0-1.116,1.1,1.107,1.107,0,0,0,1.116,1.1A1.076,1.076,0,0,0,8.713,49.085ZM6.84,61.6H8.389v-9H6.84v9Zm5.382,0h1.548V57.133c0-2.107,1.152-3.3,2.611-3.3a2.161,2.161,0,0,1,2.125,2.449V61.6h1.53V56.053a3.318,3.318,0,0,0-3.4-3.637,3.183,3.183,0,0,0-2.863,1.567V52.6H12.222v9Zm10.8-4.5a4.506,4.506,0,0,0,4.663,4.681,4.522,4.522,0,0,0,4.051-2.143l-1.224-.846A3.011,3.011,0,0,1,27.7,60.356,2.993,2.993,0,0,1,24.588,57.4H31.97a4.371,4.371,0,0,0,.018-0.468A4.2,4.2,0,0,0,27.7,52.416,4.562,4.562,0,0,0,23.022,57.1Zm4.627-3.313A2.694,2.694,0,0,1,30.4,56.143H24.7A2.943,2.943,0,0,1,27.649,53.784ZM35.082,61.6H36.63V57.133c0-2.107,1.152-3.3,2.611-3.3a2.161,2.161,0,0,1,2.125,2.449V61.6H42.9V56.053a3.318,3.318,0,0,0-3.4-3.637,3.183,3.183,0,0,0-2.863,1.567V52.6H35.082v9Zm16.091-4.5a4.5,4.5,0,0,0,4.411,4.681,3.948,3.948,0,0,0,3.169-1.566V61.6H60.3v-9H58.754v1.387a3.948,3.948,0,0,0-3.169-1.567A4.5,4.5,0,0,0,51.173,57.1Zm7.706,0a3.075,3.075,0,1,1-3.061-3.259A3.074,3.074,0,0,1,58.88,57.1Zm5.236,4.5h1.548V57.133c0-2.107,1.242-3.1,2.377-3.1a2.264,2.264,0,0,1,.846.144v-1.6a3.209,3.209,0,0,0-.7-0.072,2.678,2.678,0,0,0-2.521,1.837V52.6H64.115v9Zm6.462-4.5a4.746,4.746,0,0,0,8.715,2.539l-1.224-.846A3.187,3.187,0,0,1,72.144,57.4h7.382a4.4,4.4,0,0,0,.018-0.468,4.2,4.2,0,0,0-4.285-4.519A4.562,4.562,0,0,0,70.577,57.1ZM75.2,53.784a2.694,2.694,0,0,1,2.755,2.359H72.252A2.943,2.943,0,0,1,75.2,53.784Zm14.741-4.7a1.087,1.087,0,0,0-1.08-1.1,1.118,1.118,0,0,0-1.116,1.1,1.107,1.107,0,0,0,1.116,1.1A1.076,1.076,0,0,0,89.946,49.085ZM89.622,52.6H88.073V62.607a1.271,1.271,0,0,1-1.386,1.531,3.947,3.947,0,0,1-.522-0.036v1.386a4.578,4.578,0,0,0,.738.054,2.524,2.524,0,0,0,2.719-2.755V52.6Zm3.707,5.528c0,2.233,1.332,3.655,3.313,3.655a3.1,3.1,0,0,0,2.773-1.566V61.6h1.548v-9H99.415v4.465c0,2.071-1.1,3.3-2.5,3.3-1.242,0-2.035-.954-2.035-2.467V52.6H93.329v5.528ZM110.611,59.1c0-1.35-.847-2.215-2.377-2.719l-0.972-.324c-1.063-.342-1.387-0.684-1.387-1.26a1.275,1.275,0,0,1,1.513-1.044,2.431,2.431,0,0,1,1.908.936l1.008-.972a3.49,3.49,0,0,0-2.88-1.3c-1.783,0-3.043.99-3.043,2.449a2.717,2.717,0,0,0,2.232,2.611l0.883,0.288c1.17,0.378,1.6.81,1.6,1.44a1.37,1.37,0,0,1-1.584,1.224,2.416,2.416,0,0,1-2.3-1.422l-1.26.684a3.575,3.575,0,0,0,3.529,2.089C109.3,61.778,110.611,60.86,110.611,59.1Zm7.883,2.377V60.086a3.422,3.422,0,0,1-1.1.18,1.3,1.3,0,0,1-1.5-1.53V54.018h2.593V52.6H115.9v-2.5h-1.548v2.5h-1.909v1.422h1.909v4.915a2.534,2.534,0,0,0,2.755,2.755A4.307,4.307,0,0,0,118.494,61.472Zm12.744,0V60.086a3.422,3.422,0,0,1-1.1.18,1.3,1.3,0,0,1-1.495-1.53V54.018h2.593V52.6h-2.593v-2.5H127.1v2.5h-1.909v1.422H127.1v4.915a2.534,2.534,0,0,0,2.754,2.755A4.309,4.309,0,0,0,131.238,61.472Zm2.878,0.126h1.549V57.133c0-2.107,1.152-3.3,2.611-3.3a2.161,2.161,0,0,1,2.124,2.449V61.6h1.531V56.053a3.318,3.318,0,0,0-3.4-3.637,3.183,3.183,0,0,0-2.863,1.567V48.094h-1.549V61.6Zm10.8-4.5a4.746,4.746,0,0,0,8.715,2.539l-1.225-.846a3.188,3.188,0,0,1-5.924-1.386h7.383a4.4,4.4,0,0,0,.018-0.468,4.2,4.2,0,0,0-4.286-4.519A4.562,4.562,0,0,0,144.916,57.1Zm4.627-3.313a2.693,2.693,0,0,1,2.755,2.359H146.59A2.944,2.944,0,0,1,149.543,53.784Zm17.3,7.688V60.086a3.422,3.422,0,0,1-1.1.18,1.3,1.3,0,0,1-1.494-1.53V54.018h2.592V52.6h-2.592v-2.5H162.7v2.5h-1.908v1.422H162.7v4.915a2.534,2.534,0,0,0,2.755,2.755A4.307,4.307,0,0,0,166.841,61.472Zm4.751-12.388a1.087,1.087,0,0,0-1.08-1.1,1.118,1.118,0,0,0-1.116,1.1,1.106,1.106,0,0,0,1.116,1.1A1.076,1.076,0,0,0,171.592,49.085ZM169.72,61.6h1.548v-9H169.72v9Zm13.556-2.233-1.35-.756a3.052,3.052,0,0,1-2.809,1.729,3.242,3.242,0,0,1,0-6.482,3.052,3.052,0,0,1,2.809,1.728l1.35-.756a4.662,4.662,0,0,0-4.159-2.413,4.682,4.682,0,1,0,0,9.363A4.662,4.662,0,0,0,183.276,59.366Zm2.895,2.233h1.549V57.1l4.879,4.5h2.089l-5.42-5.023L193.7,52.6h-2.053l-3.925,3.511V48.094h-1.549V61.6Zm9.324-4.5a4.746,4.746,0,0,0,8.715,2.539l-1.225-.846a3.187,3.187,0,0,1-5.923-1.386h7.382a4.4,4.4,0,0,0,.018-0.468,4.2,4.2,0,0,0-4.286-4.519A4.562,4.562,0,0,0,195.5,57.1Zm4.627-3.313a2.693,2.693,0,0,1,2.755,2.359H197.17A2.942,2.942,0,0,1,200.122,53.784Zm12.187,7.688V60.086a3.423,3.423,0,0,1-1.1.18,1.3,1.3,0,0,1-1.494-1.53V54.018h2.593V52.6h-2.593v-2.5h-1.548v2.5h-1.909v1.422h1.909v4.915a2.534,2.534,0,0,0,2.754,2.755A4.309,4.309,0,0,0,212.309,61.472Zm5.021-1.08A1.333,1.333,0,1,0,216,61.742,1.356,1.356,0,0,0,217.33,60.392Z"/>
  </g>
</svg>
