<svg id="tee_copy" data-name="tee copy" xmlns="http://www.w3.org/2000/svg" width="420" height="142" viewBox="0 0 420 142">
  <defs>
    <style>
      .cls-1 {
        fill-rule: evenodd;
      }
    </style>
  </defs>
  <g id="layer2">
    <path id="Roll_with_it_in_our_softer_than_ever_Authentic_SUPIMA_Cotton_T" data-name="Roll with it in our softer than ever Authentic SUPIMA® Cotton T" class="cls-1" d="M17.938,21.578c-1.95-.69-2.19-1.59-4.319-6.209l-0.39-.81c-1.29-2.79-2.94-3.18-2.94-3.18S15.6,10.509,15.6,5.59c0-3.6-3.329-4.409-5.039-4.409H3.54A1.656,1.656,0,0,1,4.2,2.71a4.726,4.726,0,0,1-.09.84L1.65,19.208c-0.24,1.47-.63,2.13-1.11,2.37H5.76a1.776,1.776,0,0,1-.81-1.74,4.87,4.87,0,0,1,.03-0.63l1.14-7.229s0.45-.03.93-0.03c0.78,0,1.74.78,2.67,2.94L12,20.078a2.081,2.081,0,0,0,1.92,1.53ZM12.149,5.95c0,3.45-2.43,4.619-4.739,4.619a7.349,7.349,0,0,1-1.08-.06l1.14-7.5a2.913,2.913,0,0,1,1.59-.36C10.829,2.65,12.149,3.64,12.149,5.95Zm19.44,7.169c0-3.779-2.49-5.849-5.579-5.849-4.8,0-7.409,4.559-7.409,8.669,0,3.749,2.46,5.879,5.579,5.879C29.1,21.818,31.589,17.348,31.589,13.119Zm-3.18.03c0,3.48-1.26,7.289-3.869,7.289-1.5,0-2.76-1.92-2.76-4.5,0-3.419,1.26-7.289,3.839-7.289C27.149,8.649,28.409,10.569,28.409,13.149ZM40.74,0.94l-4.169.72a1.182,1.182,0,0,1,.66,1.35,8.667,8.667,0,0,1-.15,1.59l-1.41,9.029a52.182,52.182,0,0,0-.72,6.449,1.489,1.489,0,0,0,1.71,1.65c0.36,0,2.28-.06,2.7-0.15-0.81-.36-1.02-0.87-1.02-3.18a45.469,45.469,0,0,1,.63-5.969Zm8.58,0-4.169.72a1.181,1.181,0,0,1,.66,1.35,8.667,8.667,0,0,1-.15,1.59l-1.41,9.029a52.182,52.182,0,0,0-.72,6.449,1.489,1.489,0,0,0,1.71,1.65c0.36,0,2.28-.06,2.7-0.15-0.81-.36-1.02-0.87-1.02-3.18a45.469,45.469,0,0,1,.63-5.969ZM78.627,11.679c0-3.3-1.95-4.769-3.6-4.769a3.234,3.234,0,0,0-2.28.75c1.29,0.12,2.909,1.62,2.909,4.8,0,5.879-3.869,7.289-3.869,7.289l-1.44-9.029c-0.24-1.5-.36-3.06-0.36-3.06h-1.53a111.284,111.284,0,0,1-4.5,10.858L62.88,10.6a8,8,0,0,1-.09-1.17c0-1.11.39-1.59,0.93-1.77H58.29c0.6,0.24.99,0.72,1.26,2.37l1.77,11.818h3l3.45-8.489,1.38,8.489C74.968,21.848,78.627,15.608,78.627,11.679ZM86.94,3.07a1.785,1.785,0,1,0-1.8,1.8A1.812,1.812,0,0,0,86.94,3.07Zm-0.87,4.2-4.139.72a1.2,1.2,0,0,1,.66,1.38,10.052,10.052,0,0,1-.18,1.65l-0.36,2.43a54.347,54.347,0,0,0-.72,6.6,1.49,1.49,0,0,0,1.68,1.68c0.36,0,2.28-.06,2.73-0.15-0.81-.39-1.05-0.9-1.05-3.239a53.834,53.834,0,0,1,.63-6.119Zm11.909,0.39H94.02l0.57-3.18L89.251,9.249h1.5l-1.29,7.889a6.779,6.779,0,0,0-.09,1.05c0,2.49,1.38,3.63,3.629,3.63a3.732,3.732,0,0,0,3.9-2.91,3.255,3.255,0,0,1-2.4,1.05c-0.81,0-1.92-.36-1.92-2.31a5.068,5.068,0,0,1,.09-0.9l1.08-7.5h3.99Zm15.18,13.918c-0.81-.39-1.02-0.9-1.02-3.239,0-1.71.39-5.009,0.39-5.969,0-3.539-1.74-5.1-4.169-5.1a4.38,4.38,0,0,0-3.84,2.22l1.41-8.639-4.2.75c0.39,0.09.6,0.57,0.6,1.47a13.525,13.525,0,0,1-.21,2.19L99.9,19.6c-0.18,1.29-.51,1.74-0.99,1.98h4.619a1.64,1.64,0,0,1-.57-1.5,5.331,5.331,0,0,1,.06-0.93l1.23-7.859a3.314,3.314,0,0,1,2.7-1.95c1.44,0,2.43.87,2.43,3.03,0,2.37-.45,5.279-0.45,7.679a1.4,1.4,0,0,0,1.559,1.68C110.849,21.728,112.739,21.668,113.159,21.578ZM128.64,3.07a1.785,1.785,0,1,0-1.8,1.8A1.812,1.812,0,0,0,128.64,3.07Zm-0.87,4.2-4.14.72a1.2,1.2,0,0,1,.66,1.38,10.052,10.052,0,0,1-.18,1.65l-0.36,2.43a54.329,54.329,0,0,0-.72,6.6,1.49,1.49,0,0,0,1.68,1.68c0.36,0,2.28-.06,2.73-0.15-0.81-.39-1.05-0.9-1.05-3.239a53.842,53.842,0,0,1,.63-6.119Zm11.909,0.39H135.72l0.57-3.18-5.339,4.769h1.5l-1.289,7.889a6.768,6.768,0,0,0-.09,1.05c0,2.49,1.379,3.63,3.629,3.63a3.73,3.73,0,0,0,3.9-2.91,3.251,3.251,0,0,1-2.4,1.05c-0.81,0-1.92-.36-1.92-2.31a5.068,5.068,0,0,1,.09-0.9l1.08-7.5h3.989ZM154.23,3.07a1.785,1.785,0,1,0-1.8,1.8A1.812,1.812,0,0,0,154.23,3.07Zm-0.87,4.2-4.14.72a1.2,1.2,0,0,1,.66,1.38,10.052,10.052,0,0,1-.18,1.65l-0.36,2.43a54.329,54.329,0,0,0-.72,6.6,1.49,1.49,0,0,0,1.68,1.68c0.36,0,2.28-.06,2.73-0.15-0.81-.39-1.05-0.9-1.05-3.239a53.842,53.842,0,0,1,.63-6.119Zm16.529,14.308c-0.81-.39-1.02-0.9-1.02-3.239,0-1.71.42-5.009,0.42-5.969,0-3.539-1.77-5.1-4.2-5.1a4.4,4.4,0,0,0-3.869,2.28l0.33-2.31-4.08.72c0.33,0.12.63,0.6,0.63,1.68a13.582,13.582,0,0,1-.12,1.38L156.66,19.6c-0.21,1.29-.539,1.74-0.989,1.98h4.589a1.64,1.64,0,0,1-.57-1.5,5.674,5.674,0,0,1,.09-0.93l1.2-7.859a3.313,3.313,0,0,1,2.7-1.95c1.47,0,2.46.99,2.46,3.03,0,2.37-.48,5.279-0.48,7.679a1.41,1.41,0,0,0,1.56,1.68C167.579,21.728,169.469,21.668,169.889,21.578Zm22.65-8.459c0-3.779-2.49-5.849-5.58-5.849-4.8,0-7.409,4.559-7.409,8.669,0,3.749,2.46,5.879,5.58,5.879C190.049,21.818,192.539,17.348,192.539,13.119Zm-3.18.03c0,3.48-1.26,7.289-3.869,7.289-1.5,0-2.76-1.92-2.76-4.5,0-3.419,1.26-7.289,3.839-7.289C188.1,8.649,189.359,10.569,189.359,13.149ZM208.828,7.27l-4.2.72c0.54,0.21.69,0.81,0.54,2.22a12.344,12.344,0,0,1-.15,1.35l-0.27,1.65c-0.36,2.25-.72,4.649-0.81,5.339a3.783,3.783,0,0,1-2.61,1.23c-1.29,0-2.039-.75-2.039-2.52a24.072,24.072,0,0,1,.329-3.569l0.96-6.419-4.169.72a1.061,1.061,0,0,1,.66,1.23,17.127,17.127,0,0,1-.15,1.8l-0.6,3.749a15.11,15.11,0,0,0-.24,2.85c0,2.61,1.38,4.2,3.9,4.2a6.182,6.182,0,0,0,3.96-1.74,1.388,1.388,0,0,0,1.56,1.65c0.36,0,2.369-.06,2.819-0.15-0.84-.39-1.05-0.9-1.05-3.239C207.268,16.208,208.828,7.27,208.828,7.27Zm13.531,3.719c0-2.61-.81-3.719-2.58-3.719-2.22,0-3.24,2.7-3.24,2.7l0.42-2.7-4.079.72a1.657,1.657,0,0,1,.6,1.59,8.7,8.7,0,0,1-.12,1.44L212.04,19.6c-0.21,1.41-.54,1.74-1.02,1.98h4.68a1.707,1.707,0,0,1-.51-1.5c0-.27.03-0.6,0.06-0.93l0.809-5.309c0.27-1.74,1.35-4.079,3.54-4.079A3.505,3.505,0,0,1,222.359,10.989Zm16.41-2.79a6.415,6.415,0,0,0-3.57-.93c-2.07,0-4.259,1.2-4.259,3.959a4.755,4.755,0,0,0,2.009,3.45c1.26,1.08,2.37,1.98,2.37,3.39a2.039,2.039,0,0,1-2.16,2.16c-1.559,0-2.639-1.26-3.059-3.569l-0.27,3.72a4.912,4.912,0,0,0,3.9,1.44c2.22,0,4.89-1.23,4.89-4.229,0-1.89-1.41-3.27-3-4.559-1.2-.96-1.65-1.65-1.65-2.61a1.726,1.726,0,0,1,1.86-1.77c1.86,0,2.49,1.92,2.82,3ZM255,13.119c0-3.779-2.49-5.849-5.579-5.849-4.8,0-7.409,4.559-7.409,8.669,0,3.749,2.459,5.879,5.579,5.879C252.508,21.818,255,17.348,255,13.119Zm-3.18.03c0,3.48-1.26,7.289-3.869,7.289-1.5,0-2.76-1.92-2.76-4.5,0-3.419,1.26-7.289,3.84-7.289C250.558,8.649,251.818,10.569,251.818,13.149Zm16.02-8.489V1.72a4.085,4.085,0,0,0-2.819-.87c-2.64,0-4.2,1.32-4.77,5.159l-0.24,1.68h-1.38l-0.24,1.47h1.38l-1.38,9.269c-0.839,5.549-2.909,6.059-3.839,6.239a1.951,1.951,0,0,0,1.95,1.2c2.249,0,4.169-1.47,4.919-6.719l1.41-9.989h3.809l0.24-1.47h-3.839l0.33-2.4c0.24-1.56.66-3,2.129-3C267.058,2.29,267.838,4.66,267.838,4.66Zm9.93,3h-3.959l0.57-3.18L269.04,9.249h1.5l-1.289,7.889a6.768,6.768,0,0,0-.09,1.05c0,2.49,1.379,3.63,3.629,3.63a3.732,3.732,0,0,0,3.9-2.91,3.255,3.255,0,0,1-2.4,1.05c-0.81,0-1.92-.36-1.92-2.31a5.068,5.068,0,0,1,.09-0.9l1.08-7.5h3.989ZM291,13.839c0-4.319-1.92-6.569-5.429-6.569-3.9,0-6.959,3.419-6.959,7.949,0,4.109,2.459,6.6,6.149,6.6a6.2,6.2,0,0,0,5.939-4.829,6.769,6.769,0,0,1-4.859,2.64c-1.89,0-4.02-1.26-4.02-4.529a5.791,5.791,0,0,1,.12-1.26H291Zm-2.91-1.41h-5.909c0.54-2.25,1.71-3.809,3.3-3.809C287.608,8.619,288.088,10.929,288.088,12.429Zm16.051-1.44c0-2.61-.81-3.719-2.58-3.719-2.22,0-3.24,2.7-3.24,2.7l0.42-2.7-4.079.72a1.657,1.657,0,0,1,.6,1.59,8.7,8.7,0,0,1-.12,1.44L293.82,19.6c-0.21,1.41-.54,1.74-1.02,1.98h4.679a1.709,1.709,0,0,1-.509-1.5c0-.27.03-0.6,0.06-0.93l0.809-5.309c0.27-1.74,1.35-4.079,3.54-4.079A3.505,3.505,0,0,1,304.139,10.989ZM321,7.659h-3.96l0.57-3.18L312.27,9.249h1.5l-1.29,7.889a6.768,6.768,0,0,0-.09,1.05c0,2.49,1.38,3.63,3.629,3.63a3.732,3.732,0,0,0,3.9-2.91,3.255,3.255,0,0,1-2.4,1.05c-0.81,0-1.92-.36-1.92-2.31a5.068,5.068,0,0,1,.09-0.9l1.08-7.5h3.99Zm15.179,13.918c-0.81-.39-1.02-0.9-1.02-3.239,0-1.71.39-5.009,0.39-5.969,0-3.539-1.74-5.1-4.169-5.1a4.38,4.38,0,0,0-3.84,2.22l1.41-8.639-4.2.75c0.39,0.09.6,0.57,0.6,1.47a13.525,13.525,0,0,1-.21,2.19L322.92,19.6c-0.18,1.29-.51,1.74-0.99,1.98h4.619a1.643,1.643,0,0,1-.569-1.5,5.331,5.331,0,0,1,.06-0.93l1.229-7.859a3.314,3.314,0,0,1,2.7-1.95c1.44,0,2.43.87,2.43,3.03,0,2.37-.45,5.279-0.45,7.679a1.4,1.4,0,0,0,1.559,1.68C333.868,21.728,335.758,21.668,336.178,21.578ZM352.618,7.27l-3.18.96a5.747,5.747,0,0,0-3.179-.96c-3.15,0-7.019,2.34-7.019,9.149,0,2.76,1.08,5.4,4.349,5.4a5.633,5.633,0,0,0,3.96-1.74,1.388,1.388,0,0,0,1.559,1.65c0.36,0,2.37-.06,2.82-0.15-0.84-.39-1.05-0.9-1.05-3.239A75.8,75.8,0,0,1,352.618,7.27Zm-3.779,3.03c-0.12.75-.48,2.91-0.57,3.45-0.24,1.44-.51,3.18-0.66,4.829A3.956,3.956,0,0,1,345,19.9c-0.93,0-2.55-.84-2.55-3.839,0-3.06,1.38-7.349,4.26-7.349A2.21,2.21,0,0,1,348.839,10.3Zm19.979,11.278c-0.81-.39-1.02-0.9-1.02-3.239,0-1.71.42-5.009,0.42-5.969,0-3.539-1.77-5.1-4.2-5.1a4.4,4.4,0,0,0-3.87,2.28l0.33-2.31-4.079.72c0.33,0.12.63,0.6,0.63,1.68a13.582,13.582,0,0,1-.12,1.38L355.59,19.6c-0.21,1.29-.54,1.74-0.99,1.98h4.589a1.64,1.64,0,0,1-.57-1.5,5.674,5.674,0,0,1,.09-0.93l1.2-7.859a3.314,3.314,0,0,1,2.7-1.95c1.47,0,2.46.99,2.46,3.03,0,2.37-.48,5.279-0.48,7.679a1.41,1.41,0,0,0,1.559,1.68C366.508,21.728,368.4,21.668,368.818,21.578ZM13.739,53.839c0-4.319-1.92-6.569-5.429-6.569-3.9,0-6.959,3.419-6.959,7.949,0,4.109,2.46,6.6,6.149,6.6a6.2,6.2,0,0,0,5.939-4.829,6.768,6.768,0,0,1-4.859,2.64c-1.89,0-4.019-1.26-4.019-4.529a5.792,5.792,0,0,1,.12-1.26h9.059Zm-2.91-1.41H4.92c0.54-2.25,1.71-3.809,3.3-3.809C10.349,48.619,10.829,50.929,10.829,52.429Zm18.27-.75c0-3.3-1.95-4.679-3.6-4.679a3.39,3.39,0,0,0-2.28.66c1.29,0.12,2.88,1.62,2.88,4.8,0,5.909-4.02,7.289-4.02,7.289L20.43,50.6a8.13,8.13,0,0,1-.12-1.2,1.68,1.68,0,0,1,.81-1.71h-5.1a3.355,3.355,0,0,1,1.14,2.34l2.16,11.818C25.049,61.848,29.1,55.608,29.1,51.679Zm15.45,2.16c0-4.319-1.92-6.569-5.429-6.569-3.9,0-6.959,3.419-6.959,7.949,0,4.109,2.46,6.6,6.149,6.6a6.2,6.2,0,0,0,5.939-4.829,6.768,6.768,0,0,1-4.859,2.64c-1.89,0-4.02-1.26-4.02-4.529a5.791,5.791,0,0,1,.12-1.26h9.059Zm-2.909-1.41H35.73c0.54-2.25,1.71-3.809,3.3-3.809C41.159,48.619,41.639,50.929,41.639,52.429Zm16.05-1.44c0-2.61-.81-3.719-2.58-3.719-2.22,0-3.24,2.7-3.24,2.7l0.42-2.7-4.079.72a1.657,1.657,0,0,1,.6,1.59,8.705,8.705,0,0,1-.12,1.44L47.371,59.6c-0.21,1.41-.54,1.74-1.02,1.98H51.03a1.707,1.707,0,0,1-.51-1.5c0-.27.03-0.6,0.06-0.93l0.81-5.309c0.27-1.74,1.35-4.079,3.539-4.079A3.5,3.5,0,0,1,57.689,50.989Zm22.5,10.589a3.041,3.041,0,0,1-1.56-2.37l-4.169-18.6L64.771,58.428a8.814,8.814,0,0,1-2.31,3.15H66a0.959,0.959,0,0,1-.42-0.9,3.969,3.969,0,0,1,.54-1.71l1.95-3.69h6.239l0.72,3.929a3.362,3.362,0,0,1,.09.72,1.777,1.777,0,0,1-.75,1.65h5.819Zm-6.149-7.739H68.82l3.84-7.289ZM94.858,47.27l-4.2.72c0.54,0.21.69,0.81,0.54,2.22a12.344,12.344,0,0,1-.15,1.35l-0.27,1.65c-0.36,2.25-.72,4.649-0.81,5.339a3.782,3.782,0,0,1-2.61,1.23c-1.29,0-2.04-.75-2.04-2.52a23.976,23.976,0,0,1,.33-3.569l0.96-6.419-4.169.72a1.061,1.061,0,0,1,.66,1.23,17.122,17.122,0,0,1-.15,1.8l-0.6,3.75a15.117,15.117,0,0,0-.24,2.85c0,2.61,1.38,4.2,3.9,4.2a6.181,6.181,0,0,0,3.959-1.74,1.388,1.388,0,0,0,1.56,1.65c0.36,0,2.37-.06,2.82-0.15-0.84-.39-1.05-0.9-1.05-3.239C93.3,56.208,94.858,47.27,94.858,47.27Zm11.791,0.39H102.69l0.569-3.18L97.92,49.249h1.5l-1.29,7.889a6.768,6.768,0,0,0-.09,1.05c0,2.49,1.38,3.63,3.63,3.63a3.732,3.732,0,0,0,3.9-2.91,3.255,3.255,0,0,1-2.4,1.05c-0.809,0-1.919-.36-1.919-2.31a5.068,5.068,0,0,1,.09-0.9l1.08-7.5h3.989Zm15.18,13.918c-0.81-.39-1.02-0.9-1.02-3.239,0-1.71.39-5.009,0.39-5.969,0-3.539-1.74-5.1-4.17-5.1a4.379,4.379,0,0,0-3.839,2.22l1.41-8.639-4.2.75c0.39,0.09.6,0.57,0.6,1.47a13.525,13.525,0,0,1-.21,2.19L108.57,59.6c-0.18,1.29-.509,1.74-0.989,1.98H112.2a1.64,1.64,0,0,1-.57-1.5,5.331,5.331,0,0,1,.06-0.93l1.23-7.859a3.313,3.313,0,0,1,2.7-1.95c1.44,0,2.43.87,2.43,3.03,0,2.37-.45,5.279-0.45,7.679a1.4,1.4,0,0,0,1.56,1.68C119.519,61.728,121.409,61.668,121.829,61.578Zm15.21-7.739c0-4.319-1.92-6.569-5.43-6.569-3.9,0-6.959,3.419-6.959,7.949,0,4.109,2.46,6.6,6.149,6.6a6.2,6.2,0,0,0,5.94-4.829,6.769,6.769,0,0,1-4.86,2.64c-1.889,0-4.019-1.26-4.019-4.529a5.791,5.791,0,0,1,.12-1.26h9.059Zm-2.91-1.41H128.22c0.54-2.25,1.71-3.809,3.3-3.809C133.649,48.619,134.129,50.929,134.129,52.429Zm18.9,9.149c-0.81-.39-1.02-0.9-1.02-3.239,0-1.71.42-5.009,0.42-5.969,0-3.539-1.769-5.1-4.2-5.1a4.4,4.4,0,0,0-3.869,2.28l0.33-2.31-4.08.72c0.33,0.12.63,0.6,0.63,1.68a13.582,13.582,0,0,1-.12,1.38L139.8,59.6c-0.21,1.29-.54,1.74-0.99,1.98h4.59a1.64,1.64,0,0,1-.57-1.5,5.674,5.674,0,0,1,.09-0.93l1.2-7.859a3.311,3.311,0,0,1,2.7-1.95c1.47,0,2.46.99,2.46,3.03,0,2.37-.48,5.279-0.48,7.679a1.41,1.41,0,0,0,1.56,1.68C150.719,61.728,152.608,61.668,153.028,61.578ZM164.969,47.66h-3.96l0.57-3.18-5.339,4.769h1.5l-1.29,7.889a6.768,6.768,0,0,0-.09,1.05c0,2.49,1.38,3.63,3.63,3.63a3.732,3.732,0,0,0,3.9-2.91,3.255,3.255,0,0,1-2.4,1.05c-0.809,0-1.919-.36-1.919-2.31a5.068,5.068,0,0,1,.09-0.9l1.08-7.5h3.989Zm7.891-4.589a1.785,1.785,0,1,0-1.8,1.8A1.812,1.812,0,0,0,172.86,43.07Zm-0.87,4.2-4.14.72a1.2,1.2,0,0,1,.66,1.38,10.051,10.051,0,0,1-.18,1.65l-0.36,2.43a54.327,54.327,0,0,0-.72,6.6,1.49,1.49,0,0,0,1.68,1.68c0.36,0,2.28-.06,2.73-0.15-0.81-.39-1.05-0.9-1.05-3.239a53.842,53.842,0,0,1,.63-6.119Zm14.609,1.2a7.122,7.122,0,0,0-3.9-1.2c-5.189,0-7.559,4.319-7.559,8.219,0,3.419,1.62,6.329,5.31,6.329a5.562,5.562,0,0,0,5.429-4.229,5.18,5.18,0,0,1-3.87,1.98c-2.279,0-3.6-1.68-3.6-4.529,0-3.12,1.41-6.329,4.469-6.329a3.729,3.729,0,0,1,3.36,3.06Zm20.46-6.389a9.159,9.159,0,0,0-4.89-1.26c-3.059,0-5.969,1.71-5.969,5.609,0,2.34,1.89,4.05,3.33,5.279,1.739,1.44,3.419,2.91,3.419,4.979A3.449,3.449,0,0,1,199.32,60.2c-2.16,0-4.02-1.62-4.74-4.109L194.31,59.9c0.54,0.48,2.01,1.98,5.61,1.98,3.269,0,6.569-1.77,6.569-6.029,0-2.07-1.17-3.72-3.27-5.549-0.42-.36-0.84-0.69-1.2-0.99-1.8-1.47-2.489-2.52-2.489-4.049a2.8,2.8,0,0,1,3.089-2.88,4.521,4.521,0,0,1,4.29,3.15Zm20.759-.9h-3.87a1.89,1.89,0,0,1,.72,1.77,6.8,6.8,0,0,1-.12,1.26l-1.41,9.419c-0.629,4.169-2.519,6.3-5.1,6.3-2.549,0-3.869-1.53-3.869-4.079a14.981,14.981,0,0,1,.21-2.4l1.529-9.9c0.24-1.47.63-2.13,1.11-2.37H211.98a1.656,1.656,0,0,1,.66,1.53,4.726,4.726,0,0,1-.09.84l-1.74,10.768a10.224,10.224,0,0,0-.15,1.65c0,3.63,2.01,5.879,6.719,5.879,4.68,0,6.569-3.6,7.259-8.1,0.51-3.27,1.44-8.969,1.44-8.969C226.558,41.81,227.338,41.42,227.818,41.18Zm15.841,5.189c0-2.73-1.77-5.189-5.7-5.189H231.42a1.656,1.656,0,0,1,.66,1.53,4.726,4.726,0,0,1-.09.84l-2.459,15.658c-0.24,1.47-.63,2.13-1.11,2.37h4.8a1.1,1.1,0,0,1-.54-1.02v-0.33l1.29-8.1a7.989,7.989,0,0,0,3.12.57C239.7,52.7,243.659,50.929,243.659,46.37Zm-3.36-.09c0,3.51-2.13,4.979-4.409,4.979a5.858,5.858,0,0,1-1.74-.24l1.29-8.069a3.4,3.4,0,0,1,1.38-.3A3.3,3.3,0,0,1,240.3,46.28Zm12.9-5.1H248.16a1.656,1.656,0,0,1,.66,1.53,4.726,4.726,0,0,1-.09.84l-2.46,15.658c-0.24,1.47-.63,2.13-1.109,2.37H250.2a1.656,1.656,0,0,1-.66-1.53,4.726,4.726,0,0,1,.09-0.84l2.46-15.658C252.33,42.08,252.719,41.42,253.2,41.18Zm23.968,0h-3.089c-1.32,0-1.86,1.2-2.7,2.79l-5.969,11.188-2.07-11.428c-0.27-1.5-.84-2.55-2.009-2.55h-3.18a1.728,1.728,0,0,1,.66,1.53,4.461,4.461,0,0,1-.09.84l-2.85,14.428c-0.51,2.52-1.26,3.359-1.739,3.6h3.779a1.736,1.736,0,0,1-.6-1.56,7.729,7.729,0,0,1,.18-1.47l2.58-13.918,3.449,17.4,9.269-17.307-1.71,14.488c-0.18,1.44-.66,2.13-1.11,2.37h5.07c-0.39-.27-0.69-0.72-0.69-2.01a10.636,10.636,0,0,1,.06-1.32L276,43.55A2.8,2.8,0,0,1,277.167,41.18Zm17.491,20.4a3.04,3.04,0,0,1-1.559-2.37l-4.17-18.6-9.688,17.817a8.814,8.814,0,0,1-2.31,3.15h3.539a0.959,0.959,0,0,1-.42-0.9,3.969,3.969,0,0,1,.54-1.71l1.95-3.69h6.239l0.72,3.929a3.362,3.362,0,0,1,.09.72,1.777,1.777,0,0,1-.75,1.65h5.819Zm-6.149-7.739H283.29l3.839-7.289Zm21.6-8.129a5.3,5.3,0,0,0-5.249-4.949,6.13,6.13,0,0,0-6.029,6.389,5.242,5.242,0,0,0,5.189,4.919A6.136,6.136,0,0,0,310.108,45.71Zm-0.42.09a5.7,5.7,0,0,1-5.669,5.909,4.9,4.9,0,0,1-4.8-4.619,5.733,5.733,0,0,1,5.669-5.969A4.87,4.87,0,0,1,309.688,45.8Zm-1.949-.78a1.762,1.762,0,0,0-2.07-1.65H302.25l-0.96,6.059h0.54l0.39-2.46h2.549l1.41,2.49h0.66l-1.5-2.49h0.3A1.816,1.816,0,0,0,307.739,45.02Zm-0.6-.06c0.06,1.2-.6,1.56-1.65,1.56H302.28l0.449-2.67h2.85A1.278,1.278,0,0,1,307.139,44.96Zm28.528,2.49V42.71a13.613,13.613,0,0,0-7.079-1.77c-6.809,0-10.708,5.609-10.708,11.638,0,5.009,2.939,9.239,9.3,9.239a11.8,11.8,0,0,0,6.749-2.04l1.05-4.319c-0.78,1.17-2.759,4.439-7.049,4.439-3.3,0-6.479-2.52-6.479-7.709,0-5.069,2.46-9.629,7.589-9.629C333.807,42.56,335.157,46.28,335.667,47.45Zm14.491,5.669c0-3.779-2.489-5.849-5.579-5.849-4.8,0-7.409,4.559-7.409,8.669,0,3.75,2.46,5.879,5.579,5.879C347.669,61.818,350.158,57.348,350.158,53.119Zm-3.179.03c0,3.48-1.26,7.289-3.87,7.289-1.5,0-2.759-1.92-2.759-4.5,0-3.419,1.259-7.289,3.839-7.289C345.719,48.649,346.979,50.569,346.979,53.149Zm15.24-5.489h-3.96l0.57-3.18-5.339,4.769h1.5l-1.29,7.889a6.768,6.768,0,0,0-.09,1.05c0,2.49,1.38,3.63,3.63,3.63a3.732,3.732,0,0,0,3.9-2.91,3.255,3.255,0,0,1-2.4,1.05c-0.81,0-1.919-.36-1.919-2.31a5.068,5.068,0,0,1,.09-0.9l1.079-7.5h3.99Zm10.8,0H369.06l0.569-3.18-5.339,4.769h1.5l-1.29,7.889a6.768,6.768,0,0,0-.09,1.05c0,2.49,1.38,3.63,3.63,3.63a3.732,3.732,0,0,0,3.9-2.91,3.255,3.255,0,0,1-2.4,1.05c-0.81,0-1.92-.36-1.92-2.31a5.068,5.068,0,0,1,.09-0.9l1.08-7.5h3.989Zm13.89,5.459c0-3.779-2.49-5.849-5.58-5.849-4.8,0-7.409,4.559-7.409,8.669,0,3.75,2.46,5.879,5.58,5.879C384.419,61.818,386.909,57.348,386.909,53.119Zm-3.18.03c0,3.48-1.26,7.289-3.87,7.289-1.5,0-2.759-1.92-2.759-4.5,0-3.419,1.26-7.289,3.839-7.289C382.469,48.649,383.729,50.569,383.729,53.149ZM403.2,61.578c-0.81-.39-1.019-0.9-1.019-3.239,0-1.71.419-5.009,0.419-5.969,0-3.539-1.769-5.1-4.2-5.1a4.4,4.4,0,0,0-3.869,2.28l0.33-2.31-4.08.72c0.33,0.12.63,0.6,0.63,1.68a13.582,13.582,0,0,1-.12,1.38L389.97,59.6c-0.21,1.29-.54,1.74-0.99,1.98h4.59a1.64,1.64,0,0,1-.57-1.5,5.674,5.674,0,0,1,.09-0.93l1.2-7.859a3.311,3.311,0,0,1,2.7-1.95c1.47,0,2.46.99,2.46,3.03,0,2.37-.48,5.279-0.48,7.679a1.41,1.41,0,0,0,1.56,1.68C400.889,61.728,402.778,61.668,403.2,61.578ZM16.888,84.15V81.18H2.4L1.53,84.15s0.66-1.41,4.289-1.41c0.57,0,1.35.03,2.04,0.09L5.37,98.368c-0.45,2.79-1.35,3.21-1.35,3.21H9.389s-0.66-.48-0.66-2.16a16.715,16.715,0,0,1,.15-1.98l2.28-14.608c0.6-.06,1.32-0.12,1.95-0.12C16.348,82.71,16.888,84.15,16.888,84.15Zm9.451,9.689c0-4.319-1.92-6.569-5.429-6.569-3.9,0-6.959,3.419-6.959,7.949,0,4.109,2.46,6.6,6.149,6.6a6.2,6.2,0,0,0,5.939-4.829,6.768,6.768,0,0,1-4.859,2.64c-1.89,0-4.019-1.26-4.019-4.529a5.791,5.791,0,0,1,.12-1.26h9.059Zm-2.91-1.41H17.52c0.54-2.25,1.71-3.809,3.3-3.809C22.949,88.619,23.429,90.929,23.429,92.429Zm18.27,1.41c0-4.319-1.92-6.569-5.429-6.569-3.9,0-6.959,3.419-6.959,7.949,0,4.109,2.46,6.6,6.149,6.6A6.2,6.2,0,0,0,41.4,96.988a6.768,6.768,0,0,1-4.859,2.64c-1.89,0-4.019-1.26-4.019-4.529a5.791,5.791,0,0,1,.12-1.26H41.7Zm-2.91-1.41H32.88c0.54-2.25,1.71-3.809,3.3-3.809C38.309,88.619,38.789,90.929,38.789,92.429Zm24.3,0.24H46.2l-0.33,1.92H62.788Zm13.681-7.2c0-2.61-2.19-4.589-5.159-4.589A5.738,5.738,0,0,0,65.85,86.04c1.26-1.68,2.55-2.91,4.469-2.91a2.829,2.829,0,0,1,2.82,3.03c0,2.49-1.56,5.159-6.9,10.858l-4.229,4.56H74.729l1.02-4.17s-0.78,1.23-3.21,1.23H66.9l3.15-3.059C75.089,90.689,76.768,88.649,76.768,85.47Zm18.9,2.19a5.274,5.274,0,0,0-2.46-.84c-2.22,0-2.82.99-4.619,3.33l-1.86,2.4-1.32-2.43a2.862,2.862,0,0,1-.48-1.41,1.215,1.215,0,0,1,.63-1.05H79.77a4.146,4.146,0,0,1,2.58,2.31l2.58,4.679-3.51,4.259a9.26,9.26,0,0,1-3.03,2.67h4.859a0.81,0.81,0,0,1-.3-0.66,4.662,4.662,0,0,1,.99-2.19l1.86-2.52,2.04,3.66c0.69,1.23.99,1.71,1.8,1.71h3.57c-0.9-.24-1.59-0.39-2.7-2.37L87.6,94.079l2.37-2.64C92.728,88.379,94.378,87.66,95.667,87.66Zm20.161-.39-3.18.96a5.753,5.753,0,0,0-3.18-.96c-3.149,0-7.019,2.34-7.019,9.149,0,2.76,1.08,5.4,4.35,5.4a5.629,5.629,0,0,0,3.959-1.739,1.387,1.387,0,0,0,1.56,1.649c0.36,0,2.37-.06,2.82-0.149-0.84-.39-1.05-0.9-1.05-3.24A75.8,75.8,0,0,1,115.828,87.27Zm-3.78,3.03c-0.12.75-.48,2.91-0.57,3.45-0.24,1.44-.51,3.18-0.66,4.829a3.956,3.956,0,0,1-2.609,1.32c-0.93,0-2.55-.84-2.55-3.839,0-3.06,1.38-7.349,4.259-7.349A2.21,2.21,0,0,1,112.048,90.3Zm14.88-2.1a6.411,6.411,0,0,0-3.569-.93c-2.07,0-4.26,1.2-4.26,3.96a4.752,4.752,0,0,0,2.01,3.45c1.26,1.08,2.37,1.98,2.37,3.389a2.039,2.039,0,0,1-2.16,2.16c-1.56,0-2.64-1.26-3.06-3.57l-0.27,3.72a4.914,4.914,0,0,0,3.9,1.439c2.22,0,4.889-1.229,4.889-4.229,0-1.89-1.41-3.27-3-4.559-1.2-.96-1.65-1.65-1.65-2.61a1.726,1.726,0,0,1,1.86-1.77c1.859,0,2.489,1.92,2.819,3Zm17.73,0a6.415,6.415,0,0,0-3.57-.93c-2.069,0-4.259,1.2-4.259,3.96a4.752,4.752,0,0,0,2.01,3.45c1.259,1.08,2.369,1.98,2.369,3.389a2.039,2.039,0,0,1-2.159,2.16c-1.56,0-2.64-1.26-3.06-3.57l-0.27,3.72a4.913,4.913,0,0,0,3.9,1.439c2.22,0,4.89-1.229,4.89-4.229,0-1.89-1.41-3.27-3-4.559-1.2-.96-1.65-1.65-1.65-2.61a1.726,1.726,0,0,1,1.86-1.77c1.86,0,2.49,1.92,2.82,3Zm12.089-.54h-3.959l0.57-3.18-5.339,4.769h1.5l-1.289,7.889a6.768,6.768,0,0,0-.09,1.05c0,2.49,1.379,3.629,3.629,3.629a3.732,3.732,0,0,0,3.9-2.909,3.255,3.255,0,0,1-2.4,1.05c-0.81,0-1.92-.36-1.92-2.31a5.068,5.068,0,0,1,.09-0.9l1.08-7.5h3.99Zm12.69,3.33c0-2.61-.81-3.72-2.579-3.72-2.22,0-3.24,2.7-3.24,2.7l0.42-2.7-4.079.72a1.658,1.658,0,0,1,.6,1.59,8.705,8.705,0,0,1-.12,1.44L159.119,99.6c-0.21,1.41-.54,1.74-1.02,1.98h4.679a1.707,1.707,0,0,1-.51-1.5c0-.27.03-0.6,0.06-0.93l0.81-5.309c0.27-1.74,1.35-4.079,3.54-4.079A3.5,3.5,0,0,1,169.437,90.989Zm13.86,2.13c0-3.779-2.49-5.849-5.579-5.849-4.8,0-7.409,4.559-7.409,8.669,0,3.749,2.46,5.879,5.579,5.879C180.807,101.817,183.3,97.348,183.3,93.119Zm-3.179.03c0,3.48-1.26,7.289-3.87,7.289-1.5,0-2.76-1.92-2.76-4.5,0-3.419,1.26-7.289,3.84-7.289C178.858,88.649,180.118,90.569,180.118,93.149Zm19.469,8.429c-0.81-.39-1.02-0.9-1.02-3.24,0-1.71.42-5.009,0.42-5.969,0-3.539-1.77-5.1-4.2-5.1a4.4,4.4,0,0,0-3.87,2.28l0.33-2.31-4.079.72c0.33,0.12.63,0.6,0.63,1.68a13.582,13.582,0,0,1-.12,1.38l-1.32,8.579c-0.21,1.29-.54,1.74-0.99,1.98h4.589a1.641,1.641,0,0,1-.57-1.5,5.674,5.674,0,0,1,.09-0.93l1.2-7.859a3.314,3.314,0,0,1,2.7-1.95c1.47,0,2.459.99,2.459,3.03,0,2.37-.479,5.279-0.479,7.679a1.409,1.409,0,0,0,1.559,1.679C197.277,101.727,199.167,101.667,199.587,101.578ZM216,87.27l-2.969.99a5.342,5.342,0,0,0-3.21-.99c-3.15,0-7.079,2.43-7.079,8.7,0,2.76,1.17,5.4,4.469,5.4a5.83,5.83,0,0,0,3.75-1.56l-0.27,1.979c-0.42,3.18-1.95,4.77-4.319,4.77-2.67,0-4.14-2.28-4.47-4.32l-0.33,4.11a7.9,7.9,0,0,0,4.95,1.77c4.259,0,6.929-1.71,7.468-6.839,0.21-1.77.39-3.75,0.51-4.5Zm-3.689,3.03-0.72,4.589c-0.21,1.26-.39,2.55-0.48,3.24a4.439,4.439,0,0,1-2.61,1.32c-0.93,0-2.519-.84-2.519-3.839,0-2.94,1.049-6.9,4.319-6.9A2.291,2.291,0,0,1,212.308,90.3Zm26.1-3.03-3.18.96a5.751,5.751,0,0,0-3.179-.96c-3.15,0-7.019,2.34-7.019,9.149,0,2.76,1.08,5.4,4.349,5.4a5.632,5.632,0,0,0,3.96-1.739,1.387,1.387,0,0,0,1.559,1.649c0.36,0,2.37-.06,2.82-0.149-0.84-.39-1.05-0.9-1.05-3.24A75.8,75.8,0,0,1,238.407,87.27Zm-3.78,3.03c-0.12.75-.48,2.91-0.57,3.45-0.24,1.44-.51,3.18-0.66,4.829a3.951,3.951,0,0,1-2.609,1.32c-0.93,0-2.55-.84-2.55-3.839,0-3.06,1.38-7.349,4.26-7.349A2.21,2.21,0,0,1,234.627,90.3Zm14.88-2.1a6.409,6.409,0,0,0-3.569-.93c-2.07,0-4.259,1.2-4.259,3.96a4.751,4.751,0,0,0,2.009,3.45c1.26,1.08,2.37,1.98,2.37,3.389a2.039,2.039,0,0,1-2.16,2.16c-1.56,0-2.639-1.26-3.059-3.57l-0.27,3.72a4.913,4.913,0,0,0,3.9,1.439c2.22,0,4.889-1.229,4.889-4.229,0-1.89-1.409-3.27-3-4.559-1.2-.96-1.65-1.65-1.65-2.61a1.726,1.726,0,0,1,1.86-1.77c1.86,0,2.489,1.92,2.819,3Zm20.04,2.79c0-2.61-.81-3.72-2.58-3.72-2.22,0-3.24,2.7-3.24,2.7l0.42-2.7-4.079.72a1.657,1.657,0,0,1,.6,1.59,8.705,8.705,0,0,1-.12,1.44l-1.32,8.579c-0.21,1.41-.54,1.74-1.02,1.98h4.68a1.707,1.707,0,0,1-.51-1.5c0-.27.03-0.6,0.06-0.93l0.81-5.309c0.269-1.74,1.349-4.079,3.539-4.079A3.506,3.506,0,0,1,269.547,90.989Zm13.77,2.85c0-4.319-1.92-6.569-5.43-6.569-3.9,0-6.959,3.419-6.959,7.949,0,4.109,2.46,6.6,6.149,6.6a6.2,6.2,0,0,0,5.94-4.829,6.769,6.769,0,0,1-4.86,2.64c-1.889,0-4.019-1.26-4.019-4.529a5.791,5.791,0,0,1,.12-1.26h9.059Zm-2.91-1.41H274.5c0.54-2.25,1.71-3.809,3.3-3.809C279.927,88.619,280.407,90.929,280.407,92.429Zm19.05-5.159-2.97.99a5.341,5.341,0,0,0-3.209-.99c-3.15,0-7.079,2.43-7.079,8.7,0,2.76,1.169,5.4,4.469,5.4a5.824,5.824,0,0,0,3.749-1.56l-0.27,1.979c-0.42,3.18-1.949,4.77-4.319,4.77-2.67,0-4.139-2.28-4.469-4.32l-0.33,4.11a7.9,7.9,0,0,0,4.949,1.77c4.259,0,6.929-1.71,7.469-6.839,0.21-1.77.39-3.75,0.51-4.5Zm-3.69,3.03-0.72,4.589c-0.21,1.26-.39,2.55-0.48,3.24a4.436,4.436,0,0,1-2.609,1.32c-0.93,0-2.52-.84-2.52-3.839,0-2.94,1.05-6.9,4.319-6.9A2.291,2.291,0,0,1,295.767,90.3Zm19.56-3.03-4.2.72c0.54,0.21.69,0.81,0.54,2.22a12.344,12.344,0,0,1-.15,1.35l-0.27,1.65c-0.36,2.25-.72,4.649-0.81,5.339a3.781,3.781,0,0,1-2.609,1.23c-1.29,0-2.04-.75-2.04-2.52a23.976,23.976,0,0,1,.33-3.57l0.96-6.419-4.17.72a1.061,1.061,0,0,1,.66,1.23,17.127,17.127,0,0,1-.15,1.8l-0.6,3.749a15.182,15.182,0,0,0-.239,2.85c0,2.61,1.379,4.2,3.9,4.2a6.176,6.176,0,0,0,3.959-1.739,1.387,1.387,0,0,0,1.56,1.649c0.36,0,2.37-.06,2.82-0.149-0.84-.39-1.05-0.9-1.05-3.24C313.767,96.208,315.327,87.27,315.327,87.27Zm8.821-6.329-4.17.72a1.181,1.181,0,0,1,.66,1.35,8.666,8.666,0,0,1-.15,1.59l-1.41,9.029a52.182,52.182,0,0,0-.72,6.449,1.488,1.488,0,0,0,1.71,1.649c0.36,0,2.28-.06,2.7-0.149-0.81-.36-1.02-0.87-1.02-3.18a45.457,45.457,0,0,1,.63-5.969Zm15.509,6.329-3.18.96a5.753,5.753,0,0,0-3.18-.96c-3.149,0-7.019,2.34-7.019,9.149,0,2.76,1.08,5.4,4.35,5.4a5.629,5.629,0,0,0,3.959-1.739,1.387,1.387,0,0,0,1.56,1.649c0.36,0,2.37-.06,2.82-0.149-0.84-.39-1.05-0.9-1.05-3.24A75.8,75.8,0,0,1,339.657,87.27Zm-3.78,3.03c-0.12.75-.48,2.91-0.57,3.45-0.24,1.44-.51,3.18-0.66,4.829a3.956,3.956,0,0,1-2.609,1.32c-0.93,0-2.55-.84-2.55-3.839,0-3.06,1.38-7.349,4.259-7.349A2.21,2.21,0,0,1,335.877,90.3Zm17.04,0.69c0-2.61-.81-3.72-2.58-3.72-2.22,0-3.239,2.7-3.239,2.7l0.419-2.7-4.079.72a1.657,1.657,0,0,1,.6,1.59,8.705,8.705,0,0,1-.12,1.44L342.6,99.6c-0.21,1.41-.54,1.74-1.02,1.98h4.68a1.707,1.707,0,0,1-.51-1.5c0-.27.03-0.6,0.06-0.93l0.81-5.309c0.27-1.74,1.349-4.079,3.539-4.079A3.506,3.506,0,0,1,352.917,90.989ZM12.779,128.469a7.124,7.124,0,0,0-3.9-1.2c-5.189,0-7.559,4.319-7.559,8.218,0,3.42,1.62,6.329,5.309,6.329a5.561,5.561,0,0,0,5.429-4.229,5.179,5.179,0,0,1-3.869,1.98c-2.28,0-3.6-1.68-3.6-4.53,0-3.119,1.41-6.329,4.469-6.329a3.729,3.729,0,0,1,3.36,3.06Zm15.42,4.65c0-3.78-2.49-5.849-5.579-5.849-4.8,0-7.409,4.559-7.409,8.668,0,3.75,2.46,5.879,5.579,5.879C25.709,141.817,28.2,137.348,28.2,133.119Zm-3.18.03c0,3.479-1.26,7.289-3.869,7.289-1.5,0-2.76-1.92-2.76-4.5,0-3.419,1.26-7.289,3.839-7.289C23.759,128.649,25.019,130.569,25.019,133.149Zm15.24-5.49H36.3l0.57-3.179-5.339,4.769h1.5l-1.29,7.889a6.769,6.769,0,0,0-.09,1.05c0,2.49,1.38,3.629,3.629,3.629a3.731,3.731,0,0,0,3.9-2.909,3.255,3.255,0,0,1-2.4,1.05c-0.81,0-1.92-.36-1.92-2.31a5.07,5.07,0,0,1,.09-0.9l1.08-7.5h3.989Zm10.8,0H47.1l0.57-3.179-5.339,4.769h1.5l-1.29,7.889a6.769,6.769,0,0,0-.09,1.05c0,2.49,1.38,3.629,3.63,3.629a3.731,3.731,0,0,0,3.9-2.909,3.254,3.254,0,0,1-2.4,1.05c-0.81,0-1.92-.36-1.92-2.31a5.07,5.07,0,0,1,.09-0.9l1.08-7.5h3.989Zm13.89,5.46c0-3.78-2.49-5.849-5.579-5.849-4.8,0-7.409,4.559-7.409,8.668,0,3.75,2.46,5.879,5.579,5.879C62.459,141.817,64.949,137.348,64.949,133.119Zm-3.18.03c0,3.479-1.26,7.289-3.869,7.289-1.5,0-2.76-1.92-2.76-4.5,0-3.419,1.26-7.289,3.84-7.289C60.509,128.649,61.769,130.569,61.769,133.149Zm19.469,8.429c-0.81-.39-1.02-0.9-1.02-3.24,0-1.71.42-5.009,0.42-5.969,0-3.54-1.77-5.1-4.2-5.1a4.4,4.4,0,0,0-3.87,2.279l0.33-2.309-4.079.719c0.33,0.12.63,0.6,0.63,1.68a13.582,13.582,0,0,1-.12,1.38l-1.32,8.579c-0.21,1.29-.54,1.74-0.99,1.98H71.61a1.641,1.641,0,0,1-.57-1.5,5.676,5.676,0,0,1,.09-0.93l1.2-7.859a3.313,3.313,0,0,1,2.7-1.95c1.47,0,2.46.99,2.46,3.03,0,2.369-.48,5.279-0.48,7.679a1.409,1.409,0,0,0,1.56,1.679C78.929,141.727,80.819,141.667,81.239,141.578Zm6.632-1.62a1.83,1.83,0,1,0-1.83,1.859A1.837,1.837,0,0,0,87.87,139.958Z"/>
  </g>
</svg>
