<svg id="TOP_copy" data-name="TOP copy" xmlns="http://www.w3.org/2000/svg" width="1440" height="811" viewBox="0 0 1440 811">
  <defs>
    <style>
      .cls-1 {
        fill: #fff;
      }

      .cls-1, .cls-2 {
        fill-rule: evenodd;
      }
    </style>
  </defs>
  <path id="What_to_wear_during_the_long-weekends_season." data-name="What to wear during the  long-weekends season." class="cls-1" d="M615.087,636.246h1.5l3.493-12.784h-1.747l-2.683,9.975-3.691-10.191-3.673,10.191-2.683-9.975h-1.746l3.493,12.784h1.494l3.133-8.679Zm8.295,0h1.548v-4.465c0-2.107,1.153-3.295,2.611-3.295a2.16,2.16,0,0,1,2.125,2.448v5.312h1.53V630.7a3.318,3.318,0,0,0-3.4-3.637,3.184,3.184,0,0,0-2.863,1.567v-5.888h-1.548v13.5Zm11.34-4.5a4.5,4.5,0,0,0,4.411,4.681,3.949,3.949,0,0,0,3.169-1.566v1.386h1.548v-9H642.3v1.387a3.949,3.949,0,0,0-3.169-1.567A4.5,4.5,0,0,0,634.722,631.745Zm7.706,0a3.075,3.075,0,1,1-3.061-3.259A3.074,3.074,0,0,1,642.428,631.745Zm10.655,4.375v-1.386a3.422,3.422,0,0,1-1.1.18,1.3,1.3,0,0,1-1.5-1.531v-4.717h2.593v-1.423H650.49v-2.5h-1.548v2.5h-1.909v1.423h1.909v4.915a2.534,2.534,0,0,0,2.755,2.755A4.307,4.307,0,0,0,653.083,636.12Zm13.824,0v-1.386a3.422,3.422,0,0,1-1.1.18,1.3,1.3,0,0,1-1.5-1.531v-4.717h2.593v-1.423h-2.593v-2.5h-1.548v2.5h-1.909v1.423h1.909v4.915a2.534,2.534,0,0,0,2.755,2.755A4.307,4.307,0,0,0,666.907,636.12Zm11.989-4.375a4.709,4.709,0,1,0-4.7,4.681A4.62,4.62,0,0,0,678.9,631.745Zm-7.832,0a3.126,3.126,0,1,1,3.133,3.241A3.094,3.094,0,0,1,671.064,631.745Zm24.626,4.5h1.368l3.061-9H698.48l-2.178,6.572-2.251-6.572h-1.188l-2.251,6.572-2.179-6.572h-1.62l3.061,9h1.368l2.233-6.482Zm6.8-4.5a4.746,4.746,0,0,0,8.714,2.539l-1.224-.847a3.187,3.187,0,0,1-5.924-1.386h7.383a4.392,4.392,0,0,0,.018-0.468,4.2,4.2,0,0,0-4.286-4.52A4.562,4.562,0,0,0,702.491,631.745Zm4.627-3.313a2.693,2.693,0,0,1,2.755,2.358h-5.708A2.943,2.943,0,0,1,707.118,628.432Zm7.271,3.313a4.5,4.5,0,0,0,4.411,4.681,3.949,3.949,0,0,0,3.169-1.566v1.386h1.549v-9h-1.549v1.387a3.949,3.949,0,0,0-3.169-1.567A4.5,4.5,0,0,0,714.389,631.745Zm7.706,0a3.075,3.075,0,1,1-3.061-3.259A3.074,3.074,0,0,1,722.1,631.745Zm5.776,4.5h1.548v-4.465c0-2.107,1.243-3.1,2.377-3.1a2.263,2.263,0,0,1,.846.144v-1.6a3.207,3.207,0,0,0-.7-0.072,2.68,2.68,0,0,0-2.521,1.837v-1.747h-1.548v9Zm12.707-4.5a4.5,4.5,0,0,0,4.412,4.681,3.949,3.949,0,0,0,3.169-1.566v1.386h1.548v-13.5h-1.548v5.888a3.949,3.949,0,0,0-3.169-1.567A4.506,4.506,0,0,0,740.578,631.745Zm7.707,0a3.075,3.075,0,1,1-3.061-3.259A3.075,3.075,0,0,1,748.285,631.745Zm5.649,1.026c0,2.233,1.333,3.655,3.313,3.655a3.1,3.1,0,0,0,2.773-1.566v1.386h1.549v-9H760.02v4.466c0,2.07-1.1,3.3-2.5,3.3-1.242,0-2.034-.955-2.034-2.467v-5.294h-1.549v5.528Zm11.988,3.475h1.549v-4.465c0-2.107,1.242-3.1,2.377-3.1a2.263,2.263,0,0,1,.846.144v-1.6a3.207,3.207,0,0,0-.7-0.072,2.679,2.679,0,0,0-2.521,1.837v-1.747h-1.549v9Zm9.9-12.514a1.087,1.087,0,0,0-1.08-1.1,1.118,1.118,0,0,0-1.117,1.1,1.107,1.107,0,0,0,1.117,1.1A1.076,1.076,0,0,0,775.823,623.732Zm-1.873,12.514H775.5v-9H773.95v9Zm5.922,0h1.549v-4.465c0-2.107,1.152-3.295,2.61-3.295a2.16,2.16,0,0,1,2.125,2.448v5.312h1.531V630.7a3.319,3.319,0,0,0-3.4-3.637,3.181,3.181,0,0,0-2.862,1.567v-1.387h-1.549v9Zm20.432-.522v-8.481h-1.548v1.387a3.832,3.832,0,0,0-3.133-1.567,4.587,4.587,0,0,0,0,9.165,3.845,3.845,0,0,0,3.133-1.584v1.026a2.877,2.877,0,0,1-3.007,3.115,3.85,3.85,0,0,1-3.151-1.513l-1.08,1.081a5.345,5.345,0,0,0,4.249,1.836C798.324,640.189,800.3,638.731,800.3,635.724Zm-7.508-4.087a3.045,3.045,0,1,1,3.043,3.151A3,3,0,0,1,792.8,631.637Zm22.267,4.483v-1.386a3.422,3.422,0,0,1-1.1.18,1.3,1.3,0,0,1-1.5-1.531v-4.717h2.593v-1.423H812.47v-2.5h-1.548v2.5h-1.909v1.423h1.909v4.915a2.534,2.534,0,0,0,2.755,2.755A4.307,4.307,0,0,0,815.063,636.12Zm3.419,0.126h1.548v-4.465c0-2.107,1.152-3.295,2.611-3.295a2.16,2.16,0,0,1,2.124,2.448v5.312H826.3V630.7a3.318,3.318,0,0,0-3.4-3.637,3.182,3.182,0,0,0-2.863,1.567v-5.888h-1.548v13.5Zm11.339-4.5a4.747,4.747,0,0,0,8.715,2.539l-1.225-.847a3.187,3.187,0,0,1-5.923-1.386h7.382a4.392,4.392,0,0,0,.018-0.468,4.2,4.2,0,0,0-4.285-4.52A4.563,4.563,0,0,0,829.821,631.745Zm4.628-3.313a2.693,2.693,0,0,1,2.754,2.358H831.5A2.943,2.943,0,0,1,834.449,628.432ZM604.9,660.246h1.549v-13.5H604.9v13.5Zm14.619-4.5a4.709,4.709,0,1,0-4.7,4.681A4.621,4.621,0,0,0,619.515,655.745Zm-7.833,0a3.126,3.126,0,1,1,3.133,3.241A3.094,3.094,0,0,1,611.682,655.745Zm11.484,4.5h1.548v-4.465c0-2.107,1.153-3.295,2.611-3.295a2.161,2.161,0,0,1,2.125,2.449v5.311h1.53V654.7a3.318,3.318,0,0,0-3.4-3.637,3.186,3.186,0,0,0-2.863,1.567v-1.387h-1.548v9Zm20.432-.522v-8.481H642.05v1.387a3.832,3.832,0,0,0-3.133-1.567,4.587,4.587,0,0,0,0,9.165,3.845,3.845,0,0,0,3.133-1.584v1.026a2.878,2.878,0,0,1-3.007,3.115,3.849,3.849,0,0,1-3.151-1.513l-1.08,1.081a5.344,5.344,0,0,0,4.249,1.836C641.618,664.189,643.6,662.731,643.6,659.724Zm-7.508-4.087a3.045,3.045,0,1,1,3.043,3.151A3,3,0,0,1,636.09,655.637Zm11.573,0.342h4.592V654.43h-4.592v1.549Zm16.131,4.267h1.368l3.061-9h-1.639l-2.178,6.572-2.251-6.572h-1.188l-2.251,6.572-2.179-6.572h-1.62l3.061,9h1.368l2.233-6.482Zm6.8-4.5a4.746,4.746,0,0,0,8.714,2.539l-1.224-.847a3.187,3.187,0,0,1-5.924-1.386h7.383a4.392,4.392,0,0,0,.018-0.468,4.2,4.2,0,0,0-4.286-4.52A4.562,4.562,0,0,0,670.6,655.745Zm4.627-3.313a2.693,2.693,0,0,1,2.755,2.358h-5.708A2.944,2.944,0,0,1,675.222,652.432Zm7.271,3.313a4.746,4.746,0,0,0,8.714,2.539l-1.224-.847a3.187,3.187,0,0,1-5.924-1.386h7.382a4.392,4.392,0,0,0,.018-0.468,4.2,4.2,0,0,0-4.285-4.52A4.562,4.562,0,0,0,682.493,655.745Zm4.627-3.313a2.693,2.693,0,0,1,2.755,2.358h-5.708A2.943,2.943,0,0,1,687.12,652.432Zm7.973,7.814h1.548v-4.5l4.88,4.5h2.088l-5.419-5.023,4.429-3.98h-2.052l-3.926,3.511v-8.012h-1.548v13.5Zm9.863-4.5a4.747,4.747,0,0,0,8.715,2.539l-1.224-.847a3.187,3.187,0,0,1-5.924-1.386h7.382a4.392,4.392,0,0,0,.018-0.468,4.2,4.2,0,0,0-4.285-4.52A4.563,4.563,0,0,0,704.956,655.745Zm4.628-3.313a2.694,2.694,0,0,1,2.755,2.358h-5.708A2.943,2.943,0,0,1,709.584,652.432Zm7.973,7.814h1.548v-4.465c0-2.107,1.152-3.295,2.611-3.295a2.161,2.161,0,0,1,2.124,2.449v5.311h1.531V654.7a3.318,3.318,0,0,0-3.4-3.637,3.185,3.185,0,0,0-2.863,1.567v-1.387h-1.548v9Zm11.339-4.5a4.5,4.5,0,0,0,4.411,4.681,3.947,3.947,0,0,0,3.169-1.566v1.386h1.549v-13.5h-1.549v5.888a3.948,3.948,0,0,0-3.169-1.567A4.506,4.506,0,0,0,728.9,655.745Zm7.706,0a3.075,3.075,0,1,1-3.06-3.259A3.074,3.074,0,0,1,736.6,655.745Zm11.61,2c0-1.35-.846-2.214-2.377-2.718l-0.972-.325c-1.062-.342-1.387-0.684-1.387-1.26a1.275,1.275,0,0,1,1.513-1.044,2.435,2.435,0,0,1,1.909.936l1.008-.972a3.49,3.49,0,0,0-2.881-1.3c-1.783,0-3.043.991-3.043,2.449a2.717,2.717,0,0,0,2.233,2.611l0.882,0.288c1.17,0.378,1.6.81,1.6,1.44a1.371,1.371,0,0,1-1.585,1.225,2.416,2.416,0,0,1-2.305-1.423l-1.26.685a3.576,3.576,0,0,0,3.529,2.088C746.9,660.426,748.212,659.508,748.212,657.743Zm15.318,0c0-1.35-.847-2.214-2.377-2.718l-0.972-.325c-1.063-.342-1.387-0.684-1.387-1.26a1.274,1.274,0,0,1,1.513-1.044,2.432,2.432,0,0,1,1.908.936l1.008-.972a3.488,3.488,0,0,0-2.88-1.3c-1.783,0-3.043.991-3.043,2.449a2.717,2.717,0,0,0,2.232,2.611l0.883,0.288c1.17,0.378,1.6.81,1.6,1.44a1.37,1.37,0,0,1-1.584,1.225,2.415,2.415,0,0,1-2.3-1.423l-1.26.685a3.575,3.575,0,0,0,3.529,2.088C762.215,660.426,763.53,659.508,763.53,657.743Zm2.949-2a4.747,4.747,0,0,0,8.715,2.539l-1.224-.847a3.187,3.187,0,0,1-5.924-1.386h7.382a4.392,4.392,0,0,0,.018-0.468,4.2,4.2,0,0,0-4.285-4.52A4.563,4.563,0,0,0,766.479,655.745Zm4.628-3.313a2.694,2.694,0,0,1,2.755,2.358h-5.708A2.943,2.943,0,0,1,771.107,652.432Zm7.27,3.313a4.5,4.5,0,0,0,4.412,4.681,3.95,3.95,0,0,0,3.169-1.566v1.386h1.548v-9h-1.548v1.387a3.951,3.951,0,0,0-3.169-1.567A4.506,4.506,0,0,0,778.377,655.745Zm7.707,0a3.075,3.075,0,1,1-3.061-3.259A3.075,3.075,0,0,1,786.084,655.745Zm11.609,2c0-1.35-.846-2.214-2.377-2.718l-0.972-.325c-1.062-.342-1.386-0.684-1.386-1.26a1.274,1.274,0,0,1,1.512-1.044,2.434,2.434,0,0,1,1.909.936l1.008-.972a3.489,3.489,0,0,0-2.881-1.3c-1.782,0-3.043.991-3.043,2.449a2.718,2.718,0,0,0,2.233,2.611l0.882,0.288c1.171,0.378,1.6.81,1.6,1.44a1.371,1.371,0,0,1-1.585,1.225,2.417,2.417,0,0,1-2.3-1.423l-1.26.685a3.576,3.576,0,0,0,3.529,2.088C796.379,660.426,797.693,659.508,797.693,657.743Zm12.349-2a4.709,4.709,0,1,0-4.7,4.681A4.621,4.621,0,0,0,810.042,655.745Zm-7.833,0a3.126,3.126,0,1,1,3.133,3.241A3.094,3.094,0,0,1,802.209,655.745Zm11.484,4.5h1.548v-4.465c0-2.107,1.153-3.295,2.611-3.295a2.161,2.161,0,0,1,2.125,2.449v5.311h1.53V654.7a3.318,3.318,0,0,0-3.4-3.637,3.186,3.186,0,0,0-2.863,1.567v-1.387h-1.548v9Zm14.184-1.206a1.332,1.332,0,1,0-1.332,1.35A1.357,1.357,0,0,0,827.877,659.04Z"/>
  <path id="the_packing_list" data-name="the packing list" class="cls-1" d="M623.213,395.224h19.519v-68.07h22.324V308.611H601.133v18.543h22.08v68.07Zm61,0h19.4V360.945H738.5v34.279h19.4V308.611H738.5v33.913H703.61V308.611h-19.4v86.613Zm99.307,0h54.9V376.681h-35.5V361.189H831.1V342.646H802.918V327.154h35.5V308.611h-54.9v86.613ZM667.5,434.255c0-16.713-13.052-29.644-30.5-29.644H607.6v86.613H627V463.776h10C654.443,463.776,667.5,450.967,667.5,434.255Zm-18.786,0c0,6.343-5,11.345-11.955,11.345H627V422.91h9.759C643.707,422.91,648.709,427.789,648.709,434.255Zm23.428,56.969h20.25l7.686-18.3h35.865l7.685,18.3h20.25l-37.085-86.613H709.222Zm35.011-35.133,10.857-26.106,10.857,26.106H707.148Zm109.067,36.6c18.055,0,33.059-9.393,40.5-23.666l-17.079-9.271c-4.879,8.661-12.565,14.15-23.422,14.15-14.151,0-25.252-11.955-25.252-25.983s11.1-25.984,25.252-25.984c10.857,0,18.543,5.489,23.422,14.151l17.079-9.272c-7.442-14.272-22.446-23.666-40.5-23.666A44.771,44.771,0,0,0,816.215,492.688Zm59.173-1.464h19.275V452.431l35.255,38.793H954.8L913.693,446.21l34.157-41.6H924.062l-29.4,36.231V404.611H875.388v86.613Zm92.72,0h19.4V404.611h-19.4v86.613Zm123.332,0V404.611h-19.52v53.432l-42.08-53.432h-16.72v86.613h19.4V437.67l42.21,53.554h16.71Zm67.96,1.464c14.03,0,27.81-4.148,35.5-12.809V438.768h-35.87v18.177h16.96v12.809c-3.66,2.927-10,4.147-16.84,4.147-16.95,0-27.32-11.223-27.32-25.983,0-14.029,10.37-25.984,26.1-25.984a28.757,28.757,0,0,1,21.84,9.271l13.66-13.3c-8.29-9.149-20.12-14.761-35.5-14.761-26.83,0-45.62,20.129-45.62,44.771C1112.31,473.291,1132.44,492.688,1159.4,492.688ZM607.6,587.224H662.86V568.681H627v-68.07H607.6v86.613Zm74.663,0h19.4V500.611h-19.4v86.613Zm70.878,1.464c18.3,0,30.864-10.979,30.986-26.716,0.122-13.053-8.051-21.348-20.616-25.862l-6.1-2.2c-9.149-3.293-13.419-5.367-13.419-10,0-4.513,5.246-6.587,10.491-6.587a19.267,19.267,0,0,1,15,7.2L782.173,511.1c-8.051-8.661-17.444-11.955-27.936-11.955-17.322,0-29.887,9.882-29.887,26.716,0,11.833,7.807,20.25,21.836,25.008l6.1,2.074c8.661,2.928,12.077,5.977,12.077,10.369,0,4.148-4.026,7.2-10.492,7.2a22.658,22.658,0,0,1-17.932-9.881L721.056,573.2C727.766,582.954,739.477,588.688,753.139,588.688Zm66.125-1.464h19.518v-68.07h22.324V500.611H797.184v18.543h22.08v68.07Z"/>
  <path id="The_Summer_of_Long_Weekends" data-name="The Summer of Long Weekends" class="cls-2" d="M145.057,225.41v3.2h11.164v3.661h3.042V221.789h-3.042v3.621H145.057Zm0,10.359v3.022h4.862c1.8,0,2.621.88,2.621,2.02,0,1.081-.84,1.621-2.221,1.621h-5.262v3.021h5.782c2.621,0,4.442-1.42,4.442-3.881a3.375,3.375,0,0,0-1.24-2.781h6.022v-3.022H145.057Zm-0.22,18.762a5.613,5.613,0,0,0,2.2,4.7l1.68-2.241a2.9,2.9,0,0,1-1.14-2.421,2.254,2.254,0,0,1,1.761-2.441v7.263a7.728,7.728,0,0,0,1.06.06,4.672,4.672,0,0,0,4.882-4.982A5.223,5.223,0,1,0,144.837,254.531Zm7.983-.14a2,2,0,0,1-1.5,2.061V252.21A2.091,2.091,0,0,1,152.82,254.391Zm-8,19.86c0,3,1.8,5.062,4.382,5.082,2.14,0.02,3.5-1.321,4.241-3.382l0.36-1c0.541-1.5.881-2.2,1.641-2.2,0.74,0,1.081.86,1.081,1.721a3.163,3.163,0,0,1-1.181,2.461l2.2,2.081a5.928,5.928,0,0,0,1.961-4.582c0-2.842-1.621-4.9-4.382-4.9-1.941,0-3.321,1.28-4.1,3.581l-0.34,1c-0.48,1.42-.98,1.98-1.7,1.98-0.68,0-1.18-.66-1.18-1.72a3.717,3.717,0,0,1,1.621-2.942l-2.061-2.441A6.23,6.23,0,0,0,144.817,274.251Zm0.02,12.519a3.078,3.078,0,0,0,1.24,2.661h-1.02v3.021h10v-3.021H150.2c-1.841,0-2.621-.74-2.621-1.881,0-1.12.84-1.54,2.3-1.54h5.182v-3.021h-5.7C146.637,282.989,144.837,284.289,144.837,286.77Zm0.22,10.158v3.022h4.862c1.821,0,2.621.74,2.621,1.8,0,1.021-.84,1.441-2.3,1.441h-5.182v3.021h4.862c1.821,0,2.621.74,2.621,1.8,0,1.02-.84,1.441-2.3,1.441h-5.182v3.021h5.7c2.781,0,4.522-1.361,4.522-3.8a3.532,3.532,0,0,0-1.761-3.061,3.364,3.364,0,0,0,1.761-3.1,3.1,3.1,0,0,0-1.24-2.561h1.02v-3.022h-10Zm0,19.9v3.021h4.862c1.821,0,2.621.741,2.621,1.8,0,1.021-.84,1.441-2.3,1.441h-5.182v3.021h4.862c1.821,0,2.621.74,2.621,1.8,0,1.02-.84,1.44-2.3,1.44h-5.182v3.022h5.7c2.781,0,4.522-1.361,4.522-3.8a3.532,3.532,0,0,0-1.761-3.061,3.365,3.365,0,0,0,1.761-3.1,3.1,3.1,0,0,0-1.24-2.561h1.02v-3.021h-10Zm-0.22,24.622a5.615,5.615,0,0,0,2.2,4.7l1.68-2.241a2.9,2.9,0,0,1-1.14-2.421,2.253,2.253,0,0,1,1.761-2.441v7.263a7.728,7.728,0,0,0,1.06.06,4.672,4.672,0,0,0,4.882-4.982A5.223,5.223,0,1,0,144.837,341.45Zm7.983-.14a2,2,0,0,1-1.5,2.061v-4.242A2.09,2.09,0,0,1,152.82,341.31Zm-7.763,8.958v3.021H149.8c1.44,0,2.441.72,2.441,2.021a3.866,3.866,0,0,1-.24,1.34h3.061a3.54,3.54,0,0,0,.12-0.98,2.585,2.585,0,0,0-1.621-2.381h1.5v-3.021h-10Zm-0.22,20.681a5.222,5.222,0,1,0,5.222-5.262A5.222,5.222,0,0,0,144.837,370.949Zm2.821,0a2.408,2.408,0,1,1,2.4,2.221A2.238,2.238,0,0,1,147.658,370.949Zm-2.6,10.039v3.021h7.383v2.8h2.621v-2.8h0.72a1.461,1.461,0,0,1,1.7,1.721,2.907,2.907,0,0,1-.18,1.08h2.661a5.918,5.918,0,0,0,.22-1.8,3.832,3.832,0,0,0-4.022-4.022h-1.1v-2H152.44v2h-7.383Zm0,15.559v9.064H148.1v-5.882h11.165v-3.182H145.057Zm-0.22,17.222a5.222,5.222,0,1,0,5.222-5.262A5.222,5.222,0,0,0,144.837,413.769Zm2.821,0a2.408,2.408,0,1,1,2.4,2.221A2.239,2.239,0,0,1,147.658,413.769Zm-2.6,9.118v3.021h4.862c1.8,0,2.621.881,2.621,2.021,0,1.081-.84,1.621-2.221,1.621h-5.262v3.021h5.782c2.621,0,4.442-1.42,4.442-3.881a3.378,3.378,0,0,0-1.24-2.782h1.02v-3.021h-10Zm-4.382,18.422c0,3.121,1.521,5.462,5.222,5.462h9.164V443.75h-1a3.326,3.326,0,0,0,1.22-2.721,5.056,5.056,0,0,0-10.084,0,3.326,3.326,0,0,0,1.22,2.721h-0.56a2.378,2.378,0,0,1-2.541-2.481,4.664,4.664,0,0,1,1.1-3.022l-2.261-1.58A7.235,7.235,0,0,0,140.675,441.309Zm7.263,0.38a2.3,2.3,0,1,1,2.3,2.3A2.25,2.25,0,0,1,147.938,441.689Zm-2.881,27.043v3.021l14.206,3.3v-3.4l-9-1.941,9.244-4-9.244-3.981,9-1.941v-3.4l-14.206,3.282v3.021l6.963,3.021Zm-0.22,13.7a5.615,5.615,0,0,0,2.2,4.7l1.68-2.241a2.9,2.9,0,0,1-1.14-2.421,2.253,2.253,0,0,1,1.761-2.441v7.263a7.728,7.728,0,0,0,1.06.06,4.672,4.672,0,0,0,4.882-4.982A5.223,5.223,0,1,0,144.837,482.429Zm7.983-.14a2,2,0,0,1-1.5,2.061v-4.242A2.09,2.09,0,0,1,152.82,482.289Zm-7.983,13.68a5.615,5.615,0,0,0,2.2,4.7l1.68-2.241a2.9,2.9,0,0,1-1.14-2.421,2.253,2.253,0,0,1,1.761-2.441v7.263a7.728,7.728,0,0,0,1.06.06,4.672,4.672,0,0,0,4.882-4.982A5.223,5.223,0,1,0,144.837,495.969Zm7.983-.14a2,2,0,0,1-1.5,2.061v-4.242A2.09,2.09,0,0,1,152.82,495.829Zm-7.763,8.958v3.021h4.482l-4.482,3.721v3.662l5.482-4.562,4.522,3.682v-3.582l-3.582-2.921h8.584v-3.021H145.057Zm-0.22,17.322a5.616,5.616,0,0,0,2.2,4.7l1.68-2.241a2.906,2.906,0,0,1-1.14-2.421,2.253,2.253,0,0,1,1.761-2.441v7.263a7.728,7.728,0,0,0,1.06.06,4.672,4.672,0,0,0,4.882-4.982A5.223,5.223,0,1,0,144.837,522.109Zm7.983-.14a2,2,0,0,1-1.5,2.06v-4.241A2.09,2.09,0,0,1,152.82,521.969Zm-7.763,8.958v3.021h4.862c1.8,0,2.621.88,2.621,2.021,0,1.08-.84,1.62-2.221,1.62h-5.262v3.022h5.782c2.621,0,4.442-1.421,4.442-3.882a3.375,3.375,0,0,0-1.24-2.781h1.02v-3.021h-10Zm-0.22,18.081a3.463,3.463,0,0,0,1.22,2.721h-1v3.021h15.006v-3.021h-6a3.463,3.463,0,0,0,1.22-2.721c0-2.621-2.381-4.642-5.222-4.642S144.837,546.387,144.837,549.008Zm2.741,0.68a2.49,2.49,0,1,1,2.481,2.281A2.285,2.285,0,0,1,147.578,549.688Zm-2.741,12.759c0,2.3,1.32,4,3.261,4a3.343,3.343,0,0,0,3.321-2.8l0.241-.9c0.24-.921.4-1.1,0.68-1.1,0.32,0,.46.36,0.46,0.9a3.207,3.207,0,0,1-.76,1.96l1.82,1.641a4.621,4.621,0,0,0,1.421-3.481c0-2.141-1.26-3.7-3.121-3.742a3.262,3.262,0,0,0-3.342,2.761l-0.16.64c-0.26,1.021-.36,1.381-0.74,1.381-0.36,0-.54-0.46-0.54-1.08a2.763,2.763,0,0,1,.96-2.181l-1.781-1.961A4.979,4.979,0,0,0,144.837,562.447Z"/>
</svg>
