<svg id="video_copy" data-name="video copy" xmlns="http://www.w3.org/2000/svg" width="768" height="420" viewBox="0 0 768 420">
  <defs>
    <style>
      .cls-1, .cls-3 {
        fill: #fff;
      }

      .cls-1, .cls-2, .cls-3 {
        fill-rule: evenodd;
      }

      .cls-1 {
        opacity: 0.8;
      }

      .cls-2 {
        fill: #b03f25;
      }
    </style>
  </defs>
  <g id="play_button" data-name="play button">
    <path id="Ellipse_2_copy_2" data-name="Ellipse 2 copy 2" class="cls-1" d="M385.2,150c26.51,0,48,21.759,48,48.6s-21.49,48.6-48,48.6-48-21.759-48-48.6S358.69,150,385.2,150Z"/>
    <path id="Polygon_1_copy_2" data-name="Polygon 1 copy 2" class="cls-2" d="M407.375,198.6l-34.791,20.041V178.563Z"/>
  </g>
  <path id="watch_the_video" data-name="watch the video" class="cls-3" d="M255.44,296.444h3.838l4.193-18.744H259.15l-2.465,11.88-5.082-12.2-5.058,12.2L244.08,277.7h-4.32l4.168,18.744h3.837l3.838-9.188Zm11.894,0h4.218l1.6-3.96h7.472l1.6,3.96h4.219L278.719,277.7h-3.66Zm7.293-7.6,2.262-5.649,2.262,5.649h-4.524Zm19.721,7.6h4.066V281.712h4.651V277.7H289.748v4.012h4.6v14.732Zm23.38,0.317a9.281,9.281,0,0,0,8.438-5.122l-3.558-2.007a5.34,5.34,0,0,1-4.88,3.063,5.636,5.636,0,0,1,0-11.247,5.34,5.34,0,0,1,4.88,3.063l3.558-2.007a9.282,9.282,0,0,0-8.438-5.121A9.7,9.7,0,0,0,317.728,296.761Zm15.375-.317h4.041v-7.419h7.268v7.419h4.041V277.7h-4.041v7.339h-7.268V277.7H333.1v18.744Zm36.417,0h4.067V281.712h4.65V277.7H364.921v4.012h4.6v14.732Zm15.757,0h4.04v-7.419h7.269v7.419h4.04V277.7h-4.04v7.339h-7.269V277.7h-4.04v18.744Zm23.736,0h11.436v-4.013h-7.4v-3.353h5.871v-4.013h-5.871v-3.353h7.4V277.7H409.013v18.744Zm34.028,0h3.634L454.07,277.7h-4.447l-4.778,12.487-4.8-12.487h-4.4Zm17.535,0h4.041V277.7h-4.041v18.744Zm12.427,0h6.15a9.374,9.374,0,0,0,0-18.744H473v18.744Zm4.04-3.855V281.554h2.11c3.049,0,5.108,2.508,5.108,5.518s-2.059,5.517-5.108,5.517h-2.11Zm18.7,3.855h11.436v-4.013h-7.4v-3.353h5.871v-4.013h-5.871v-3.353h7.4V277.7H495.748v18.744Zm26.938,0.317a9.7,9.7,0,1,0-9.327-9.689A9.537,9.537,0,0,0,522.686,296.761Zm0-4.066a5.638,5.638,0,1,1,5.235-5.623A5.467,5.467,0,0,1,522.686,292.7Z"/>
</svg>
