<svg id="TOP_copy" data-name="TOP copy" xmlns="http://www.w3.org/2000/svg" width="768" height="960" viewBox="0 0 768 960">
  <defs>
    <style>
      .cls-1 {
        fill: #fff;
      }

      .cls-1, .cls-2 {
        fill-rule: evenodd;
      }
    </style>
  </defs>
  <path id="What_to_wear_during_the_long-weekends_season." data-name="What to wear during the  long-weekends season." class="cls-1" d="M61.489,780.3H63.68L68.8,761.549H66.242l-3.934,14.627-5.413-14.944-5.386,14.944-3.934-14.627H45.013L50.135,780.3h2.192l4.594-12.726Zm11.64,0H75.4v-6.548c0-3.089,1.69-4.832,3.829-4.832,1.848,0,3.116,1.373,3.116,3.591V780.3h2.244v-8.132c0-3.274-2.033-5.334-4.99-5.334a4.669,4.669,0,0,0-4.2,2.3v-8.635H73.129v19.8Zm16.1-6.6a6.606,6.606,0,0,0,6.469,6.865,5.786,5.786,0,0,0,4.647-2.3V780.3h2.271v-13.2h-2.271v2.034a5.787,5.787,0,0,0-4.647-2.3A6.607,6.607,0,0,0,89.233,773.694Zm11.3,0a4.51,4.51,0,1,1-4.488-4.779A4.507,4.507,0,0,1,100.533,773.694Zm15.1,6.416v-2.033a5,5,0,0,1-1.61.264c-1.426,0-2.192-.554-2.192-2.244v-6.918h3.8v-2.086h-3.8v-3.67H109.56v3.67h-2.8v2.086h2.8v7.209a3.716,3.716,0,0,0,4.04,4.039A6.308,6.308,0,0,0,115.633,780.11Zm19.219,0v-2.033a5,5,0,0,1-1.61.264c-1.426,0-2.192-.554-2.192-2.244v-6.918h3.8v-2.086h-3.8v-3.67h-2.271v3.67h-2.8v2.086h2.8v7.209a3.716,3.716,0,0,0,4.04,4.039A6.308,6.308,0,0,0,134.852,780.11Zm17.056-6.416a6.905,6.905,0,1,0-6.892,6.865A6.775,6.775,0,0,0,151.908,773.694Zm-11.486,0a4.584,4.584,0,1,1,4.594,4.753A4.537,4.537,0,0,1,140.422,773.694Zm35.06,6.6h2.007l4.489-13.2h-2.4l-3.195,9.638-3.3-9.638h-1.742l-3.3,9.638-3.195-9.638h-2.376l4.489,13.2h2.006l3.275-9.5Zm9.449-6.6a6.96,6.96,0,0,0,12.78,3.723l-1.8-1.241a4.674,4.674,0,0,1-8.687-2.033h10.826a6.534,6.534,0,0,0,.026-0.686c-0.026-4.225-2.825-6.628-6.284-6.628A6.69,6.69,0,0,0,184.931,773.694Zm6.786-4.858a3.95,3.95,0,0,1,4.04,3.459h-8.37A4.315,4.315,0,0,1,191.717,768.836Zm10.137,4.858a6.606,6.606,0,0,0,6.468,6.865,5.789,5.789,0,0,0,4.648-2.3V780.3h2.27v-13.2h-2.27v2.034a5.79,5.79,0,0,0-4.648-2.3A6.606,6.606,0,0,0,201.854,773.694Zm11.3,0a4.51,4.51,0,1,1-4.488-4.779A4.507,4.507,0,0,1,213.154,773.694Zm7.945,6.6h2.271v-6.548c0-3.089,1.822-4.541,3.485-4.541a3.325,3.325,0,0,1,1.241.211v-2.35a4.725,4.725,0,0,0-1.03-.106,3.928,3.928,0,0,0-3.7,2.694v-2.562H221.1v13.2Zm17.582-6.6a6.606,6.606,0,0,0,6.469,6.865,5.787,5.787,0,0,0,4.647-2.3V780.3h2.271v-19.8H249.8v8.635a5.788,5.788,0,0,0-4.647-2.3A6.606,6.606,0,0,0,238.681,773.694Zm11.3,0a4.51,4.51,0,1,1-4.489-4.779A4.508,4.508,0,0,1,249.982,773.694Zm7.76,1.5c0,3.274,1.954,5.36,4.858,5.36a4.541,4.541,0,0,0,4.066-2.3V780.3h2.271v-13.2h-2.271v6.549c0,3.036-1.61,4.831-3.67,4.831-1.822,0-2.984-1.4-2.984-3.617v-7.763h-2.27V775.2Zm17.054,5.1h2.271v-6.548c0-3.089,1.822-4.541,3.485-4.541a3.329,3.329,0,0,1,1.241.211v-2.35a4.725,4.725,0,0,0-1.03-.106,3.928,3.928,0,0,0-3.7,2.694v-2.562H274.8v13.2Zm13.992-18.35a1.594,1.594,0,0,0-1.584-1.611,1.64,1.64,0,0,0-1.637,1.611,1.623,1.623,0,0,0,1.637,1.61A1.578,1.578,0,0,0,288.788,761.945Zm-2.746,18.35h2.271v-13.2h-2.271v13.2Zm8.158,0h2.27v-6.548c0-3.089,1.69-4.832,3.829-4.832,1.848,0,3.116,1.373,3.116,3.591V780.3h2.244v-8.132c0-3.274-2.033-5.334-4.99-5.334a4.67,4.67,0,0,0-4.2,2.3v-2.034H294.2v13.2Zm29.437-.765V767.093h-2.271v2.034a5.614,5.614,0,0,0-4.594-2.3,6.726,6.726,0,0,0,0,13.44,5.634,5.634,0,0,0,4.594-2.324v1.5a4.22,4.22,0,0,1-4.409,4.568,5.649,5.649,0,0,1-4.621-2.218l-1.584,1.585a7.839,7.839,0,0,0,6.231,2.693C320.733,786.078,323.637,783.939,323.637,779.53Zm-11.01-5.994a4.465,4.465,0,1,1,4.462,4.621A4.4,4.4,0,0,1,312.627,773.536Zm31.6,6.574v-2.033a5.006,5.006,0,0,1-1.611.264c-1.426,0-2.191-.554-2.191-2.244v-6.918h3.8v-2.086h-3.8v-3.67h-2.271v3.67h-2.8v2.086h2.8v7.209a3.716,3.716,0,0,0,4.04,4.039A6.317,6.317,0,0,0,344.228,780.11Zm4.487,0.185h2.271v-6.548c0-3.089,1.689-4.832,3.828-4.832,1.848,0,3.116,1.373,3.116,3.591V780.3h2.244v-8.132c0-3.274-2.033-5.334-4.99-5.334a4.668,4.668,0,0,0-4.2,2.3v-8.635h-2.271v19.8Zm16.1-6.6a6.96,6.96,0,0,0,12.78,3.723l-1.8-1.241a4.674,4.674,0,0,1-8.687-2.033h10.826a6.534,6.534,0,0,0,.026-0.686c-0.026-4.225-2.825-6.628-6.284-6.628A6.69,6.69,0,0,0,364.818,773.694Zm6.786-4.858a3.95,3.95,0,0,1,4.04,3.459h-8.37A4.315,4.315,0,0,1,371.6,768.836ZM53.87,822.3h2.271v-19.8H53.87v19.8Zm20.911-6.6a6.9,6.9,0,1,0-6.891,6.865A6.775,6.775,0,0,0,74.781,815.694Zm-11.486,0a4.584,4.584,0,1,1,4.594,4.753A4.537,4.537,0,0,1,63.295,815.694Zm16.315,6.6H81.88v-6.548c0-3.089,1.69-4.832,3.829-4.832,1.848,0,3.116,1.373,3.116,3.591V822.3h2.244v-8.132c0-3.274-2.033-5.334-4.99-5.334a4.67,4.67,0,0,0-4.2,2.3v-2.033H79.61v13.2Zm29.438-.765V809.093h-2.271v2.033a5.616,5.616,0,0,0-4.594-2.3,6.726,6.726,0,0,0,0,13.44,5.634,5.634,0,0,0,4.594-2.324v1.5a4.22,4.22,0,0,1-4.409,4.568,5.647,5.647,0,0,1-4.621-2.218l-1.584,1.585a7.839,7.839,0,0,0,6.231,2.693C106.143,828.078,109.047,825.939,109.047,821.53Zm-11.01-5.994a4.465,4.465,0,1,1,4.462,4.621A4.4,4.4,0,0,1,98.037,815.536Zm16.446,0.5h6.733v-2.271h-6.733v2.271Zm23.128,6.257h2.007l4.489-13.2h-2.4l-3.2,9.638-3.3-9.638h-1.742l-3.3,9.638-3.195-9.638h-2.376l4.489,13.2h2.006l3.275-9.5Zm9.449-6.6a6.96,6.96,0,0,0,12.78,3.723l-1.8-1.241a4.674,4.674,0,0,1-8.687-2.033h10.826a6.534,6.534,0,0,0,.026-0.686c-0.026-4.225-2.825-6.628-6.284-6.628A6.69,6.69,0,0,0,147.06,815.694Zm6.786-4.858a3.95,3.95,0,0,1,4.04,3.459h-8.37A4.315,4.315,0,0,1,153.846,810.836Zm10.136,4.858a6.96,6.96,0,0,0,12.78,3.723l-1.8-1.241a4.674,4.674,0,0,1-8.686-2.033h10.825a6.294,6.294,0,0,0,.027-0.686c-0.027-4.225-2.826-6.628-6.285-6.628A6.69,6.69,0,0,0,163.982,815.694Zm6.786-4.858a3.95,3.95,0,0,1,4.04,3.459h-8.37A4.315,4.315,0,0,1,170.768,810.836ZM181.934,822.3h2.271v-6.6l7.156,6.6h3.062l-7.947-7.366,6.5-5.836h-3.01l-5.756,5.149v-11.75h-2.271v19.8Zm13.939-6.6a6.96,6.96,0,0,0,12.78,3.723l-1.8-1.241a4.674,4.674,0,0,1-8.687-2.033H209a6.534,6.534,0,0,0,.026-0.686c-0.026-4.225-2.825-6.628-6.284-6.628A6.69,6.69,0,0,0,195.873,815.694Zm6.786-4.858a3.95,3.95,0,0,1,4.04,3.459h-8.37A4.315,4.315,0,0,1,202.659,810.836ZM213.825,822.3H216.1v-6.548c0-3.089,1.69-4.832,3.828-4.832,1.849,0,3.116,1.373,3.116,3.591V822.3h2.244v-8.132c0-3.274-2.033-5.334-4.99-5.334a4.67,4.67,0,0,0-4.2,2.3v-2.033h-2.271v13.2Zm16.1-6.6a6.606,6.606,0,0,0,6.469,6.865,5.789,5.789,0,0,0,4.647-2.3V822.3h2.27v-19.8h-2.27v8.634a5.792,5.792,0,0,0-4.647-2.3A6.606,6.606,0,0,0,229.929,815.694Zm11.3,0a4.51,4.51,0,1,1-4.489-4.779A4.508,4.508,0,0,1,241.23,815.694Zm16.5,2.931c0-1.98-1.241-3.247-3.485-3.987l-1.426-.475c-1.558-.5-2.033-1-2.033-1.848,0-.977.977-1.532,2.218-1.532a3.568,3.568,0,0,1,2.8,1.373l1.478-1.426a5.121,5.121,0,0,0-4.224-1.9c-2.614,0-4.463,1.453-4.463,3.591,0,1.849,1.136,3.142,3.274,3.829l1.294,0.422c1.716,0.555,2.35,1.188,2.35,2.113,0,1.135-1.03,1.795-2.323,1.795a3.544,3.544,0,0,1-3.38-2.086l-1.848,1a5.243,5.243,0,0,0,5.175,3.062C255.8,822.559,257.729,821.213,257.729,818.625Zm21.41,0c0-1.98-1.241-3.247-3.485-3.987l-1.426-.475c-1.558-.5-2.033-1-2.033-1.848,0-.977.977-1.532,2.218-1.532a3.565,3.565,0,0,1,2.8,1.373l1.479-1.426a5.123,5.123,0,0,0-4.225-1.9c-2.614,0-4.462,1.453-4.462,3.591,0,1.849,1.136,3.142,3.274,3.829l1.294,0.422c1.716,0.555,2.35,1.188,2.35,2.113,0,1.135-1.03,1.795-2.324,1.795a3.542,3.542,0,0,1-3.379-2.086l-1.849,1a5.245,5.245,0,0,0,5.176,3.062C277.211,822.559,279.139,821.213,279.139,818.625Zm3.8-2.931a6.96,6.96,0,0,0,12.779,3.723l-1.8-1.241a4.674,4.674,0,0,1-8.687-2.033h10.826a6.534,6.534,0,0,0,.026-0.686c-0.026-4.225-2.825-6.628-6.284-6.628A6.69,6.69,0,0,0,282.939,815.694Zm6.786-4.858a3.949,3.949,0,0,1,4.039,3.459h-8.37A4.316,4.316,0,0,1,289.725,810.836Zm10.136,4.858a6.606,6.606,0,0,0,6.469,6.865,5.787,5.787,0,0,0,4.647-2.3V822.3h2.271v-13.2h-2.271v2.033a5.79,5.79,0,0,0-4.647-2.3A6.607,6.607,0,0,0,299.861,815.694Zm11.3,0a4.51,4.51,0,1,1-4.489-4.779A4.508,4.508,0,0,1,311.162,815.694Zm16.5,2.931c0-1.98-1.241-3.247-3.485-3.987l-1.426-.475c-1.558-.5-2.033-1-2.033-1.848,0-.977.977-1.532,2.218-1.532a3.567,3.567,0,0,1,2.8,1.373l1.479-1.426a5.123,5.123,0,0,0-4.225-1.9c-2.614,0-4.462,1.453-4.462,3.591,0,1.849,1.135,3.142,3.274,3.829l1.294,0.422c1.716,0.555,2.35,1.188,2.35,2.113,0,1.135-1.03,1.795-2.324,1.795a3.544,3.544,0,0,1-3.38-2.086l-1.848,1a5.244,5.244,0,0,0,5.175,3.062C325.734,822.559,327.661,821.213,327.661,818.625Zm17.583-2.931a6.9,6.9,0,1,0-6.891,6.865A6.775,6.775,0,0,0,345.244,815.694Zm-11.485,0a4.584,4.584,0,1,1,4.594,4.753A4.537,4.537,0,0,1,333.759,815.694Zm16.314,6.6h2.271v-6.548c0-3.089,1.69-4.832,3.829-4.832,1.848,0,3.115,1.373,3.115,3.591V822.3h2.244v-8.132c0-3.274-2.033-5.334-4.99-5.334a4.67,4.67,0,0,0-4.2,2.3v-2.033h-2.271v13.2Zm20.276-1.769a1.954,1.954,0,1,0-1.954,1.981A1.99,1.99,0,0,0,370.349,820.526Z"/>
  <path id="The_Summer_of_Long_Weekends" data-name="The Summer of Long Weekends" class="cls-2" d="M27.668,23.292v3.842h13.4v4.394h3.649V18.947H41.066v4.346h-13.4Zm0,12.431v3.626H33.5c2.161,0,3.145,1.056,3.145,2.425,0,1.3-1.008,1.945-2.665,1.945H27.668v3.626h6.939c3.145,0,5.33-1.7,5.33-4.658a4.051,4.051,0,0,0-1.489-3.337h7.227V35.723H27.668ZM27.4,58.237a6.738,6.738,0,0,0,2.641,5.642l2.017-2.689a3.485,3.485,0,0,1-1.369-2.905,2.7,2.7,0,0,1,2.113-2.929v8.716a9.282,9.282,0,0,0,1.273.072c3.89,0,5.858-2.809,5.858-5.978a6.121,6.121,0,0,0-6.267-6.315A6.081,6.081,0,0,0,27.4,58.237Zm9.58-.168a2.4,2.4,0,0,1-1.8,2.473v-5.09A2.509,2.509,0,0,1,36.984,58.069ZM27.38,81.9c0,3.6,2.161,6.075,5.258,6.1,2.569,0.024,4.2-1.585,5.09-4.058l0.432-1.2c0.648-1.8,1.056-2.641,1.969-2.641,0.888,0,1.3,1.032,1.3,2.065a3.792,3.792,0,0,1-1.417,2.953l2.641,2.5A7.113,7.113,0,0,0,45,82.117c0-3.409-1.945-5.882-5.258-5.882-2.329,0-3.986,1.537-4.922,4.3l-0.408,1.2c-0.576,1.7-1.176,2.377-2.041,2.377-0.816,0-1.416-.792-1.416-2.065A4.46,4.46,0,0,1,32.9,78.515l-2.473-2.929A7.475,7.475,0,0,0,27.38,81.9ZM27.4,96.924a3.693,3.693,0,0,0,1.489,3.193H27.668v3.626H39.673v-3.626H33.839c-2.209,0-3.145-.888-3.145-2.257,0-1.345,1.008-1.849,2.761-1.849h6.219V92.386H32.83C29.565,92.386,27.4,93.947,27.4,96.924Zm0.264,12.19v3.625H33.5c2.185,0,3.145.889,3.145,2.161,0,1.225-1.008,1.729-2.761,1.729H27.668v3.626H33.5c2.185,0,3.145.888,3.145,2.161,0,1.224-1.008,1.728-2.761,1.728H27.668v3.626h6.843c3.337,0,5.426-1.633,5.426-4.562a4.24,4.24,0,0,0-2.113-3.674,4.037,4.037,0,0,0,2.113-3.721,3.719,3.719,0,0,0-1.489-3.074h1.224v-3.625H27.668Zm0,23.88v3.625H33.5c2.185,0,3.145.889,3.145,2.161,0,1.225-1.008,1.729-2.761,1.729H27.668v3.625H33.5c2.185,0,3.145.889,3.145,2.161,0,1.225-1.008,1.729-2.761,1.729H27.668v3.625h6.843c3.337,0,5.426-1.632,5.426-4.561a4.239,4.239,0,0,0-2.113-3.674,4.038,4.038,0,0,0,2.113-3.722,3.717,3.717,0,0,0-1.489-3.073h1.224v-3.625H27.668ZM27.4,162.54a6.737,6.737,0,0,0,2.641,5.642l2.017-2.689a3.485,3.485,0,0,1-1.369-2.905,2.7,2.7,0,0,1,2.113-2.929v8.715a9.282,9.282,0,0,0,1.273.072c3.89,0,5.858-2.809,5.858-5.978a6.121,6.121,0,0,0-6.267-6.315A6.081,6.081,0,0,0,27.4,162.54Zm9.58-.168a2.4,2.4,0,0,1-1.8,2.473v-5.09A2.509,2.509,0,0,1,36.984,162.372Zm-9.316,10.749v3.626h5.69c1.729,0,2.929.864,2.929,2.425A4.638,4.638,0,0,1,36,180.78h3.674a4.248,4.248,0,0,0,.144-1.176,3.1,3.1,0,0,0-1.945-2.857h1.8v-3.626H27.668ZM27.4,197.939a6.267,6.267,0,1,0,6.267-6.314A6.266,6.266,0,0,0,27.4,197.939Zm3.385,0a2.687,2.687,0,0,1,2.881-2.665,2.673,2.673,0,1,1,0,5.33A2.686,2.686,0,0,1,30.79,197.939Zm-3.121,12.047v3.625h8.86v3.362h3.145v-3.362h0.864c1.441,0,2.041.6,2.041,2.065a3.5,3.5,0,0,1-.216,1.3h3.193a7.11,7.11,0,0,0,.264-2.161,4.6,4.6,0,0,0-4.826-4.826h-1.32v-2.4H36.528v2.4h-8.86Zm0,18.671v10.876h3.649v-7.059h13.4v-3.817H27.668ZM27.4,249.323a6.267,6.267,0,1,0,6.267-6.315A6.267,6.267,0,0,0,27.4,249.323Zm3.385,0a2.686,2.686,0,0,1,2.881-2.665,2.673,2.673,0,1,1,0,5.33A2.686,2.686,0,0,1,30.79,249.323Zm-3.121,10.942v3.625H33.5c2.161,0,3.145,1.056,3.145,2.425,0,1.3-1.008,1.945-2.665,1.945H27.668v3.625h6.939c3.145,0,5.33-1.7,5.33-4.658a4.05,4.05,0,0,0-1.489-3.337h1.224v-3.625H27.668ZM22.41,282.37c0,3.746,1.825,6.555,6.267,6.555h11V285.3h-1.2a3.992,3.992,0,0,0,1.465-3.266,5.853,5.853,0,0,0-6.05-5.618,5.853,5.853,0,0,0-6.051,5.618A3.992,3.992,0,0,0,29.3,285.3H28.629a2.853,2.853,0,0,1-3.049-2.978A5.6,5.6,0,0,1,26.9,278.7l-2.713-1.9A8.689,8.689,0,0,0,22.41,282.37Zm8.716,0.457a2.761,2.761,0,1,1,2.761,2.761A2.7,2.7,0,0,1,31.126,282.827Zm-3.457,32.451V318.9l17.047,3.962v-4.082l-10.8-2.329L45,311.652l-11.093-4.778,10.8-2.329v-4.081L27.668,304.4v3.626l8.356,3.625ZM27.4,331.715a6.738,6.738,0,0,0,2.641,5.642l2.017-2.689a3.485,3.485,0,0,1-1.369-2.905,2.705,2.705,0,0,1,2.113-2.93v8.716a9.282,9.282,0,0,0,1.273.072c3.89,0,5.858-2.809,5.858-5.978a6.121,6.121,0,0,0-6.267-6.315A6.081,6.081,0,0,0,27.4,331.715Zm9.58-.169a2.4,2.4,0,0,1-1.8,2.474v-5.091A2.51,2.51,0,0,1,36.984,331.546ZM27.4,347.962a6.739,6.739,0,0,0,2.641,5.643l2.017-2.689a3.486,3.486,0,0,1-1.369-2.906,2.7,2.7,0,0,1,2.113-2.929V353.8a9.282,9.282,0,0,0,1.273.072c3.89,0,5.858-2.809,5.858-5.979a6.121,6.121,0,0,0-6.267-6.314A6.081,6.081,0,0,0,27.4,347.962Zm9.58-.168a2.4,2.4,0,0,1-1.8,2.473v-5.09A2.509,2.509,0,0,1,36.984,347.794Zm-9.316,10.75v3.626h5.378l-5.378,4.465v4.394l6.579-5.474,5.426,4.418v-4.3l-4.3-3.5h10.3v-3.626H27.668ZM27.4,379.33a6.74,6.74,0,0,0,2.641,5.643l2.017-2.689a3.487,3.487,0,0,1-1.369-2.906,2.7,2.7,0,0,1,2.113-2.929v8.716a9.282,9.282,0,0,0,1.273.072c3.89,0,5.858-2.809,5.858-5.979a6.121,6.121,0,0,0-6.267-6.314A6.081,6.081,0,0,0,27.4,379.33Zm9.58-.168a2.4,2.4,0,0,1-1.8,2.473v-5.09A2.509,2.509,0,0,1,36.984,379.162Zm-9.316,10.75v3.625H33.5c2.161,0,3.145,1.057,3.145,2.425,0,1.3-1.008,1.945-2.665,1.945H27.668v3.626h6.939c3.145,0,5.33-1.705,5.33-4.658a4.052,4.052,0,0,0-1.489-3.338h1.224v-3.625H27.668ZM27.4,411.61a4.156,4.156,0,0,0,1.465,3.265h-1.2V418.5H45.676v-3.625h-7.2a4.157,4.157,0,0,0,1.465-3.265c0-3.146-2.857-5.571-6.267-5.571S27.4,408.464,27.4,411.61Zm3.289,0.816a2.742,2.742,0,0,1,2.977-2.737,2.747,2.747,0,1,1,0,5.474A2.742,2.742,0,0,1,30.693,412.426ZM27.4,427.737c0,2.761,1.585,4.8,3.914,4.8,2.017,0,3.409-1.225,3.986-3.361l0.288-1.081c0.288-1.1.48-1.32,0.816-1.32,0.384,0,.552.432,0.552,1.08a3.85,3.85,0,0,1-.912,2.353l2.185,1.969a5.549,5.549,0,0,0,1.7-4.178c0-2.569-1.513-4.442-3.746-4.49a3.914,3.914,0,0,0-4.01,3.314l-0.192.768c-0.312,1.224-.432,1.657-0.888,1.657-0.432,0-.648-0.553-0.648-1.3a3.317,3.317,0,0,1,1.152-2.617l-2.137-2.353A5.974,5.974,0,0,0,27.4,427.737Z"/>
  <path id="the_packing_list" data-name="the packing list" class="cls-1" d="M160.5,315.232h19.2V248.271h21.96v-18.24H138.779v18.24H160.5v66.961Zm60,0h19.081V281.511H273.9v33.721h19.08v-85.2H273.9v33.36h-34.32v-33.36H220.5v85.2Zm97.68,0h54v-18.24H337.258V281.751h27.721v-18.24H337.258v-15.24h34.921v-18.24h-54v85.2ZM204.06,352.791c0-16.44-12.84-29.16-30-29.16h-28.92v85.2h19.08v-27h9.84C191.22,381.831,204.06,369.231,204.06,352.791Zm-18.48,0c0,6.24-4.92,11.16-11.761,11.16h-9.6v-22.32h9.6C180.66,341.631,185.58,346.431,185.58,352.791Zm23.039,56.041h19.92l7.56-18h35.28l7.561,18h19.92l-36.481-85.2H245.1Zm34.44-34.561,10.68-25.68,10.68,25.68h-21.36Zm107.281,36c17.76,0,32.52-9.24,39.84-23.28l-16.8-9.121c-4.8,8.521-12.36,13.921-23.04,13.921-13.921,0-24.841-11.761-24.841-25.561s10.92-25.56,24.841-25.56c10.68,0,18.24,5.4,23.04,13.92l16.8-9.12c-7.32-14.04-22.08-23.28-39.84-23.28A44.041,44.041,0,1,0,350.34,410.272Zm58.2-1.44H427.5V370.671l34.681,38.161h24.48l-40.441-44.281,33.6-40.92h-23.4L427.5,359.271v-35.64h-18.96v85.2Zm91.2,0h19.08v-85.2h-19.08v85.2Zm121.319,0v-85.2h-19.2v52.56l-41.4-52.56H544.017v85.2H563.1V356.151l41.52,52.681h16.44Zm66.839,1.44c13.8,0,27.36-4.08,34.92-12.6V357.231h-35.28v17.88h16.68v12.6c-3.6,2.88-9.84,4.08-16.56,4.08-16.68,0-26.88-11.041-26.88-25.561,0-13.8,10.2-25.56,25.68-25.56a28.294,28.294,0,0,1,21.48,9.12l13.44-13.08c-8.16-9-19.8-14.52-34.92-14.52-26.4,0-44.88,19.8-44.88,44.04C641.577,391.192,661.377,410.272,687.9,410.272Zm-542.758,92.16H199.5v-18.24H164.219V417.231h-19.08v85.2Zm73.439,0h19.08v-85.2h-19.08v85.2Zm69.719,1.44c18,0,30.36-10.8,30.48-26.28,0.12-12.841-7.92-21-20.28-25.441l-6-2.16c-9-3.24-13.2-5.28-13.2-9.84,0-4.44,5.16-6.48,10.32-6.48a18.951,18.951,0,0,1,14.76,7.08l12.48-13.2c-7.92-8.52-17.16-11.76-27.48-11.76-17.04,0-29.4,9.72-29.4,26.28,0,11.64,7.68,19.92,21.481,24.6l6,2.04c8.52,2.88,11.88,5.88,11.88,10.2,0,4.08-3.96,7.08-10.32,7.08a22.293,22.293,0,0,1-17.641-9.72l-14.64,12.36C263.336,498.232,274.857,503.872,288.3,503.872Zm65.039-1.44h19.2V435.471H394.5v-18.24h-62.88v18.24h21.72v66.961Z"/>
</svg>
