<svg id="accessories_copy" data-name="accessories copy" xmlns="http://www.w3.org/2000/svg" width="480" height="69" viewBox="0 0 480 69">
  <defs>
    <style>
      .cls-1 {
        fill-rule: evenodd;
      }
    </style>
  </defs>
  <g id="layer2">
    <path id="Ground_each_look_with_shoes_and_totes_full_of_function_and_per" data-name="Ground each look with shoes and  totes full of function and per" class="cls-1" d="M19.276,12.521h-5.13a1.859,1.859,0,0,1,.72,1.59v0.36l-0.48,3.93a5.272,5.272,0,0,1-4.05,1.56c-3.42,0-6.24-2.76-6.24-7.92,0-5.94,3.15-9.63,7.8-9.63a6.464,6.464,0,0,1,6.42,4.29V2.412c-1.26-.75-3.06-1.62-6.9-1.62-5.91,0-10.92,4.29-10.92,11.4,0,5.58,3.33,9.48,9.51,9.48a16.563,16.563,0,0,0,8.01-2.52,1.629,1.629,0,0,1-.3-0.99c0-.09.03-0.18,0.03-0.27l0.36-3.21A2.476,2.476,0,0,1,19.276,12.521Zm12.54-1.68c0-2.61-.81-3.72-2.58-3.72-2.22,0-3.24,2.7-3.24,2.7l0.42-2.7-4.08.72a1.657,1.657,0,0,1,.6,1.59,8.718,8.718,0,0,1-.12,1.44l-1.32,8.58c-0.21,1.41-.54,1.74-1.02,1.98h4.68a1.707,1.707,0,0,1-.51-1.5c0-.27.03-0.6,0.06-0.93l0.81-5.31c0.27-1.74,1.35-4.08,3.54-4.08A3.505,3.505,0,0,1,31.816,10.841Zm13.56,2.13c0-3.78-2.49-5.85-5.58-5.85-4.8,0-7.41,4.56-7.41,8.67,0,3.75,2.46,5.88,5.58,5.88C42.886,21.671,45.376,17.2,45.376,12.971ZM42.2,13c0,3.48-1.26,7.29-3.87,7.29-1.5,0-2.76-1.92-2.76-4.5,0-3.42,1.26-7.29,3.84-7.29C40.937,8.5,42.2,10.422,42.2,13Zm19.17-5.88-4.2.72c0.54,0.21.69,0.81,0.54,2.22a12.35,12.35,0,0,1-.15,1.35l-0.27,1.65c-0.36,2.25-.72,4.65-0.81,5.34a3.783,3.783,0,0,1-2.61,1.23c-1.29,0-2.04-.75-2.04-2.52a23.988,23.988,0,0,1,.33-3.57l0.96-6.42-4.17.72a1.061,1.061,0,0,1,.66,1.23,17.11,17.11,0,0,1-.15,1.8l-0.6,3.75a15.114,15.114,0,0,0-.24,2.85c0,2.61,1.38,4.2,3.9,4.2a6.182,6.182,0,0,0,3.96-1.74,1.388,1.388,0,0,0,1.56,1.65c0.36,0,2.37-.06,2.82-0.15-0.84-.39-1.05-0.9-1.05-3.24C59.806,16.061,61.366,7.122,61.366,7.122Zm16.02,14.309c-0.81-.39-1.02-0.9-1.02-3.24,0-1.71.42-5.01,0.42-5.97,0-3.54-1.77-5.1-4.2-5.1a4.4,4.4,0,0,0-3.87,2.28l0.33-2.31-4.08.72c0.33,0.12.63,0.6,0.63,1.68a13.586,13.586,0,0,1-.12,1.38l-1.32,8.58c-0.21,1.29-.54,1.74-0.99,1.98h4.59a1.641,1.641,0,0,1-.57-1.5,5.675,5.675,0,0,1,.09-0.93l1.2-7.86a3.314,3.314,0,0,1,2.7-1.95c1.47,0,2.46.99,2.46,3.03,0,2.37-.48,5.28-0.48,7.68a1.41,1.41,0,0,0,1.56,1.68C75.076,21.581,76.966,21.521,77.386,21.431ZM94.336,0.792l-4.17.72a1.222,1.222,0,0,1,.63,1.32,14.557,14.557,0,0,1-.15,1.62L90.076,8.2a3.581,3.581,0,0,0-2.7-1.08c-4.68,0-7.23,5.01-7.23,9.15,0,2.76,1.08,5.4,4.35,5.4a5.907,5.907,0,0,0,4.02-1.74,1.369,1.369,0,0,0,1.53,1.65c0.36,0,2.37-.06,2.82-0.15-0.81-.36-1.02-0.87-1.02-3.18C91.846,16.361,94.336.792,94.336,0.792Zm-4.59,9.36-0.54,3.45c-0.15,1.02-.51,3.27-0.66,4.83a4.268,4.268,0,0,1-2.64,1.32c-0.93,0-2.55-.84-2.55-3.84,0-2.64,1.17-7.35,4.44-7.35A2.106,2.106,0,0,1,89.746,10.152Zm24.839,3.54c0-4.32-1.919-6.57-5.429-6.57-3.9,0-6.96,3.42-6.96,7.95,0,4.11,2.46,6.6,6.15,6.6a6.2,6.2,0,0,0,5.939-4.83,6.765,6.765,0,0,1-4.859,2.64c-1.89,0-4.02-1.26-4.02-4.53a5.792,5.792,0,0,1,.12-1.26h9.059Zm-2.909-1.41h-5.91c0.54-2.25,1.71-3.81,3.3-3.81C111.2,8.472,111.676,10.781,111.676,12.281ZM130.6,7.122l-3.179.96a5.752,5.752,0,0,0-3.18-.96c-3.15,0-7.02,2.34-7.02,9.15,0,2.76,1.08,5.4,4.35,5.4a5.633,5.633,0,0,0,3.96-1.74,1.388,1.388,0,0,0,1.56,1.65c0.36,0,2.369-.06,2.819-0.15-0.84-.39-1.05-0.9-1.05-3.24A75.812,75.812,0,0,1,130.6,7.122Zm-3.779,3.03c-0.12.75-.48,2.91-0.57,3.45-0.24,1.44-.51,3.18-0.66,4.83a3.956,3.956,0,0,1-2.61,1.32c-0.93,0-2.55-.84-2.55-3.84,0-3.06,1.38-7.35,4.26-7.35A2.21,2.21,0,0,1,126.826,10.152Zm17.519-1.83a7.122,7.122,0,0,0-3.9-1.2c-5.189,0-7.559,4.32-7.559,8.22,0,3.42,1.62,6.33,5.309,6.33a5.562,5.562,0,0,0,5.43-4.23,5.18,5.18,0,0,1-3.87,1.98c-2.28,0-3.6-1.68-3.6-4.53,0-3.12,1.41-6.33,4.47-6.33a3.729,3.729,0,0,1,3.36,3.06Zm15.36,13.109c-0.81-.39-1.02-0.9-1.02-3.24,0-1.71.39-5.01,0.39-5.97,0-3.54-1.74-5.1-4.17-5.1a4.38,4.38,0,0,0-3.84,2.22l1.41-8.64-4.2.75c0.39,0.09.6,0.57,0.6,1.47a13.529,13.529,0,0,1-.211,2.19l-2.219,14.339c-0.18,1.29-.51,1.74-0.99,1.98h4.619a1.641,1.641,0,0,1-.57-1.5,5.332,5.332,0,0,1,.06-0.93l1.23-7.86a3.314,3.314,0,0,1,2.7-1.95c1.44,0,2.43.87,2.43,3.03,0,2.37-.45,5.28-0.45,7.68a1.4,1.4,0,0,0,1.56,1.68C157.4,21.581,159.285,21.521,159.705,21.431Zm15.15-20.639-4.17.72a1.182,1.182,0,0,1,.66,1.35,8.668,8.668,0,0,1-.15,1.59l-1.41,9.03a52.193,52.193,0,0,0-.72,6.45,1.489,1.489,0,0,0,1.71,1.65c0.36,0,2.28-.06,2.7-0.15-0.81-.36-1.02-0.87-1.02-3.18a45.466,45.466,0,0,1,.63-5.97Zm14.76,12.18c0-3.78-2.49-5.85-5.58-5.85-4.8,0-7.41,4.56-7.41,8.67,0,3.75,2.46,5.88,5.58,5.88C187.125,21.671,189.615,17.2,189.615,12.971Zm-3.18.03c0,3.48-1.26,7.29-3.87,7.29-1.5,0-2.76-1.92-2.76-4.5,0-3.42,1.26-7.29,3.84-7.29C185.175,8.5,186.435,10.422,186.435,13Zm19.14-.03c0-3.78-2.49-5.85-5.58-5.85-4.8,0-7.41,4.56-7.41,8.67,0,3.75,2.46,5.88,5.58,5.88C203.085,21.671,205.575,17.2,205.575,12.971ZM202.4,13c0,3.48-1.26,7.29-3.87,7.29-1.5,0-2.76-1.92-2.76-4.5,0-3.42,1.26-7.29,3.84-7.29C201.135,8.5,202.4,10.422,202.4,13Zm19.05,8.43a3.921,3.921,0,0,1-1.23-.9,15.177,15.177,0,0,1-1.41-2.64l-0.51-1.26c-0.9-2.19-2.19-3.39-3.96-3.39,0.72-1.29,2.4-3.66,4.59-3.66,2.04,0,2.31.69,2.31,0.69s0.09-.75.09-1.2A1.961,1.961,0,0,0,219.2,7c-4.14,0-6.06,5.22-6.93,6.81h-0.06l2.07-13.02-4.2.72a1.27,1.27,0,0,1,.66,1.38,12.628,12.628,0,0,1-.15,1.56l-2.4,15.059c-0.21,1.35-.51,1.68-0.99,1.92h4.56a1.3,1.3,0,0,1-.48-1.2,5.939,5.939,0,0,1,.12-1.17l0.78-4.95h0.3c1.17,0,2.01,2.1,2.49,3.18l1.44,3.12a1.344,1.344,0,0,0,1.32,1.05Zm28.019-9.9c0-3.3-1.95-4.77-3.6-4.77a3.23,3.23,0,0,0-2.279.75c1.289,0.12,2.909,1.62,2.909,4.8,0,5.88-3.869,7.29-3.869,7.29l-1.44-9.03c-0.24-1.5-.36-3.06-0.36-3.06H239.3a111.278,111.278,0,0,1-4.5,10.86l-1.08-7.92a7.986,7.986,0,0,1-.09-1.17c0-1.11.39-1.59,0.93-1.77h-5.43c0.6,0.24.99,0.72,1.26,2.37l1.77,11.82h3l3.45-8.49,1.38,8.49C245.8,21.7,249.464,15.461,249.464,11.532Zm8.011-8.61a1.785,1.785,0,1,0-1.8,1.8A1.812,1.812,0,0,0,257.475,2.922Zm-0.87,4.2-4.14.72a1.2,1.2,0,0,1,.66,1.38,10.055,10.055,0,0,1-.18,1.65l-0.36,2.43a54.339,54.339,0,0,0-.72,6.6,1.49,1.49,0,0,0,1.68,1.68c0.36,0,2.28-.06,2.73-0.15-0.81-.39-1.05-0.9-1.05-3.24a53.853,53.853,0,0,1,.63-6.12Zm11.61,0.39h-3.96l0.57-3.18L259.486,9.1h1.5l-1.29,7.89a6.76,6.76,0,0,0-.089,1.05c0,2.49,1.379,3.63,3.629,3.63a3.732,3.732,0,0,0,3.9-2.91,3.255,3.255,0,0,1-2.4,1.05c-0.81,0-1.92-.36-1.92-2.31a5.068,5.068,0,0,1,.09-0.9l1.08-7.5h3.99Zm14.88,13.92c-0.81-.39-1.02-0.9-1.02-3.24,0-1.71.39-5.01,0.39-5.97,0-3.54-1.74-5.1-4.17-5.1a4.38,4.38,0,0,0-3.84,2.22l1.41-8.64-4.2.75c0.39,0.09.6,0.57,0.6,1.47a13.527,13.527,0,0,1-.21,2.19l-2.22,14.339c-0.18,1.29-.51,1.74-0.99,1.98h4.62a1.641,1.641,0,0,1-.57-1.5,5.332,5.332,0,0,1,.06-0.93l1.229-7.86a3.314,3.314,0,0,1,2.7-1.95c1.44,0,2.43.87,2.43,3.03,0,2.37-.45,5.28-0.45,7.68a1.4,1.4,0,0,0,1.56,1.68C280.785,21.581,282.675,21.521,283.1,21.431Zm17.4-13.38a6.414,6.414,0,0,0-3.57-.93c-2.07,0-4.26,1.2-4.26,3.96a4.753,4.753,0,0,0,2.01,3.45c1.26,1.08,2.37,1.98,2.37,3.39a2.039,2.039,0,0,1-2.16,2.16c-1.56,0-2.64-1.26-3.06-3.57l-0.27,3.72a4.913,4.913,0,0,0,3.9,1.44c2.22,0,4.89-1.23,4.89-4.23,0-1.89-1.41-3.27-3-4.56-1.2-.96-1.65-1.65-1.65-2.61a1.726,1.726,0,0,1,1.86-1.77c1.86,0,2.49,1.92,2.82,3Zm16.229,13.38c-0.81-.39-1.02-0.9-1.02-3.24,0-1.71.39-5.01,0.39-5.97,0-3.54-1.74-5.1-4.169-5.1a4.38,4.38,0,0,0-3.84,2.22L309.5,0.7l-4.2.75c0.39,0.09.6,0.57,0.6,1.47a13.527,13.527,0,0,1-.21,2.19l-2.22,14.339c-0.18,1.29-.51,1.74-0.99,1.98h4.62a1.641,1.641,0,0,1-.57-1.5,5.332,5.332,0,0,1,.06-0.93l1.23-7.86a3.314,3.314,0,0,1,2.7-1.95c1.44,0,2.43.87,2.43,3.03,0,2.37-.45,5.28-0.45,7.68a1.4,1.4,0,0,0,1.56,1.68C314.414,21.581,316.3,21.521,316.724,21.431Zm15.72-8.46c0-3.78-2.49-5.85-5.579-5.85-4.8,0-7.41,4.56-7.41,8.67,0,3.75,2.46,5.88,5.58,5.88C329.954,21.671,332.444,17.2,332.444,12.971Zm-3.18.03c0,3.48-1.26,7.29-3.869,7.29-1.5,0-2.76-1.92-2.76-4.5,0-3.42,1.26-7.29,3.84-7.29C328,8.5,329.264,10.422,329.264,13Zm18.72,0.69c0-4.32-1.92-6.57-5.43-6.57-3.9,0-6.959,3.42-6.959,7.95,0,4.11,2.46,6.6,6.15,6.6a6.2,6.2,0,0,0,5.939-4.83,6.768,6.768,0,0,1-4.86,2.64c-1.889,0-4.019-1.26-4.019-4.53a5.792,5.792,0,0,1,.12-1.26h9.059Zm-2.91-1.41h-5.909c0.54-2.25,1.71-3.81,3.3-3.81C344.594,8.472,345.074,10.781,345.074,12.281Zm13.98-4.23a6.411,6.411,0,0,0-3.569-.93c-2.07,0-4.26,1.2-4.26,3.96a4.753,4.753,0,0,0,2.01,3.45c1.26,1.08,2.37,1.98,2.37,3.39a2.039,2.039,0,0,1-2.16,2.16c-1.56,0-2.64-1.26-3.06-3.57l-0.27,3.72a4.913,4.913,0,0,0,3.9,1.44c2.22,0,4.889-1.23,4.889-4.23,0-1.89-1.409-3.27-3-4.56-1.2-.96-1.65-1.65-1.65-2.61a1.726,1.726,0,0,1,1.86-1.77c1.86,0,2.49,1.92,2.819,3Zm21.96-.93-3.18.96a5.752,5.752,0,0,0-3.18-.96c-3.15,0-7.02,2.34-7.02,9.15,0,2.76,1.08,5.4,4.35,5.4a5.633,5.633,0,0,0,3.96-1.74,1.388,1.388,0,0,0,1.56,1.65c0.36,0,2.37-.06,2.82-0.15-0.84-.39-1.05-0.9-1.05-3.24A75.812,75.812,0,0,1,381.014,7.122Zm-3.78,3.03c-0.12.75-.48,2.91-0.57,3.45-0.24,1.44-.51,3.18-0.66,4.83a3.956,3.956,0,0,1-2.61,1.32c-0.93,0-2.55-.84-2.55-3.84,0-3.06,1.38-7.35,4.26-7.35A2.21,2.21,0,0,1,377.234,10.152Zm19.68,11.28c-0.81-.39-1.02-0.9-1.02-3.24,0-1.71.42-5.01,0.42-5.97,0-3.54-1.77-5.1-4.2-5.1a4.4,4.4,0,0,0-3.87,2.28l0.33-2.31-4.08.72c0.33,0.12.63,0.6,0.63,1.68a13.586,13.586,0,0,1-.12,1.38l-1.32,8.58c-0.21,1.29-.54,1.74-0.99,1.98h4.59a1.641,1.641,0,0,1-.57-1.5A5.675,5.675,0,0,1,386.8,19l1.2-7.86a3.314,3.314,0,0,1,2.7-1.95c1.47,0,2.46.99,2.46,3.03,0,2.37-.48,5.28-0.48,7.68a1.41,1.41,0,0,0,1.56,1.68C394.6,21.581,396.494,21.521,396.914,21.431Zm16.95-20.639-4.17.72a1.222,1.222,0,0,1,.63,1.32,14.557,14.557,0,0,1-.15,1.62L409.6,8.2a3.581,3.581,0,0,0-2.7-1.08c-4.68,0-7.23,5.01-7.23,9.15,0,2.76,1.08,5.4,4.35,5.4a5.907,5.907,0,0,0,4.02-1.74,1.369,1.369,0,0,0,1.53,1.65c0.36,0,2.37-.06,2.82-0.15-0.81-.36-1.02-0.87-1.02-3.18C411.374,16.361,413.864.792,413.864,0.792Zm-4.59,9.36-0.54,3.45c-0.15,1.02-.51,3.27-0.66,4.83a4.268,4.268,0,0,1-2.64,1.32c-0.93,0-2.55-.84-2.55-3.84,0-2.64,1.17-7.35,4.44-7.35A2.106,2.106,0,0,1,409.274,10.152ZM9.466,47.512H5.506l0.57-3.18L0.737,49.1h1.5l-1.29,7.89a6.759,6.759,0,0,0-.09,1.05c0,2.49,1.38,3.63,3.63,3.63a3.732,3.732,0,0,0,3.9-2.91,3.255,3.255,0,0,1-2.4,1.05c-0.81,0-1.92-.36-1.92-2.31a5.068,5.068,0,0,1,.09-0.9l1.08-7.5h3.99Zm13.59,5.46c0-3.78-2.49-5.85-5.58-5.85-4.8,0-7.41,4.56-7.41,8.67,0,3.75,2.46,5.88,5.58,5.88C20.566,61.671,23.056,57.2,23.056,52.971Zm-3.18.03c0,3.48-1.26,7.29-3.87,7.29-1.5,0-2.76-1.92-2.76-4.5,0-3.42,1.26-7.29,3.84-7.29C18.616,48.5,19.876,50.422,19.876,53Zm14.94-5.49h-3.96l0.57-3.18-5.34,4.77h1.5l-1.29,7.89a6.781,6.781,0,0,0-.09,1.05c0,2.49,1.38,3.63,3.63,3.63a3.732,3.732,0,0,0,3.9-2.91,3.255,3.255,0,0,1-2.4,1.05c-0.81,0-1.92-.36-1.92-2.31a5.068,5.068,0,0,1,.09-0.9l1.08-7.5h3.99Zm12.93,6.18c0-4.32-1.92-6.57-5.43-6.57-3.9,0-6.96,3.42-6.96,7.95,0,4.11,2.46,6.6,6.15,6.6a6.2,6.2,0,0,0,5.94-4.83,6.768,6.768,0,0,1-4.86,2.64c-1.89,0-4.02-1.26-4.02-4.53a5.792,5.792,0,0,1,.12-1.26h9.06Zm-2.91-1.41h-5.91c0.54-2.25,1.71-3.81,3.3-3.81C44.357,48.472,44.836,50.781,44.836,52.281Zm13.98-4.23a6.413,6.413,0,0,0-3.57-.93c-2.07,0-4.26,1.2-4.26,3.96A4.753,4.753,0,0,0,53,54.531c1.26,1.08,2.37,1.98,2.37,3.39a2.039,2.039,0,0,1-2.16,2.16c-1.56,0-2.64-1.26-3.06-3.57l-0.27,3.72a4.913,4.913,0,0,0,3.9,1.44c2.22,0,4.89-1.23,4.89-4.23,0-1.89-1.41-3.27-3-4.56-1.2-.96-1.65-1.65-1.65-2.61a1.726,1.726,0,0,1,1.86-1.77c1.86,0,2.49,1.92,2.82,3Zm18.69-3.54v-2.94a4.085,4.085,0,0,0-2.82-.87c-2.64,0-4.2,1.32-4.77,5.16l-0.24,1.68H68.3l-0.24,1.47h1.38l-1.38,9.27c-0.84,5.55-2.91,6.06-3.84,6.24a1.951,1.951,0,0,0,1.95,1.2c2.25,0,4.17-1.47,4.92-6.72l1.41-9.99h3.81l0.24-1.47h-3.84l0.33-2.4c0.24-1.56.66-3,2.13-3C76.726,42.142,77.506,44.512,77.506,44.512Zm13.86,2.61-4.2.72c0.54,0.21.69,0.81,0.54,2.22a12.35,12.35,0,0,1-.15,1.35l-0.27,1.65c-0.36,2.25-.72,4.65-0.81,5.34a3.783,3.783,0,0,1-2.61,1.23c-1.29,0-2.04-.75-2.04-2.52a23.979,23.979,0,0,1,.33-3.57l0.96-6.42-4.17.72a1.061,1.061,0,0,1,.66,1.23,17.154,17.154,0,0,1-.15,1.8l-0.6,3.75a15.114,15.114,0,0,0-.24,2.85c0,2.61,1.38,4.2,3.9,4.2a6.181,6.181,0,0,0,3.96-1.74,1.388,1.388,0,0,0,1.56,1.65c0.36,0,2.37-.06,2.82-0.15-0.84-.39-1.05-0.9-1.05-3.24C89.806,56.061,91.366,47.122,91.366,47.122Zm8.52-6.33-4.17.72a1.181,1.181,0,0,1,.66,1.35,8.667,8.667,0,0,1-.15,1.59l-1.41,9.03a52.193,52.193,0,0,0-.72,6.45,1.489,1.489,0,0,0,1.71,1.65c0.36,0,2.28-.06,2.7-0.15-0.81-.36-1.02-0.87-1.02-3.18a45.484,45.484,0,0,1,.63-5.97Zm8.28,0-4.17.72a1.181,1.181,0,0,1,.66,1.35,8.667,8.667,0,0,1-.15,1.59l-1.41,9.03a52.193,52.193,0,0,0-.72,6.45,1.489,1.489,0,0,0,1.71,1.65c0.36,0,2.28-.06,2.7-0.15-0.81-.36-1.02-0.87-1.02-3.18a45.466,45.466,0,0,1,.63-5.97Zm21.239,12.18c0-3.78-2.489-5.85-5.579-5.85-4.8,0-7.41,4.56-7.41,8.67,0,3.75,2.46,5.88,5.58,5.88C126.916,61.671,129.405,57.2,129.405,52.971Zm-3.179.03c0,3.48-1.26,7.29-3.87,7.29-1.5,0-2.76-1.92-2.76-4.5,0-3.42,1.26-7.29,3.84-7.29C124.966,48.5,126.226,50.422,126.226,53Zm15.72-8.49v-2.94a4.086,4.086,0,0,0-2.82-.87c-2.64,0-4.2,1.32-4.77,5.16l-0.24,1.68h-1.38l-0.24,1.47h1.38l-1.38,9.27c-0.84,5.55-2.91,6.06-3.84,6.24a1.951,1.951,0,0,0,1.95,1.2c2.25,0,4.17-1.47,4.92-6.72l1.41-9.99h3.81l0.24-1.47h-3.84l0.33-2.4c0.24-1.56.66-3,2.13-3C141.166,42.142,141.946,44.512,141.946,44.512Zm16.559,0v-2.94a4.086,4.086,0,0,0-2.82-.87c-2.639,0-4.2,1.32-4.769,5.16l-0.24,1.68H149.3l-0.24,1.47h1.38l-1.38,9.27c-0.84,5.55-2.91,6.06-3.84,6.24a1.951,1.951,0,0,0,1.95,1.2c2.25,0,4.17-1.47,4.92-6.72l1.41-9.99h3.809l0.24-1.47h-3.839l0.33-2.4c0.24-1.56.66-3,2.129-3C157.725,42.142,158.505,44.512,158.505,44.512Zm13.86,2.61-4.2.72c0.54,0.21.69,0.81,0.54,2.22a12.35,12.35,0,0,1-.15,1.35l-0.27,1.65c-0.36,2.25-.72,4.65-0.81,5.34a3.784,3.784,0,0,1-2.61,1.23c-1.29,0-2.04-.75-2.04-2.52a23.979,23.979,0,0,1,.33-3.57l0.96-6.42-4.17.72a1.061,1.061,0,0,1,.66,1.23,17.132,17.132,0,0,1-.15,1.8l-0.6,3.75a15.114,15.114,0,0,0-.24,2.85c0,2.61,1.38,4.2,3.9,4.2a6.182,6.182,0,0,0,3.96-1.74,1.388,1.388,0,0,0,1.56,1.65c0.36,0,2.37-.06,2.82-0.15-0.84-.39-1.05-0.9-1.05-3.24C170.805,56.061,172.365,47.122,172.365,47.122Zm16.02,14.31c-0.81-.39-1.02-0.9-1.02-3.24,0-1.71.42-5.01,0.42-5.97,0-3.54-1.77-5.1-4.2-5.1a4.4,4.4,0,0,0-3.87,2.28l0.33-2.31-4.08.72c0.33,0.12.63,0.6,0.63,1.68a13.586,13.586,0,0,1-.12,1.38l-1.32,8.58c-0.21,1.29-.54,1.74-0.99,1.98h4.59a1.641,1.641,0,0,1-.57-1.5,5.676,5.676,0,0,1,.09-0.93l1.2-7.86a3.314,3.314,0,0,1,2.7-1.95c1.47,0,2.46.99,2.46,3.03,0,2.37-.48,5.28-0.48,7.68a1.41,1.41,0,0,0,1.56,1.68C186.075,61.581,187.965,61.521,188.385,61.431Zm14.31-13.11a7.122,7.122,0,0,0-3.9-1.2c-5.19,0-7.56,4.32-7.56,8.22,0,3.42,1.62,6.33,5.31,6.33a5.562,5.562,0,0,0,5.43-4.23,5.18,5.18,0,0,1-3.87,1.98c-2.28,0-3.6-1.68-3.6-4.53,0-3.12,1.41-6.33,4.47-6.33a3.729,3.729,0,0,1,3.36,3.06Zm11.31-.81h-3.96l0.57-3.18-5.34,4.77h1.5l-1.29,7.89a6.769,6.769,0,0,0-.09,1.05c0,2.49,1.38,3.63,3.63,3.63a3.732,3.732,0,0,0,3.9-2.91,3.255,3.255,0,0,1-2.4,1.05c-0.81,0-1.92-.36-1.92-2.31a5.068,5.068,0,0,1,.09-0.9l1.08-7.5h3.99Zm7.59-4.59a1.785,1.785,0,1,0-1.8,1.8A1.812,1.812,0,0,0,221.6,42.922Zm-0.87,4.2-4.14.72a1.2,1.2,0,0,1,.66,1.38,10.054,10.054,0,0,1-.18,1.65l-0.36,2.43a54.337,54.337,0,0,0-.72,6.6,1.49,1.49,0,0,0,1.68,1.68c0.36,0,2.28-.06,2.73-0.15-0.81-.39-1.05-0.9-1.05-3.24a53.853,53.853,0,0,1,.63-6.12Zm15.69,5.85c0-3.78-2.49-5.85-5.58-5.85-4.8,0-7.409,4.56-7.409,8.67,0,3.75,2.459,5.88,5.579,5.88C233.925,61.671,236.415,57.2,236.415,52.971Zm-3.18.03c0,3.48-1.26,7.29-3.87,7.29-1.5,0-2.76-1.92-2.76-4.5,0-3.42,1.26-7.29,3.84-7.29C231.975,48.5,233.235,50.422,233.235,53Zm19.17,8.43c-0.81-.39-1.02-0.9-1.02-3.24,0-1.71.42-5.01,0.42-5.97,0-3.54-1.77-5.1-4.2-5.1a4.4,4.4,0,0,0-3.87,2.28l0.33-2.31-4.08.72c0.33,0.12.63,0.6,0.63,1.68a13.586,13.586,0,0,1-.12,1.38l-1.32,8.58c-0.21,1.29-.54,1.74-0.989,1.98h4.589a1.641,1.641,0,0,1-.57-1.5A5.676,5.676,0,0,1,242.3,59l1.2-7.86a3.314,3.314,0,0,1,2.7-1.95c1.47,0,2.46.99,2.46,3.03,0,2.37-.48,5.28-0.48,7.68a1.41,1.41,0,0,0,1.56,1.68C250.1,61.581,251.985,61.521,252.405,61.431Zm22.41-14.309-3.18.96a5.752,5.752,0,0,0-3.18-.96c-3.15,0-7.02,2.34-7.02,9.15,0,2.76,1.08,5.4,4.35,5.4a5.633,5.633,0,0,0,3.96-1.74,1.388,1.388,0,0,0,1.56,1.65c0.36,0,2.37-.06,2.82-0.15-0.84-.39-1.05-0.9-1.05-3.24A75.814,75.814,0,0,1,274.815,47.122Zm-3.78,3.03c-0.12.75-.48,2.91-0.57,3.45-0.24,1.44-.51,3.18-0.66,4.83a3.956,3.956,0,0,1-2.61,1.32c-0.93,0-2.55-.84-2.55-3.84,0-3.06,1.38-7.35,4.26-7.35A2.21,2.21,0,0,1,271.035,50.152Zm19.68,11.28c-0.81-.39-1.02-0.9-1.02-3.24,0-1.71.42-5.01,0.42-5.97,0-3.54-1.77-5.1-4.2-5.1a4.4,4.4,0,0,0-3.87,2.28l0.33-2.31-4.08.72c0.33,0.12.63,0.6,0.63,1.68a13.586,13.586,0,0,1-.12,1.38l-1.32,8.58c-0.21,1.29-.54,1.74-0.99,1.98h4.59a1.641,1.641,0,0,1-.57-1.5,5.676,5.676,0,0,1,.09-0.93l1.2-7.86a3.314,3.314,0,0,1,2.7-1.95c1.47,0,2.46.99,2.46,3.03,0,2.37-.48,5.28-0.48,7.68a1.41,1.41,0,0,0,1.56,1.68C288.4,61.581,290.3,61.521,290.715,61.431Zm16.95-20.639-4.17.72a1.222,1.222,0,0,1,.63,1.32,14.555,14.555,0,0,1-.15,1.62L303.4,48.2a3.581,3.581,0,0,0-2.7-1.08c-4.68,0-7.23,5.01-7.23,9.15,0,2.76,1.08,5.4,4.35,5.4a5.907,5.907,0,0,0,4.02-1.74,1.369,1.369,0,0,0,1.53,1.65c0.36,0,2.37-.06,2.82-0.15-0.81-.36-1.02-0.87-1.02-3.18C305.175,56.361,307.665,40.792,307.665,40.792Zm-4.59,9.36-0.54,3.45c-0.15,1.02-.51,3.27-0.66,4.83a4.268,4.268,0,0,1-2.64,1.32c-0.93,0-2.55-.84-2.55-3.84,0-2.64,1.17-7.35,4.44-7.35A2.106,2.106,0,0,1,303.075,50.152Zm26.73,3.48a6.5,6.5,0,0,0-6.51-6.87,7.787,7.787,0,0,0-1.5.12l0.3-1.95-3.99.75a1.756,1.756,0,0,1,.54,1.5,6.474,6.474,0,0,1-.12.93,8.122,8.122,0,0,0-3.15,5.97,7.385,7.385,0,0,1,2.94-4.2l-2.64,16.979a2.19,2.19,0,0,1-.9,1.5h4.71a1.654,1.654,0,0,1-.72-1.56,5.5,5.5,0,0,1,.06-0.63l0.84-5.22a5.151,5.151,0,0,0,2.94.72C326.685,61.671,329.805,58.431,329.805,53.631Zm-3.12.48c0,2.49-1.23,6.18-4.2,6.18a2.328,2.328,0,0,1-2.49-1.71l1.5-9.75a4.559,4.559,0,0,1,1.14-.15C324.825,48.682,326.685,50.512,326.685,54.111Zm18.539-.42c0-4.32-1.919-6.57-5.429-6.57-3.9,0-6.96,3.42-6.96,7.95,0,4.11,2.46,6.6,6.15,6.6a6.2,6.2,0,0,0,5.939-4.83,6.765,6.765,0,0,1-4.859,2.64c-1.89,0-4.02-1.26-4.02-4.53a5.792,5.792,0,0,1,.12-1.26h9.059Zm-2.909-1.41h-5.91c0.54-2.25,1.71-3.81,3.3-3.81C341.835,48.472,342.315,50.781,342.315,52.281Zm15.75-1.44c0-2.61-.81-3.72-2.58-3.72-2.22,0-3.24,2.7-3.24,2.7l0.42-2.7-4.08.72a1.657,1.657,0,0,1,.6,1.59,8.707,8.707,0,0,1-.12,1.44l-1.32,8.58c-0.21,1.41-.54,1.74-1.02,1.98h4.68a1.707,1.707,0,0,1-.51-1.5c0-.27.03-0.6,0.06-0.93l0.81-5.31c0.27-1.74,1.35-4.08,3.54-4.08A3.505,3.505,0,0,1,358.065,50.841Zm10.409-2.79a6.408,6.408,0,0,0-3.569-.93c-2.07,0-4.26,1.2-4.26,3.96a4.753,4.753,0,0,0,2.01,3.45c1.26,1.08,2.37,1.98,2.37,3.39a2.039,2.039,0,0,1-2.16,2.16c-1.56,0-2.64-1.26-3.06-3.57l-0.27,3.72a4.913,4.913,0,0,0,3.9,1.44c2.22,0,4.889-1.23,4.889-4.23,0-1.89-1.409-3.27-3-4.56-1.2-.96-1.65-1.65-1.65-2.61a1.726,1.726,0,0,1,1.86-1.77c1.86,0,2.49,1.92,2.819,3Zm15.93,4.92c0-3.78-2.49-5.85-5.58-5.85-4.8,0-7.41,4.56-7.41,8.67,0,3.75,2.46,5.88,5.58,5.88C381.914,61.671,384.4,57.2,384.4,52.971Zm-3.18.03c0,3.48-1.26,7.29-3.87,7.29-1.5,0-2.76-1.92-2.76-4.5,0-3.42,1.26-7.29,3.84-7.29C379.964,48.5,381.224,50.422,381.224,53Zm19.17,8.43c-0.81-.39-1.02-0.9-1.02-3.24,0-1.71.42-5.01,0.42-5.97,0-3.54-1.77-5.1-4.2-5.1a4.4,4.4,0,0,0-3.87,2.28l0.33-2.31-4.08.72c0.33,0.12.63,0.6,0.63,1.68a13.586,13.586,0,0,1-.12,1.38l-1.32,8.58c-0.21,1.29-.54,1.74-0.99,1.98h4.59a1.641,1.641,0,0,1-.57-1.5,5.676,5.676,0,0,1,.09-0.93l1.2-7.86a3.314,3.314,0,0,1,2.7-1.95c1.47,0,2.46.99,2.46,3.03,0,2.37-.48,5.28-0.48,7.68a1.41,1.41,0,0,0,1.56,1.68C398.084,61.581,399.974,61.521,400.394,61.431Zm16.14-14.309-3.18.96a5.752,5.752,0,0,0-3.18-.96c-3.149,0-7.019,2.34-7.019,9.15,0,2.76,1.08,5.4,4.35,5.4a5.63,5.63,0,0,0,3.959-1.74,1.388,1.388,0,0,0,1.56,1.65c0.36,0,2.37-.06,2.82-0.15-0.84-.39-1.05-0.9-1.05-3.24A75.814,75.814,0,0,1,416.534,47.122Zm-3.78,3.03c-0.12.75-.48,2.91-0.57,3.45-0.24,1.44-.51,3.18-0.66,4.83a3.956,3.956,0,0,1-2.609,1.32c-0.93,0-2.55-.84-2.55-3.84,0-3.06,1.38-7.35,4.259-7.35A2.21,2.21,0,0,1,412.754,50.152Zm12.03-9.36-4.17.72a1.181,1.181,0,0,1,.66,1.35,8.667,8.667,0,0,1-.15,1.59l-1.41,9.03a52.193,52.193,0,0,0-.72,6.45,1.489,1.489,0,0,0,1.71,1.65c0.36,0,2.28-.06,2.7-0.15-0.81-.36-1.02-0.87-1.02-3.18a45.466,45.466,0,0,1,.63-5.97Zm7.83,2.13a1.785,1.785,0,1,0-1.8,1.8A1.812,1.812,0,0,0,432.614,42.922Zm-0.87,4.2-4.14.72a1.2,1.2,0,0,1,.661,1.38,9.965,9.965,0,0,1-.181,1.65l-0.36,2.43a54.518,54.518,0,0,0-.719,6.6,1.489,1.489,0,0,0,1.679,1.68c0.36,0,2.28-.06,2.73-0.15-0.81-.39-1.05-0.9-1.05-3.24a53.853,53.853,0,0,1,.63-6.12Zm11.61,0.39h-3.96l0.57-3.18-5.339,4.77h1.5l-1.29,7.89a6.769,6.769,0,0,0-.09,1.05c0,2.49,1.38,3.63,3.63,3.63a3.732,3.732,0,0,0,3.9-2.91,3.255,3.255,0,0,1-2.4,1.05c-0.809,0-1.919-.36-1.919-2.31a5.068,5.068,0,0,1,.09-0.9l1.08-7.5h3.989Zm16.47,0.03a5.067,5.067,0,0,0-2.1-.81c-1.74,0-3.509,1.89-4.529,4.26-0.15.36-1.47,3.27-2.97,6.6l-1.74-7.14a6.766,6.766,0,0,1-.24-1.53,1.38,1.38,0,0,1,.66-1.38h-5.22a4.1,4.1,0,0,1,1.35,2.34l3.33,11.639c-1.41,2.61-2.94,4.35-4.62,4.35a2.438,2.438,0,0,1-2.22-.9,3.267,3.267,0,0,0-.54,1.65,2.075,2.075,0,0,0,2.1,2.04c3.9,0,5.85-5.16,7.68-8.88C452,57.261,456.644,47.542,459.824,47.542Zm-0.149,12.27a1.83,1.83,0,1,0-1.83,1.86A1.837,1.837,0,0,0,459.675,59.811Z"/>
  </g>
</svg>
