<svg id="accessories_copy" data-name="accessories copy" xmlns="http://www.w3.org/2000/svg" width="300" height="90" viewBox="0 0 300 90">
  <defs>
    <style>
      .cls-1 {
        fill-rule: evenodd;
      }
    </style>
  </defs>
  <g id="layer2">
    <path id="Tip:_Go_places._Get_more_mileage_out_of_each_look_with_versati" data-name="Tip: Go places. Get more  mileage out of each look with versati" class="cls-1" d="M4.655,13.6H7.536V3.551h3.3V0.815H1.4V3.551H4.655V13.6Zm9.179,0H16.7V0.815H13.834V13.6ZM29.5,5.19A4.354,4.354,0,0,0,25,.815H20.656V13.6h2.863V9.547H25A4.339,4.339,0,0,0,29.5,5.19Zm-2.773,0a1.682,1.682,0,0,1-1.765,1.675h-1.44V3.515h1.44A1.672,1.672,0,0,1,26.724,5.19Zm7.288,3.061a1.927,1.927,0,1,0-1.927-1.927A1.929,1.929,0,0,0,34.012,8.251Zm0,5.492a1.927,1.927,0,1,0-1.927-1.927A1.929,1.929,0,0,0,34.012,13.742Zm22.413-1.729V6.288H51.186V7.855H54.8v3.421a5.657,5.657,0,0,1-3.4.954,4.909,4.909,0,0,1-5.2-5.023,4.9,4.9,0,0,1,4.987-5.024,5.247,5.247,0,0,1,3.691,1.4l1.116-1.206A6.749,6.749,0,0,0,51.186.6a6.524,6.524,0,0,0-6.662,6.608A6.557,6.557,0,0,0,51.4,13.814,7.025,7.025,0,0,0,56.425,12.014ZM68.88,9.1a4.708,4.708,0,0,0-9.417,0A4.708,4.708,0,0,0,68.88,9.1Zm-7.832,0a3.126,3.126,0,1,1,6.248,0A3.126,3.126,0,1,1,61.048,9.1ZM78,17.362h1.548v-5.15a3.948,3.948,0,0,0,3.169,1.566A4.516,4.516,0,0,0,87.132,9.1a4.516,4.516,0,0,0-4.411-4.681,3.948,3.948,0,0,0-3.169,1.566V4.6H78V17.362ZM85.547,9.1a3.067,3.067,0,1,1-6.122,0A3.067,3.067,0,1,1,85.547,9.1Zm5.074,4.5H92.17V0.094H90.621V13.6Zm5.04-4.5a4.5,4.5,0,0,0,4.411,4.681,3.947,3.947,0,0,0,3.169-1.566V13.6h1.549v-9h-1.549V5.982a3.947,3.947,0,0,0-3.169-1.566A4.5,4.5,0,0,0,95.661,9.1Zm7.706,0a3.075,3.075,0,1,1-6.14,0A3.075,3.075,0,1,1,103.367,9.1Zm13.77,2.269-1.35-.756a3.052,3.052,0,0,1-2.809,1.728A3.109,3.109,0,0,1,109.827,9.1a3.109,3.109,0,0,1,3.151-3.241,3.052,3.052,0,0,1,2.809,1.729l1.35-.756a4.661,4.661,0,0,0-4.159-2.413A4.613,4.613,0,0,0,108.261,9.1a4.613,4.613,0,0,0,4.717,4.681A4.661,4.661,0,0,0,117.137,11.366ZM119.69,9.1a4.746,4.746,0,0,0,8.715,2.539l-1.224-.846A3.188,3.188,0,0,1,121.257,9.4h7.382a4.395,4.395,0,0,0,.018-0.468,4.2,4.2,0,0,0-4.285-4.519A4.562,4.562,0,0,0,119.69,9.1Zm4.628-3.313a2.694,2.694,0,0,1,2.755,2.359h-5.708A2.943,2.943,0,0,1,124.318,5.784ZM137.944,11.1c0-1.35-.846-2.215-2.376-2.719L134.6,8.053c-1.062-.342-1.386-0.684-1.386-1.26a1.274,1.274,0,0,1,1.512-1.044,2.432,2.432,0,0,1,1.909.936l1.008-.972a3.49,3.49,0,0,0-2.881-1.3c-1.782,0-3.043.99-3.043,2.449a2.718,2.718,0,0,0,2.233,2.611l0.882,0.288c1.171,0.378,1.6.81,1.6,1.44a1.371,1.371,0,0,1-1.585,1.224,2.415,2.415,0,0,1-2.3-1.423l-1.261.684a3.576,3.576,0,0,0,3.529,2.089C136.63,13.778,137.944,12.86,137.944,11.1Zm5.615,1.3a1.333,1.333,0,1,0-1.332,1.35A1.356,1.356,0,0,0,143.559,12.392Zm20.576-.378V6.288H158.9V7.855h3.619v3.421a5.658,5.658,0,0,1-3.4.954,4.909,4.909,0,0,1-5.2-5.023A4.9,4.9,0,0,1,158.9,2.183a5.248,5.248,0,0,1,3.691,1.4L163.7,2.381A6.746,6.746,0,0,0,158.9.6a6.524,6.524,0,0,0-6.662,6.608,6.557,6.557,0,0,0,6.878,6.608A7.023,7.023,0,0,0,164.135,12.014ZM167.192,9.1a4.746,4.746,0,0,0,8.714,2.539l-1.224-.846A3.188,3.188,0,0,1,168.758,9.4h7.383a4.395,4.395,0,0,0,.018-0.468,4.2,4.2,0,0,0-4.286-4.519A4.562,4.562,0,0,0,167.192,9.1Zm4.627-3.313a2.693,2.693,0,0,1,2.755,2.359h-5.708A2.944,2.944,0,0,1,171.819,5.784Zm12.547,7.688V12.086a3.428,3.428,0,0,1-1.1.18,1.3,1.3,0,0,1-1.494-1.53V6.018h2.593V4.6h-2.593v-2.5h-1.549V4.6h-1.908V6.018h1.908v4.915a2.534,2.534,0,0,0,2.755,2.755A4.314,4.314,0,0,0,184.366,13.472Zm8.89,0.126H194.8V9.133c0-2.035,1.027-3.295,2.485-3.295,1.17,0,1.765,1.008,1.765,2.467V13.6H200.6V9.133c0-2.035,1.008-3.295,2.467-3.295,1.17,0,1.782,1.008,1.782,2.467V13.6H206.4V8.071c0-2.2-1.189-3.655-3.151-3.655A3.116,3.116,0,0,0,200.3,6.342a2.83,2.83,0,0,0-2.773-1.927A3.028,3.028,0,0,0,194.8,5.982V4.6h-1.548v9Zm25.886-4.5a4.708,4.708,0,0,0-9.416,0A4.708,4.708,0,0,0,219.142,9.1Zm-7.832,0a3.126,3.126,0,1,1,6.248,0A3.126,3.126,0,1,1,211.31,9.1Zm11.3,4.5h1.548V9.133c0-2.107,1.242-3.1,2.377-3.1a2.262,2.262,0,0,1,.846.144v-1.6a3.208,3.208,0,0,0-.7-0.072,2.678,2.678,0,0,0-2.521,1.837V4.6h-1.548v9Zm6.822-4.5a4.746,4.746,0,0,0,8.714,2.539l-1.224-.846A3.188,3.188,0,0,1,231,9.4h7.382a4.395,4.395,0,0,0,.018-0.468,4.2,4.2,0,0,0-4.285-4.519A4.562,4.562,0,0,0,229.436,9.1Zm4.627-3.313a2.694,2.694,0,0,1,2.755,2.359H231.11A2.943,2.943,0,0,1,234.063,5.784ZM2.458,37.6H4.007V33.133c0-2.035,1.026-3.3,2.485-3.3,1.17,0,1.765,1.008,1.765,2.467V37.6H9.8V33.133c0-2.035,1.008-3.3,2.467-3.3,1.17,0,1.783,1.008,1.783,2.467V37.6H15.6V32.071c0-2.2-1.188-3.655-3.151-3.655A3.116,3.116,0,0,0,9.5,30.342a2.83,2.83,0,0,0-2.773-1.927,3.026,3.026,0,0,0-2.719,1.566V28.6H2.458v9ZM21.521,25.085a1.087,1.087,0,0,0-1.08-1.1,1.118,1.118,0,0,0-1.116,1.1,1.106,1.106,0,0,0,1.116,1.1A1.076,1.076,0,0,0,21.521,25.085ZM19.648,37.6H21.2v-9H19.648v9Zm5.742,0h1.548v-13.5H25.39V37.6Zm5.04-4.5a4.506,4.506,0,0,0,4.663,4.681,4.522,4.522,0,0,0,4.051-2.143L37.92,34.79A3.187,3.187,0,0,1,32,33.4h7.382a4.394,4.394,0,0,0,.018-0.468,4.2,4.2,0,0,0-4.285-4.519A4.562,4.562,0,0,0,30.43,33.1Zm4.627-3.313a2.694,2.694,0,0,1,2.755,2.359H32.1A2.943,2.943,0,0,1,35.057,29.784Zm7.09,3.313a4.505,4.505,0,0,0,4.411,4.681,3.948,3.948,0,0,0,3.169-1.566V37.6h1.548v-9H49.728v1.386a3.948,3.948,0,0,0-3.169-1.566A4.5,4.5,0,0,0,42.148,33.1Zm7.706,0a3.075,3.075,0,1,1-6.14,0A3.075,3.075,0,1,1,49.854,33.1ZM63.84,37.076V28.6H62.292v1.386a3.83,3.83,0,0,0-3.133-1.566,4.586,4.586,0,0,0,0,9.165A3.844,3.844,0,0,0,62.292,36v1.026a2.878,2.878,0,0,1-3.007,3.115,3.852,3.852,0,0,1-3.151-1.512l-1.08,1.08A5.345,5.345,0,0,0,59.3,41.542C61.86,41.542,63.84,40.083,63.84,37.076Zm-7.508-4.087a3.045,3.045,0,1,1,3.043,3.151A3,3,0,0,1,56.332,32.989ZM67.311,33.1a4.746,4.746,0,0,0,8.715,2.539L74.8,34.79A3.187,3.187,0,0,1,68.878,33.4H76.26a4.394,4.394,0,0,0,.018-0.468,4.2,4.2,0,0,0-4.285-4.519A4.562,4.562,0,0,0,67.311,33.1Zm4.627-3.313a2.694,2.694,0,0,1,2.755,2.359H68.986A2.943,2.943,0,0,1,71.939,29.784ZM94.08,33.1a4.709,4.709,0,1,0-4.7,4.681A4.62,4.62,0,0,0,94.08,33.1Zm-7.832,0a3.126,3.126,0,1,1,3.133,3.241A3.094,3.094,0,0,1,86.248,33.1Zm11.177,1.026c0,2.233,1.332,3.655,3.313,3.655a3.1,3.1,0,0,0,2.773-1.566V37.6h1.548v-9h-1.548v4.465c0,2.071-1.1,3.3-2.5,3.3-1.242,0-2.034-.954-2.034-2.467V28.6H97.425v5.528Zm16.687,3.349V36.086a3.421,3.421,0,0,1-1.1.18,1.3,1.3,0,0,1-1.494-1.53V30.018h2.592V28.6H111.52v-2.5h-1.549v2.5h-1.908v1.422h1.908v4.915a2.535,2.535,0,0,0,2.755,2.755A4.307,4.307,0,0,0,114.112,37.472ZM131.7,33.1a4.709,4.709,0,1,0-4.7,4.681A4.62,4.62,0,0,0,131.7,33.1Zm-7.832,0A3.126,3.126,0,1,1,127,36.338,3.094,3.094,0,0,1,123.867,33.1Zm11.916,4.5h1.548v-7.58h2.611V28.6h-2.611V26.939a1.3,1.3,0,0,1,1.5-1.53,3.625,3.625,0,0,1,1.116.18V24.22a4.088,4.088,0,0,0-1.4-.234,2.571,2.571,0,0,0-2.755,2.791V28.6h-1.909v1.422h1.909V37.6Zm11.591-4.5a4.746,4.746,0,0,0,8.715,2.539l-1.225-.846a3.187,3.187,0,0,1-5.923-1.386h7.382a4.394,4.394,0,0,0,.018-0.468,4.2,4.2,0,0,0-4.285-4.519A4.562,4.562,0,0,0,147.374,33.1ZM152,29.784a2.693,2.693,0,0,1,2.754,2.359h-5.707A2.943,2.943,0,0,1,152,29.784Zm7.09,3.313a4.505,4.505,0,0,0,4.411,4.681,3.947,3.947,0,0,0,3.169-1.566V37.6h1.549v-9h-1.549v1.386a3.947,3.947,0,0,0-3.169-1.566A4.505,4.505,0,0,0,159.092,33.1Zm7.706,0a3.075,3.075,0,1,1-6.139,0A3.075,3.075,0,1,1,166.8,33.1Zm13.771,2.269-1.351-.756a3.051,3.051,0,0,1-2.809,1.729,3.242,3.242,0,0,1,0-6.482,3.051,3.051,0,0,1,2.809,1.728l1.351-.756a4.664,4.664,0,0,0-4.16-2.413,4.682,4.682,0,1,0,0,9.363A4.664,4.664,0,0,0,180.569,35.366Zm3.255,2.233h1.548V33.133c0-2.107,1.153-3.3,2.611-3.3a2.161,2.161,0,0,1,2.125,2.449V37.6h1.53V32.053a3.318,3.318,0,0,0-3.4-3.637,3.185,3.185,0,0,0-2.863,1.566V24.094h-1.548V37.6Zm17.513,0h1.549v-13.5h-1.549V37.6Zm14.439-4.5a4.709,4.709,0,1,0-4.7,4.681A4.62,4.62,0,0,0,215.776,33.1Zm-7.832,0a3.126,3.126,0,1,1,3.133,3.241A3.094,3.094,0,0,1,207.944,33.1Zm20,0a4.709,4.709,0,1,0-4.7,4.681A4.62,4.62,0,0,0,227.944,33.1Zm-7.833,0a3.126,3.126,0,1,1,3.133,3.241A3.095,3.095,0,0,1,220.111,33.1Zm11.3,4.5h1.548V33.1l4.88,4.5h2.088l-5.419-5.023,4.429-3.979h-2.053l-3.925,3.511V24.094h-1.548V37.6Zm23.564,0h1.369l3.06-9H257.77l-2.179,6.572-2.25-6.572h-1.189l-2.25,6.572L247.723,28.6H246.1l3.061,9h1.369l2.232-6.482Zm9.232-12.514a1.087,1.087,0,0,0-1.08-1.1,1.119,1.119,0,0,0-1.117,1.1,1.107,1.107,0,0,0,1.117,1.1A1.076,1.076,0,0,0,264.211,25.085ZM262.338,37.6h1.549v-9h-1.549v9Zm10.622-.126V36.086a3.423,3.423,0,0,1-1.1.18,1.3,1.3,0,0,1-1.494-1.53V30.018h2.593V28.6h-2.593v-2.5h-1.548v2.5H266.91v1.422h1.909v4.915a2.534,2.534,0,0,0,2.754,2.755A4.309,4.309,0,0,0,272.96,37.472ZM276.2,37.6h1.549V33.133c0-2.107,1.152-3.3,2.611-3.3a2.161,2.161,0,0,1,2.124,2.449V37.6h1.531V32.053a3.318,3.318,0,0,0-3.4-3.637,3.183,3.183,0,0,0-2.863,1.566V24.094H276.2V37.6ZM5.267,61.6h1.3l4.159-9H8.994L5.915,59.4,2.837,52.6H1.108Zm7.379-4.5a4.506,4.506,0,0,0,4.663,4.681,4.522,4.522,0,0,0,4.051-2.143l-1.224-.846a3.011,3.011,0,0,1-2.809,1.567A2.993,2.993,0,0,1,14.213,57.4H21.6a4.42,4.42,0,0,0,.018-0.468,4.2,4.2,0,0,0-4.285-4.519A4.562,4.562,0,0,0,12.646,57.1Zm4.627-3.313a2.693,2.693,0,0,1,2.755,2.359H14.321A2.943,2.943,0,0,1,17.274,53.784ZM25.066,61.6h1.548V57.133c0-2.107,1.242-3.1,2.377-3.1a2.264,2.264,0,0,1,.846.144v-1.6a3.2,3.2,0,0,0-.7-0.072,2.679,2.679,0,0,0-2.521,1.837V52.6H25.066v9Zm13.52-2.5c0-1.35-.846-2.215-2.377-2.719l-0.972-.324c-1.062-.342-1.386-0.684-1.386-1.26a1.274,1.274,0,0,1,1.512-1.044,2.432,2.432,0,0,1,1.909.936l1.008-.972a3.491,3.491,0,0,0-2.881-1.3c-1.782,0-3.043.99-3.043,2.449a2.717,2.717,0,0,0,2.233,2.611l0.882,0.288c1.17,0.378,1.6.81,1.6,1.44a1.371,1.371,0,0,1-1.584,1.224,2.416,2.416,0,0,1-2.3-1.422l-1.26.684a3.576,3.576,0,0,0,3.529,2.089C37.272,61.778,38.586,60.86,38.586,59.1Zm2.77-2a4.5,4.5,0,0,0,4.411,4.681,3.948,3.948,0,0,0,3.169-1.566V61.6h1.548v-9H48.937v1.386a3.948,3.948,0,0,0-3.169-1.567A4.5,4.5,0,0,0,41.356,57.1Zm7.706,0A3.075,3.075,0,1,1,46,53.838,3.074,3.074,0,0,1,49.063,57.1Zm10.475,4.375V60.086a3.421,3.421,0,0,1-1.1.18,1.3,1.3,0,0,1-1.495-1.53V54.018h2.593V52.6H56.945v-2.5H55.4v2.5H53.488v1.422H55.4v4.915a2.534,2.534,0,0,0,2.755,2.755A4.31,4.31,0,0,0,59.538,61.472Zm5.111-12.388a1.087,1.087,0,0,0-1.08-1.1,1.118,1.118,0,0,0-1.116,1.1,1.107,1.107,0,0,0,1.116,1.1A1.076,1.076,0,0,0,64.649,49.085ZM62.776,61.6h1.549v-9H62.776v9Zm5.742,0h1.549v-13.5H68.518V61.6Zm5.04-4.5a4.746,4.746,0,0,0,8.715,2.539l-1.224-.846A3.187,3.187,0,0,1,75.124,57.4h7.382a4.4,4.4,0,0,0,.018-0.468,4.2,4.2,0,0,0-4.285-4.519A4.562,4.562,0,0,0,73.558,57.1Zm4.627-3.313a2.693,2.693,0,0,1,2.755,2.359H75.232A2.943,2.943,0,0,1,78.185,53.784ZM90.927,57.1a4.5,4.5,0,0,0,4.411,4.681,3.948,3.948,0,0,0,3.169-1.566V61.6h1.548v-9H98.508v1.386a3.948,3.948,0,0,0-3.169-1.567A4.5,4.5,0,0,0,90.927,57.1Zm7.706,0a3.075,3.075,0,1,1-3.061-3.259A3.074,3.074,0,0,1,98.634,57.1Zm13.77,2.269-1.351-.756a3.051,3.051,0,0,1-2.808,1.728,3.242,3.242,0,0,1,0-6.482,3.051,3.051,0,0,1,2.808,1.729l1.351-.756a4.662,4.662,0,0,0-4.159-2.413,4.682,4.682,0,1,0,0,9.363A4.662,4.662,0,0,0,112.4,59.366Zm11.43,0-1.351-.756a3.051,3.051,0,0,1-2.809,1.728,3.242,3.242,0,0,1,0-6.482,3.051,3.051,0,0,1,2.809,1.729l1.351-.756a4.664,4.664,0,0,0-4.16-2.413,4.682,4.682,0,1,0,0,9.363A4.664,4.664,0,0,0,123.834,59.366Zm2.553-2.269a4.746,4.746,0,0,0,8.714,2.539l-1.224-.846a3.188,3.188,0,0,1-5.924-1.386h7.382a4.4,4.4,0,0,0,.018-0.468,4.2,4.2,0,0,0-4.285-4.519A4.562,4.562,0,0,0,126.387,57.1Zm4.627-3.313a2.693,2.693,0,0,1,2.755,2.359h-5.708A2.944,2.944,0,0,1,131.014,53.784ZM144.641,59.1c0-1.35-.847-2.215-2.377-2.719l-0.972-.324c-1.063-.342-1.387-0.684-1.387-1.26a1.275,1.275,0,0,1,1.513-1.044,2.431,2.431,0,0,1,1.908.936l1.008-.972a3.49,3.49,0,0,0-2.88-1.3c-1.783,0-3.043.99-3.043,2.449a2.717,2.717,0,0,0,2.232,2.611l0.883,0.288c1.17,0.378,1.6.81,1.6,1.44a1.37,1.37,0,0,1-1.584,1.224,2.416,2.416,0,0,1-2.305-1.422l-1.26.684a3.575,3.575,0,0,0,3.529,2.089C143.326,61.778,144.641,60.86,144.641,59.1Zm9.288,0c0-1.35-.847-2.215-2.377-2.719l-0.972-.324c-1.063-.342-1.387-0.684-1.387-1.26a1.275,1.275,0,0,1,1.513-1.044,2.431,2.431,0,0,1,1.908.936l1.008-.972a3.49,3.49,0,0,0-2.88-1.3c-1.783,0-3.043.99-3.043,2.449a2.717,2.717,0,0,0,2.232,2.611l0.883,0.288c1.17,0.378,1.6.81,1.6,1.44a1.37,1.37,0,0,1-1.584,1.224,2.416,2.416,0,0,1-2.305-1.422l-1.26.684a3.575,3.575,0,0,0,3.529,2.089C152.614,61.778,153.929,60.86,153.929,59.1Zm12.168-2a4.709,4.709,0,1,0-4.7,4.681A4.62,4.62,0,0,0,166.1,57.1Zm-7.832,0a3.126,3.126,0,1,1,3.133,3.241A3.094,3.094,0,0,1,158.265,57.1Zm11.3,4.5h1.549V57.133c0-2.107,1.242-3.1,2.377-3.1a2.263,2.263,0,0,1,.846.144v-1.6a3.2,3.2,0,0,0-.7-0.072,2.678,2.678,0,0,0-2.521,1.837V52.6h-1.549v9Zm9.721-12.514a1.087,1.087,0,0,0-1.08-1.1,1.118,1.118,0,0,0-1.117,1.1,1.107,1.107,0,0,0,1.117,1.1A1.076,1.076,0,0,0,179.289,49.085ZM177.416,61.6h1.549v-9h-1.549v9Zm5.04-4.5a4.746,4.746,0,0,0,8.715,2.539l-1.225-.846a3.188,3.188,0,0,1-5.924-1.386h7.383a4.4,4.4,0,0,0,.018-0.468,4.2,4.2,0,0,0-4.286-4.519A4.562,4.562,0,0,0,182.456,57.1Zm4.627-3.313a2.693,2.693,0,0,1,2.755,2.359h-5.707A2.942,2.942,0,0,1,187.083,53.784ZM200.71,59.1c0-1.35-.846-2.215-2.377-2.719l-0.972-.324c-1.062-.342-1.387-0.684-1.387-1.26a1.275,1.275,0,0,1,1.513-1.044,2.435,2.435,0,0,1,1.909.936l1.008-.972a3.492,3.492,0,0,0-2.881-1.3c-1.783,0-3.043.99-3.043,2.449a2.717,2.717,0,0,0,2.233,2.611l0.882,0.288c1.17,0.378,1.6.81,1.6,1.44a1.37,1.37,0,0,1-1.584,1.224,2.417,2.417,0,0,1-2.305-1.422l-1.26.684a3.575,3.575,0,0,0,3.529,2.089C199.4,61.778,200.71,60.86,200.71,59.1Zm13.7,2.377V60.086a3.419,3.419,0,0,1-1.1.18,1.3,1.3,0,0,1-1.5-1.53V54.018h2.593V52.6h-2.593v-2.5h-1.548v2.5h-1.909v1.422h1.909v4.915a2.534,2.534,0,0,0,2.755,2.755A4.307,4.307,0,0,0,214.407,61.472Zm3.239,0.126h1.548V57.133c0-2.107,1.153-3.3,2.611-3.3a2.161,2.161,0,0,1,2.125,2.449V61.6h1.53V56.053a3.318,3.318,0,0,0-3.4-3.637,3.184,3.184,0,0,0-2.863,1.567V48.094h-1.548V61.6Zm11.159-4.5a4.505,4.505,0,0,0,4.412,4.681,3.95,3.95,0,0,0,3.169-1.566V61.6h1.548v-9h-1.548v1.386a3.95,3.95,0,0,0-3.169-1.567A4.505,4.505,0,0,0,228.805,57.1Zm7.707,0a3.075,3.075,0,1,1-3.061-3.259A3.074,3.074,0,0,1,236.512,57.1Zm10.475,4.375V60.086a3.42,3.42,0,0,1-1.1.18,1.3,1.3,0,0,1-1.494-1.53V54.018h2.593V52.6h-2.593v-2.5h-1.548v2.5h-1.909v1.422h1.909v4.915a2.534,2.534,0,0,0,2.754,2.755A4.309,4.309,0,0,0,246.987,61.472ZM1.756,81.1a4.5,4.5,0,0,0,4.411,4.681,3.948,3.948,0,0,0,3.169-1.567V85.6h1.549v-9H9.336v1.386a3.948,3.948,0,0,0-3.169-1.566A4.5,4.5,0,0,0,1.756,81.1Zm7.706,0A3.075,3.075,0,1,1,6.4,77.838,3.074,3.074,0,0,1,9.462,81.1Zm5.6,4.5h1.549V81.133c0-2.107,1.242-3.1,2.377-3.1a2.263,2.263,0,0,1,.846.144v-1.6a3.208,3.208,0,0,0-.7-0.072,2.678,2.678,0,0,0-2.521,1.837V76.6H15.058v9Zm6.822-4.5a4.506,4.506,0,0,0,4.664,4.681,4.522,4.522,0,0,0,4.051-2.143L29.37,82.79a3.011,3.011,0,0,1-2.809,1.566A2.993,2.993,0,0,1,23.447,81.4h7.382a4.37,4.37,0,0,0,.018-0.468,4.2,4.2,0,0,0-4.285-4.519A4.562,4.562,0,0,0,21.88,81.1Zm4.627-3.313a2.693,2.693,0,0,1,2.755,2.359H23.555A2.943,2.943,0,0,1,26.508,77.784ZM39.25,81.1a4.746,4.746,0,0,0,8.715,2.539L46.74,82.79A3.187,3.187,0,0,1,40.816,81.4H48.2a4.394,4.394,0,0,0,.018-0.468,4.2,4.2,0,0,0-4.285-4.519A4.562,4.562,0,0,0,39.25,81.1Zm4.627-3.313a2.694,2.694,0,0,1,2.755,2.359H40.924A2.943,2.943,0,0,1,43.877,77.784Zm7.09,3.313a4.505,4.505,0,0,0,4.411,4.681,3.948,3.948,0,0,0,3.169-1.567V85.6H60.1v-9H58.548v1.386a3.948,3.948,0,0,0-3.169-1.566A4.505,4.505,0,0,0,50.968,81.1Zm7.706,0a3.075,3.075,0,1,1-3.061-3.259A3.074,3.074,0,0,1,58.674,81.1Zm11.429,2c0-1.35-.846-2.215-2.377-2.719l-0.972-.324c-1.062-.342-1.386-0.684-1.386-1.26a1.274,1.274,0,0,1,1.513-1.044,2.432,2.432,0,0,1,1.909.936l1.008-.972a3.491,3.491,0,0,0-2.881-1.3c-1.782,0-3.043.99-3.043,2.449a2.717,2.717,0,0,0,2.233,2.611l0.882,0.288c1.17,0.378,1.6.81,1.6,1.44a1.37,1.37,0,0,1-1.584,1.224,2.416,2.416,0,0,1-2.3-1.422l-1.26.684a3.576,3.576,0,0,0,3.529,2.089C68.789,85.778,70.1,84.86,70.1,83.1Zm5.741,6.266L81.75,76.6H80.022L76.943,83.42l-3.1-6.824h-1.71l3.943,8.535-1.963,4.231h1.728Zm18.541-3.889V84.086a3.421,3.421,0,0,1-1.1.18,1.3,1.3,0,0,1-1.494-1.531V78.018h2.593V76.6H91.793v-2.5H90.244v2.5H88.335v1.422h1.909v4.915A2.534,2.534,0,0,0,93,85.688,4.307,4.307,0,0,0,94.385,85.472ZM106.2,81.1a4.709,4.709,0,1,0-4.7,4.681A4.62,4.62,0,0,0,106.2,81.1Zm-7.833,0a3.126,3.126,0,1,1,3.133,3.241A3.094,3.094,0,0,1,98.362,81.1Zm16.955,4.5h1.549V81.133c0-2.035,1.026-3.3,2.485-3.3,1.17,0,1.764,1.008,1.764,2.467V85.6h1.549V81.133c0-2.035,1.008-3.3,2.466-3.3,1.171,0,1.783,1.008,1.783,2.467V85.6h1.548V80.071c0-2.2-1.188-3.655-3.151-3.655a3.115,3.115,0,0,0-2.952,1.927,2.831,2.831,0,0,0-2.773-1.927,3.025,3.025,0,0,0-2.719,1.566V76.6h-1.549v9ZM134.38,73.085a1.087,1.087,0,0,0-1.08-1.1,1.118,1.118,0,0,0-1.117,1.1,1.107,1.107,0,0,0,1.117,1.1A1.076,1.076,0,0,0,134.38,73.085ZM132.507,85.6h1.549v-9h-1.549v9Zm4.392,0h1.926l2.737-3.4,2.737,3.4h1.909l-3.673-4.555L145.92,76.6h-1.891l-2.467,3.241L139.077,76.6h-1.872l3.385,4.447ZM154,81.1a4.5,4.5,0,0,0,4.411,4.681,3.947,3.947,0,0,0,3.169-1.567V85.6h1.549v-9h-1.549v1.386a3.947,3.947,0,0,0-3.169-1.566A4.5,4.5,0,0,0,154,81.1Zm7.706,0a3.075,3.075,0,1,1-3.061-3.259A3.074,3.074,0,0,1,161.705,81.1Zm5.6,4.5h1.548V81.133c0-2.107,1.153-3.3,2.611-3.3a2.161,2.161,0,0,1,2.125,2.449V85.6h1.53V80.053a3.318,3.318,0,0,0-3.4-3.637,3.184,3.184,0,0,0-2.863,1.566V76.6H167.3v9Zm11.159-4.5a4.505,4.505,0,0,0,4.412,4.681,3.948,3.948,0,0,0,3.169-1.567V85.6h1.548v-13.5h-1.548v5.888a3.948,3.948,0,0,0-3.169-1.566A4.505,4.505,0,0,0,178.46,81.1Zm7.707,0a3.075,3.075,0,1,1-3.061-3.259A3.074,3.074,0,0,1,186.167,81.1Zm11.247,4.5h1.549V81.133c0-2.035,1.026-3.3,2.484-3.3,1.171,0,1.765,1.008,1.765,2.467V85.6h1.548V81.133c0-2.035,1.009-3.3,2.467-3.3,1.171,0,1.783,1.008,1.783,2.467V85.6h1.548V80.071c0-2.2-1.188-3.655-3.151-3.655a3.117,3.117,0,0,0-2.953,1.927,2.829,2.829,0,0,0-2.772-1.927,3.025,3.025,0,0,0-2.719,1.566V76.6h-1.549v9ZM213.9,81.1a4.505,4.505,0,0,0,4.411,4.681,3.947,3.947,0,0,0,3.169-1.567V85.6h1.549v-9h-1.549v1.386a3.947,3.947,0,0,0-3.169-1.566A4.505,4.505,0,0,0,213.9,81.1Zm7.706,0a3.075,3.075,0,1,1-3.061-3.259A3.074,3.074,0,0,1,221.608,81.1Zm10.475,4.375V84.086a3.419,3.419,0,0,1-1.1.18,1.3,1.3,0,0,1-1.494-1.531V78.018h2.592V76.6h-2.592v-2.5h-1.549v2.5h-1.908v1.422h1.908v4.915a2.535,2.535,0,0,0,2.755,2.755A4.3,4.3,0,0,0,232.083,85.472Zm11.288-2.107-1.351-.756a3.051,3.051,0,0,1-2.809,1.728,3.242,3.242,0,0,1,0-6.482,3.051,3.051,0,0,1,2.809,1.729l1.351-.756a4.664,4.664,0,0,0-4.16-2.413,4.682,4.682,0,1,0,0,9.363A4.664,4.664,0,0,0,243.371,83.366Zm3.255,2.233h1.548V81.133c0-2.107,1.153-3.3,2.611-3.3a2.161,2.161,0,0,1,2.125,2.449V85.6h1.53V80.053a3.318,3.318,0,0,0-3.4-3.637,3.185,3.185,0,0,0-2.863,1.566V72.094h-1.548V85.6Zm14-1.206a1.332,1.332,0,1,0-1.332,1.35A1.356,1.356,0,0,0,260.63,84.392Z"/>
  </g>
</svg>
