<svg id="accessories_copy" data-name="accessories copy" xmlns="http://www.w3.org/2000/svg" width="540" height="303" viewBox="0 0 540 303">
  <defs>
    <style>
      .cls-1 {
        fill: #b03f25;
      }

      .cls-1, .cls-2 {
        fill-rule: evenodd;
      }

      .cls-2 {
        fill: #272727;
        opacity: 0.36;
      }
    </style>
  </defs>
  <g id="layer1">
    <path id="on-the-go_extras" data-name="on-the-go extras" class="cls-1" d="M30.809,226.137A30.828,30.828,0,1,0-.018,195.31,30.9,30.9,0,0,0,30.809,226.137Zm0-12.936c-9.744,0-17.388-8.231-17.388-17.891s7.644-17.892,17.388-17.892c9.66,0,17.3,8.232,17.3,17.892S40.469,213.2,30.809,213.2Zm99.034,11.928V165.49H116.4v36.792L87.425,165.49H75.917v59.639H89.272V188.254l29.064,36.875h11.507Zm16.213-23.771h24.695v-12.1H146.056v12.1Zm45.695,23.771h13.44V178.258h15.371V165.49H176.547v12.768h15.2v46.871Zm42,0h13.355v-23.6H271.13v23.6h13.355V165.49H271.13v23.352H247.106V165.49H233.751v59.639Zm68.375,0h37.8V212.361H315.482V201.694h19.4V188.926h-19.4V178.258h24.444V165.49h-37.8v59.639Zm49.729-23.771h24.7v-12.1h-24.7v12.1Zm70.055,24.779c9.659,0,19.151-2.856,24.443-8.82V189.01H421.658v12.516h11.675v8.819c-2.52,2.016-6.887,2.856-11.591,2.856-11.676,0-18.816-7.727-18.816-17.891A17.507,17.507,0,0,1,420.9,177.418a19.8,19.8,0,0,1,15.035,6.384l9.408-9.156c-5.712-6.3-13.86-10.164-24.443-10.164-18.48,0-31.416,13.86-31.416,30.828C389.486,212.781,403.346,226.137,421.91,226.137Zm67.45,0a30.828,30.828,0,1,0-30.827-30.827A30.9,30.9,0,0,0,489.36,226.137Zm0-12.936c-9.743,0-17.387-8.231-17.387-17.891s7.644-17.892,17.387-17.892c9.66,0,17.3,8.232,17.3,17.892S499.02,213.2,489.36,213.2ZM3.342,302.129h37.8V289.361H16.7V278.694H36.1V265.926H16.7V255.258H41.141V242.49H3.342v59.639Zm91.055,0h15.54l-22.26-30.155,20.916-29.484H93.137L79.613,261.642,66.09,242.49H50.634l21,29.484L49.29,302.129H64.914L79.7,282.39Zm36.876,0h13.44V255.258h15.372V242.49H116.07v12.768h15.2v46.871Zm42,0h13.356V277.518h2.183l19.824,24.611H224.68L203.6,275.838c7.56-2.688,11.676-7.644,11.676-15.372,0-9.912-7.224-17.976-18.48-17.976H173.273v59.639Zm13.356-35.951V254.754H195.2c3.948,0,6.8,2.1,6.8,5.712,0,3.444-2.856,5.712-6.8,5.712h-8.567Zm40.907,35.951H241.48l5.291-12.6h24.7l5.292,12.6H290.7L265.167,242.49h-12.1Zm24.107-24.191,7.476-17.976,7.476,17.976H251.643Zm66.529,25.2c12.6,0,21.251-7.56,21.335-18.395,0.084-8.988-5.544-14.7-14.2-17.808l-4.2-1.512c-6.3-2.268-9.24-3.7-9.24-6.888,0-3.108,3.612-4.536,7.224-4.536a13.265,13.265,0,0,1,10.331,4.956l8.736-9.24a24.884,24.884,0,0,0-19.235-8.231c-11.928,0-20.58,6.8-20.58,18.395,0,8.148,5.376,13.944,15.036,17.22l4.2,1.428c5.964,2.016,8.315,4.116,8.315,7.14,0,2.855-2.772,4.955-7.223,4.955a15.6,15.6,0,0,1-12.348-6.8l-10.248,8.652C300.7,299.189,308.764,303.137,318.172,303.137Z"/>
    <path id="_5" data-name="5" class="cls-2" d="M52.191,140.347c29.636,0,48.744-17.353,48.744-46.014,0-28.076-16.378-47.768-42.894-47.768a39.858,39.858,0,0,0-17.743,3.7l4.679-22.032H90.405V-0.228H22.36L6.372,79.515l25.541,7.994c2.73-8.384,10.139-14.428,20.472-14.428A18.658,18.658,0,0,1,71.493,92.188c0,10.724-6.629,19.108-19.3,19.108-9.554,0-17.547-5.849-19.692-14.038H2.083C3.253,122.994,26.649,140.347,52.191,140.347Z"/>
  </g>
</svg>
