<svg id="shorts_copy" data-name="shorts copy" xmlns="http://www.w3.org/2000/svg" width="538" height="109" viewBox="0 0 538 109">
  <defs>
    <style>
      .cls-1 {
        fill-rule: evenodd;
      }
    </style>
  </defs>
  <g id="layer2">
    <path id="The_sky_s_the_limit_in_new_heat-regulating_Core_Temp_Shorts_f" data-name="The sky’s the limit in new heat-regulating  Core Temp Shorts, f" class="cls-1" d="M17.819,3.846V0.876H3.33L2.46,3.846s0.66-1.41,4.29-1.41c0.57,0,1.35.03,2.04,0.09L6.3,18.065c-0.45,2.79-1.35,3.21-1.35,3.21h5.37s-0.66-.48-0.66-2.16a16.718,16.718,0,0,1,.15-1.98L12.09,2.526c0.6-.06,1.32-0.12,1.95-0.12C17.279,2.406,17.819,3.846,17.819,3.846ZM32.1,21.274c-0.81-.39-1.02-0.9-1.02-3.24,0-1.71.39-5.01,0.39-5.969,0-3.54-1.74-5.1-4.17-5.1a4.379,4.379,0,0,0-3.84,2.22l1.41-8.639-4.2.75c0.39,0.09.6,0.57,0.6,1.47a13.538,13.538,0,0,1-.21,2.19L18.84,19.294c-0.18,1.29-.51,1.74-0.99,1.98h4.62a1.641,1.641,0,0,1-.57-1.5,5.331,5.331,0,0,1,.06-0.93l1.23-7.859a3.313,3.313,0,0,1,2.7-1.95c1.44,0,2.43.87,2.43,3.03,0,2.37-.45,5.28-0.45,7.679a1.4,1.4,0,0,0,1.56,1.68C29.79,21.424,31.679,21.364,32.1,21.274Zm15.21-7.739c0-4.32-1.92-6.569-5.429-6.569-3.9,0-6.959,3.42-6.959,7.949,0,4.11,2.46,6.6,6.149,6.6a6.2,6.2,0,0,0,5.94-4.829,6.768,6.768,0,0,1-4.86,2.64c-1.89,0-4.02-1.26-4.02-4.53a5.793,5.793,0,0,1,.12-1.26h9.059Zm-2.91-1.41H38.49c0.54-2.25,1.71-3.81,3.3-3.81C43.92,8.315,44.4,10.625,44.4,12.125ZM65.1,7.9a6.413,6.413,0,0,0-3.57-.93c-2.07,0-4.26,1.2-4.26,3.96a4.753,4.753,0,0,0,2.01,3.45c1.26,1.08,2.37,1.98,2.37,3.39a2.039,2.039,0,0,1-2.16,2.16c-1.56,0-2.64-1.26-3.06-3.57l-0.27,3.72a4.912,4.912,0,0,0,3.9,1.44c2.22,0,4.89-1.23,4.89-4.23,0-1.89-1.41-3.27-3-4.56-1.2-.96-1.65-1.65-1.65-2.61a1.726,1.726,0,0,1,1.86-1.77c1.86,0,2.49,1.92,2.82,3ZM81.869,21.274a3.92,3.92,0,0,1-1.23-.9,15.175,15.175,0,0,1-1.41-2.64l-0.51-1.26c-0.9-2.19-2.19-3.39-3.96-3.39,0.72-1.29,2.4-3.66,4.59-3.66,2.04,0,2.31.69,2.31,0.69s0.09-.75.09-1.2a1.961,1.961,0,0,0-2.13-2.07c-4.14,0-6.059,5.22-6.929,6.809h-0.06L74.7,0.636l-4.2.72a1.27,1.27,0,0,1,.66,1.38,12.627,12.627,0,0,1-.15,1.56l-2.4,15.059c-0.21,1.35-.51,1.68-0.99,1.92h4.56a1.3,1.3,0,0,1-.48-1.2,5.939,5.939,0,0,1,.12-1.17l0.78-4.95h0.3c1.17,0,2.01,2.1,2.49,3.18l1.44,3.12a1.344,1.344,0,0,0,1.32,1.05Zm18.6-13.889a5.067,5.067,0,0,0-2.1-.81c-1.74,0-3.51,1.89-4.53,4.26-0.15.36-1.47,3.27-2.97,6.6L89.129,10.3a6.77,6.77,0,0,1-.24-1.53,1.38,1.38,0,0,1,.66-1.38H84.329a4.1,4.1,0,0,1,1.35,2.34l3.33,11.639c-1.41,2.61-2.94,4.35-4.62,4.35a2.438,2.438,0,0,1-2.22-.9,3.268,3.268,0,0,0-.54,1.65,2.075,2.075,0,0,0,2.1,2.04c3.9,0,5.85-5.159,7.679-8.879C92.639,17.1,97.288,7.385,100.468,7.385Zm6.33-4.44c0-1.56-.75-2.4-1.86-2.4a1.844,1.844,0,0,0-1.83,1.86,1.713,1.713,0,0,0,1.71,1.8,1.63,1.63,0,0,0,.33-0.06,4.907,4.907,0,0,1-.03.6,3.465,3.465,0,0,1-1.8,2.88c-0.15.03-.21,0.12-0.18,0.15a0.2,0.2,0,0,0,.18.09C105.028,7.655,106.8,5.046,106.8,2.946Zm8.43,4.95a6.414,6.414,0,0,0-3.57-.93c-2.069,0-4.259,1.2-4.259,3.96a4.753,4.753,0,0,0,2.01,3.45c1.26,1.08,2.369,1.98,2.369,3.39a2.038,2.038,0,0,1-2.159,2.16c-1.56,0-2.64-1.26-3.06-3.57l-0.27,3.72a4.913,4.913,0,0,0,3.9,1.44c2.219,0,4.889-1.23,4.889-4.23,0-1.89-1.41-3.27-3-4.56-1.2-.96-1.649-1.65-1.649-2.61a1.725,1.725,0,0,1,1.859-1.77c1.86,0,2.49,1.92,2.82,3Zm18.18-.54h-3.96l0.57-3.18-5.34,4.77h1.5l-1.29,7.889a6.769,6.769,0,0,0-.09,1.05c0,2.49,1.38,3.63,3.63,3.63a3.732,3.732,0,0,0,3.9-2.91,3.255,3.255,0,0,1-2.4,1.05c-0.81,0-1.92-.36-1.92-2.31a5.068,5.068,0,0,1,.09-0.9l1.08-7.5h3.99Zm15.179,13.919c-0.809-.39-1.019-0.9-1.019-3.24,0-1.71.39-5.01,0.39-5.969,0-3.54-1.74-5.1-4.17-5.1a4.38,4.38,0,0,0-3.84,2.22l1.41-8.639-4.2.75c0.39,0.09.6,0.57,0.6,1.47a13.526,13.526,0,0,1-.21,2.19l-2.219,14.339c-0.18,1.29-.51,1.74-0.99,1.98h4.619a1.641,1.641,0,0,1-.57-1.5,5.331,5.331,0,0,1,.06-0.93l1.23-7.859a3.314,3.314,0,0,1,2.7-1.95c1.44,0,2.43.87,2.43,3.03,0,2.37-.45,5.28-0.45,7.679a1.4,1.4,0,0,0,1.56,1.68C146.278,21.424,148.168,21.364,148.587,21.274Zm15.21-7.739c0-4.32-1.919-6.569-5.429-6.569-3.9,0-6.96,3.42-6.96,7.949,0,4.11,2.46,6.6,6.15,6.6a6.2,6.2,0,0,0,5.939-4.829,6.765,6.765,0,0,1-4.859,2.64c-1.89,0-4.02-1.26-4.02-4.53a5.793,5.793,0,0,1,.12-1.26H163.8Zm-2.909-1.41h-5.91c0.54-2.25,1.71-3.81,3.3-3.81C160.408,8.315,160.888,10.625,160.888,12.125Zm18.45-11.489-4.17.72a1.181,1.181,0,0,1,.66,1.35,8.668,8.668,0,0,1-.15,1.59l-1.41,9.029a52.192,52.192,0,0,0-.72,6.45,1.489,1.489,0,0,0,1.71,1.65c0.36,0,2.28-.06,2.7-0.15-0.81-.36-1.02-0.87-1.02-3.18a45.46,45.46,0,0,1,.63-5.969Zm8.13,2.13a1.785,1.785,0,1,0-1.8,1.8A1.812,1.812,0,0,0,187.468,2.766Zm-0.87,4.2-4.14.72a1.2,1.2,0,0,1,.66,1.38,10.054,10.054,0,0,1-.18,1.65l-0.36,2.43a54.313,54.313,0,0,0-.719,6.6,1.489,1.489,0,0,0,1.679,1.68c0.36,0,2.28-.06,2.73-0.15-0.81-.39-1.05-0.9-1.05-3.24a53.846,53.846,0,0,1,.63-6.119Zm24.389,14.309c-0.84-.39-1.05-0.9-1.05-3.24,0-1.71.42-5.01,0.42-5.969,0-3.54-1.89-5.1-4.32-5.1a4.47,4.47,0,0,0-3.959,2.4,3.5,3.5,0,0,0-3.6-2.4,4.066,4.066,0,0,0-3.75,2.28l0.36-2.31-4.109.72c0.33,0.12.63,0.6,0.63,1.68a13.585,13.585,0,0,1-.12,1.38l-1.32,8.579c-0.21,1.29-.54,1.74-0.99,1.98h4.59a1.641,1.641,0,0,1-.57-1.5,5.674,5.674,0,0,1,.09-0.93l1.169-7.619s0.72-2.25,2.61-2.25c1.23,0,2.43.66,2.19,3.09-0.21,2.34-.63,5.28-0.63,7.679a1.41,1.41,0,0,0,1.56,1.68c0.36,0,2.25-.06,2.67-0.15-0.81-.39-1.02-0.9-1.02-3.24,0-1.71.45-5.01,0.54-5.969,0.18-1.8.99-3.09,2.55-3.09,1.229,0,2.279.81,2.279,3.09,0,2.37-.48,5.28-0.48,7.679a1.41,1.41,0,0,0,1.56,1.68C208.647,21.424,210.537,21.364,210.987,21.274Zm8.762-18.508a1.785,1.785,0,1,0-1.8,1.8A1.812,1.812,0,0,0,219.749,2.766Zm-0.87,4.2-4.14.72a1.2,1.2,0,0,1,.66,1.38,10.054,10.054,0,0,1-.18,1.65l-0.36,2.43a54.332,54.332,0,0,0-.72,6.6,1.49,1.49,0,0,0,1.68,1.68c0.36,0,2.28-.06,2.73-0.15-0.81-.39-1.05-0.9-1.05-3.24a53.846,53.846,0,0,1,.63-6.119Zm11.909,0.39h-3.959l0.57-3.18-5.34,4.77h1.5l-1.29,7.889a6.769,6.769,0,0,0-.09,1.05c0,2.49,1.38,3.63,3.63,3.63a3.732,3.732,0,0,0,3.9-2.91,3.255,3.255,0,0,1-2.4,1.05c-0.81,0-1.92-.36-1.92-2.31a5.068,5.068,0,0,1,.09-0.9l1.08-7.5h3.989Zm14.551-4.59a1.785,1.785,0,1,0-1.8,1.8A1.812,1.812,0,0,0,245.339,2.766Zm-0.87,4.2-4.14.72a1.2,1.2,0,0,1,.66,1.38,10.054,10.054,0,0,1-.18,1.65l-0.36,2.43a54.332,54.332,0,0,0-.72,6.6,1.49,1.49,0,0,0,1.68,1.68c0.36,0,2.28-.06,2.73-0.15-0.81-.39-1.05-0.9-1.05-3.24a53.846,53.846,0,0,1,.63-6.119ZM261,21.274c-0.81-.39-1.02-0.9-1.02-3.24,0-1.71.42-5.01,0.42-5.969,0-3.54-1.77-5.1-4.2-5.1a4.4,4.4,0,0,0-3.869,2.28l0.33-2.31-4.08.72c0.33,0.12.63,0.6,0.63,1.68a13.585,13.585,0,0,1-.12,1.38l-1.32,8.579c-0.21,1.29-.54,1.74-0.99,1.98h4.59a1.641,1.641,0,0,1-.57-1.5,5.674,5.674,0,0,1,.09-0.93l1.2-7.859a3.313,3.313,0,0,1,2.7-1.95c1.47,0,2.46.99,2.46,3.03,0,2.37-.48,5.28-0.48,7.679a1.41,1.41,0,0,0,1.56,1.68C258.688,21.424,260.578,21.364,261,21.274Zm23.01,0c-0.81-.39-1.02-0.9-1.02-3.24,0-1.71.42-5.01,0.42-5.969,0-3.54-1.77-5.1-4.2-5.1a4.4,4.4,0,0,0-3.869,2.28l0.33-2.31-4.08.72c0.33,0.12.63,0.6,0.63,1.68a13.585,13.585,0,0,1-.12,1.38l-1.32,8.579c-0.21,1.29-.54,1.74-0.99,1.98h4.59a1.641,1.641,0,0,1-.57-1.5,5.674,5.674,0,0,1,.09-0.93l1.2-7.859a3.313,3.313,0,0,1,2.7-1.95c1.47,0,2.46.99,2.46,3.03,0,2.37-.48,5.28-0.48,7.679a1.41,1.41,0,0,0,1.56,1.68C281.7,21.424,283.588,21.364,284.008,21.274Zm15.54-7.739c0-4.32-1.92-6.569-5.429-6.569-3.9,0-6.96,3.42-6.96,7.949,0,4.11,2.46,6.6,6.15,6.6a6.2,6.2,0,0,0,5.939-4.829,6.767,6.767,0,0,1-4.859,2.64c-1.89,0-4.02-1.26-4.02-4.53a5.793,5.793,0,0,1,.12-1.26h9.059Zm-2.91-1.41h-5.909c0.54-2.25,1.71-3.81,3.3-3.81C296.159,8.315,296.638,10.625,296.638,12.125Zm25.5-.75c0-3.3-1.95-4.77-3.6-4.77a3.234,3.234,0,0,0-2.28.75c1.29,0.12,2.91,1.62,2.91,4.8,0,5.879-3.87,7.289-3.87,7.289l-1.44-9.029c-0.24-1.5-.36-3.06-0.36-3.06h-1.53a111.13,111.13,0,0,1-4.5,10.859l-1.08-7.919a7.985,7.985,0,0,1-.09-1.17c0-1.11.39-1.59,0.93-1.77H301.8c0.6,0.24.99,0.72,1.26,2.37l1.77,11.819h3l3.449-8.489,1.38,8.489C318.478,21.544,322.138,15.3,322.138,11.375Zm22.77,9.9c-0.81-.39-1.02-0.9-1.02-3.24,0-1.71.39-5.01,0.39-5.969,0-3.54-1.74-5.1-4.169-5.1a4.38,4.38,0,0,0-3.84,2.22l1.41-8.639-4.2.75c0.39,0.09.6,0.57,0.6,1.47a13.526,13.526,0,0,1-.21,2.19l-2.22,14.339c-0.18,1.29-.51,1.74-0.99,1.98h4.62a1.641,1.641,0,0,1-.57-1.5,5.331,5.331,0,0,1,.06-0.93L336,10.985a3.314,3.314,0,0,1,2.7-1.95c1.44,0,2.429.87,2.429,3.03,0,2.37-.45,5.28-0.45,7.679a1.4,1.4,0,0,0,1.56,1.68C342.6,21.424,344.488,21.364,344.908,21.274Zm15.21-7.739c0-4.32-1.92-6.569-5.429-6.569-3.9,0-6.96,3.42-6.96,7.949,0,4.11,2.46,6.6,6.15,6.6a6.2,6.2,0,0,0,5.939-4.829,6.769,6.769,0,0,1-4.859,2.64c-1.89,0-4.02-1.26-4.02-4.53a5.793,5.793,0,0,1,.12-1.26h9.059Zm-2.91-1.41H351.3c0.54-2.25,1.71-3.81,3.3-3.81C356.728,8.315,357.208,10.625,357.208,12.125Zm19.23-5.16-3.18.96a5.751,5.751,0,0,0-3.179-.96c-3.15,0-7.02,2.34-7.02,9.149,0,2.76,1.08,5.4,4.35,5.4a5.631,5.631,0,0,0,3.959-1.74,1.388,1.388,0,0,0,1.56,1.65c0.36,0,2.37-.06,2.82-0.15-0.84-.39-1.05-0.9-1.05-3.24A75.805,75.805,0,0,1,376.438,6.966ZM372.658,10c-0.12.75-.48,2.91-0.57,3.45-0.24,1.44-.51,3.18-0.66,4.83a3.953,3.953,0,0,1-2.609,1.32c-0.93,0-2.55-.84-2.55-3.84,0-3.06,1.38-7.349,4.259-7.349A2.21,2.21,0,0,1,372.658,10Zm15.51-2.64h-3.959l0.569-3.18-5.339,4.77h1.5l-1.29,7.889a6.769,6.769,0,0,0-.09,1.05c0,2.49,1.38,3.63,3.63,3.63a3.732,3.732,0,0,0,3.9-2.91,3.255,3.255,0,0,1-2.4,1.05c-0.809,0-1.919-.36-1.919-2.31a5.068,5.068,0,0,1,.09-0.9l1.08-7.5h3.989Zm7.56,4.74h-5.4l-0.39,2.46h5.4Zm13.92-1.41c0-2.61-.81-3.72-2.58-3.72-2.22,0-3.24,2.7-3.24,2.7l0.42-2.7-4.079.72a1.659,1.659,0,0,1,.6,1.59,8.706,8.706,0,0,1-.12,1.44l-1.319,8.579c-0.21,1.41-.54,1.74-1.02,1.98h4.679a1.707,1.707,0,0,1-.51-1.5c0-.27.03-0.6,0.06-0.93l0.81-5.31c0.27-1.74,1.35-4.08,3.54-4.08A3.505,3.505,0,0,1,409.648,10.685Zm13.77,2.85c0-4.32-1.92-6.569-5.43-6.569-3.9,0-6.959,3.42-6.959,7.949,0,4.11,2.46,6.6,6.149,6.6a6.2,6.2,0,0,0,5.94-4.829,6.769,6.769,0,0,1-4.86,2.64c-1.89,0-4.02-1.26-4.02-4.53a5.793,5.793,0,0,1,.12-1.26h9.06Zm-2.91-1.41H414.6c0.54-2.25,1.71-3.81,3.3-3.81C420.028,8.315,420.508,10.625,420.508,12.125Zm19.05-5.16-2.97.99a5.342,5.342,0,0,0-3.21-.99c-3.149,0-7.079,2.43-7.079,8.7,0,2.76,1.17,5.4,4.47,5.4a5.828,5.828,0,0,0,3.749-1.56l-0.27,1.98c-0.42,3.18-1.949,4.77-4.319,4.77-2.67,0-4.14-2.28-4.47-4.32l-0.33,4.11a7.9,7.9,0,0,0,4.95,1.77c4.259,0,6.929-1.71,7.469-6.839,0.21-1.77.39-3.75,0.51-4.5ZM435.868,10l-0.72,4.59c-0.21,1.26-.39,2.55-0.48,3.24a4.439,4.439,0,0,1-2.609,1.32c-0.93,0-2.52-.84-2.52-3.84,0-2.94,1.05-6.9,4.319-6.9A2.291,2.291,0,0,1,435.868,10Zm19.56-3.03-4.2.72c0.54,0.21.69,0.81,0.54,2.22a12.346,12.346,0,0,1-.15,1.35l-0.27,1.65c-0.36,2.25-.72,4.65-0.81,5.339a3.783,3.783,0,0,1-2.609,1.23c-1.29,0-2.04-.75-2.04-2.52a23.979,23.979,0,0,1,.33-3.57l0.96-6.419-4.17.72a1.061,1.061,0,0,1,.66,1.23,17.13,17.13,0,0,1-.15,1.8l-0.6,3.75a15.111,15.111,0,0,0-.24,2.85c0,2.61,1.38,4.2,3.9,4.2a6.18,6.18,0,0,0,3.959-1.74,1.388,1.388,0,0,0,1.56,1.65c0.36,0,2.37-.06,2.82-0.15-0.84-.39-1.05-0.9-1.05-3.24C453.868,15.9,455.428,6.966,455.428,6.966Zm8.82-6.329-4.169.72a1.181,1.181,0,0,1,.66,1.35,8.668,8.668,0,0,1-.15,1.59l-1.41,9.029a52.192,52.192,0,0,0-.72,6.45,1.489,1.489,0,0,0,1.71,1.65c0.36,0,2.28-.06,2.7-0.15-0.81-.36-1.02-0.87-1.02-3.18a45.46,45.46,0,0,1,.63-5.969Zm15.51,6.329-3.18.96a5.753,5.753,0,0,0-3.18-.96c-3.149,0-7.019,2.34-7.019,9.149,0,2.76,1.08,5.4,4.35,5.4a5.632,5.632,0,0,0,3.959-1.74,1.388,1.388,0,0,0,1.56,1.65c0.36,0,2.37-.06,2.82-0.15-0.84-.39-1.05-0.9-1.05-3.24A75.805,75.805,0,0,1,479.758,6.966ZM475.978,10c-0.12.75-.48,2.91-0.57,3.45-0.24,1.44-.51,3.18-0.66,4.83a3.956,3.956,0,0,1-2.61,1.32c-0.929,0-2.549-.84-2.549-3.84,0-3.06,1.38-7.349,4.259-7.349A2.21,2.21,0,0,1,475.978,10Zm15.51-2.64h-3.96l0.57-3.18-5.339,4.77h1.5l-1.29,7.889a6.769,6.769,0,0,0-.09,1.05c0,2.49,1.38,3.63,3.629,3.63a3.732,3.732,0,0,0,3.9-2.91,3.255,3.255,0,0,1-2.4,1.05c-0.81,0-1.92-.36-1.92-2.31a5.068,5.068,0,0,1,.09-0.9l1.08-7.5h3.99Zm7.89-4.59a1.785,1.785,0,1,0-1.8,1.8A1.811,1.811,0,0,0,499.378,2.766Zm-0.869,4.2-4.14.72a1.2,1.2,0,0,1,.66,1.38,10.054,10.054,0,0,1-.18,1.65l-0.36,2.43a54.332,54.332,0,0,0-.72,6.6,1.49,1.49,0,0,0,1.68,1.68c0.36,0,2.28-.06,2.73-0.15-0.81-.39-1.05-0.9-1.05-3.24a53.846,53.846,0,0,1,.63-6.119Zm16.529,14.309c-0.81-.39-1.02-0.9-1.02-3.24,0-1.71.42-5.01,0.42-5.969,0-3.54-1.77-5.1-4.2-5.1a4.4,4.4,0,0,0-3.869,2.28l0.33-2.31-4.08.72c0.33,0.12.63,0.6,0.63,1.68a13.585,13.585,0,0,1-.12,1.38l-1.32,8.579c-0.21,1.29-.54,1.74-0.99,1.98h4.59a1.641,1.641,0,0,1-.57-1.5,5.674,5.674,0,0,1,.09-0.93l1.2-7.859a3.311,3.311,0,0,1,2.7-1.95c1.47,0,2.46.99,2.46,3.03,0,2.37-.48,5.28-0.48,7.679a1.41,1.41,0,0,0,1.56,1.68C512.728,21.424,514.618,21.364,515.038,21.274Zm16.41-14.309-2.97.99a5.341,5.341,0,0,0-3.209-.99c-3.15,0-7.08,2.43-7.08,8.7,0,2.76,1.17,5.4,4.47,5.4a5.831,5.831,0,0,0,3.75-1.56l-0.27,1.98c-0.42,3.18-1.95,4.77-4.32,4.77-2.67,0-4.14-2.28-4.47-4.32l-0.33,4.11a7.9,7.9,0,0,0,4.95,1.77c4.26,0,6.929-1.71,7.469-6.839,0.21-1.77.39-3.75,0.51-4.5ZM527.758,10l-0.72,4.59c-0.21,1.26-.39,2.55-0.48,3.24a4.433,4.433,0,0,1-2.609,1.32c-0.93,0-2.52-.84-2.52-3.84,0-2.94,1.05-6.9,4.32-6.9A2.291,2.291,0,0,1,527.758,10ZM20.069,47.146v-4.74a13.615,13.615,0,0,0-7.079-1.77c-6.809,0-10.709,5.61-10.709,11.639,0,5.01,2.94,9.239,9.3,9.239a11.8,11.8,0,0,0,6.749-2.04l1.05-4.32c-0.78,1.17-2.76,4.44-7.049,4.44-3.3,0-6.479-2.52-6.479-7.709,0-5.07,2.46-9.629,7.589-9.629C18.209,42.256,19.559,45.976,20.069,47.146ZM34.56,52.815c0-3.78-2.49-5.849-5.58-5.849-4.8,0-7.409,4.56-7.409,8.669,0,3.75,2.46,5.88,5.58,5.88C32.07,61.514,34.56,57.045,34.56,52.815Zm-3.18.03c0,3.48-1.26,7.289-3.87,7.289-1.5,0-2.76-1.92-2.76-4.5,0-3.42,1.26-7.289,3.84-7.289C30.12,48.345,31.38,50.265,31.38,52.845ZM48,50.685c0-2.61-.81-3.72-2.58-3.72-2.22,0-3.24,2.7-3.24,2.7l0.42-2.7-4.08.72a1.657,1.657,0,0,1,.6,1.59,8.706,8.706,0,0,1-.12,1.44l-1.32,8.579c-0.21,1.41-.54,1.74-1.02,1.98h4.68a1.707,1.707,0,0,1-.51-1.5c0-.27.03-0.6,0.06-0.93l0.81-5.31c0.27-1.74,1.35-4.08,3.54-4.08A3.505,3.505,0,0,1,48,50.685Zm13.77,2.85c0-4.32-1.92-6.569-5.43-6.569-3.9,0-6.959,3.42-6.959,7.949,0,4.11,2.46,6.6,6.15,6.6a6.2,6.2,0,0,0,5.94-4.83,6.768,6.768,0,0,1-4.86,2.64c-1.89,0-4.02-1.26-4.02-4.53a5.793,5.793,0,0,1,.12-1.26H61.77Zm-2.91-1.41H52.95c0.54-2.25,1.71-3.81,3.3-3.81C58.38,48.315,58.86,50.625,58.86,52.125Zm27.719-8.279v-2.97H72.091l-0.87,2.97s0.66-1.41,4.29-1.41c0.57,0,1.35.03,2.04,0.09L75.06,58.065c-0.45,2.79-1.35,3.21-1.35,3.21h5.37s-0.66-.48-0.66-2.16a16.716,16.716,0,0,1,.15-1.98l2.28-14.609c0.6-.06,1.32-0.12,1.95-0.12C86.039,42.406,86.579,43.846,86.579,43.846Zm9.45,9.689c0-4.32-1.92-6.569-5.43-6.569-3.9,0-6.959,3.42-6.959,7.949,0,4.11,2.46,6.6,6.15,6.6a6.2,6.2,0,0,0,5.939-4.83,6.768,6.768,0,0,1-4.86,2.64c-1.89,0-4.02-1.26-4.02-4.53a5.8,5.8,0,0,1,.12-1.26H96.03Zm-2.91-1.41h-5.91c0.54-2.25,1.71-3.81,3.3-3.81C92.64,48.315,93.12,50.625,93.12,52.125ZM119.7,61.274c-0.84-.39-1.05-0.9-1.05-3.24,0-1.71.42-5.01,0.42-5.969,0-3.54-1.889-5.1-4.319-5.1a4.471,4.471,0,0,0-3.96,2.4,3.5,3.5,0,0,0-3.6-2.4,4.065,4.065,0,0,0-3.749,2.28l0.36-2.31-4.11.72c0.33,0.12.63,0.6,0.63,1.68a13.584,13.584,0,0,1-.12,1.38l-1.32,8.579c-0.21,1.29-.54,1.74-0.99,1.98h4.59a1.641,1.641,0,0,1-.57-1.5,5.674,5.674,0,0,1,.09-0.93l1.17-7.619s0.72-2.25,2.61-2.25c1.229,0,2.429.66,2.189,3.09-0.21,2.34-.63,5.279-0.63,7.679a1.41,1.41,0,0,0,1.56,1.68c0.36,0,2.25-.06,2.67-0.15-0.81-.39-1.02-0.9-1.02-3.24,0-1.71.45-5.01,0.54-5.969,0.18-1.8.99-3.09,2.55-3.09,1.23,0,2.28.81,2.28,3.09,0,2.37-.48,5.279-0.48,7.679a1.41,1.41,0,0,0,1.56,1.68C117.36,61.424,119.249,61.364,119.7,61.274Zm16.531-7.8a6.5,6.5,0,0,0-6.51-6.869,7.8,7.8,0,0,0-1.5.12l0.3-1.95-3.989.75a1.756,1.756,0,0,1,.54,1.5,6.472,6.472,0,0,1-.12.93,8.122,8.122,0,0,0-3.15,5.97,7.385,7.385,0,0,1,2.94-4.2L122.1,66.7a2.19,2.19,0,0,1-.9,1.5h4.71a1.654,1.654,0,0,1-.72-1.56,5.5,5.5,0,0,1,.06-0.63l0.84-5.22a5.15,5.15,0,0,0,2.939.72C133.11,61.514,136.23,58.275,136.23,53.475Zm-3.12.48c0,2.49-1.23,6.179-4.2,6.179a2.328,2.328,0,0,1-2.489-1.71l1.5-9.749a4.545,4.545,0,0,1,1.139-.15C131.25,48.525,133.11,50.355,133.11,53.955Zm24.21-12.179a9.159,9.159,0,0,0-4.89-1.26c-3.06,0-5.969,1.71-5.969,5.609,0,2.34,1.89,4.05,3.329,5.279,1.74,1.44,3.42,2.91,3.42,4.98a3.45,3.45,0,0,1-3.63,3.51c-2.159,0-4.019-1.62-4.739-4.11l-0.27,3.81c0.54,0.48,2.01,1.98,5.609,1.98,3.27,0,6.57-1.77,6.57-6.029,0-2.07-1.17-3.72-3.27-5.55-0.42-.36-0.84-0.69-1.2-0.99-1.8-1.47-2.49-2.52-2.49-4.05a2.8,2.8,0,0,1,3.09-2.88,4.521,4.521,0,0,1,4.29,3.15Zm16.14,19.5c-0.81-.39-1.02-0.9-1.02-3.24,0-1.71.39-5.01,0.39-5.969,0-3.54-1.74-5.1-4.17-5.1a4.38,4.38,0,0,0-3.84,2.22l1.41-8.639-4.2.75c0.39,0.09.6,0.57,0.6,1.47a13.528,13.528,0,0,1-.21,2.19L160.2,59.294c-0.18,1.29-.51,1.74-0.99,1.98h4.619a1.641,1.641,0,0,1-.569-1.5,5.331,5.331,0,0,1,.06-0.93l1.229-7.859a3.314,3.314,0,0,1,2.7-1.95c1.44,0,2.43.87,2.43,3.03,0,2.37-.45,5.279-0.45,7.679a1.4,1.4,0,0,0,1.56,1.68C171.15,61.424,173.04,61.364,173.46,61.274Zm16.02-8.459c0-3.78-2.49-5.849-5.58-5.849-4.8,0-7.409,4.56-7.409,8.669,0,3.75,2.46,5.88,5.579,5.88C186.99,61.514,189.48,57.045,189.48,52.815Zm-3.18.03c0,3.48-1.26,7.289-3.87,7.289-1.5,0-2.76-1.92-2.76-4.5,0-3.42,1.26-7.289,3.84-7.289C185.04,48.345,186.3,50.265,186.3,52.845Zm16.62-2.16c0-2.61-.81-3.72-2.58-3.72-2.22,0-3.24,2.7-3.24,2.7l0.42-2.7-4.08.72a1.657,1.657,0,0,1,.6,1.59,8.706,8.706,0,0,1-.12,1.44L192.6,59.294c-0.21,1.41-.54,1.74-1.02,1.98h4.679a1.707,1.707,0,0,1-.51-1.5c0-.27.03-0.6,0.06-0.93l0.81-5.31c0.27-1.74,1.35-4.08,3.54-4.08A3.505,3.505,0,0,1,202.92,50.685Zm11.159-3.33H210.12l0.57-3.18-5.34,4.77h1.5l-1.29,7.889a6.769,6.769,0,0,0-.09,1.05c0,2.49,1.38,3.63,3.63,3.63A3.732,3.732,0,0,0,213,58.6a3.254,3.254,0,0,1-2.4,1.05c-0.81,0-1.92-.36-1.92-2.31a5.068,5.068,0,0,1,.09-0.9l1.08-7.5h3.989Zm10.53,0.54a6.409,6.409,0,0,0-3.569-.93c-2.07,0-4.26,1.2-4.26,3.96a4.753,4.753,0,0,0,2.01,3.45c1.26,1.08,2.37,1.98,2.37,3.39a2.039,2.039,0,0,1-2.16,2.16c-1.56,0-2.64-1.26-3.06-3.57l-0.27,3.72a4.913,4.913,0,0,0,3.9,1.44c2.22,0,4.889-1.23,4.889-4.23,0-1.89-1.409-3.27-3-4.56-1.2-.96-1.65-1.65-1.65-2.61a1.726,1.726,0,0,1,1.86-1.77c1.86,0,2.489,1.92,2.819,3Zm6.661,12.3c0-1.56-.72-2.4-1.86-2.4a1.818,1.818,0,0,0-1.83,1.83,1.745,1.745,0,0,0,1.74,1.83,2.241,2.241,0,0,0,.33-0.06s-0.03.48-.03,0.6a3.539,3.539,0,0,1-1.83,2.88,0.194,0.194,0,0,0-.18.15,0.256,0.256,0,0,0,.18.09C229.53,64.9,231.27,62.294,231.27,60.194Zm21.569-15.839v-2.94a4.086,4.086,0,0,0-2.82-.87c-2.64,0-4.2,1.32-4.77,5.159l-0.24,1.68H243.63l-0.24,1.47h1.379l-1.379,9.269c-0.84,5.55-2.91,6.06-3.84,6.24a1.951,1.951,0,0,0,1.95,1.2c2.25,0,4.169-1.47,4.919-6.719l1.41-9.989h3.81l0.24-1.47h-3.84l0.33-2.4c0.24-1.56.66-3,2.13-3C252.059,41.986,252.839,44.356,252.839,44.356Zm12.329,9.179c0-4.32-1.92-6.569-5.429-6.569-3.9,0-6.96,3.42-6.96,7.949,0,4.11,2.46,6.6,6.15,6.6a6.2,6.2,0,0,0,5.939-4.83,6.767,6.767,0,0,1-4.859,2.64c-1.89,0-4.02-1.26-4.02-4.53a5.793,5.793,0,0,1,.12-1.26h9.059Zm-2.909-1.41h-5.91c0.54-2.25,1.71-3.81,3.3-3.81C261.779,48.315,262.259,50.625,262.259,52.125Zm19.229-5.16-3.18.96a5.747,5.747,0,0,0-3.179-.96c-3.15,0-7.02,2.34-7.02,9.149,0,2.76,1.08,5.4,4.35,5.4a5.633,5.633,0,0,0,3.96-1.74,1.388,1.388,0,0,0,1.559,1.65c0.36,0,2.37-.06,2.82-0.15-0.84-.39-1.05-0.9-1.05-3.24A75.805,75.805,0,0,1,281.488,46.966ZM277.708,50c-0.119.75-.479,2.91-0.569,3.45-0.24,1.44-.51,3.18-0.66,4.83a3.956,3.956,0,0,1-2.61,1.32c-0.93,0-2.55-.84-2.55-3.84,0-3.06,1.38-7.349,4.26-7.349A2.209,2.209,0,0,1,277.708,50Zm15.51-2.64h-3.959l0.57-3.18-5.34,4.77h1.5l-1.29,7.889a6.769,6.769,0,0,0-.09,1.05c0,2.49,1.38,3.63,3.63,3.63a3.731,3.731,0,0,0,3.9-2.91,3.25,3.25,0,0,1-2.4,1.05c-0.81,0-1.92-.36-1.92-2.31a5.068,5.068,0,0,1,.09-0.9l1.08-7.5h3.989Zm15.06-.39-4.2.72c0.54,0.21.69,0.81,0.54,2.22a12.346,12.346,0,0,1-.15,1.35l-0.27,1.65c-0.36,2.25-.72,4.65-0.809,5.34a3.783,3.783,0,0,1-2.61,1.23c-1.29,0-2.04-.75-2.04-2.52a23.979,23.979,0,0,1,.33-3.57l0.96-6.419-4.17.72a1.061,1.061,0,0,1,.66,1.23,17.13,17.13,0,0,1-.15,1.8l-0.6,3.75a15.113,15.113,0,0,0-.24,2.85c0,2.61,1.38,4.2,3.9,4.2a6.182,6.182,0,0,0,3.96-1.74,1.387,1.387,0,0,0,1.559,1.65c0.36,0,2.37-.06,2.82-0.15-0.84-.39-1.05-0.9-1.05-3.24C306.718,55.9,308.278,46.966,308.278,46.966Zm13.53,3.72c0-2.61-.81-3.72-2.579-3.72-2.22,0-3.24,2.7-3.24,2.7l0.42-2.7-4.08.72a1.657,1.657,0,0,1,.6,1.59,8.706,8.706,0,0,1-.12,1.44l-1.32,8.579c-0.21,1.41-.54,1.74-1.02,1.98h4.68a1.707,1.707,0,0,1-.51-1.5c0-.27.03-0.6,0.06-0.93l0.81-5.31c0.27-1.74,1.35-4.08,3.54-4.08A3.5,3.5,0,0,1,321.808,50.685Zm8.25-7.919a1.785,1.785,0,1,0-1.8,1.8A1.812,1.812,0,0,0,330.058,42.766Zm-0.87,4.2-4.139.72a1.2,1.2,0,0,1,.66,1.38,10.053,10.053,0,0,1-.18,1.65l-0.36,2.43a54.332,54.332,0,0,0-.72,6.6,1.49,1.49,0,0,0,1.68,1.68c0.359,0,2.279-.06,2.729-0.15-0.81-.39-1.05-0.9-1.05-3.24a53.846,53.846,0,0,1,.63-6.119Zm16.53,14.309c-0.81-.39-1.02-0.9-1.02-3.24,0-1.71.42-5.01,0.42-5.969,0-3.54-1.77-5.1-4.2-5.1a4.4,4.4,0,0,0-3.87,2.28l0.33-2.31-4.079.72c0.33,0.12.63,0.6,0.63,1.68a13.584,13.584,0,0,1-.12,1.38l-1.32,8.579c-0.21,1.29-.54,1.74-0.99,1.98h4.589a1.641,1.641,0,0,1-.57-1.5,5.674,5.674,0,0,1,.09-0.93l1.2-7.859a3.314,3.314,0,0,1,2.7-1.95c1.47,0,2.46.99,2.46,3.03,0,2.37-.48,5.279-0.48,7.679a1.41,1.41,0,0,0,1.56,1.68C343.408,61.424,345.3,61.364,345.718,61.274Zm16.41-14.309-2.97.99a5.342,5.342,0,0,0-3.21-.99c-3.149,0-7.079,2.43-7.079,8.7,0,2.76,1.17,5.4,4.47,5.4a5.83,5.83,0,0,0,3.749-1.56l-0.27,1.98c-0.42,3.18-1.95,4.77-4.319,4.77-2.67,0-4.14-2.28-4.47-4.32l-0.33,4.11a7.9,7.9,0,0,0,4.95,1.77c4.259,0,6.929-1.71,7.469-6.839,0.21-1.77.39-3.75,0.51-4.5ZM358.438,50l-0.72,4.59c-0.21,1.26-.39,2.55-0.48,3.24a4.439,4.439,0,0,1-2.61,1.32c-0.929,0-2.519-.84-2.519-3.84,0-2.94,1.05-6.9,4.319-6.9A2.291,2.291,0,0,1,358.438,50Zm25.739,2.82c0-3.78-2.489-5.849-5.579-5.849-4.8,0-7.409,4.56-7.409,8.669,0,3.75,2.459,5.88,5.579,5.88C381.688,61.514,384.177,57.045,384.177,52.815Zm-3.179.03c0,3.48-1.26,7.289-3.87,7.289-1.5,0-2.76-1.92-2.76-4.5,0-3.42,1.26-7.289,3.84-7.289C379.738,48.345,381,50.265,381,52.845Zm19.469-5.879-4.2.72c0.539,0.21.689,0.81,0.539,2.22a12.346,12.346,0,0,1-.15,1.35l-0.27,1.65c-0.359,2.25-.719,4.65-0.809,5.34a3.783,3.783,0,0,1-2.61,1.23c-1.29,0-2.04-.75-2.04-2.52a23.979,23.979,0,0,1,.33-3.57l0.96-6.419-4.17.72a1.061,1.061,0,0,1,.66,1.23,17.13,17.13,0,0,1-.15,1.8l-0.6,3.75a15.113,15.113,0,0,0-.24,2.85c0,2.61,1.38,4.2,3.9,4.2a6.182,6.182,0,0,0,3.96-1.74,1.388,1.388,0,0,0,1.559,1.65c0.36,0,2.37-.06,2.82-0.15-0.84-.39-1.05-0.9-1.05-3.24C398.907,55.9,400.467,46.966,400.467,46.966ZM414,50.685c0-2.61-.809-3.72-2.579-3.72-2.22,0-3.24,2.7-3.24,2.7l0.42-2.7-4.08.72a1.657,1.657,0,0,1,.6,1.59,8.706,8.706,0,0,1-.12,1.44l-1.32,8.579c-0.21,1.41-.54,1.74-1.02,1.98h4.68a1.707,1.707,0,0,1-.51-1.5c0-.27.03-0.6,0.06-0.93l0.81-5.31c0.27-1.74,1.35-4.08,3.54-4.08A3.5,3.5,0,0,1,414,50.685Zm19.32-2.52a7.122,7.122,0,0,0-3.9-1.2c-5.189,0-7.559,4.32-7.559,8.219,0,3.42,1.62,6.329,5.31,6.329a5.562,5.562,0,0,0,5.429-4.23,5.18,5.18,0,0,1-3.87,1.98c-2.279,0-3.6-1.68-3.6-4.53,0-3.12,1.41-6.329,4.469-6.329a3.729,3.729,0,0,1,3.36,3.06Zm15.42,4.65c0-3.78-2.49-5.849-5.58-5.849-4.8,0-7.409,4.56-7.409,8.669,0,3.75,2.46,5.88,5.58,5.88C446.247,61.514,448.737,57.045,448.737,52.815Zm-3.18.03c0,3.48-1.26,7.289-3.87,7.289-1.5,0-2.759-1.92-2.759-4.5,0-3.42,1.26-7.289,3.839-7.289C444.3,48.345,445.557,50.265,445.557,52.845Zm19.44-.03c0-3.78-2.49-5.849-5.58-5.849-4.8,0-7.409,4.56-7.409,8.669,0,3.75,2.46,5.88,5.58,5.88C462.507,61.514,465,57.045,465,52.815Zm-3.18.03c0,3.48-1.26,7.289-3.87,7.289-1.5,0-2.759-1.92-2.759-4.5,0-3.42,1.26-7.289,3.839-7.289C460.557,48.345,461.817,50.265,461.817,52.845Zm12.33-12.209-4.169.72a1.181,1.181,0,0,1,.66,1.35,8.667,8.667,0,0,1-.15,1.59l-1.41,9.029a52.192,52.192,0,0,0-.72,6.45,1.489,1.489,0,0,0,1.71,1.65c0.36,0,2.28-.06,2.7-0.15-0.81-.36-1.02-0.87-1.02-3.18a45.463,45.463,0,0,1,.63-5.969Zm14.46,12.9c0-4.32-1.92-6.569-5.429-6.569-3.9,0-6.96,3.42-6.96,7.949,0,4.11,2.46,6.6,6.15,6.6a6.2,6.2,0,0,0,5.939-4.83,6.769,6.769,0,0,1-4.859,2.64c-1.89,0-4.02-1.26-4.02-4.53a5.793,5.793,0,0,1,.12-1.26h9.059Zm-2.91-1.41h-5.909c0.54-2.25,1.71-3.81,3.3-3.81C485.217,48.315,485.7,50.625,485.7,52.125Zm14.28-4.23a6.409,6.409,0,0,0-3.569-.93c-2.07,0-4.26,1.2-4.26,3.96a4.753,4.753,0,0,0,2.01,3.45c1.26,1.08,2.37,1.98,2.37,3.39a2.039,2.039,0,0,1-2.16,2.16c-1.56,0-2.64-1.26-3.06-3.57l-0.27,3.72a4.913,4.913,0,0,0,3.9,1.44c2.22,0,4.889-1.23,4.889-4.23,0-1.89-1.409-3.27-3-4.56-1.2-.96-1.65-1.65-1.65-2.61a1.726,1.726,0,0,1,1.86-1.77c1.86,0,2.49,1.92,2.819,3Zm12.09-.54h-3.959l0.569-3.18-5.339,4.77h1.5l-1.29,7.889a6.769,6.769,0,0,0-.09,1.05c0,2.49,1.38,3.63,3.63,3.63a3.732,3.732,0,0,0,3.9-2.91,3.255,3.255,0,0,1-2.4,1.05c-0.809,0-1.919-.36-1.919-2.31a5.068,5.068,0,0,1,.09-0.9l1.08-7.5h3.989Zm-500.817,40H7.29l0.57-3.18-5.34,4.77h1.5L2.73,96.835a6.769,6.769,0,0,0-.09,1.05c0,2.489,1.38,3.629,3.63,3.629a3.732,3.732,0,0,0,3.9-2.909,3.255,3.255,0,0,1-2.4,1.05c-0.81,0-1.92-.36-1.92-2.31a5.069,5.069,0,0,1,.09-0.9l1.08-7.5h3.99Zm13.23,6.179c0-4.32-1.92-6.569-5.429-6.569-3.9,0-6.959,3.42-6.959,7.949,0,4.11,2.46,6.6,6.149,6.6a6.2,6.2,0,0,0,5.94-4.829,6.768,6.768,0,0,1-4.86,2.64c-1.89,0-4.02-1.26-4.02-4.53a5.792,5.792,0,0,1,.12-1.26h9.059Zm-2.91-1.41H15.66c0.54-2.25,1.71-3.81,3.3-3.81C21.09,88.315,21.57,90.625,21.57,92.125Zm17.28-3.96a7.121,7.121,0,0,0-3.9-1.2c-5.19,0-7.559,4.32-7.559,8.219,0,3.42,1.62,6.329,5.31,6.329a5.562,5.562,0,0,0,5.43-4.229,5.179,5.179,0,0,1-3.87,1.98c-2.28,0-3.6-1.68-3.6-4.53,0-3.12,1.41-6.329,4.47-6.329a3.729,3.729,0,0,1,3.36,3.06Zm15.66,13.109c-0.81-.39-1.02-0.9-1.02-3.24,0-1.71.39-5.009,0.39-5.969,0-3.54-1.74-5.1-4.17-5.1a4.379,4.379,0,0,0-3.84,2.22l1.41-8.639-4.2.75c0.39,0.09.6,0.57,0.6,1.47a13.528,13.528,0,0,1-.21,2.19l-2.22,14.339c-0.18,1.29-.51,1.74-0.99,1.98h4.62a1.64,1.64,0,0,1-.57-1.5,5.331,5.331,0,0,1,.06-0.93l1.23-7.859a3.313,3.313,0,0,1,2.7-1.95c1.44,0,2.43.87,2.43,3.03,0,2.37-.45,5.28-0.45,7.679a1.4,1.4,0,0,0,1.56,1.68C52.2,101.424,54.09,101.364,54.51,101.274Zm16.44,0c-0.81-.39-1.02-0.9-1.02-3.24,0-1.71.42-5.009,0.42-5.969,0-3.54-1.77-5.1-4.2-5.1a4.4,4.4,0,0,0-3.87,2.28l0.33-2.31-4.08.72c0.33,0.12.63,0.6,0.63,1.68a13.584,13.584,0,0,1-.12,1.38l-1.32,8.579c-0.21,1.29-.54,1.74-0.99,1.98h4.59a1.64,1.64,0,0,1-.57-1.5,5.674,5.674,0,0,1,.09-0.93l1.2-7.859a3.313,3.313,0,0,1,2.7-1.95c1.47,0,2.46.99,2.46,3.03,0,2.37-.48,5.28-0.48,7.679a1.41,1.41,0,0,0,1.56,1.68C68.64,101.424,70.53,101.364,70.949,101.274Zm15.96-8.459c0-3.78-2.49-5.849-5.58-5.849-4.8,0-7.409,4.56-7.409,8.669,0,3.75,2.46,5.879,5.579,5.879C84.42,101.514,86.909,97.045,86.909,92.815Zm-3.18.03c0,3.48-1.26,7.289-3.87,7.289-1.5,0-2.76-1.919-2.76-4.5,0-3.42,1.26-7.289,3.84-7.289C82.47,88.345,83.73,90.265,83.73,92.845ZM96.06,80.636l-4.17.72a1.181,1.181,0,0,1,.66,1.35,8.674,8.674,0,0,1-.15,1.59l-1.41,9.029a52.192,52.192,0,0,0-.72,6.45,1.489,1.489,0,0,0,1.71,1.65c0.36,0,2.28-.06,2.7-0.15-0.81-.36-1.02-0.87-1.02-3.18a45.463,45.463,0,0,1,.63-5.969Zm15.06,12.179c0-3.78-2.49-5.849-5.58-5.849-4.8,0-7.409,4.56-7.409,8.669,0,3.75,2.459,5.879,5.579,5.879C108.63,101.514,111.12,97.045,111.12,92.815Zm-3.18.03c0,3.48-1.26,7.289-3.87,7.289-1.5,0-2.76-1.919-2.76-4.5,0-3.42,1.26-7.289,3.84-7.289C106.68,88.345,107.94,90.265,107.94,92.845Zm19.769-5.879-2.969.99a5.342,5.342,0,0,0-3.21-.99c-3.15,0-7.079,2.43-7.079,8.7,0,2.76,1.169,5.4,4.469,5.4a5.832,5.832,0,0,0,3.75-1.56l-0.27,1.98c-0.42,3.18-1.95,4.77-4.32,4.77-2.669,0-4.139-2.28-4.469-4.32l-0.33,4.11a7.9,7.9,0,0,0,4.949,1.77c4.26,0,6.93-1.71,7.47-6.84,0.21-1.77.39-3.749,0.51-4.5ZM124.02,90l-0.72,4.59c-0.21,1.26-.39,2.55-0.48,3.24a4.439,4.439,0,0,1-2.61,1.32c-0.93,0-2.52-.84-2.52-3.84,0-2.94,1.05-6.9,4.32-6.9A2.291,2.291,0,0,1,124.02,90Zm22.469-2.61a5.067,5.067,0,0,0-2.1-.81c-1.74,0-3.51,1.89-4.53,4.26-0.15.36-1.469,3.27-2.969,6.6L135.15,90.3a6.765,6.765,0,0,1-.24-1.53,1.38,1.38,0,0,1,.66-1.38h-5.22a4.1,4.1,0,0,1,1.35,2.34l3.33,11.639c-1.41,2.61-2.94,4.35-4.62,4.35a2.438,2.438,0,0,1-2.22-.9,3.267,3.267,0,0,0-.54,1.65,2.075,2.075,0,0,0,2.1,2.04c3.9,0,5.85-5.16,7.68-8.88C138.66,97.1,143.309,87.386,146.489,87.386Zm18.81,6.149c0-4.32-1.92-6.569-5.43-6.569-3.9,0-6.959,3.42-6.959,7.949,0,4.11,2.46,6.6,6.149,6.6A6.2,6.2,0,0,0,165,96.685a6.769,6.769,0,0,1-4.86,2.64c-1.89,0-4.02-1.26-4.02-4.53a5.792,5.792,0,0,1,.12-1.26h9.06Zm-2.91-1.41h-5.91c0.54-2.25,1.71-3.81,3.3-3.81C161.909,88.315,162.389,90.625,162.389,92.125Zm18.27-.75c0-3.3-1.95-4.68-3.6-4.68a3.39,3.39,0,0,0-2.28.66c1.29,0.12,2.88,1.62,2.88,4.8,0,5.909-4.019,7.289-4.019,7.289L171.99,90.3a8.13,8.13,0,0,1-.12-1.2,1.68,1.68,0,0,1,.81-1.71h-5.1a3.355,3.355,0,0,1,1.14,2.34l2.16,11.819C176.609,101.544,180.659,95.3,180.659,91.375Zm15.45,2.16c0-4.32-1.92-6.569-5.43-6.569-3.9,0-6.959,3.42-6.959,7.949,0,4.11,2.46,6.6,6.149,6.6a6.2,6.2,0,0,0,5.94-4.829,6.769,6.769,0,0,1-4.86,2.64c-1.889,0-4.019-1.26-4.019-4.53a5.792,5.792,0,0,1,.12-1.26h9.059Zm-2.91-1.41H187.29c0.54-2.25,1.71-3.81,3.3-3.81C192.719,88.315,193.2,90.625,193.2,92.125Zm16.05-1.44c0-2.61-.81-3.72-2.579-3.72-2.22,0-3.24,2.7-3.24,2.7l0.42-2.7-4.08.72a1.657,1.657,0,0,1,.6,1.59,8.706,8.706,0,0,1-.12,1.44l-1.32,8.579c-0.21,1.41-.54,1.74-1.02,1.98h4.68a1.707,1.707,0,0,1-.51-1.5c0-.27.03-0.6,0.06-0.93l0.81-5.31c0.27-1.74,1.35-4.08,3.54-4.08A3.5,3.5,0,0,1,209.249,90.685Zm3.481,8.969a1.83,1.83,0,1,0-1.83,1.86A1.837,1.837,0,0,0,212.73,99.654Z"/>
  </g>
</svg>
