<svg id="shirts_copy" data-name="shirts copy" xmlns="http://www.w3.org/2000/svg" width="768" height="1123" viewBox="0 0 768 1123">
  <defs>
    <style>
      .cls-1, .cls-2, .cls-3, .cls-4 {
        fill-rule: evenodd;
      }

      .cls-2 {
        fill: #b03f25;
      }

      .cls-3 {
        fill: #fff;
      }

      .cls-4 {
        fill: #272727;
        opacity: 0.3;
      }
    </style>
  </defs>
  <path id="Breezy_and_lightweight_so_you_can_float_through_the_day." data-name="Breezy and lightweight so you  can float through the day." class="cls-1" d="M179.563,908.534h6.706c3.8,0,6.284-2.35,6.284-5.465a4.466,4.466,0,0,0-3.247-4.488,4.248,4.248,0,0,0,2.007-3.828c0-2.64-2.113-4.963-5.6-4.963h-6.152v18.744Zm2.455-10.692v-5.834h3.7a2.947,2.947,0,0,1,3.195,2.93,2.885,2.885,0,0,1-3.195,2.9h-3.7Zm0,8.474v-6.362H186.4c2.482,0,3.75,1.373,3.75,3.194,0,1.848-1.268,3.168-3.776,3.168h-4.357Zm15.365,2.218h2.271v-6.547c0-3.089,1.822-4.541,3.485-4.541a3.329,3.329,0,0,1,1.241.211v-2.349a4.664,4.664,0,0,0-1.03-.106,3.927,3.927,0,0,0-3.7,2.693v-2.561h-2.271v13.2Zm9.742-6.6a6.96,6.96,0,0,0,12.779,3.722l-1.795-1.241a4.674,4.674,0,0,1-8.687-2.032h10.825a6.311,6.311,0,0,0,.027-0.687c-0.027-4.224-2.826-6.626-6.284-6.626A6.689,6.689,0,0,0,207.125,901.934Zm6.785-4.858a3.95,3.95,0,0,1,4.04,3.459h-8.37A4.316,4.316,0,0,1,213.91,897.076Zm10.137,4.858a6.96,6.96,0,0,0,12.779,3.722l-1.795-1.241a4.674,4.674,0,0,1-8.687-2.032h10.825a6.311,6.311,0,0,0,.027-0.687c-0.027-4.224-2.825-6.626-6.284-6.626A6.689,6.689,0,0,0,224.047,901.934Zm6.786-4.858a3.95,3.95,0,0,1,4.039,3.459H226.5A4.316,4.316,0,0,1,230.833,897.076Zm10.083,11.458h10.72v-2.086h-7.763l7.526-9.293v-1.821H241.022v2.085h7.472l-7.578,9.319v1.8Zm18.956,5.517,8.66-18.717H266l-4.515,10.005-4.542-10.005h-2.508l5.782,12.513-2.878,6.2h2.535ZM278.8,901.934a6.606,6.606,0,0,0,6.469,6.864,5.79,5.79,0,0,0,4.647-2.3v2.033h2.271v-13.2h-2.271v2.033a5.79,5.79,0,0,0-4.647-2.3A6.606,6.606,0,0,0,278.8,901.934Zm11.3,0a4.51,4.51,0,1,1-4.489-4.779A4.507,4.507,0,0,1,290.1,901.934Zm7.944,6.6h2.271v-6.547c0-3.089,1.69-4.832,3.829-4.832,1.848,0,3.115,1.373,3.115,3.591v7.788h2.245V900.4c0-3.274-2.033-5.333-4.991-5.333a4.668,4.668,0,0,0-4.2,2.3v-2.033h-2.271v13.2Zm16.1-6.6a6.606,6.606,0,0,0,6.469,6.864,5.79,5.79,0,0,0,4.647-2.3v2.033h2.271v-19.8h-2.271v8.633a5.79,5.79,0,0,0-4.647-2.3A6.606,6.606,0,0,0,314.149,901.934Zm11.3,0a4.51,4.51,0,1,1-4.489-4.779A4.507,4.507,0,0,1,325.45,901.934Zm15.97,6.6h2.271v-19.8H341.42v19.8Zm10.9-18.348a1.594,1.594,0,0,0-1.584-1.61,1.639,1.639,0,0,0-1.637,1.61,1.622,1.622,0,0,0,1.637,1.61A1.577,1.577,0,0,0,352.323,890.186Zm-2.746,18.348h2.271v-13.2h-2.271v13.2Zm20.462-.766V895.334h-2.271v2.033a5.617,5.617,0,0,0-4.594-2.3,6.724,6.724,0,0,0,0,13.437,5.637,5.637,0,0,0,4.594-2.323v1.5a4.22,4.22,0,0,1-4.409,4.567,5.647,5.647,0,0,1-4.621-2.218l-1.584,1.584a7.834,7.834,0,0,0,6.231,2.693C367.134,914.315,370.039,912.177,370.039,907.768Zm-11.011-5.993a4.465,4.465,0,1,1,4.463,4.62A4.4,4.4,0,0,1,359.028,901.775Zm16.87,6.759h2.27v-6.547c0-3.089,1.69-4.832,3.829-4.832,1.848,0,3.115,1.373,3.115,3.591v7.788h2.245V900.4c0-3.274-2.033-5.333-4.991-5.333a4.668,4.668,0,0,0-4.2,2.3v-8.633H375.9v19.8Zm24.13-.185v-2.033a5.028,5.028,0,0,1-1.611.264c-1.425,0-2.191-.554-2.191-2.244v-6.917h3.8v-2.085h-3.8v-3.669h-2.271v3.669h-2.8v2.085h2.8v7.207a3.717,3.717,0,0,0,4.04,4.04A6.312,6.312,0,0,0,400.028,908.349Zm15.682,0.185h2.007l4.488-13.2h-2.4l-3.195,9.636-3.3-9.636h-1.742l-3.3,9.636-3.195-9.636h-2.376l4.489,13.2h2.006l3.274-9.5Zm9.449-6.6a6.96,6.96,0,0,0,12.78,3.722l-1.8-1.241a4.674,4.674,0,0,1-8.687-2.032h10.826a6.553,6.553,0,0,0,.026-0.687c-0.026-4.224-2.825-6.626-6.284-6.626A6.689,6.689,0,0,0,425.159,901.934Zm6.786-4.858a3.95,3.95,0,0,1,4.04,3.459h-8.37A4.315,4.315,0,0,1,431.945,897.076Zm13.912-6.89a1.594,1.594,0,0,0-1.584-1.61,1.639,1.639,0,0,0-1.637,1.61,1.622,1.622,0,0,0,1.637,1.61A1.577,1.577,0,0,0,445.857,890.186Zm-2.746,18.348h2.271v-13.2h-2.271v13.2Zm20.462-.766V895.334H461.3v2.033a5.617,5.617,0,0,0-4.594-2.3,6.724,6.724,0,0,0,0,13.437,5.637,5.637,0,0,0,4.594-2.323v1.5a4.22,4.22,0,0,1-4.409,4.567,5.646,5.646,0,0,1-4.621-2.218l-1.584,1.584a7.834,7.834,0,0,0,6.231,2.693C460.668,914.315,463.573,912.177,463.573,907.768Zm-11.011-5.993a4.465,4.465,0,1,1,4.463,4.62A4.4,4.4,0,0,1,452.562,901.775Zm16.87,6.759h2.27v-6.547c0-3.089,1.69-4.832,3.829-4.832,1.848,0,3.115,1.373,3.115,3.591v7.788h2.245V900.4c0-3.274-2.033-5.333-4.991-5.333a4.668,4.668,0,0,0-4.2,2.3v-8.633h-2.27v19.8Zm24.13-.185v-2.033a5.028,5.028,0,0,1-1.611.264c-1.425,0-2.191-.554-2.191-2.244v-6.917h3.8v-2.085h-3.8v-3.669h-2.271v3.669h-2.8v2.085h2.8v7.207a3.717,3.717,0,0,0,4.04,4.04A6.317,6.317,0,0,0,493.562,908.349Zm21.067-3.485c0-1.98-1.241-3.247-3.485-3.986l-1.426-.475c-1.558-.5-2.033-1-2.033-1.848,0-.977.977-1.532,2.218-1.532a3.565,3.565,0,0,1,2.8,1.373l1.479-1.425a5.118,5.118,0,0,0-4.225-1.9c-2.614,0-4.462,1.452-4.462,3.59,0,1.848,1.136,3.142,3.274,3.828l1.294,0.422c1.716,0.555,2.35,1.188,2.35,2.112,0,1.136-1.03,1.8-2.324,1.8a3.542,3.542,0,0,1-3.379-2.086l-1.848,1a5.244,5.244,0,0,0,5.175,3.063C512.7,908.8,514.629,907.451,514.629,904.864Zm17.583-2.93a6.9,6.9,0,1,0-6.892,6.864A6.774,6.774,0,0,0,532.212,901.934Zm-11.486,0a4.584,4.584,0,1,1,4.594,4.752A4.537,4.537,0,0,1,520.726,901.934Zm27.245,12.117,8.66-18.717H554.1l-4.515,10.005-4.541-10.005h-2.509l5.783,12.513-2.878,6.2h2.535Zm24.976-12.117a6.905,6.905,0,1,0-6.892,6.864A6.774,6.774,0,0,0,572.947,901.934Zm-11.486,0a4.584,4.584,0,1,1,4.594,4.752A4.537,4.537,0,0,1,561.461,901.934Zm16.13,1.5c0,3.274,1.954,5.36,4.858,5.36a4.542,4.542,0,0,0,4.066-2.3v2.033h2.271v-13.2h-2.271v6.547c0,3.036-1.61,4.831-3.67,4.831-1.822,0-2.983-1.4-2.983-3.617v-7.761h-2.271v8.1ZM217.739,947.253l-1.98-1.109a4.475,4.475,0,0,1-4.119,2.534,4.754,4.754,0,0,1,0-9.5,4.476,4.476,0,0,1,4.119,2.535l1.98-1.109a6.838,6.838,0,0,0-6.1-3.538,6.864,6.864,0,1,0,0,13.728A6.839,6.839,0,0,0,217.739,947.253Zm3.483-3.327a6.606,6.606,0,0,0,6.469,6.864,5.792,5.792,0,0,0,4.647-2.3v2.033h2.27v-13.2h-2.27v2.033a5.792,5.792,0,0,0-4.647-2.3A6.606,6.606,0,0,0,221.222,943.926Zm11.3,0a4.51,4.51,0,1,1-4.488-4.778A4.507,4.507,0,0,1,232.522,943.926Zm7.945,6.6h2.271v-6.547c0-3.089,1.69-4.831,3.828-4.831,1.849,0,3.116,1.373,3.116,3.59v7.788h2.244V942.4c0-3.273-2.033-5.333-4.99-5.333a4.67,4.67,0,0,0-4.2,2.3v-2.033h-2.271v13.2Zm25.925,0h2.271V939.412h3.828v-2.086h-3.828V934.9c0-1.663.739-2.244,2.191-2.244a5.3,5.3,0,0,1,1.637.264v-2.006a5.979,5.979,0,0,0-2.059-.344,3.77,3.77,0,0,0-4.04,4.092v2.666h-2.8v2.086h2.8v11.114Zm8.581,0h2.271v-19.8h-2.271v19.8Zm20.883-6.6a6.905,6.905,0,1,0-6.892,6.864A6.775,6.775,0,0,0,295.856,943.926Zm-11.486,0a4.584,4.584,0,1,1,4.594,4.752A4.537,4.537,0,0,1,284.37,943.926Zm15.285,0a6.606,6.606,0,0,0,6.469,6.864,5.79,5.79,0,0,0,4.647-2.3v2.033h2.271v-13.2h-2.271v2.033a5.79,5.79,0,0,0-4.647-2.3A6.606,6.606,0,0,0,299.655,943.926Zm11.3,0a4.51,4.51,0,1,1-4.489-4.778A4.508,4.508,0,0,1,310.956,943.926Zm15.1,6.415v-2.032a5.033,5.033,0,0,1-1.611.264c-1.426,0-2.191-.555-2.191-2.244v-6.917h3.8v-2.086h-3.8v-3.669h-2.271v3.669h-2.8v2.086h2.8v7.207a3.716,3.716,0,0,0,4.04,4.039A6.317,6.317,0,0,0,326.056,950.341Zm19.219,0v-2.032a5.033,5.033,0,0,1-1.611.264c-1.426,0-2.191-.555-2.191-2.244v-6.917h3.8v-2.086h-3.8v-3.669H339.2v3.669h-2.8v2.086h2.8v7.207a3.716,3.716,0,0,0,4.04,4.039A6.317,6.317,0,0,0,345.275,950.341Zm4.487,0.185h2.27v-6.547c0-3.089,1.69-4.831,3.829-4.831,1.848,0,3.116,1.373,3.116,3.59v7.788h2.244V942.4c0-3.273-2.033-5.333-4.991-5.333a4.67,4.67,0,0,0-4.2,2.3v-8.632h-2.27v19.8Zm17.133,0h2.271v-6.547c0-3.089,1.821-4.541,3.485-4.541a3.31,3.31,0,0,1,1.241.212V937.3a4.725,4.725,0,0,0-1.03-.106,3.928,3.928,0,0,0-3.7,2.693v-2.561H366.9v13.2Zm23.524-6.6a6.9,6.9,0,1,0-6.891,6.864A6.775,6.775,0,0,0,390.419,943.926Zm-11.485,0a4.584,4.584,0,1,1,4.594,4.752A4.537,4.537,0,0,1,378.934,943.926Zm16.13,1.5c0,3.274,1.953,5.359,4.858,5.359a4.543,4.543,0,0,0,4.066-2.3v2.033h2.271v-13.2h-2.271v6.547c0,3.036-1.611,4.832-3.67,4.832-1.822,0-2.984-1.4-2.984-3.617v-7.762h-2.27v8.105Zm29.358,4.329V937.326h-2.271v2.033a5.617,5.617,0,0,0-4.594-2.3,6.725,6.725,0,0,0,0,13.438,5.64,5.64,0,0,0,4.594-2.323v1.5a4.22,4.22,0,0,1-4.409,4.567,5.649,5.649,0,0,1-4.621-2.217l-1.584,1.584a7.839,7.839,0,0,0,6.231,2.692C421.518,956.307,424.422,954.169,424.422,949.76Zm-11.01-5.992a4.465,4.465,0,1,1,4.462,4.62A4.4,4.4,0,0,1,413.412,943.768Zm16.869,6.758h2.27v-6.547c0-3.089,1.69-4.831,3.829-4.831,1.848,0,3.116,1.373,3.116,3.59v7.788h2.244V942.4c0-3.273-2.033-5.333-4.99-5.333a4.671,4.671,0,0,0-4.2,2.3v-8.632h-2.27v19.8Zm31.865-.185v-2.032a5.028,5.028,0,0,1-1.611.264c-1.425,0-2.191-.555-2.191-2.244v-6.917h3.8v-2.086h-3.8v-3.669h-2.271v3.669h-2.8v2.086h2.8v7.207a3.716,3.716,0,0,0,4.04,4.039A6.312,6.312,0,0,0,462.146,950.341Zm4.487,0.185H468.9v-6.547c0-3.089,1.689-4.831,3.828-4.831,1.848,0,3.116,1.373,3.116,3.59v7.788h2.244V942.4c0-3.273-2.033-5.333-4.99-5.333a4.669,4.669,0,0,0-4.2,2.3v-8.632h-2.271v19.8Zm16.1-6.6a6.961,6.961,0,0,0,12.78,3.723l-1.8-1.241a4.674,4.674,0,0,1-8.686-2.033h10.825a6.294,6.294,0,0,0,.027-0.686c-0.027-4.224-2.826-6.627-6.285-6.627A6.69,6.69,0,0,0,482.736,943.926Zm6.786-4.857a3.949,3.949,0,0,1,4.04,3.458h-8.37A4.315,4.315,0,0,1,489.522,939.069Zm18.162,4.857a6.606,6.606,0,0,0,6.469,6.864,5.79,5.79,0,0,0,4.647-2.3v2.033h2.271v-19.8H518.8v8.632a5.79,5.79,0,0,0-4.647-2.3A6.606,6.606,0,0,0,507.684,943.926Zm11.3,0a4.51,4.51,0,1,1-4.489-4.778A4.508,4.508,0,0,1,518.985,943.926Zm6.915,0a6.606,6.606,0,0,0,6.469,6.864,5.792,5.792,0,0,0,4.647-2.3v2.033h2.27v-13.2h-2.27v2.033a5.792,5.792,0,0,0-4.647-2.3A6.606,6.606,0,0,0,525.9,943.926Zm11.3,0a4.51,4.51,0,1,1-4.489-4.778A4.508,4.508,0,0,1,537.2,943.926Zm11.456,12.117,8.66-18.717h-2.534l-4.515,10.006-4.542-10.006h-2.508L549,949.84l-2.878,6.2h2.535Zm14.361-7.286a1.954,1.954,0,1,0-1.953,1.98A1.989,1.989,0,0,0,563.018,948.757Z"/>
  <g id="CTA_black_copy" data-name="CTA_black copy">
    <path class="cls-2" d="M407.993,1004.24H708.011v59.98H407.993v-59.98Z"/>
    <path id="shop_shirts" data-name="shop shirts" class="cls-3" d="M492.236,1041.67c2.6,0,4.385-1.62,4.4-3.94a3.916,3.916,0,0,0-2.929-3.81l-0.866-.33c-1.3-.48-1.906-0.79-1.906-1.47a1.267,1.267,0,0,1,1.49-.98,2.708,2.708,0,0,1,2.132,1.07l1.8-1.98a5.045,5.045,0,0,0-3.969-1.77c-2.46,0-4.245,1.46-4.245,3.94,0,1.75,1.109,2.99,3.1,3.69l0.866,0.31c1.23,0.43,1.716.88,1.716,1.53a1.257,1.257,0,0,1-1.491,1.06,3.186,3.186,0,0,1-2.547-1.46l-2.114,1.86A5.323,5.323,0,0,0,492.236,1041.67Zm9.426-.21h2.755v-5.06h4.956v5.06h2.756v-12.78h-2.756v5h-4.956v-5h-2.755v12.78Zm21.85,0.21a6.61,6.61,0,1,0-6.36-6.6A6.5,6.5,0,0,0,523.512,1041.67Zm0-2.77a3.845,3.845,0,1,1,3.57-3.83A3.724,3.724,0,0,1,523.512,1038.9Zm19.892-5.85a4.269,4.269,0,0,0-4.332-4.37H534.9v12.78h2.756v-4.05h1.421A4.255,4.255,0,0,0,543.4,1033.05Zm-2.669,0a1.651,1.651,0,0,1-1.7,1.68h-1.386v-3.35h1.386A1.637,1.637,0,0,1,540.735,1033.05Zm17.673,8.62c2.6,0,4.385-1.62,4.4-3.94a3.916,3.916,0,0,0-2.929-3.81l-0.866-.33c-1.3-.48-1.906-0.79-1.906-1.47a1.267,1.267,0,0,1,1.49-.98,2.7,2.7,0,0,1,2.131,1.07l1.8-1.98a5.045,5.045,0,0,0-3.969-1.77c-2.46,0-4.245,1.46-4.245,3.94,0,1.75,1.109,2.99,3.1,3.69l0.866,0.31c1.23,0.43,1.716.88,1.716,1.53a1.257,1.257,0,0,1-1.491,1.06,3.186,3.186,0,0,1-2.547-1.46l-2.114,1.86A5.322,5.322,0,0,0,558.408,1041.67Zm9.426-.21h2.755v-5.06h4.956v5.06H578.3v-12.78h-2.756v5h-4.956v-5h-2.755v12.78Zm16.183,0h2.756v-12.78h-2.756v12.78Zm8.473,0h2.756v-5.28h0.45l4.09,5.28h3.31l-4.35-5.64a3.27,3.27,0,0,0,2.409-3.29,3.7,3.7,0,0,0-3.813-3.85H592.49v12.78Zm2.756-7.71v-2.44h1.767a1.241,1.241,0,0,1,1.4,1.22,1.258,1.258,0,0,1-1.4,1.22h-1.767Zm13.671,7.71h2.772v-10.05h3.172v-2.73H605.78v2.73h3.137v10.05Zm14.243,0.21c2.6,0,4.384-1.62,4.4-3.94a3.916,3.916,0,0,0-2.929-3.81l-0.867-.33c-1.3-.48-1.906-0.79-1.906-1.47a1.267,1.267,0,0,1,1.491-.98,2.708,2.708,0,0,1,2.131,1.07l1.8-1.98a5.043,5.043,0,0,0-3.968-1.77c-2.461,0-4.246,1.46-4.246,3.94,0,1.75,1.109,2.99,3.1,3.69l0.867,0.31c1.23,0.43,1.715.88,1.715,1.53a1.256,1.256,0,0,1-1.49,1.06,3.186,3.186,0,0,1-2.547-1.46l-2.115,1.86A5.324,5.324,0,0,0,623.16,1041.67Z"/>
  </g>
  <g id="CTA_black_copy_2" data-name="CTA_black copy 2">
    <path class="cls-2" d="M59.993,1004.24H360.011v59.98H59.993v-59.98Z"/>
    <path id="shop_the_look" data-name="shop the look" class="cls-3" d="M128.356,1041.67c2.6,0,4.384-1.62,4.4-3.94a3.916,3.916,0,0,0-2.929-3.81l-0.866-.33c-1.3-.48-1.907-0.79-1.907-1.47a1.267,1.267,0,0,1,1.491-.98,2.708,2.708,0,0,1,2.131,1.07l1.8-1.98a5.043,5.043,0,0,0-3.968-1.77c-2.461,0-4.246,1.46-4.246,3.94,0,1.75,1.109,2.99,3.1,3.69l0.867,0.31c1.23,0.43,1.715.88,1.715,1.53a1.256,1.256,0,0,1-1.49,1.06,3.186,3.186,0,0,1-2.547-1.46l-2.115,1.86A5.325,5.325,0,0,0,128.356,1041.67Zm9.425-.21h2.756v-5.06h4.956v5.06h2.755v-12.78h-2.755v5h-4.956v-5h-2.756v12.78Zm21.851,0.21a6.61,6.61,0,1,0-6.36-6.6A6.5,6.5,0,0,0,159.632,1041.67Zm0-2.77a3.845,3.845,0,1,1,3.57-3.83A3.724,3.724,0,0,1,159.632,1038.9Zm19.892-5.85a4.27,4.27,0,0,0-4.333-4.37h-4.176v12.78h2.755v-4.05h1.421A4.256,4.256,0,0,0,179.524,1033.05Zm-2.669,0a1.651,1.651,0,0,1-1.7,1.68H173.77v-3.35h1.387A1.637,1.637,0,0,1,176.855,1033.05Zm15.715,8.41h2.773v-10.05h3.171v-2.73h-9.081v2.73h3.137v10.05Zm10.743,0h2.755v-5.06h4.956v5.06h2.755v-12.78h-2.755v5h-4.956v-5h-2.755v12.78Zm16.183,0h7.8v-2.74h-5.043v-2.28h4v-2.74h-4v-2.29h5.043v-2.73h-7.8v12.78Zm19.944,0h7.85v-2.74H242.2v-10.04H239.44v12.78Zm17.8,0.21a6.61,6.61,0,1,0-6.36-6.6A6.5,6.5,0,0,0,257.235,1041.67Zm0-2.77a3.845,3.845,0,1,1,3.57-3.83A3.724,3.724,0,0,1,257.235,1038.9Zm17.05,2.77a6.61,6.61,0,1,0-6.36-6.6A6.5,6.5,0,0,0,274.285,1041.67Zm0-2.77a3.845,3.845,0,1,1,3.57-3.83A3.724,3.724,0,0,1,274.285,1038.9Zm11.383,2.56h2.738v-5.73l5.008,5.73h3.535l-5.84-6.64,4.853-6.14h-3.38l-4.176,5.34v-5.34h-2.738v12.78Z"/>
  </g>
  <path id="linen_shirts" data-name="linen shirts" class="cls-3" d="M40.139,406.359H83.623V391.771H55.4V338.217H40.139v68.142Zm58.751,0h15.263V338.217H98.889v68.142Zm97.051,0V338.217H180.581v42.037l-33.118-42.037H134.312v68.142h15.263V364.226l33.214,42.133H195.94Zm20.164,0h43.2V391.771H231.366V379.582h22.175V364.994H231.366V352.805H259.3V338.217H216.1v68.142Zm122.2,0V338.217H322.948v42.037l-33.117-42.037H276.68v68.142h15.262V364.226l33.214,42.133h13.151ZM60.489,485.5c14.4,0,24.286-8.638,24.382-21.018,0.1-10.27-6.336-16.8-16.223-20.347l-4.8-1.728c-7.2-2.591-10.559-4.223-10.559-7.87,0-3.551,4.128-5.183,8.255-5.183a15.161,15.161,0,0,1,11.807,5.663l9.983-10.557c-6.336-6.815-13.727-9.406-21.982-9.406-13.631,0-23.518,7.774-23.518,21.019,0,9.309,6.143,15.932,17.183,19.675l4.8,1.631c6.815,2.3,9.5,4.7,9.5,8.158,0,3.263-3.168,5.663-8.255,5.663a17.831,17.831,0,0,1-14.111-7.774l-11.711,9.885C40.523,480.986,49.738,485.5,60.489,485.5Zm40.7-1.151h15.262v-26.97H143.91v26.97h15.263V416.2H143.91v26.681H116.456V416.2H101.194v68.143Zm78.143,0H194.6V416.2H179.337v68.143Zm35.423,0h15.263V456.225h2.5l22.654,28.121h18.335l-24.094-30.041c8.639-3.071,13.343-8.734,13.343-17.563,0-11.326-8.256-20.539-21.119-20.539H214.76v68.143Zm15.263-41.078V430.215h9.792c4.511,0,7.775,2.4,7.775,6.527,0,3.935-3.264,6.526-7.775,6.526h-9.792Zm64.224,41.078h15.359V430.791h17.567V416.2h-50.3v14.588h17.374v53.555Zm67.392,1.151c14.4,0,24.286-8.638,24.382-21.018,0.1-10.27-6.336-16.8-16.223-20.347L365,442.4c-7.2-2.591-10.559-4.223-10.559-7.87,0-3.551,4.128-5.183,8.256-5.183a15.163,15.163,0,0,1,11.807,5.663l9.983-10.557c-6.336-6.815-13.727-9.406-21.982-9.406-13.631,0-23.519,7.774-23.519,21.019,0,9.309,6.144,15.932,17.183,19.675l4.8,1.631c6.815,2.3,9.5,4.7,9.5,8.158,0,3.263-3.168,5.663-8.255,5.663a17.829,17.829,0,0,1-14.111-7.774l-11.712,9.885C341.672,480.986,350.887,485.5,361.639,485.5Z"/>
  <path id="_4" data-name="4" class="cls-4" d="M128.878,288.191h35.329V252.166H185.5V219.885H164.207V122.1h-31.82l-84.7,101.524v28.538h81.186v36.025Zm0-68.306H90.742l38.136-45.849v45.849Z"/>
</svg>
