<svg id="shorts_copy" data-name="shorts copy" xmlns="http://www.w3.org/2000/svg" width="539" height="361" viewBox="0 0 539 361">
  <defs>
    <style>
      .cls-1 {
        fill: #b03f25;
      }

      .cls-1, .cls-2 {
        fill-rule: evenodd;
      }

      .cls-2 {
        fill: #272727;
        opacity: 0.4;
      }
    </style>
  </defs>
  <g id="layer1">
    <path id="smart_shorts" data-name="smart shorts" class="cls-1" d="M44.892,266.164c18,0,30.363-10.8,30.483-26.282,0.12-12.841-7.921-21-20.282-25.443l-6-2.16c-9-3.24-13.2-5.28-13.2-9.841,0-4.44,5.16-6.48,10.321-6.48a18.954,18.954,0,0,1,14.761,7.08l12.481-13.2c-7.921-8.52-17.162-11.761-27.482-11.761-17.041,0-29.4,9.721-29.4,26.283,0,11.641,7.681,19.921,21.482,24.6l6,2.04c8.521,2.88,11.881,5.88,11.881,10.2,0,4.08-3.96,7.08-10.321,7.08a22.292,22.292,0,0,1-17.641-9.72L13.33,250.923C19.93,260.523,31.451,266.164,44.892,266.164ZM139.813,246.6l24.842-34.443v52.565h19.2V179.516h-17.4L139.813,216.24,113.17,179.516h-17.4v85.208H114.85V212.159Zm60.113,18.122h19.922l7.561-18h35.283l7.56,18h19.922l-36.483-85.208H236.41Zm34.443-34.563,10.681-25.682,10.681,25.682H234.369Zm71.878,34.563h19.082V229.561h3.12l28.323,35.163h22.922l-30.123-37.563c10.8-3.841,16.681-10.921,16.681-21.962,0-14.162-10.321-25.683-26.4-25.683h-33.6v85.208Zm19.082-51.365V197.038H337.57c5.64,0,9.721,3,9.721,8.161,0,4.92-4.081,8.16-9.721,8.16H325.329Zm80.279,51.365h19.2V197.758h21.962V179.516H383.887v18.242h21.721v66.966ZM44.892,361.164c18,0,30.363-10.8,30.483-26.282,0.12-12.841-7.921-21-20.282-25.443l-6-2.16c-9-3.24-13.2-5.28-13.2-9.841,0-4.44,5.16-6.48,10.321-6.48a18.954,18.954,0,0,1,14.761,7.08l12.481-13.2c-7.921-8.52-17.162-11.761-27.482-11.761-17.041,0-29.4,9.721-29.4,26.283,0,11.641,7.681,19.921,21.482,24.6l6,2.04c8.521,2.88,11.881,5.88,11.881,10.2,0,4.08-3.96,7.08-10.321,7.08a22.292,22.292,0,0,1-17.641-9.72L13.33,345.923C19.93,355.523,31.451,361.164,44.892,361.164Zm50.876-1.44H114.85V326h34.323v33.723h19.082V274.516H149.173v33.363H114.85V274.516H95.769v85.208Zm136.923,1.44a44.044,44.044,0,1,0-44.044-44.044A44.15,44.15,0,0,0,232.692,361.164Zm0-18.482c-13.921,0-24.842-11.761-24.842-25.562s10.921-25.562,24.842-25.562c13.8,0,24.722,11.761,24.722,25.562S246.493,342.682,232.692,342.682Zm64.435,17.042h19.081V324.561h3.121l28.322,35.163h22.922L340.45,322.161c10.8-3.841,16.682-10.921,16.682-21.962,0-14.162-10.321-25.683-26.4-25.683h-33.6v85.208Zm19.081-51.365V292.038h12.241c5.641,0,9.721,3,9.721,8.161,0,4.92-4.08,8.16-9.721,8.16H316.208Zm80.28,51.365h19.2V292.758h21.962V274.516H374.766v18.242h21.722v66.966Zm84.241,1.44c18,0,30.362-10.8,30.482-26.282,0.12-12.841-7.92-21-20.281-25.443l-6-2.16c-9-3.24-13.2-5.28-13.2-9.841,0-4.44,5.16-6.48,10.321-6.48a18.953,18.953,0,0,1,14.761,7.08l12.481-13.2c-7.921-8.52-17.161-11.761-27.482-11.761-17.042,0-29.4,9.721-29.4,26.283,0,11.641,7.681,19.921,21.482,24.6l6,2.04c8.52,2.88,11.881,5.88,11.881,10.2,0,4.08-3.961,7.08-10.321,7.08a22.294,22.294,0,0,1-17.642-9.72l-14.641,12.361C455.766,355.523,467.287,361.164,480.729,361.164Z"/>
    <path id="_1" data-name="1" class="cls-2" d="M150.674,139.2h29.441V0.772H141.706L120.649,29.823h30.025V139.2Z"/>
  </g>
</svg>
