<svg id="shorts_copy" data-name="shorts copy" xmlns="http://www.w3.org/2000/svg" width="600" height="92" viewBox="0 0 600 92">
  <defs>
    <style>
      .cls-1 {
        fill-rule: evenodd;
      }
    </style>
  </defs>
  <g id="layer2">
    <path id="TIP:_Travel_light._These_are_the_only_shorts_you_need_to_pack." data-name="TIP: Travel light. These are the only shorts you need  to pack." class="cls-1" d="M3.655,13.6H6.536V3.551H9.831V0.815H0.4V3.551H3.655V13.6Zm9.359,0h2.863V0.815H13.014V13.6ZM28.857,5.19a4.354,4.354,0,0,0-4.5-4.375H20.016V13.6h2.863V9.547h1.476A4.339,4.339,0,0,0,28.857,5.19Zm-2.773,0a1.682,1.682,0,0,1-1.764,1.675h-1.44V3.515h1.44A1.672,1.672,0,0,1,26.084,5.19Zm7.468,3.061a1.927,1.927,0,1,0-1.927-1.927A1.929,1.929,0,0,0,33.552,8.251Zm0,5.492a1.927,1.927,0,1,0-1.927-1.927A1.929,1.929,0,0,0,33.552,13.742ZM47.287,13.6h1.638V2.4H52.9V0.815h-9.6V2.4h3.979V13.6Zm7.2,0h1.548V9.133c0-2.107,1.242-3.1,2.377-3.1a2.264,2.264,0,0,1,.846.144v-1.6a3.208,3.208,0,0,0-.7-0.072,2.679,2.679,0,0,0-2.521,1.837V4.6H54.486v9Zm7.02-4.5a4.5,4.5,0,0,0,4.411,4.681,3.948,3.948,0,0,0,3.169-1.566V13.6h1.549v-9H69.086V5.982a3.948,3.948,0,0,0-3.169-1.566A4.5,4.5,0,0,0,61.505,9.1Zm7.706,0a3.075,3.075,0,1,1-6.14,0A3.075,3.075,0,1,1,69.212,9.1ZM77.8,13.6h1.3l4.159-9H81.523L78.445,11.4,75.366,4.6H73.637Zm7.559-4.5a4.746,4.746,0,0,0,8.715,2.539l-1.224-.846A3.187,3.187,0,0,1,86.922,9.4H94.3a4.394,4.394,0,0,0,.018-0.468,4.2,4.2,0,0,0-4.285-4.519A4.562,4.562,0,0,0,85.355,9.1Zm4.627-3.313a2.693,2.693,0,0,1,2.755,2.359H87.03A2.943,2.943,0,0,1,89.983,5.784ZM97.955,13.6H99.5V0.094H97.955V13.6Zm11.754,0h1.549V0.094h-1.549V13.6Zm7.8-12.514a1.088,1.088,0,0,0-1.081-1.1,1.118,1.118,0,0,0-1.116,1.1,1.106,1.106,0,0,0,1.116,1.1A1.077,1.077,0,0,0,117.5,1.085ZM115.631,13.6h1.548v-9h-1.548v9Zm14.312-.522V4.6H128.4V5.982a3.831,3.831,0,0,0-3.133-1.566,4.418,4.418,0,0,0-4.393,4.573,4.423,4.423,0,0,0,4.393,4.591A3.845,3.845,0,0,0,128.4,12v1.026a2.878,2.878,0,0,1-3.007,3.115,3.852,3.852,0,0,1-3.151-1.513l-1.08,1.08a5.343,5.343,0,0,0,4.249,1.836C127.963,17.542,129.943,16.083,129.943,13.076Zm-7.508-4.087a3.045,3.045,0,1,1,6.086,0A3.045,3.045,0,1,1,122.435,8.989ZM134.3,13.6h1.548V9.133c0-2.107,1.152-3.295,2.611-3.295a2.161,2.161,0,0,1,2.125,2.449V13.6h1.53V8.053a3.318,3.318,0,0,0-3.4-3.637,3.184,3.184,0,0,0-2.863,1.566V0.094H134.3V13.6Zm16.813-.126V12.086a3.422,3.422,0,0,1-1.1.18,1.3,1.3,0,0,1-1.5-1.53V6.018h2.593V4.6h-2.593v-2.5h-1.548V4.6H145.06V6.018h1.909v4.915a2.534,2.534,0,0,0,2.755,2.755A4.307,4.307,0,0,0,151.11,13.472Zm5.561-1.08a1.333,1.333,0,1,0-1.332,1.35A1.356,1.356,0,0,0,156.671,12.392Zm11.9,1.206h1.639V2.4h3.979V0.815h-9.6V2.4h3.979V13.6Zm8.693,0h1.549V9.133c0-2.107,1.152-3.295,2.611-3.295a2.161,2.161,0,0,1,2.124,2.449V13.6h1.531V8.053a3.318,3.318,0,0,0-3.4-3.637,3.183,3.183,0,0,0-2.863,1.566V0.094h-1.549V13.6ZM188.6,9.1a4.746,4.746,0,0,0,8.715,2.539l-1.225-.846A3.188,3.188,0,0,1,190.168,9.4h7.383a4.394,4.394,0,0,0,.018-0.468,4.2,4.2,0,0,0-4.286-4.519A4.562,4.562,0,0,0,188.6,9.1Zm4.627-3.313a2.693,2.693,0,0,1,2.755,2.359h-5.708A2.944,2.944,0,0,1,193.229,5.784ZM207.036,11.1c0-1.35-.846-2.215-2.377-2.719l-0.972-.324c-1.062-.342-1.387-0.684-1.387-1.26a1.275,1.275,0,0,1,1.513-1.044,2.431,2.431,0,0,1,1.908.936l1.009-.972a3.492,3.492,0,0,0-2.881-1.3c-1.783,0-3.043.99-3.043,2.449a2.717,2.717,0,0,0,2.233,2.611l0.882,0.288c1.17,0.378,1.6.81,1.6,1.44a1.37,1.37,0,0,1-1.584,1.224,2.417,2.417,0,0,1-2.305-1.422l-1.26.684a3.575,3.575,0,0,0,3.529,2.089C205.721,13.778,207.036,12.86,207.036,11.1Zm2.95-2a4.746,4.746,0,0,0,8.714,2.539l-1.224-.846A3.188,3.188,0,0,1,211.552,9.4h7.382a4.394,4.394,0,0,0,.018-0.468,4.2,4.2,0,0,0-4.285-4.519A4.562,4.562,0,0,0,209.986,9.1Zm4.627-3.313a2.693,2.693,0,0,1,2.755,2.359H211.66A2.943,2.943,0,0,1,214.613,5.784Zm13.1,3.313a4.505,4.505,0,0,0,4.412,4.681,3.95,3.95,0,0,0,3.169-1.566V13.6h1.548v-9H235.3V5.982a3.95,3.95,0,0,0-3.169-1.566A4.505,4.505,0,0,0,227.715,9.1Zm7.707,0a3.075,3.075,0,1,1-6.14,0A3.075,3.075,0,1,1,235.422,9.1Zm5.775,4.5h1.549V9.133c0-2.107,1.242-3.1,2.377-3.1a2.262,2.262,0,0,1,.846.144v-1.6a3.207,3.207,0,0,0-.7-0.072,2.678,2.678,0,0,0-2.521,1.837V4.6H241.2v9Zm7-4.5a4.746,4.746,0,0,0,8.715,2.539l-1.224-.846A3.188,3.188,0,0,1,249.766,9.4h7.382a4.394,4.394,0,0,0,.018-0.468,4.2,4.2,0,0,0-4.285-4.519A4.562,4.562,0,0,0,248.2,9.1Zm4.628-3.313a2.7,2.7,0,0,1,2.755,2.359h-5.708A2.943,2.943,0,0,1,252.827,5.784Zm18.378,7.688V12.086a3.428,3.428,0,0,1-1.1.18,1.3,1.3,0,0,1-1.494-1.53V6.018h2.593V4.6h-2.593v-2.5h-1.549V4.6h-1.908V6.018h1.908v4.915a2.535,2.535,0,0,0,2.755,2.755A4.313,4.313,0,0,0,271.205,13.472Zm3.418,0.126h1.549V9.133c0-2.107,1.152-3.295,2.61-3.295a2.161,2.161,0,0,1,2.125,2.449V13.6h1.531V8.053a3.318,3.318,0,0,0-3.4-3.637,3.182,3.182,0,0,0-2.862,1.566V0.094h-1.549V13.6Zm11.34-4.5a4.746,4.746,0,0,0,8.714,2.539l-1.224-.846A3.188,3.188,0,0,1,287.529,9.4h7.382a4.394,4.394,0,0,0,.018-0.468,4.2,4.2,0,0,0-4.285-4.519A4.562,4.562,0,0,0,285.963,9.1Zm4.627-3.313a2.693,2.693,0,0,1,2.755,2.359h-5.708A2.943,2.943,0,0,1,290.59,5.784Zm22.5,3.313a4.709,4.709,0,0,0-9.417,0A4.709,4.709,0,0,0,313.091,9.1Zm-7.832,0a3.126,3.126,0,1,1,6.248,0A3.126,3.126,0,1,1,305.259,9.1Zm11.483,4.5h1.549V9.133c0-2.107,1.152-3.295,2.611-3.295a2.161,2.161,0,0,1,2.124,2.449V13.6h1.531V8.053a3.318,3.318,0,0,0-3.4-3.637,3.183,3.183,0,0,0-2.863,1.566V4.6h-1.549v9Zm12.042,0h1.549V0.094h-1.549V13.6Zm8.317,3.763L343.007,4.6h-1.729L338.2,11.42,335.1,4.6h-1.71l3.943,8.535-1.963,4.231H337.1ZM357.262,11.1c0-1.35-.846-2.215-2.377-2.719l-0.972-.324c-1.063-.342-1.387-0.684-1.387-1.26a1.275,1.275,0,0,1,1.513-1.044,2.431,2.431,0,0,1,1.908.936l1.009-.972a3.492,3.492,0,0,0-2.881-1.3c-1.783,0-3.043.99-3.043,2.449a2.717,2.717,0,0,0,2.233,2.611l0.882,0.288c1.17,0.378,1.6.81,1.6,1.44a1.37,1.37,0,0,1-1.584,1.224,2.417,2.417,0,0,1-2.305-1.422l-1.26.684a3.575,3.575,0,0,0,3.529,2.089C355.947,13.778,357.262,12.86,357.262,11.1Zm3.652,2.5h1.548V9.133c0-2.107,1.153-3.295,2.611-3.295A2.161,2.161,0,0,1,367.2,8.287V13.6h1.53V8.053a3.318,3.318,0,0,0-3.4-3.637,3.185,3.185,0,0,0-2.863,1.566V0.094h-1.548V13.6Zm20.738-4.5a4.709,4.709,0,0,0-9.417,0A4.709,4.709,0,0,0,381.652,9.1Zm-7.832,0a3.126,3.126,0,1,1,6.248,0A3.126,3.126,0,1,1,373.82,9.1ZM385.3,13.6h1.549V9.133c0-2.107,1.242-3.1,2.377-3.1a2.262,2.262,0,0,1,.846.144v-1.6a3.207,3.207,0,0,0-.7-0.072,2.678,2.678,0,0,0-2.521,1.837V4.6H385.3v9Zm12.908-.126V12.086a3.422,3.422,0,0,1-1.1.18,1.3,1.3,0,0,1-1.5-1.53V6.018h2.593V4.6h-2.593v-2.5H394.07V4.6h-1.909V6.018h1.909v4.915a2.534,2.534,0,0,0,2.754,2.755A4.309,4.309,0,0,0,398.211,13.472Zm9.252-2.377c0-1.35-.846-2.215-2.377-2.719l-0.972-.324c-1.062-.342-1.386-0.684-1.386-1.26a1.274,1.274,0,0,1,1.512-1.044,2.433,2.433,0,0,1,1.909.936l1.008-.972a3.49,3.49,0,0,0-2.881-1.3c-1.782,0-3.043.99-3.043,2.449a2.718,2.718,0,0,0,2.233,2.611l0.882,0.288c1.171,0.378,1.6.81,1.6,1.44a1.371,1.371,0,0,1-1.585,1.224,2.415,2.415,0,0,1-2.3-1.422l-1.261.684a3.576,3.576,0,0,0,3.529,2.089C406.149,13.778,407.463,12.86,407.463,11.1Zm11.465,6.266L424.834,4.6h-1.729l-3.079,6.824-3.1-6.824h-1.71l3.943,8.535L417.2,17.362h1.729ZM436.318,9.1a4.709,4.709,0,0,0-9.417,0A4.709,4.709,0,0,0,436.318,9.1Zm-7.832,0a3.126,3.126,0,1,1,6.247,0A3.126,3.126,0,1,1,428.486,9.1Zm11.357,1.026c0,2.233,1.332,3.655,3.313,3.655a3.1,3.1,0,0,0,2.773-1.566V13.6h1.548v-9h-1.548V9.061c0,2.071-1.1,3.3-2.5,3.3-1.242,0-2.035-.954-2.035-2.467V4.6h-1.548v5.528Zm17.82,3.475h1.548V9.133c0-2.107,1.153-3.295,2.611-3.295a2.161,2.161,0,0,1,2.125,2.449V13.6h1.53V8.053a3.318,3.318,0,0,0-3.4-3.637,3.184,3.184,0,0,0-2.863,1.566V4.6h-1.548v9ZM469,9.1a4.746,4.746,0,0,0,8.715,2.539l-1.224-.846A3.188,3.188,0,0,1,470.569,9.4h7.382a4.394,4.394,0,0,0,.018-0.468,4.2,4.2,0,0,0-4.285-4.519A4.562,4.562,0,0,0,469,9.1Zm4.628-3.313a2.7,2.7,0,0,1,2.755,2.359h-5.708A2.943,2.943,0,0,1,473.63,5.784ZM480.9,9.1a4.746,4.746,0,0,0,8.715,2.539l-1.225-.846A3.187,3.187,0,0,1,482.467,9.4h7.382a4.394,4.394,0,0,0,.018-0.468,4.2,4.2,0,0,0-4.285-4.519A4.562,4.562,0,0,0,480.9,9.1Zm4.628-3.313a2.693,2.693,0,0,1,2.754,2.359h-5.707A2.943,2.943,0,0,1,485.528,5.784ZM492.8,9.1a4.505,4.505,0,0,0,4.411,4.681,3.947,3.947,0,0,0,3.169-1.566V13.6h1.549V0.094h-1.549V5.982a3.947,3.947,0,0,0-3.169-1.566A4.505,4.505,0,0,0,492.8,9.1Zm7.706,0a3.075,3.075,0,1,1-6.139,0A3.075,3.075,0,1,1,500.5,9.1ZM6.338,37.472V36.086a3.424,3.424,0,0,1-1.1.18,1.3,1.3,0,0,1-1.494-1.53V30.018H6.338V28.6H3.745v-2.5H2.2v2.5H0.288v1.422H2.2v4.915a2.534,2.534,0,0,0,2.755,2.755A4.309,4.309,0,0,0,6.338,37.472ZM18.327,33.1a4.62,4.62,0,0,0-4.7-4.681,4.682,4.682,0,1,0,0,9.363A4.62,4.62,0,0,0,18.327,33.1Zm-7.832,0a3.126,3.126,0,1,1,3.133,3.241A3.094,3.094,0,0,1,10.495,33.1ZM27.81,41.362h1.549v-5.15a3.948,3.948,0,0,0,3.169,1.566A4.516,4.516,0,0,0,36.939,33.1a4.516,4.516,0,0,0-4.411-4.681,3.948,3.948,0,0,0-3.169,1.566V28.6H27.81V41.362ZM35.354,33.1a3.067,3.067,0,1,1-6.122,0A3.067,3.067,0,1,1,35.354,33.1Zm4.552,0a4.5,4.5,0,0,0,4.411,4.681,3.948,3.948,0,0,0,3.169-1.566V37.6h1.548v-9H47.486v1.386a3.948,3.948,0,0,0-3.169-1.566A4.5,4.5,0,0,0,39.906,33.1Zm7.706,0a3.075,3.075,0,1,1-6.14,0A3.075,3.075,0,1,1,47.612,33.1Zm13.95,2.269-1.35-.756A3.052,3.052,0,0,1,57.4,36.338a3.242,3.242,0,0,1,0-6.482,3.052,3.052,0,0,1,2.809,1.728l1.35-.756A4.662,4.662,0,0,0,57.4,28.416a4.682,4.682,0,1,0,0,9.363A4.662,4.662,0,0,0,61.562,35.366ZM65,37.6h1.548V33.1l4.88,4.5h2.089l-5.42-5.023L72.524,28.6H70.471l-3.925,3.511V24.094H65V37.6Zm13.284-1.206a1.333,1.333,0,1,0-1.332,1.35A1.357,1.357,0,0,0,78.282,36.392Zm9.9,1.206h7.85V36.014H89.856v-11.2H88.181V37.6Zm12.925-12.514a1.087,1.087,0,0,0-1.081-1.1,1.118,1.118,0,0,0-1.116,1.1,1.107,1.107,0,0,0,1.116,1.1A1.076,1.076,0,0,0,101.106,25.085ZM99.233,37.6h1.549v-9H99.233v9Zm14.313-.522V28.6H112v1.386a3.83,3.83,0,0,0-3.133-1.566,4.586,4.586,0,0,0,0,9.165A3.844,3.844,0,0,0,112,36v1.026a2.878,2.878,0,0,1-3.007,3.115,3.852,3.852,0,0,1-3.151-1.512l-1.08,1.08a5.345,5.345,0,0,0,4.249,1.837C111.565,41.542,113.546,40.083,113.546,37.076Zm-7.509-4.087a3.045,3.045,0,1,1,3.043,3.151A3,3,0,0,1,106.037,32.989ZM117.9,37.6h1.548V33.133c0-2.107,1.153-3.3,2.611-3.3a2.161,2.161,0,0,1,2.125,2.449V37.6h1.53V32.053a3.318,3.318,0,0,0-3.4-3.637,3.184,3.184,0,0,0-2.863,1.566V24.094H117.9V37.6Zm16.813-.126V36.086a3.422,3.422,0,0,1-1.1.18,1.3,1.3,0,0,1-1.5-1.53V30.018h2.593V28.6h-2.593v-2.5h-1.548v2.5h-1.909v1.422h1.909v4.915a2.534,2.534,0,0,0,2.755,2.755A4.307,4.307,0,0,0,134.712,37.472ZM145.765,37.6h1.368l3.061-9h-1.638l-2.179,6.572L144.126,28.6h-1.188l-2.251,6.572L138.509,28.6h-1.621l3.061,9h1.369l2.232-6.482Zm6.8-4.5a4.746,4.746,0,0,0,8.715,2.539l-1.225-.846a3.187,3.187,0,0,1-5.923-1.386h7.382a4.4,4.4,0,0,0,.018-0.468,4.2,4.2,0,0,0-4.285-4.519A4.562,4.562,0,0,0,152.566,33.1Zm4.628-3.313a2.693,2.693,0,0,1,2.754,2.359h-5.707A2.943,2.943,0,0,1,157.194,29.784Zm9.845-4.7a1.087,1.087,0,0,0-1.08-1.1,1.118,1.118,0,0,0-1.117,1.1,1.107,1.107,0,0,0,1.117,1.1A1.076,1.076,0,0,0,167.039,25.085ZM165.166,37.6h1.549v-9h-1.549v9Zm14.313-.522V28.6H177.93v1.386a3.83,3.83,0,0,0-3.133-1.566,4.586,4.586,0,0,0,0,9.165A3.844,3.844,0,0,0,177.93,36v1.026a2.878,2.878,0,0,1-3.007,3.115,3.853,3.853,0,0,1-3.151-1.512l-1.08,1.08a5.345,5.345,0,0,0,4.249,1.837C177.5,41.542,179.479,40.083,179.479,37.076Zm-7.509-4.087a3.045,3.045,0,1,1,3.043,3.151A3,3,0,0,1,171.97,32.989ZM183.832,37.6h1.548V33.133c0-2.107,1.153-3.3,2.611-3.3a2.161,2.161,0,0,1,2.125,2.449V37.6h1.53V32.053a3.318,3.318,0,0,0-3.4-3.637,3.185,3.185,0,0,0-2.863,1.566V24.094h-1.548V37.6Zm16.813-.126V36.086a3.422,3.422,0,0,1-1.1.18,1.3,1.3,0,0,1-1.494-1.53V30.018h2.592V28.6h-2.592v-2.5H196.5v2.5H194.6v1.422H196.5v4.915a2.534,2.534,0,0,0,2.755,2.755A4.307,4.307,0,0,0,200.645,37.472Zm5.345-.27a1.539,1.539,0,0,0,.252-0.81,1.332,1.332,0,1,0-2.664,0,1.34,1.34,0,0,0,.738,1.206l-1.206,2.575h1.026Zm16.832,4.159h1.548V28.6h-1.548v1.386a3.95,3.95,0,0,0-3.169-1.566,4.505,4.505,0,0,0-4.412,4.681,4.505,4.505,0,0,0,4.412,4.681,3.95,3.95,0,0,0,3.169-1.566v5.15Zm0.126-8.264a3.075,3.075,0,1,1-6.14,0A3.075,3.075,0,1,1,222.948,33.1Zm5.649,1.026c0,2.233,1.333,3.655,3.313,3.655a3.1,3.1,0,0,0,2.773-1.566V37.6h1.549v-9h-1.549v4.465c0,2.071-1.1,3.3-2.5,3.3-1.242,0-2.034-.954-2.034-2.467V28.6H228.6v5.528Zm13.861-9.039a1.087,1.087,0,0,0-1.081-1.1,1.118,1.118,0,0,0-1.116,1.1,1.106,1.106,0,0,0,1.116,1.1A1.076,1.076,0,0,0,242.458,25.085ZM240.585,37.6h1.549v-9h-1.549v9Zm14.1-2.233-1.351-.756a3.051,3.051,0,0,1-2.809,1.729,3.242,3.242,0,0,1,0-6.482,3.051,3.051,0,0,1,2.809,1.728l1.351-.756a4.664,4.664,0,0,0-4.16-2.413,4.682,4.682,0,1,0,0,9.363A4.664,4.664,0,0,0,254.682,35.366Zm3.435,2.233h1.548V33.1l4.88,4.5h2.088l-5.419-5.023,4.429-3.979h-2.052l-3.926,3.511V24.094h-1.548V37.6Zm15.911-4.5a4.505,4.505,0,0,0,4.412,4.681,3.95,3.95,0,0,0,3.169-1.566V37.6h1.548v-13.5h-1.548v5.888a3.95,3.95,0,0,0-3.169-1.566A4.505,4.505,0,0,0,274.028,33.1Zm7.707,0a3.075,3.075,0,1,1-6.14,0A3.075,3.075,0,1,1,281.735,33.1Zm5.775,4.5h1.549V33.133c0-2.107,1.242-3.1,2.377-3.1a2.263,2.263,0,0,1,.846.144v-1.6a3.207,3.207,0,0,0-.7-0.072,2.678,2.678,0,0,0-2.521,1.837V28.6H287.51v9Zm10.423,3.763L303.839,28.6H302.11l-3.079,6.824-3.1-6.824h-1.711l3.943,8.535-1.962,4.231h1.728ZM311.558,33.1a4.505,4.505,0,0,0,4.411,4.681,3.947,3.947,0,0,0,3.169-1.566V37.6h1.549v-9h-1.549v1.386a3.947,3.947,0,0,0-3.169-1.566A4.505,4.505,0,0,0,311.558,33.1Zm7.706,0a3.075,3.075,0,1,1-6.139,0A3.075,3.075,0,1,1,319.264,33.1Zm5.776,4.5h1.549V33.133c0-2.107,1.152-3.3,2.61-3.3a2.161,2.161,0,0,1,2.125,2.449V37.6h1.53V32.053a3.318,3.318,0,0,0-3.4-3.637,3.182,3.182,0,0,0-2.862,1.566V28.6H325.04v9Zm11.34-4.5a4.5,4.5,0,0,0,4.411,4.681,3.948,3.948,0,0,0,3.169-1.566V37.6h1.548v-13.5H343.96v5.888a3.948,3.948,0,0,0-3.169-1.566A4.5,4.5,0,0,0,336.38,33.1Zm7.706,0a3.075,3.075,0,1,1-6.14,0A3.075,3.075,0,1,1,344.086,33.1ZM363,37.6h1.368l3.061-9H365.8l-2.179,6.572-2.25-6.572h-1.189l-2.25,6.572L355.748,28.6h-1.621l3.061,9h1.369l2.232-6.482Zm7.539,0h1.549V33.133c0-2.107,1.242-3.1,2.377-3.1a2.263,2.263,0,0,1,.846.144v-1.6a3.207,3.207,0,0,0-.7-0.072,2.678,2.678,0,0,0-2.521,1.837V28.6h-1.549v9Zm9.9-12.514a1.087,1.087,0,0,0-1.08-1.1,1.118,1.118,0,0,0-1.117,1.1,1.107,1.107,0,0,0,1.117,1.1A1.076,1.076,0,0,0,380.444,25.085ZM378.571,37.6h1.549v-9h-1.549v9Zm5.922,0h1.549V33.133c0-2.107,1.152-3.3,2.611-3.3a2.161,2.161,0,0,1,2.124,2.449V37.6h1.531V32.053a3.318,3.318,0,0,0-3.4-3.637,3.183,3.183,0,0,0-2.863,1.566V28.6h-1.549v9Zm12.042,0h1.549V33.1l4.879,4.5h2.089l-5.42-5.023,4.429-3.979h-2.052l-3.925,3.511V24.094h-1.549V37.6Zm11.142,0h1.548v-13.5h-1.548V37.6Zm5.22-4.5a4.746,4.746,0,0,0,8.714,2.539l-1.224-.846a3.188,3.188,0,0,1-5.924-1.386h7.382a4.4,4.4,0,0,0,.018-0.468,4.2,4.2,0,0,0-4.285-4.519A4.562,4.562,0,0,0,412.9,33.1Zm4.627-3.313a2.694,2.694,0,0,1,2.755,2.359h-5.708A2.943,2.943,0,0,1,417.524,29.784Zm13.8,7.814h1.549V33.133c0-2.107,1.242-3.1,2.377-3.1a2.263,2.263,0,0,1,.846.144v-1.6a3.207,3.207,0,0,0-.7-0.072,2.678,2.678,0,0,0-2.521,1.837V28.6h-1.549v9Zm7-4.5a4.746,4.746,0,0,0,8.715,2.539l-1.224-.846A3.188,3.188,0,0,1,439.9,33.4h7.382a4.4,4.4,0,0,0,.018-0.468,4.2,4.2,0,0,0-4.285-4.519A4.562,4.562,0,0,0,438.33,33.1Zm4.628-3.313a2.7,2.7,0,0,1,2.755,2.359h-5.708A2.943,2.943,0,0,1,442.958,29.784ZM456.764,35.1c0-1.35-.846-2.215-2.377-2.719l-0.972-.324c-1.062-.342-1.386-0.684-1.386-1.26a1.274,1.274,0,0,1,1.512-1.044,2.433,2.433,0,0,1,1.909.936l1.008-.972a3.49,3.49,0,0,0-2.881-1.3c-1.782,0-3.043.99-3.043,2.449a2.718,2.718,0,0,0,2.233,2.611l0.882,0.288c1.171,0.378,1.6.81,1.6,1.44a1.371,1.371,0,0,1-1.585,1.224,2.415,2.415,0,0,1-2.3-1.422l-1.261.684a3.576,3.576,0,0,0,3.529,2.089C455.45,37.778,456.764,36.86,456.764,35.1Zm5.525-10.011a1.087,1.087,0,0,0-1.081-1.1,1.118,1.118,0,0,0-1.116,1.1,1.106,1.106,0,0,0,1.116,1.1A1.076,1.076,0,0,0,462.289,25.085ZM460.416,37.6h1.549v-9h-1.549v9Zm11.756-2.5c0-1.35-.846-2.215-2.377-2.719l-0.972-.324c-1.062-.342-1.387-0.684-1.387-1.26a1.275,1.275,0,0,1,1.513-1.044,2.431,2.431,0,0,1,1.908.936l1.009-.972a3.492,3.492,0,0,0-2.881-1.3c-1.783,0-3.043.99-3.043,2.449a2.717,2.717,0,0,0,2.233,2.611l0.882,0.288c1.17,0.378,1.6.81,1.6,1.44a1.37,1.37,0,0,1-1.584,1.224,2.417,2.417,0,0,1-2.305-1.422l-1.26.684a3.575,3.575,0,0,0,3.529,2.089C470.857,37.778,472.172,36.86,472.172,35.1Zm8.423,2.377V36.086a3.422,3.422,0,0,1-1.1.18A1.3,1.3,0,0,1,478,34.736V30.018H480.6V28.6H478v-2.5h-1.549v2.5h-1.908v1.422h1.908v4.915a2.535,2.535,0,0,0,2.755,2.755A4.307,4.307,0,0,0,480.6,37.472Zm2.591-4.375a4.505,4.505,0,0,0,4.411,4.681,3.947,3.947,0,0,0,3.169-1.566V37.6h1.549v-9h-1.549v1.386a3.947,3.947,0,0,0-3.169-1.566A4.505,4.505,0,0,0,483.186,33.1Zm7.706,0a3.075,3.075,0,1,1-6.14,0A3.075,3.075,0,1,1,490.892,33.1Zm5.776,4.5h1.548V33.133c0-2.107,1.153-3.3,2.611-3.3a2.161,2.161,0,0,1,2.125,2.449V37.6h1.53V32.053a3.318,3.318,0,0,0-3.4-3.637,3.185,3.185,0,0,0-2.863,1.566V28.6h-1.548v9Zm16.813-.126V36.086a3.422,3.422,0,0,1-1.1.18,1.3,1.3,0,0,1-1.494-1.53V30.018h2.592V28.6h-2.592v-2.5H509.34v2.5h-1.908v1.422h1.908v4.915a2.534,2.534,0,0,0,2.755,2.755A4.307,4.307,0,0,0,513.481,37.472Zm5.561-1.08a1.332,1.332,0,1,0-1.332,1.35A1.356,1.356,0,0,0,519.042,36.392Z"/>
  </g>
</svg>
