<svg id="BOTTOM_copy" data-name="BOTTOM copy" xmlns="http://www.w3.org/2000/svg" width="768" height="1650" viewBox="0 0 768 1650">
  <defs>
    <style>
      .cls-1, .cls-2 {
        fill-rule: evenodd;
      }

      .cls-2 {
        fill: #fff;
      }
    </style>
  </defs>
  <path class="cls-1" d="M168,1536H597.6v57.6H168V1536Z"/>
  <path id="_BRONTHEROAD:_Visit_our_blog" data-name="#BRONTHEROAD: Visit our blog" class="cls-2" d="M208.285,1571.01h2.14l0.96-3.04h2v-1.92h-1.4l0.623-2.02H214.6v-1.91h-1.381l0.96-3.04h-2.173l-0.944,3.04h-2.207l0.96-3.04h-2.173l-0.944,3.04h-2v1.91h1.4l-0.607,2.02h-2.022v1.92h1.4l-0.944,3.04h2.14l0.96-3.04h2.224Zm-0.034-6.98h2.207l-0.606,2.02h-2.224Zm11.078,6.98h5.257a3.535,3.535,0,0,0,3.64-3.51,3.123,3.123,0,0,0-1.7-2.83,2.8,2.8,0,0,0,.859-2.05,3.55,3.55,0,0,0-3.555-3.54h-4.5v11.93Zm2.679-7.11v-2.39h1.517a1.218,1.218,0,0,1,1.247,1.21,1.2,1.2,0,0,1-1.247,1.18h-1.517Zm0,4.66v-2.39h2.342a1.216,1.216,0,0,1,1.264,1.19,1.2,1.2,0,0,1-1.247,1.2h-2.359Zm10.961,2.45h2.679v-4.92h0.438l3.977,4.92h3.218l-4.229-5.26a3.085,3.085,0,0,0,2.342-3.08,3.524,3.524,0,0,0-3.707-3.59h-4.718v11.93Zm2.679-7.19v-2.29h1.719a1.191,1.191,0,0,1,1.365,1.14,1.214,1.214,0,0,1-1.365,1.15h-1.719Zm16.488,7.39a6.17,6.17,0,1,0-6.184-6.17A6.189,6.189,0,0,0,252.136,1571.21Zm0-2.59a3.582,3.582,0,1,1,3.471-3.58A3.54,3.54,0,0,1,252.136,1568.62Zm21.793,2.39v-11.93h-2.7v7.36l-5.813-7.36h-2.308v11.93h2.679v-7.38l5.83,7.38h2.308Zm7.624,0h2.695v-9.38h3.084v-2.55H278.5v2.55h3.05v9.38Zm10.355,0h2.679v-4.72H299.4v4.72h2.679v-11.93H299.4v4.67h-4.818v-4.67h-2.679v11.93Zm15.644,0h7.582v-2.55h-4.9v-2.14h3.892v-2.55h-3.892v-2.14h4.9v-2.55h-7.582v11.93Zm12.562,0h2.679v-4.92h0.438l3.976,4.92h3.218l-4.229-5.26a3.084,3.084,0,0,0,2.342-3.08,3.524,3.524,0,0,0-3.706-3.59h-4.718v11.93Zm2.679-7.19v-2.29h1.718a1.191,1.191,0,0,1,1.365,1.14,1.214,1.214,0,0,1-1.365,1.15h-1.718Zm16.487,7.39a6.17,6.17,0,1,0-6.183-6.17A6.189,6.189,0,0,0,339.28,1571.21Zm0-2.59a3.582,3.582,0,1,1,3.471-3.58A3.54,3.54,0,0,1,339.28,1568.62Zm9.157,2.39h2.8l1.062-2.52h4.953l1.062,2.52h2.8l-5.122-11.93h-2.427Zm4.836-4.84,1.5-3.6,1.5,3.6h-3Zm12.021,4.84h4.078a5.966,5.966,0,1,0,0-11.93h-4.078v11.93Zm2.679-2.45v-7.03h1.4a3.517,3.517,0,0,1,0,7.03h-1.4Zm13.64-2.54a1.8,1.8,0,1,0-1.8-1.8A1.8,1.8,0,0,0,381.613,1566.02Zm0,5.13a1.8,1.8,0,1,0-1.8-1.8A1.8,1.8,0,0,0,381.613,1571.15Zm16.622-.14h2.409l4.9-11.93H402.6l-3.167,7.95-3.185-7.95h-2.914Zm11.533,0h2.678v-11.93h-2.678v11.93Zm11.722,0.2c2.527,0,4.262-1.51,4.279-3.68,0.017-1.8-1.112-2.94-2.847-3.56l-0.843-.3c-1.263-.46-1.853-0.74-1.853-1.38a1.223,1.223,0,0,1,1.449-.91,2.668,2.668,0,0,1,2.072.99l1.753-1.85a5.013,5.013,0,0,0-3.859-1.65c-2.392,0-4.128,1.37-4.128,3.69,0,1.63,1.079,2.79,3.016,3.44l0.843,0.29c1.2,0.4,1.668.82,1.668,1.43a1.213,1.213,0,0,1-1.449.99,3.151,3.151,0,0,1-2.477-1.36l-2.056,1.73A5.26,5.26,0,0,0,421.49,1571.21Zm9.074-.2h2.679v-11.93h-2.679v11.93Zm10.307,0h2.7v-9.38h3.083v-2.55h-8.829v2.55h3.05v9.38Zm22.028,0.2a6.17,6.17,0,1,0-6.184-6.17A6.189,6.189,0,0,0,462.9,1571.21Zm0-2.59a3.582,3.582,0,1,1,3.471-3.58A3.54,3.54,0,0,1,462.9,1568.62Zm15.761,2.59a4.685,4.685,0,0,0,4.92-4.92v-7.21H480.9v7.24a2.242,2.242,0,1,1-4.482,0v-7.24H473.74v7.21A4.676,4.676,0,0,0,478.66,1571.21Zm10.253-.2h2.678v-4.92h0.439l3.976,4.92h3.218L495,1565.75a3.085,3.085,0,0,0,2.342-3.08,3.524,3.524,0,0,0-3.707-3.59h-4.717v11.93Zm2.678-7.19v-2.29h1.719a1.191,1.191,0,0,1,1.365,1.14,1.214,1.214,0,0,1-1.365,1.15h-1.719Zm17.731,7.19h5.257a3.534,3.534,0,0,0,3.639-3.51,3.123,3.123,0,0,0-1.7-2.83,2.8,2.8,0,0,0,.86-2.05,3.551,3.551,0,0,0-3.556-3.54h-4.5v11.93ZM512,1563.9v-2.39h1.516a1.218,1.218,0,0,1,1.247,1.21,1.2,1.2,0,0,1-1.247,1.18H512Zm0,4.66v-2.39h2.342a1.216,1.216,0,0,1,1.263,1.19,1.2,1.2,0,0,1-1.246,1.2H512Zm10.961,2.45h7.632v-2.55h-4.953v-9.38h-2.679v11.93Zm17.213,0.2a6.17,6.17,0,1,0-6.184-6.17A6.189,6.189,0,0,0,540.175,1571.21Zm0-2.59a3.582,3.582,0,1,1,3.471-3.58A3.54,3.54,0,0,1,540.175,1568.62ZM557,1571.21a6.63,6.63,0,0,0,4.9-1.76v-5.67h-4.953v2.51h2.342v1.76a3.859,3.859,0,0,1-2.325.57,3.583,3.583,0,1,1-.169-7.16,3.988,3.988,0,0,1,3.016,1.28l1.887-1.83a6.377,6.377,0,0,0-4.9-2.04,6.108,6.108,0,0,0-6.3,6.17A6.2,6.2,0,0,0,557,1571.21Z"/>
  <path id="Rectangle_628_copy" data-name="Rectangle 628 copy" class="cls-1" d="M168,1012.8H597.6v57.6H168v-57.6Z"/>
  <path id="SHOP_THE_WOMEN_S_packing_list" data-name="SHOP THE WOMEN’S packing list" class="cls-2" d="M204.622,1048.01c2.527,0,4.263-1.51,4.28-3.68,0.017-1.8-1.112-2.94-2.848-3.56l-0.842-.3c-1.264-.46-1.854-0.74-1.854-1.38a1.223,1.223,0,0,1,1.449-.91,2.669,2.669,0,0,1,2.073.99l1.752-1.85a5.011,5.011,0,0,0-3.858-1.65c-2.393,0-4.128,1.37-4.128,3.69,0,1.63,1.078,2.79,3.016,3.44l0.842,0.29c1.2,0.4,1.668.82,1.668,1.43a1.213,1.213,0,0,1-1.449.99,3.151,3.151,0,0,1-2.477-1.36l-2.055,1.73A5.258,5.258,0,0,0,204.622,1048.01Zm9.075-.2h2.679v-4.72h4.818v4.72h2.679v-11.93h-2.679v4.67h-4.818v-4.67H213.7v11.93Zm21.153,0.2a6.17,6.17,0,1,0-6.183-6.17A6.19,6.19,0,0,0,234.85,1048.01Zm0-2.59a3.582,3.582,0,1,1,3.471-3.58A3.541,3.541,0,0,1,234.85,1045.42Zm19.249-5.46a4.067,4.067,0,0,0-4.212-4.08h-4.061v11.93h2.679v-3.78h1.382A4.059,4.059,0,0,0,254.1,1039.96Zm-2.595,0a1.567,1.567,0,0,1-1.651,1.56h-1.348v-3.12h1.348A1.561,1.561,0,0,1,251.5,1039.96Zm15.1,7.85h2.7v-9.38h3.083v-2.55h-8.828v2.55h3.049v9.38Zm10.355,0h2.679v-4.72h4.819v4.72h2.679v-11.93H284.46v4.67h-4.819v-4.67h-2.679v11.93Zm15.644,0h7.582v-2.55h-4.9v-2.14h3.892v-2.55h-3.892v-2.14h4.9v-2.55h-7.582v11.93Zm28.329,0h2.545l2.78-11.93H323.4l-1.634,7.56-3.37-7.77-3.353,7.77-1.634-7.56H310.54l2.763,11.93h2.544l2.544-5.85Zm15.154,0.2a6.17,6.17,0,1,0-6.183-6.17A6.189,6.189,0,0,0,336.089,1048.01Zm0-2.59a3.582,3.582,0,1,1,3.471-3.58A3.541,3.541,0,0,1,336.089,1045.42Zm17.16-.15,3.487-4.82v7.36h2.7v-11.93h-2.443l-3.74,5.14-3.741-5.14h-2.443v11.93h2.679v-7.36Zm11.649,2.54h7.582v-2.55h-4.9v-2.14h3.892v-2.55h-3.892v-2.14h4.9v-2.55H364.9v11.93Zm23.379,0v-11.93h-2.695v7.36l-5.813-7.36h-2.308v11.93h2.678v-7.38l5.83,7.38h2.308Zm8.315-9.18a2.181,2.181,0,0,0,.37-1.16,1.8,1.8,0,0,0-3.6,0,1.827,1.827,0,0,0,1.095,1.67l-1.264,2.59h1.466Zm8.5,9.38c2.527,0,4.263-1.51,4.279-3.68,0.017-1.8-1.112-2.94-2.847-3.56l-0.842-.3c-1.264-.46-1.854-0.74-1.854-1.38a1.223,1.223,0,0,1,1.449-.91,2.67,2.67,0,0,1,2.073.99l1.752-1.85a5.011,5.011,0,0,0-3.858-1.65c-2.393,0-4.128,1.37-4.128,3.69,0,1.63,1.078,2.79,3.016,3.44l0.842,0.29c1.2,0.4,1.668.82,1.668,1.43a1.213,1.213,0,0,1-1.449.99,3.151,3.151,0,0,1-2.477-1.36l-2.055,1.73A5.257,5.257,0,0,0,405.1,1048.01Zm24-8.05a4.067,4.067,0,0,0-4.212-4.08h-4.06v11.93H423.5v-3.78h1.381A4.059,4.059,0,0,0,429.094,1039.96Zm-2.594,0a1.567,1.567,0,0,1-1.651,1.56H423.5v-3.12h1.348A1.561,1.561,0,0,1,426.5,1039.96Zm5.166,7.85h2.8l1.061-2.52h4.954l1.061,2.52h2.8l-5.122-11.93h-2.426Zm4.835-4.84,1.5-3.6,1.5,3.6h-3Zm16.993,5.04a6.177,6.177,0,0,0,5.593-3.26l-2.358-1.28a3.58,3.58,0,1,1,0-3.26l2.358-1.27A6.231,6.231,0,1,0,453.494,1048.01Zm10.1-.2h2.662v-5.34l4.87,5.34h3.437l-5.678-6.2,4.718-5.73h-3.286l-4.061,4.99v-4.99h-2.662v11.93Zm14.735,0h2.679v-11.93h-2.679v11.93Zm18.967,0v-11.93h-2.7v7.36l-5.812-7.36h-2.309v11.93h2.679v-7.38l5.83,7.38H497.3Zm11.313,0.2a6.634,6.634,0,0,0,4.9-1.76v-5.67h-4.954v2.51H510.9v1.76a3.859,3.859,0,0,1-2.325.57,3.583,3.583,0,1,1-.169-7.16,3.988,3.988,0,0,1,3.016,1.28l1.887-1.83a6.377,6.377,0,0,0-4.9-2.04,6.108,6.108,0,0,0-6.3,6.17A6.2,6.2,0,0,0,508.609,1048.01Zm16.6-.2h7.632v-2.55h-4.953v-9.38H525.21v11.93Zm12.242,0h2.679v-11.93h-2.679v11.93Zm11.722,0.2c2.527,0,4.263-1.51,4.28-3.68,0.016-1.8-1.112-2.94-2.848-3.56l-0.842-.3c-1.264-.46-1.854-0.74-1.854-1.38a1.223,1.223,0,0,1,1.449-.91,2.669,2.669,0,0,1,2.073.99l1.752-1.85a5.011,5.011,0,0,0-3.858-1.65c-2.393,0-4.128,1.37-4.128,3.69,0,1.63,1.078,2.79,3.016,3.44l0.842,0.29c1.2,0.4,1.668.82,1.668,1.43a1.213,1.213,0,0,1-1.449.99,3.151,3.151,0,0,1-2.477-1.36l-2.055,1.73A5.257,5.257,0,0,0,549.174,1048.01Zm11.063-.2h2.7v-9.38h3.083v-2.55h-8.829v2.55h3.05v9.38Z"/>
  <path id="Rectangle_628_copy_2" data-name="Rectangle 628 copy 2" class="cls-1" d="M168,489.6H597.6v57.6H168V489.6Z"/>
  <path id="Shop_new_arrivals" data-name="Shop new arrivals" class="cls-2" d="M277.183,524.813c2.528,0,4.263-1.513,4.28-3.682,0.017-1.8-1.112-2.941-2.847-3.563l-0.843-.3c-1.264-.454-1.853-0.739-1.853-1.378a1.228,1.228,0,0,1,1.449-.908,2.664,2.664,0,0,1,2.072.992l1.752-1.849a5,5,0,0,0-3.858-1.647c-2.392,0-4.128,1.361-4.128,3.681,0,1.63,1.078,2.79,3.016,3.446l0.842,0.285c1.2,0.4,1.669.824,1.669,1.429a1.213,1.213,0,0,1-1.449.992,3.129,3.129,0,0,1-2.477-1.362l-2.056,1.732A5.249,5.249,0,0,0,277.183,524.813Zm9.075-.2h2.679v-4.724h4.819v4.724h2.678V512.676h-2.678v4.673h-4.819v-4.673h-2.679v11.935Zm21.153,0.2a6.169,6.169,0,1,0-6.183-6.169A6.192,6.192,0,0,0,307.411,524.813Zm0-2.589a3.582,3.582,0,1,1,3.471-3.58A3.544,3.544,0,0,1,307.411,522.224Zm19.249-5.463a4.07,4.07,0,0,0-4.212-4.085h-4.06v11.935h2.679v-3.782h1.381A4.056,4.056,0,0,0,326.66,516.761Zm-2.594,0a1.573,1.573,0,0,1-1.652,1.563h-1.347V515.2h1.347A1.563,1.563,0,0,1,324.066,516.761Zm24.251,7.85V512.676h-2.7v7.363l-5.813-7.363H337.5v11.935h2.679v-7.379l5.83,7.379h2.308Zm5.467,0h7.582v-2.555h-4.9v-2.135h3.892v-2.555h-3.892v-2.135h4.9v-2.555h-7.582v11.935Zm21.981,0h2.544l2.78-11.935h-2.864l-1.635,7.564-3.37-7.765-3.352,7.765-1.635-7.564h-2.864l2.763,11.935h2.544l2.544-5.85Zm14.341,0h2.8l1.061-2.522h4.954l1.061,2.522h2.8l-5.122-11.935h-2.426Zm4.836-4.841,1.5-3.6,1.5,3.6h-3Zm12.021,4.841h2.679v-4.925h0.438l3.977,4.925h3.218l-4.229-5.261a3.082,3.082,0,0,0,2.342-3.076,3.528,3.528,0,0,0-3.707-3.6h-4.718v11.935Zm2.679-7.194v-2.286h1.719a1.19,1.19,0,0,1,1.364,1.143,1.209,1.209,0,0,1-1.364,1.143h-1.719Zm11.416,7.194h2.679v-4.925h0.438l3.976,4.925h3.218l-4.229-5.261a3.081,3.081,0,0,0,2.342-3.076,3.528,3.528,0,0,0-3.707-3.6h-4.717v11.935Zm2.679-7.194v-2.286h1.718a1.191,1.191,0,0,1,1.365,1.143,1.21,1.21,0,0,1-1.365,1.143h-1.718Zm11.415,7.194h2.679V512.676h-2.679v11.935Zm11.807,0h2.409l4.9-11.935h-2.948l-3.168,7.951-3.184-7.951h-2.915Zm8.838,0h2.8l1.061-2.522h4.954l1.061,2.522h2.8l-5.122-11.935h-2.426Zm4.835-4.841,1.5-3.6,1.5,3.6h-3Zm12.022,4.841h7.632v-2.555h-4.953v-9.38h-2.679v11.935Zm15.814,0.2c2.527,0,4.263-1.513,4.279-3.682,0.017-1.8-1.112-2.941-2.847-3.563l-0.842-.3c-1.264-.454-1.854-0.739-1.854-1.378a1.228,1.228,0,0,1,1.449-.908,2.666,2.666,0,0,1,2.073.992l1.752-1.849a5,5,0,0,0-3.858-1.647c-2.393,0-4.128,1.361-4.128,3.681,0,1.63,1.078,2.79,3.016,3.446l0.842,0.285c1.2,0.4,1.668.824,1.668,1.429a1.213,1.213,0,0,1-1.449.992,3.131,3.131,0,0,1-2.477-1.362l-2.055,1.732A5.248,5.248,0,0,0,488.468,524.813Z"/>
</svg>
