<svg id="Blazer_copy" data-name="Blazer copy" xmlns="http://www.w3.org/2000/svg" width="478" height="390" viewBox="0 0 478 390">
  <defs>
    <style>
      .cls-1 {
        fill: #b03f25;
      }

      .cls-1, .cls-2 {
        fill-rule: evenodd;
      }

      .cls-2 {
        fill: #272727;
        opacity: 0.36;
      }
    </style>
  </defs>
  <g id="layer1">
    <path id="summer-_weight_blazers" data-name="summer- weight blazers" class="cls-1" d="M83.763,235.827c12.6,0,21.253-7.56,21.337-18.4,0.084-8.988-5.544-14.7-14.2-17.809l-4.2-1.512c-6.3-2.268-9.24-3.7-9.24-6.888,0-3.108,3.612-4.536,7.224-4.536a13.266,13.266,0,0,1,10.332,4.956l8.737-9.24a24.888,24.888,0,0,0-19.237-8.232c-11.928,0-20.581,6.8-20.581,18.4,0,8.148,5.376,13.945,15.036,17.221l4.2,1.428c5.964,2.016,8.316,4.116,8.316,7.14,0,2.856-2.772,4.956-7.224,4.956a15.6,15.6,0,0,1-12.348-6.8L61.67,225.159C66.291,231.879,74.355,235.827,83.763,235.827Zm59.471,0c14.281,0,24.529-9.744,24.529-24.612V175.178H154.407v36.205c0,7.14-4.537,11.508-11.173,11.508s-11.172-4.368-11.172-11.508V175.178H118.706v36.037C118.706,226.083,128.87,235.827,143.234,235.827Zm72.323-13.692,17.389-24.109v36.793h13.44V175.178h-12.18l-18.649,25.7-18.648-25.7h-12.18v59.641h13.356V198.026Zm79.295,0,17.389-24.109v36.793h13.44V175.178H313.5l-18.649,25.7-18.648-25.7H264.023v59.641H277.38V198.026Zm48.466,12.684h37.8V222.051H356.675V211.383h19.4V198.614h-19.4V187.946h24.444V175.178h-37.8v59.641Zm53,0h13.357V210.207h2.184l19.824,24.612h16.045l-21.085-26.292c7.56-2.688,11.676-7.645,11.676-15.373,0-9.912-7.224-17.976-18.48-17.976H396.322v59.641Zm13.357-35.953V187.442h8.568c3.948,0,6.8,2.1,6.8,5.712,0,3.444-2.856,5.712-6.8,5.712h-8.568Zm43.174,12.181h24.7v-12.1h-24.7v12.1ZM112.912,311.819H125.6l13.861-59.641H125.176l-8.148,37.8-16.8-38.809L83.511,289.979l-8.148-37.8H61.082l13.776,59.641H87.543l12.685-29.232Zm39.142,0h37.8V299.051H165.411V288.383h19.4V275.614h-19.4V264.946h24.444V252.178h-37.8v59.641Zm53,0h13.357V252.178H205.058v59.641Zm60.144,1.009c9.66,0,19.153-2.857,24.445-8.821V275.7h-24.7v12.517h11.677v8.82c-2.521,2.016-6.889,2.856-11.593,2.856-11.676,0-18.816-7.728-18.816-17.892a17.507,17.507,0,0,1,17.976-17.893,19.81,19.81,0,0,1,15.037,6.384l9.408-9.156c-5.712-6.3-13.861-10.164-24.445-10.164-18.48,0-31.417,13.86-31.417,30.829C232.777,299.471,246.638,312.828,265.2,312.828Zm39.982-1.009H318.54v-23.6h24.025v23.6h13.356V252.178H342.565V275.53H318.54V252.178H305.184v59.641Zm79.128,0h13.441V264.946h15.372V252.178H369.108v12.768h15.2v46.873Zm-318.357,77H92.163c10.249,0,18.145-7.728,18.145-17.556a15.585,15.585,0,0,0-8.484-14.112,14.039,14.039,0,0,0,4.284-10.249,17.728,17.728,0,0,0-17.725-17.724H65.955v59.641Zm13.356-35.533V341.358h7.56a6.062,6.062,0,0,1,6.216,6.048,5.978,5.978,0,0,1-6.216,5.88h-7.56Zm0,23.269V364.627H90.987a6.067,6.067,0,0,1,6.3,5.964,5.994,5.994,0,0,1-6.216,5.964H79.311Zm45.023,12.264h38.053V376.051h-24.7V329.178H124.334v59.641Zm45.023,0H183.3l5.292-12.6h24.7l5.292,12.6h13.945L206.99,329.178h-12.1Zm24.108-24.192,7.477-17.977,7.476,17.977H193.465Zm47.292,24.192H286.79V376.051H258.817l27.469-37.717v-9.156H241.177v12.768h26.965l-27.385,37.717v9.156Zm60.647,0h37.8V376.051H314.761V365.383h19.4V352.614h-19.4V341.946h24.444V329.178H301.4v59.641Zm53,0h13.357V364.207h2.184l19.824,24.612h16.045l-21.085-26.292c7.56-2.688,11.676-7.644,11.676-15.373,0-9.912-7.224-17.976-18.48-17.976H354.408v59.641Zm13.357-35.953V341.442h8.568c3.948,0,6.8,2.1,6.8,5.712,0,3.444-2.856,5.712-6.8,5.712h-8.568Zm65.1,36.962c12.6,0,21.252-7.561,21.336-18.4,0.084-8.988-5.544-14.7-14.2-17.809l-4.2-1.512c-6.3-2.268-9.241-3.7-9.241-6.888,0-3.108,3.612-4.536,7.225-4.536a13.266,13.266,0,0,1,10.332,4.956l8.736-9.24a24.886,24.886,0,0,0-19.236-8.232c-11.929,0-20.581,6.8-20.581,18.4,0,8.149,5.376,13.945,15.036,17.221l4.2,1.428c5.964,2.016,8.316,4.116,8.316,7.14,0,2.856-2.772,4.956-7.224,4.956a15.6,15.6,0,0,1-12.349-6.8l-10.248,8.652C415.391,385.879,423.455,389.828,432.864,389.828Z"/>
    <path id="_3" data-name="3" class="cls-2" d="M54.53,143.346c29.246,0,48.743-17.352,48.743-41.724,0-15.6-8.968-26.126-18.327-30.61A38.6,38.6,0,0,0,99.374,41.181c0-21.642-15.793-40.749-45.429-40.749C29.769,0.432,5.2,17.395,5.2,46.835H34.643c-0.2-9.359,7.6-17.352,19.3-17.352,8.969,0,15.988,5.849,15.793,14.233-0.195,8.774-5.849,15.013-18.132,15.013H41.077V82.32H53.165c12.478,0,20.667,6.824,20.472,16.768-0.2,8.969-7.8,15.208-19.107,15.208-12.673,0-21.447-6.044-22.812-18.718H2.473C3.642,127.359,28.794,143.346,54.53,143.346Z"/>
  </g>
</svg>
