<svg id="Blazer_copy" data-name="Blazer copy" xmlns="http://www.w3.org/2000/svg" width="420" height="141" viewBox="0 0 420 141">
  <defs>
    <style>
      .cls-1 {
        fill-rule: evenodd;
      }
    </style>
  </defs>
  <g id="layer2">
    <path id="Feel_the_breeze_in_a_Seersucker_Blazer_crafted_from_light_brea" data-name="Feel the breeze in a Seersucker Blazer—crafted from light, brea" class="cls-1" d="M15.328,2.94V0.18H3.42a1.825,1.825,0,0,1,.72,1.68,5.673,5.673,0,0,1-.09.93L1.62,18.208c-0.24,1.59-.72,2.13-1.2,2.37H5.79a2.376,2.376,0,0,1-.87-2.07,3.664,3.664,0,0,1,.09-0.78L6.27,9.9H9.749a4,4,0,0,1,2.76.84l-0.24-3.12s-0.48.84-2.25,0.84H6.48L7.589,1.68h1.2C15.088,1.68,15.328,2.94,15.328,2.94Zm11.94,9.9c0-4.319-1.92-6.569-5.429-6.569-3.9,0-6.959,3.42-6.959,7.949,0,4.109,2.46,6.6,6.149,6.6a6.2,6.2,0,0,0,5.939-4.829,6.768,6.768,0,0,1-4.859,2.64c-1.89,0-4.02-1.26-4.02-4.529a5.8,5.8,0,0,1,.12-1.26h9.059Zm-2.91-1.41H18.45c0.54-2.25,1.71-3.81,3.3-3.81C23.879,7.619,24.359,9.929,24.359,11.429Zm18.27,1.41c0-4.319-1.92-6.569-5.429-6.569-3.9,0-6.959,3.42-6.959,7.949,0,4.109,2.46,6.6,6.149,6.6a6.2,6.2,0,0,0,5.939-4.829,6.768,6.768,0,0,1-4.859,2.64c-1.89,0-4.02-1.26-4.02-4.529a5.8,5.8,0,0,1,.12-1.26h9.059Zm-2.91-1.41H33.81c0.54-2.25,1.71-3.81,3.3-3.81C39.239,7.619,39.719,9.929,39.719,11.429ZM51.36-.06l-4.169.72a1.181,1.181,0,0,1,.66,1.35A8.666,8.666,0,0,1,47.7,3.6l-1.41,9.029a52.2,52.2,0,0,0-.72,6.449,1.489,1.489,0,0,0,1.71,1.65c0.36,0,2.28-.06,2.7-0.15-0.81-.36-1.02-0.87-1.02-3.18a45.45,45.45,0,0,1,.63-5.969ZM69.179,6.66H65.22l0.57-3.18L60.451,8.249h1.5l-1.29,7.889a6.768,6.768,0,0,0-.09,1.05c0,2.49,1.38,3.63,3.63,3.63a3.732,3.732,0,0,0,3.9-2.91,3.255,3.255,0,0,1-2.4,1.05c-0.81,0-1.92-.36-1.92-2.31a5.068,5.068,0,0,1,.09-0.9l1.08-7.5h3.989Zm15.18,13.918c-0.81-.39-1.02-0.9-1.02-3.239,0-1.71.39-5.009,0.39-5.969,0-3.539-1.74-5.1-4.169-5.1a4.379,4.379,0,0,0-3.84,2.22L77.13-.15l-4.2.75c0.39,0.09.6,0.57,0.6,1.47a13.535,13.535,0,0,1-.21,2.19L71.1,18.6c-0.18,1.29-.51,1.74-0.99,1.98H74.73a1.64,1.64,0,0,1-.57-1.5,5.331,5.331,0,0,1,.06-0.93l1.23-7.859a3.313,3.313,0,0,1,2.7-1.95c1.44,0,2.43.87,2.43,3.03,0,2.37-.45,5.279-0.45,7.679a1.4,1.4,0,0,0,1.56,1.68C82.049,20.728,83.939,20.668,84.359,20.578Zm15.21-7.739c0-4.319-1.92-6.569-5.429-6.569-3.9,0-6.959,3.42-6.959,7.949,0,4.109,2.46,6.6,6.149,6.6a6.2,6.2,0,0,0,5.939-4.829,6.768,6.768,0,0,1-4.859,2.64c-1.89,0-4.019-1.26-4.019-4.529a5.791,5.791,0,0,1,.12-1.26h9.059Zm-2.91-1.41H90.75c0.54-2.25,1.71-3.81,3.3-3.81C96.179,7.619,96.659,9.929,96.659,11.429Zm25.44,0.63c0-3.33-1.47-5.819-4.41-5.819A5.146,5.146,0,0,0,114,7.979L115.26-.06l-4.17.72a1.352,1.352,0,0,1,.63,1.44,10.131,10.131,0,0,1-.15,1.47l-1.62,10.139c-0.78,4.949-1.739,6.479-2.879,6.869,0.42,0.09,2.429.15,2.789,0.15a1.93,1.93,0,0,0,1.86-1.11,4.39,4.39,0,0,0,3.3,1.2C119.1,20.818,122.1,16.948,122.1,12.059Zm-3.03-.18c-0.03,2.25-1.05,7.589-4.229,7.589a2.494,2.494,0,0,1-2.49-1.86s0.63-2.79,1.38-7.979a3.222,3.222,0,0,1,2.549-1.56C117.539,8.069,119.069,8.969,119.069,11.879Zm16.53-1.89c0-2.61-.81-3.72-2.58-3.72-2.219,0-3.239,2.7-3.239,2.7l0.42-2.7-4.08.72a1.657,1.657,0,0,1,.6,1.59,8.7,8.7,0,0,1-.12,1.44L125.28,18.6c-0.21,1.41-.54,1.74-1.02,1.98h4.68a1.707,1.707,0,0,1-.51-1.5c0-.27.03-0.6,0.06-0.93l0.81-5.309c0.27-1.74,1.35-4.079,3.539-4.079A3.505,3.505,0,0,1,135.6,9.989Zm13.77,2.85c0-4.319-1.92-6.569-5.429-6.569-3.9,0-6.959,3.42-6.959,7.949,0,4.109,2.459,6.6,6.149,6.6a6.2,6.2,0,0,0,5.939-4.829,6.769,6.769,0,0,1-4.859,2.64c-1.89,0-4.02-1.26-4.02-4.529a5.791,5.791,0,0,1,.12-1.26h9.059Zm-2.91-1.41H140.55c0.54-2.25,1.71-3.81,3.3-3.81C145.979,7.619,146.459,9.929,146.459,11.429Zm18.27,1.41c0-4.319-1.92-6.569-5.429-6.569-3.9,0-6.959,3.42-6.959,7.949,0,4.109,2.459,6.6,6.149,6.6a6.2,6.2,0,0,0,5.939-4.829,6.769,6.769,0,0,1-4.859,2.64c-1.89,0-4.02-1.26-4.02-4.529a5.791,5.791,0,0,1,.12-1.26h9.059Zm-2.91-1.41H155.91c0.54-2.25,1.71-3.81,3.3-3.81C161.339,7.619,161.819,9.929,161.819,11.429Zm19.08,9.449a3.355,3.355,0,0,1-1.89.57c-4.949,0-5.489-2.31-8.189-2.31a5.262,5.262,0,0,0-.9.09L179.009,6.66H168.72l-0.96,2.4c0.96-.72,2.43-0.96,6.84-0.96l-9,12.478a4.669,4.669,0,0,1,1.62-.3c3.779,0,5.7,4.019,9.628,4.019C180.959,24.3,180.9,20.877,180.9,20.877Zm11.28-8.039c0-4.319-1.92-6.569-5.429-6.569-3.9,0-6.959,3.42-6.959,7.949,0,4.109,2.459,6.6,6.149,6.6a6.2,6.2,0,0,0,5.939-4.829,6.767,6.767,0,0,1-4.859,2.64c-1.89,0-4.02-1.26-4.02-4.529a5.791,5.791,0,0,1,.12-1.26h9.059Zm-2.91-1.41H183.36c0.54-2.25,1.71-3.81,3.3-3.81C188.79,7.619,189.269,9.929,189.269,11.429ZM207.45,2.07a1.785,1.785,0,1,0-1.8,1.8A1.812,1.812,0,0,0,207.45,2.07Zm-0.87,4.2-4.139.72a1.2,1.2,0,0,1,.66,1.38,10.052,10.052,0,0,1-.18,1.65l-0.36,2.43a54.326,54.326,0,0,0-.72,6.6,1.489,1.489,0,0,0,1.679,1.68c0.36,0,2.28-.06,2.73-0.15-0.81-.39-1.05-0.9-1.05-3.239a53.839,53.839,0,0,1,.63-6.119Zm16.529,14.308c-0.81-.39-1.02-0.9-1.02-3.239,0-1.71.42-5.009,0.42-5.969,0-3.539-1.77-5.1-4.2-5.1a4.4,4.4,0,0,0-3.869,2.28l0.33-2.31-4.079.72c0.33,0.12.63,0.6,0.63,1.68a13.581,13.581,0,0,1-.12,1.38l-1.32,8.579c-0.21,1.29-.54,1.74-0.99,1.98h4.589a1.64,1.64,0,0,1-.57-1.5,5.673,5.673,0,0,1,.09-0.93l1.2-7.859a3.314,3.314,0,0,1,2.7-1.95c1.469,0,2.459.99,2.459,3.03,0,2.37-.48,5.279-0.48,7.679a1.41,1.41,0,0,0,1.56,1.68C220.8,20.728,222.689,20.668,223.109,20.578ZM246.119,6.27l-3.18.96a5.752,5.752,0,0,0-3.179-.96c-3.15,0-7.019,2.34-7.019,9.149,0,2.76,1.079,5.4,4.349,5.4a5.629,5.629,0,0,0,3.959-1.74,1.388,1.388,0,0,0,1.56,1.65c0.36,0,2.37-.06,2.82-0.15-0.84-.39-1.05-0.9-1.05-3.239A75.8,75.8,0,0,1,246.119,6.27Zm-3.78,3.03c-0.12.75-.48,2.91-0.57,3.449-0.24,1.44-.51,3.18-0.66,4.829A3.953,3.953,0,0,1,238.5,18.9c-0.93,0-2.55-.84-2.55-3.84,0-3.06,1.38-7.349,4.259-7.349A2.21,2.21,0,0,1,242.339,9.3Zm24.42-8.219a9.159,9.159,0,0,0-4.89-1.26c-3.059,0-5.969,1.71-5.969,5.609,0,2.34,1.89,4.049,3.33,5.279,1.739,1.44,3.419,2.91,3.419,4.979a3.449,3.449,0,0,1-3.629,3.51c-2.16,0-4.02-1.62-4.74-4.109l-0.27,3.81c0.54,0.48,2.01,1.98,5.61,1.98,3.269,0,6.569-1.77,6.569-6.029,0-2.07-1.17-3.719-3.27-5.549-0.42-.36-0.84-0.69-1.2-0.99-1.8-1.47-2.489-2.52-2.489-4.049a2.8,2.8,0,0,1,3.089-2.88,4.521,4.521,0,0,1,4.29,3.15ZM282,12.839c0-4.319-1.919-6.569-5.429-6.569-3.9,0-6.959,3.42-6.959,7.949,0,4.109,2.46,6.6,6.149,6.6a6.2,6.2,0,0,0,5.94-4.829,6.769,6.769,0,0,1-4.86,2.64c-1.89,0-4.019-1.26-4.019-4.529a5.791,5.791,0,0,1,.12-1.26H282Zm-2.909-1.41H273.18c0.54-2.25,1.709-3.81,3.3-3.81C278.609,7.619,279.089,9.929,279.089,11.429Zm18.269,1.41c0-4.319-1.919-6.569-5.429-6.569-3.9,0-6.959,3.42-6.959,7.949,0,4.109,2.46,6.6,6.149,6.6a6.2,6.2,0,0,0,5.94-4.829,6.769,6.769,0,0,1-4.86,2.64c-1.89,0-4.019-1.26-4.019-4.529a5.791,5.791,0,0,1,.12-1.26h9.058Zm-2.909-1.41H288.54c0.54-2.25,1.709-3.81,3.3-3.81C293.969,7.619,294.449,9.929,294.449,11.429Zm16.05-1.44c0-2.61-.81-3.72-2.58-3.72-2.219,0-3.239,2.7-3.239,2.7l0.42-2.7-4.08.72a1.657,1.657,0,0,1,.6,1.59,8.7,8.7,0,0,1-.12,1.44L300.18,18.6c-0.21,1.41-.539,1.74-1.019,1.98h4.679a1.707,1.707,0,0,1-.51-1.5c0-.27.03-0.6,0.06-0.93l0.81-5.309c0.27-1.74,1.35-4.079,3.539-4.079A3.505,3.505,0,0,1,310.5,9.989Zm10.71-2.79a6.414,6.414,0,0,0-3.57-.93c-2.069,0-4.259,1.2-4.259,3.959a4.753,4.753,0,0,0,2.01,3.45c1.259,1.08,2.369,1.98,2.369,3.39a2.039,2.039,0,0,1-2.159,2.16c-1.56,0-2.64-1.26-3.06-3.569l-0.27,3.72a4.912,4.912,0,0,0,3.9,1.44c2.22,0,4.89-1.23,4.89-4.229,0-1.89-1.41-3.269-3-4.559-1.2-.96-1.65-1.65-1.65-2.61a1.726,1.726,0,0,1,1.86-1.77c1.86,0,2.49,1.92,2.82,3Zm16.2-.93-4.2.72c0.54,0.21.69,0.81,0.54,2.22a12.345,12.345,0,0,1-.15,1.35l-0.27,1.65c-0.36,2.25-.72,4.649-0.81,5.339a3.783,3.783,0,0,1-2.61,1.23c-1.29,0-2.04-.75-2.04-2.52a23.976,23.976,0,0,1,.33-3.569l0.96-6.419-4.169.72a1.061,1.061,0,0,1,.66,1.23,17.128,17.128,0,0,1-.15,1.8l-0.6,3.749a15.11,15.11,0,0,0-.24,2.849c0,2.61,1.38,4.2,3.9,4.2a6.183,6.183,0,0,0,3.96-1.74,1.388,1.388,0,0,0,1.559,1.65c0.36,0,2.37-.06,2.82-0.15-0.84-.39-1.05-0.9-1.05-3.239C335.848,15.208,337.408,6.27,337.408,6.27Zm14.31,1.2a7.121,7.121,0,0,0-3.9-1.2c-5.189,0-7.559,4.319-7.559,8.219,0,3.42,1.62,6.329,5.309,6.329A5.561,5.561,0,0,0,351,16.588a5.177,5.177,0,0,1-3.869,1.98c-2.28,0-3.6-1.68-3.6-4.529,0-3.12,1.41-6.329,4.47-6.329a3.728,3.728,0,0,1,3.359,3.06Zm15.69,13.108a3.919,3.919,0,0,1-1.23-.9,15.1,15.1,0,0,1-1.409-2.64l-0.51-1.26c-0.9-2.19-2.19-3.389-3.96-3.389,0.72-1.29,2.4-3.66,4.59-3.66,2.039,0,2.309.69,2.309,0.69s0.09-.75.09-1.2a1.96,1.96,0,0,0-2.13-2.07c-4.139,0-6.059,5.219-6.929,6.809h-0.06L360.239-.06l-4.2.72a1.27,1.27,0,0,1,.66,1.38,12.626,12.626,0,0,1-.15,1.56l-2.4,15.058c-0.21,1.35-.51,1.68-0.99,1.92h4.56a1.3,1.3,0,0,1-.48-1.2,5.939,5.939,0,0,1,.12-1.17l0.779-4.949h0.3c1.17,0,2.01,2.1,2.49,3.18l1.44,3.12a1.344,1.344,0,0,0,1.32,1.05Zm13.68-7.739c0-4.319-1.919-6.569-5.429-6.569-3.9,0-6.959,3.42-6.959,7.949,0,4.109,2.46,6.6,6.149,6.6a6.2,6.2,0,0,0,5.939-4.829,6.765,6.765,0,0,1-4.859,2.64c-1.89,0-4.019-1.26-4.019-4.529a5.791,5.791,0,0,1,.12-1.26h9.058Zm-2.909-1.41H372.27c0.539-2.25,1.709-3.81,3.3-3.81C377.7,7.619,378.179,9.929,378.179,11.429Zm16.05-1.44c0-2.61-.81-3.72-2.58-3.72-2.219,0-3.239,2.7-3.239,2.7l0.42-2.7-4.08.72a1.657,1.657,0,0,1,.6,1.59,8.7,8.7,0,0,1-.12,1.44L383.91,18.6c-0.21,1.41-.54,1.74-1.02,1.98h4.68a1.707,1.707,0,0,1-.51-1.5c0-.27.03-0.6,0.06-0.93l0.81-5.309c0.27-1.74,1.35-4.079,3.539-4.079A3.505,3.505,0,0,1,394.229,9.989Zm-378.9,44.5a4.95,4.95,0,0,0-4.5-5.069s4.379-.93,4.379-5.069c0-3.33-3.33-4.169-5.039-4.169H3.72a1.656,1.656,0,0,1,.66,1.53,4.734,4.734,0,0,1-.09.84L1.83,58.208c-0.24,1.47-.63,2.13-1.11,2.37H7.169a12.3,12.3,0,0,0,4.019-.54A5.88,5.88,0,0,0,15.328,54.488Zm-3.3-9.719c0,2.85-1.86,4.379-4.5,4.379a6.414,6.414,0,0,1-1.02-.06l1.05-7.109a3.251,3.251,0,0,1,1.47-.3A2.851,2.851,0,0,1,12.029,44.77Zm-0.21,9.359A4.64,4.64,0,0,1,7.08,59.078a6.234,6.234,0,0,1-2.07-.48l1.23-8.039s1.17-.03,2.07-0.03A3.377,3.377,0,0,1,11.819,54.128Zm12.6-14.188-4.169.72a1.182,1.182,0,0,1,.66,1.35,8.665,8.665,0,0,1-.15,1.59l-1.41,9.029a52.184,52.184,0,0,0-.72,6.449,1.489,1.489,0,0,0,1.71,1.65c0.36,0,2.28-.06,2.7-0.15-0.81-.36-1.02-0.87-1.02-3.18a45.468,45.468,0,0,1,.63-5.969ZM39.929,46.27l-3.179.96a5.752,5.752,0,0,0-3.18-.96c-3.15,0-7.019,2.34-7.019,9.149,0,2.76,1.08,5.4,4.349,5.4a5.632,5.632,0,0,0,3.959-1.74,1.388,1.388,0,0,0,1.56,1.65c0.36,0,2.37-.06,2.82-0.15-0.84-.39-1.05-0.9-1.05-3.239A75.805,75.805,0,0,1,39.929,46.27ZM36.149,49.3c-0.12.75-.48,2.91-0.57,3.45-0.24,1.44-.51,3.18-0.66,4.829a3.955,3.955,0,0,1-2.61,1.32c-0.93,0-2.55-.84-2.55-3.839,0-3.06,1.38-7.349,4.259-7.349A2.21,2.21,0,0,1,36.149,49.3Zm20.4,11.578a3.354,3.354,0,0,1-1.89.57c-4.949,0-5.489-2.31-8.189-2.31a5.259,5.259,0,0,0-.9.09L54.659,46.66H44.37l-0.96,2.4c0.96-.72,2.43-0.96,6.839-0.96l-9,12.478a4.669,4.669,0,0,1,1.62-.3c3.779,0,5.7,4.019,9.629,4.019C56.608,64.3,56.548,60.877,56.548,60.877Zm11.28-8.039c0-4.319-1.92-6.569-5.429-6.569-3.9,0-6.959,3.419-6.959,7.949,0,4.109,2.46,6.6,6.149,6.6a6.2,6.2,0,0,0,5.939-4.829,6.768,6.768,0,0,1-4.859,2.64c-1.89,0-4.02-1.26-4.02-4.529a5.791,5.791,0,0,1,.12-1.26h9.059Zm-2.91-1.41H59.01c0.54-2.25,1.71-3.809,3.3-3.809C64.439,47.619,64.919,49.929,64.919,51.429Zm16.05-1.44c0-2.61-.81-3.719-2.58-3.719-2.22,0-3.24,2.7-3.24,2.7l0.42-2.7-4.079.72a1.657,1.657,0,0,1,.6,1.59,8.693,8.693,0,0,1-.12,1.44L70.651,58.6c-0.21,1.41-.54,1.74-1.02,1.98H74.31a1.707,1.707,0,0,1-.51-1.5c0-.27.03-0.6,0.06-0.93l0.81-5.309c0.27-1.74,1.35-4.08,3.54-4.08A3.5,3.5,0,0,1,80.969,49.989Zm19.439,1.68H83.521l-0.33,1.92h16.917Zm15.481-4.2a7.123,7.123,0,0,0-3.9-1.2c-5.189,0-7.559,4.319-7.559,8.219,0,3.419,1.62,6.329,5.309,6.329a5.562,5.562,0,0,0,5.43-4.23,5.18,5.18,0,0,1-3.87,1.98c-2.279,0-3.6-1.68-3.6-4.529,0-3.12,1.41-6.329,4.469-6.329a3.729,3.729,0,0,1,3.36,3.06Zm13.05,2.52c0-2.61-.81-3.719-2.58-3.719-2.219,0-3.239,2.7-3.239,2.7l0.42-2.7-4.08.72a1.657,1.657,0,0,1,.6,1.59,8.7,8.7,0,0,1-.12,1.44L118.62,58.6c-0.21,1.41-.54,1.74-1.019,1.98h4.679a1.707,1.707,0,0,1-.51-1.5c0-.27.03-0.6,0.06-0.93l0.81-5.309c0.27-1.74,1.35-4.08,3.539-4.08A3.505,3.505,0,0,1,128.939,49.989Zm14.429-3.719-3.179.96a5.753,5.753,0,0,0-3.18-.96c-3.149,0-7.019,2.34-7.019,9.149,0,2.76,1.08,5.4,4.35,5.4a5.633,5.633,0,0,0,3.959-1.74,1.388,1.388,0,0,0,1.56,1.65c0.36,0,2.37-.06,2.82-0.15-0.84-.39-1.05-0.9-1.05-3.239A75.912,75.912,0,0,1,143.368,46.27Zm-3.779,3.03c-0.12.75-.48,2.91-0.57,3.45-0.24,1.44-.51,3.18-0.66,4.829a3.956,3.956,0,0,1-2.609,1.32c-0.93,0-2.55-.84-2.55-3.839,0-3.06,1.38-7.349,4.259-7.349A2.21,2.21,0,0,1,139.589,49.3Zm16.62-5.639V40.72a4.086,4.086,0,0,0-2.82-.87c-2.64,0-4.2,1.32-4.769,5.159l-0.24,1.68H147l-0.24,1.47h1.38l-1.38,9.269c-0.84,5.549-2.91,6.059-3.839,6.239a1.95,1.95,0,0,0,1.949,1.2c2.25,0,4.17-1.47,4.92-6.719l1.409-9.989h3.81l0.24-1.47h-3.84l0.33-2.4c0.24-1.56.66-3,2.13-3C155.429,41.29,156.209,43.66,156.209,43.66Zm9.93,3H162.18l0.569-3.18-5.339,4.769h1.5l-1.29,7.889a6.768,6.768,0,0,0-.09,1.05c0,2.49,1.38,3.63,3.63,3.63a3.732,3.732,0,0,0,3.9-2.91,3.255,3.255,0,0,1-2.4,1.05c-0.809,0-1.919-.36-1.919-2.31a5.068,5.068,0,0,1,.09-0.9l1.08-7.5H165.9Zm13.229,6.179c0-4.319-1.919-6.569-5.429-6.569-3.9,0-6.959,3.419-6.959,7.949,0,4.109,2.46,6.6,6.149,6.6a6.2,6.2,0,0,0,5.94-4.829,6.769,6.769,0,0,1-4.86,2.64c-1.889,0-4.019-1.26-4.019-4.529a5.791,5.791,0,0,1,.12-1.26h9.058Zm-2.909-1.41H170.55c0.54-2.25,1.71-3.809,3.3-3.809C175.979,47.619,176.459,49.929,176.459,51.429Zm19.949-11.488-4.169.72a1.222,1.222,0,0,1,.63,1.32,14.553,14.553,0,0,1-.15,1.62l-0.57,3.75a3.582,3.582,0,0,0-2.7-1.08c-4.679,0-7.229,5.009-7.229,9.149,0,2.76,1.08,5.4,4.35,5.4a5.907,5.907,0,0,0,4.019-1.74,1.369,1.369,0,0,0,1.53,1.65c0.36,0,2.37-.06,2.82-0.15-0.81-.36-1.02-0.87-1.02-3.18C193.919,55.508,196.408,39.941,196.408,39.941ZM191.819,49.3l-0.54,3.45c-0.15,1.02-.51,3.27-0.66,4.829a4.267,4.267,0,0,1-2.639,1.32c-0.93,0-2.55-.84-2.55-3.839,0-2.64,1.17-7.349,4.439-7.349A2.106,2.106,0,0,1,191.819,49.3Zm23.13-5.639V40.72a4.086,4.086,0,0,0-2.82-.87c-2.64,0-4.2,1.32-4.769,5.159l-0.24,1.68h-1.38l-0.24,1.47h1.38l-1.38,9.269c-0.84,5.549-2.91,6.059-3.84,6.239a1.951,1.951,0,0,0,1.95,1.2c2.25,0,4.17-1.47,4.919-6.719l1.41-9.989h3.81l0.24-1.47h-3.84l0.33-2.4c0.24-1.56.66-3,2.13-3C214.169,41.29,214.949,43.66,214.949,43.66Zm11.429,6.329c0-2.61-.81-3.719-2.579-3.719-2.22,0-3.24,2.7-3.24,2.7l0.42-2.7-4.079.72a1.656,1.656,0,0,1,.6,1.59,8.6,8.6,0,0,1-.12,1.44L216.06,58.6c-0.21,1.41-.54,1.74-1.02,1.98h4.679a1.707,1.707,0,0,1-.51-1.5c0-.27.03-0.6,0.06-0.93l0.81-5.309c0.27-1.74,1.35-4.08,3.54-4.08A3.5,3.5,0,0,1,226.378,49.989Zm13.86,2.13c0-3.779-2.49-5.849-5.579-5.849-4.8,0-7.409,4.559-7.409,8.669,0,3.749,2.46,5.879,5.579,5.879C237.748,60.818,240.238,56.348,240.238,52.119Zm-3.179.03c0,3.48-1.26,7.289-3.87,7.289-1.5,0-2.759-1.92-2.759-4.5,0-3.419,1.259-7.289,3.839-7.289C235.8,47.649,237.059,49.569,237.059,52.149Zm27.118,8.429c-0.84-.39-1.05-0.9-1.05-3.239,0-1.71.42-5.009,0.42-5.969,0-3.539-1.89-5.1-4.32-5.1a4.47,4.47,0,0,0-3.959,2.4,3.5,3.5,0,0,0-3.6-2.4,4.065,4.065,0,0,0-3.749,2.28l0.36-2.31-4.11.72c0.33,0.12.63,0.6,0.63,1.68a13.58,13.58,0,0,1-.12,1.38L243.36,58.6c-0.21,1.29-.54,1.74-0.99,1.98h4.589a1.64,1.64,0,0,1-.57-1.5,5.673,5.673,0,0,1,.09-0.93l1.17-7.619s0.72-2.25,2.61-2.25c1.229,0,2.429.66,2.189,3.09-0.21,2.34-.63,5.279-0.63,7.679a1.41,1.41,0,0,0,1.56,1.68c0.36,0,2.25-.06,2.67-0.15-0.81-.39-1.02-0.9-1.02-3.239,0-1.71.45-5.009,0.54-5.969,0.18-1.8.99-3.09,2.55-3.09,1.229,0,2.279.81,2.279,3.09,0,2.37-.48,5.279-0.48,7.679a1.41,1.41,0,0,0,1.56,1.68C261.837,60.728,263.727,60.668,264.177,60.578Zm15.6-20.637-4.17.72a1.181,1.181,0,0,1,.66,1.35,8.666,8.666,0,0,1-.15,1.59l-1.41,9.029a52.186,52.186,0,0,0-.72,6.449,1.489,1.489,0,0,0,1.71,1.65c0.36,0,2.28-.06,2.7-0.15-0.81-.36-1.02-0.87-1.02-3.18a45.456,45.456,0,0,1,.63-5.969Zm8.13,2.13a1.785,1.785,0,1,0-1.8,1.8A1.812,1.812,0,0,0,287.909,42.07Zm-0.87,4.2-4.14.72a1.2,1.2,0,0,1,.66,1.38,10.052,10.052,0,0,1-.18,1.65l-0.36,2.43a54.326,54.326,0,0,0-.72,6.6,1.49,1.49,0,0,0,1.68,1.68c0.36,0,2.28-.06,2.73-0.15-0.81-.39-1.05-0.9-1.05-3.239a53.839,53.839,0,0,1,.63-6.119Zm16.319,0-2.97.99a5.341,5.341,0,0,0-3.209-.99c-3.15,0-7.079,2.43-7.079,8.7,0,2.76,1.169,5.4,4.469,5.4a5.831,5.831,0,0,0,3.75-1.56l-0.271,1.98c-0.419,3.179-1.949,4.769-4.319,4.769-2.67,0-4.139-2.28-4.469-4.319l-0.33,4.109a7.9,7.9,0,0,0,4.949,1.77c4.26,0,6.929-1.71,7.469-6.839,0.21-1.77.39-3.75,0.51-4.5Zm-3.69,3.03-0.72,4.589c-0.21,1.26-.39,2.55-0.48,3.24a4.433,4.433,0,0,1-2.609,1.32c-0.93,0-2.52-.84-2.52-3.839,0-2.94,1.05-6.9,4.32-6.9A2.291,2.291,0,0,1,299.668,49.3Zm19.679,11.278c-0.809-.39-1.019-0.9-1.019-3.239,0-1.71.39-5.009,0.39-5.969,0-3.539-1.74-5.1-4.17-5.1a4.379,4.379,0,0,0-3.839,2.22l1.409-8.639-4.2.75c0.39,0.09.6,0.57,0.6,1.47a13.525,13.525,0,0,1-.21,2.19L306.089,58.6c-0.18,1.29-.51,1.74-0.99,1.98h4.62a1.64,1.64,0,0,1-.57-1.5,5.331,5.331,0,0,1,.06-0.93l1.23-7.859a3.313,3.313,0,0,1,2.7-1.95c1.44,0,2.43.87,2.43,3.03,0,2.37-.45,5.279-0.45,7.679a1.4,1.4,0,0,0,1.56,1.68C317.038,60.728,318.928,60.668,319.347,60.578ZM331.138,46.66h-3.96l0.57-3.18-5.339,4.769h1.5l-1.29,7.889a6.768,6.768,0,0,0-.09,1.05c0,2.49,1.38,3.63,3.63,3.63a3.732,3.732,0,0,0,3.9-2.91,3.255,3.255,0,0,1-2.4,1.05c-0.81,0-1.919-.36-1.919-2.31a5.068,5.068,0,0,1,.09-0.9l1.079-7.5h3.99Zm5.4,12.838c0-1.56-.72-2.4-1.86-2.4a1.818,1.818,0,0,0-1.83,1.83,1.745,1.745,0,0,0,1.74,1.83,2.241,2.241,0,0,0,.33-0.06s-0.03.48-.03,0.6a3.539,3.539,0,0,1-1.83,2.88,0.194,0.194,0,0,0-.18.15,0.256,0.256,0,0,0,.18.09C334.8,64.207,336.539,61.6,336.539,59.5ZM14.608,92.059c0-3.33-1.47-5.819-4.409-5.819a5.147,5.147,0,0,0-3.689,1.74l1.26-8.039L3.6,80.66a1.352,1.352,0,0,1,.63,1.44,10.126,10.126,0,0,1-.15,1.47L2.46,93.709c-0.78,4.949-1.74,6.48-2.88,6.87,0.42,0.089,2.43.149,2.79,0.149a1.929,1.929,0,0,0,1.86-1.109,4.39,4.39,0,0,0,3.3,1.2C11.609,100.817,14.608,96.948,14.608,92.059Zm-3.029-.18c-0.03,2.25-1.05,7.589-4.229,7.589a2.494,2.494,0,0,1-2.49-1.86s0.63-2.79,1.38-7.979a3.222,3.222,0,0,1,2.55-1.56C10.049,88.069,11.579,88.969,11.579,91.879Zm16.53-1.89c0-2.61-.81-3.72-2.58-3.72-2.22,0-3.24,2.7-3.24,2.7l0.42-2.7-4.079.72a1.657,1.657,0,0,1,.6,1.59,8.715,8.715,0,0,1-.12,1.44L17.79,98.6c-0.21,1.41-.54,1.74-1.02,1.98H21.45a1.708,1.708,0,0,1-.51-1.5c0-.27.03-0.6,0.06-0.93l0.81-5.309c0.27-1.74,1.35-4.079,3.54-4.079A3.5,3.5,0,0,1,28.109,89.989Zm13.77,2.85c0-4.319-1.92-6.569-5.429-6.569-3.9,0-6.959,3.419-6.959,7.949,0,4.109,2.46,6.6,6.149,6.6a6.2,6.2,0,0,0,5.939-4.829,6.768,6.768,0,0,1-4.859,2.64c-1.89,0-4.02-1.26-4.02-4.529a5.791,5.791,0,0,1,.12-1.26h9.059Zm-2.91-1.41H33.06c0.54-2.25,1.71-3.809,3.3-3.809C38.489,87.619,38.969,89.929,38.969,91.429ZM58.2,86.27l-3.18.96a5.752,5.752,0,0,0-3.18-.96c-3.15,0-7.019,2.34-7.019,9.149,0,2.76,1.08,5.4,4.349,5.4a5.63,5.63,0,0,0,3.959-1.739,1.387,1.387,0,0,0,1.56,1.649c0.36,0,2.37-.06,2.82-0.149-0.84-.39-1.05-0.9-1.05-3.24A75.8,75.8,0,0,1,58.2,86.27Zm-3.78,3.03c-0.12.75-.48,2.91-0.57,3.45-0.24,1.44-.51,3.18-0.66,4.829a3.955,3.955,0,0,1-2.61,1.32c-0.93,0-2.55-.84-2.55-3.84,0-3.06,1.38-7.349,4.259-7.349A2.21,2.21,0,0,1,54.419,89.3Zm15.51-2.64H65.97l0.57-3.18L61.2,88.249h1.5l-1.29,7.889a6.769,6.769,0,0,0-.09,1.05c0,2.49,1.38,3.629,3.63,3.629a3.732,3.732,0,0,0,3.9-2.909,3.255,3.255,0,0,1-2.4,1.05c-0.81,0-1.92-.36-1.92-2.31a5.077,5.077,0,0,1,.09-0.9l1.08-7.5h3.989Zm15.18,13.919c-0.81-.39-1.02-0.9-1.02-3.24,0-1.71.39-5.009,0.39-5.969,0-3.539-1.74-5.1-4.169-5.1a4.379,4.379,0,0,0-3.84,2.22l1.41-8.639-4.2.75c0.39,0.09.6,0.57,0.6,1.47a13.528,13.528,0,0,1-.21,2.19L71.85,98.6c-0.18,1.29-.51,1.74-0.99,1.98H75.48a1.641,1.641,0,0,1-.57-1.5,5.331,5.331,0,0,1,.06-0.93l1.23-7.859a3.313,3.313,0,0,1,2.7-1.95c1.44,0,2.43.87,2.43,3.03,0,2.37-.45,5.279-0.45,7.679a1.4,1.4,0,0,0,1.56,1.679C82.8,100.727,84.689,100.667,85.109,100.578ZM101.548,86.27l-3.179.96a5.752,5.752,0,0,0-3.18-.96c-3.15,0-7.019,2.34-7.019,9.149,0,2.76,1.08,5.4,4.349,5.4a5.63,5.63,0,0,0,3.959-1.739,1.387,1.387,0,0,0,1.56,1.649c0.36,0,2.37-.06,2.819-0.149-0.839-.39-1.049-0.9-1.049-3.24A75.918,75.918,0,0,1,101.548,86.27ZM97.769,89.3c-0.12.75-.48,2.91-0.57,3.45-0.24,1.44-.51,3.18-0.66,4.829a3.955,3.955,0,0,1-2.61,1.32c-0.93,0-2.55-.84-2.55-3.84,0-3.06,1.38-7.349,4.259-7.349A2.21,2.21,0,0,1,97.769,89.3Zm19.559,2.76c0-3.33-1.469-5.819-4.409-5.819a5.144,5.144,0,0,0-3.689,1.74l1.259-8.039-4.169.72a1.352,1.352,0,0,1,.63,1.44,10.13,10.13,0,0,1-.15,1.47l-1.62,10.139c-0.78,4.949-1.74,6.48-2.879,6.87,0.419,0.089,2.429.149,2.789,0.149a1.929,1.929,0,0,0,1.86-1.109,4.39,4.39,0,0,0,3.3,1.2C114.329,100.817,117.328,96.948,117.328,92.059Zm-3.029-.18c-0.03,2.25-1.05,7.589-4.23,7.589a2.493,2.493,0,0,1-2.489-1.86s0.63-2.79,1.38-7.979a3.219,3.219,0,0,1,2.549-1.56C112.769,88.069,114.3,88.969,114.3,91.879ZM126.33,79.941l-4.17.72a1.181,1.181,0,0,1,.66,1.35,8.666,8.666,0,0,1-.15,1.59l-1.41,9.029a52.38,52.38,0,0,0-.72,6.449,1.488,1.488,0,0,0,1.71,1.649c0.36,0,2.28-.06,2.7-0.149-0.81-.36-1.02-0.87-1.02-3.18a45.456,45.456,0,0,1,.63-5.969Zm14.459,12.9c0-4.319-1.92-6.569-5.429-6.569-3.9,0-6.959,3.419-6.959,7.949,0,4.109,2.459,6.6,6.149,6.6a6.2,6.2,0,0,0,5.939-4.829,6.767,6.767,0,0,1-4.859,2.64c-1.89,0-4.02-1.26-4.02-4.529a5.791,5.791,0,0,1,.12-1.26h9.059Zm-2.91-1.41H131.97c0.54-2.25,1.71-3.809,3.3-3.809C137.4,87.619,137.879,89.929,137.879,91.429Zm22.26-7.769V80.72a4.085,4.085,0,0,0-2.819-.87c-2.64,0-4.2,1.32-4.77,5.159l-0.24,1.68h-1.379l-0.24,1.47h1.379l-1.379,9.269c-0.84,5.549-2.91,6.059-3.84,6.239a1.951,1.951,0,0,0,1.95,1.2c2.25,0,4.169-1.47,4.919-6.719l1.41-9.989h3.81l0.239-1.47H155.34l0.33-2.4c0.24-1.56.66-3,2.13-3C159.359,81.29,160.139,83.66,160.139,83.66Zm13.08,2.61-3.18.96a5.747,5.747,0,0,0-3.179-.96c-3.15,0-7.019,2.34-7.019,9.149,0,2.76,1.08,5.4,4.349,5.4a5.631,5.631,0,0,0,3.96-1.739,1.387,1.387,0,0,0,1.559,1.649c0.36,0,2.37-.06,2.82-0.149-0.84-.39-1.05-0.9-1.05-3.24A75.8,75.8,0,0,1,173.219,86.27Zm-3.78,3.03c-0.12.75-.479,2.91-0.569,3.45-0.24,1.44-.51,3.18-0.66,4.829a3.956,3.956,0,0,1-2.61,1.32c-0.93,0-2.55-.84-2.55-3.84,0-3.06,1.38-7.349,4.26-7.349A2.209,2.209,0,0,1,169.439,89.3ZM189,92.059c0-3.33-1.47-5.819-4.41-5.819a5.148,5.148,0,0,0-3.689,1.74l1.26-8.039-4.17.72a1.352,1.352,0,0,1,.63,1.44,10.13,10.13,0,0,1-.15,1.47l-1.619,10.139c-0.78,4.949-1.74,6.48-2.88,6.87,0.42,0.089,2.43.149,2.79,0.149a1.928,1.928,0,0,0,1.859-1.109,4.391,4.391,0,0,0,3.3,1.2C186,100.817,189,96.948,189,92.059Zm-3.03-.18c-0.03,2.25-1.05,7.589-4.229,7.589a2.494,2.494,0,0,1-2.49-1.86s0.63-2.79,1.38-7.979a3.222,3.222,0,0,1,2.55-1.56C184.44,88.069,185.969,88.969,185.969,91.879Zm16.53-1.89c0-2.61-.81-3.72-2.579-3.72-2.22,0-3.24,2.7-3.24,2.7l0.42-2.7-4.08.72a1.657,1.657,0,0,1,.6,1.59,8.7,8.7,0,0,1-.12,1.44L192.181,98.6c-0.21,1.41-.54,1.74-1.02,1.98h4.679a1.708,1.708,0,0,1-.51-1.5c0-.27.03-0.6,0.06-0.93l0.81-5.309c0.27-1.74,1.35-4.079,3.54-4.079A3.5,3.5,0,0,1,202.5,89.989Zm8.25-7.919a1.785,1.785,0,1,0-1.8,1.8A1.812,1.812,0,0,0,210.749,82.07Zm-0.87,4.2-4.139.72a1.2,1.2,0,0,1,.66,1.38,10.051,10.051,0,0,1-.18,1.65l-0.36,2.43a54.326,54.326,0,0,0-.72,6.6,1.489,1.489,0,0,0,1.68,1.679c0.36,0,2.279-.06,2.729-0.149-0.809-.39-1.049-0.9-1.049-3.24a54,54,0,0,1,.629-6.119Zm14.609,1.2a7.117,7.117,0,0,0-3.9-1.2c-5.189,0-7.559,4.319-7.559,8.219,0,3.419,1.62,6.329,5.309,6.329a5.562,5.562,0,0,0,5.43-4.229,5.18,5.18,0,0,1-3.87,1.98c-2.28,0-3.6-1.68-3.6-4.529,0-3.12,1.409-6.329,4.469-6.329a3.729,3.729,0,0,1,3.36,3.06Zm30.149,13.109c-0.84-.39-1.05-0.9-1.05-3.24,0-1.71.42-5.009,0.42-5.969,0-3.539-1.89-5.1-4.319-5.1a4.471,4.471,0,0,0-3.96,2.4,3.5,3.5,0,0,0-3.6-2.4,4.066,4.066,0,0,0-3.75,2.28l0.36-2.31-4.109.72c0.33,0.12.63,0.6,0.63,1.68a13.58,13.58,0,0,1-.12,1.38L233.82,98.6c-0.21,1.29-.54,1.74-0.99,1.98h4.589a1.641,1.641,0,0,1-.57-1.5,5.673,5.673,0,0,1,.09-0.93l1.17-7.619s0.72-2.25,2.61-2.25c1.23,0,2.43.66,2.19,3.09-0.21,2.34-.63,5.279-0.63,7.679a1.409,1.409,0,0,0,1.559,1.679c0.36,0,2.25-.06,2.67-0.149-0.81-.39-1.02-0.9-1.02-3.24,0-1.71.45-5.009,0.54-5.969,0.18-1.8.99-3.09,2.55-3.09,1.23,0,2.279.81,2.279,3.09,0,2.37-.479,5.279-0.479,7.679a1.409,1.409,0,0,0,1.559,1.679C252.3,100.727,254.187,100.667,254.637,100.578ZM271.048,86.27l-3.179.96a5.753,5.753,0,0,0-3.18-.96c-3.15,0-7.019,2.34-7.019,9.149,0,2.76,1.08,5.4,4.349,5.4a5.631,5.631,0,0,0,3.96-1.739,1.387,1.387,0,0,0,1.56,1.649c0.359,0,2.369-.06,2.819-0.149-0.84-.39-1.05-0.9-1.05-3.24A75.8,75.8,0,0,1,271.048,86.27Zm-3.779,3.03c-0.12.75-.48,2.91-0.57,3.45-0.24,1.44-.51,3.18-0.66,4.829a3.956,3.956,0,0,1-2.61,1.32c-0.93,0-2.549-.84-2.549-3.84,0-3.06,1.379-7.349,4.259-7.349A2.21,2.21,0,0,1,267.269,89.3Zm20.609-9.359-4.17.72a1.222,1.222,0,0,1,.63,1.32,14.553,14.553,0,0,1-.15,1.62l-0.57,3.749a3.579,3.579,0,0,0-2.7-1.08c-4.68,0-7.229,5.009-7.229,9.149,0,2.76,1.08,5.4,4.349,5.4a5.906,5.906,0,0,0,4.02-1.739,1.368,1.368,0,0,0,1.529,1.649c0.36,0,2.37-.06,2.82-0.149-0.81-.36-1.02-0.87-1.02-3.18C285.388,95.508,287.878,79.941,287.878,79.941Zm-4.59,9.359-0.539,3.45c-0.15,1.02-.51,3.27-0.66,4.829a4.267,4.267,0,0,1-2.64,1.32c-0.93,0-2.55-.84-2.55-3.84,0-2.64,1.17-7.349,4.44-7.349A2.1,2.1,0,0,1,283.288,89.3Zm18.93,3.54c0-4.319-1.92-6.569-5.429-6.569-3.9,0-6.959,3.419-6.959,7.949,0,4.109,2.459,6.6,6.149,6.6a6.2,6.2,0,0,0,5.939-4.829,6.767,6.767,0,0,1-4.859,2.64c-1.89,0-4.02-1.26-4.02-4.529a5.791,5.791,0,0,1,.12-1.26h9.059Zm-2.909-1.41H293.4c0.54-2.25,1.71-3.809,3.3-3.809C298.829,87.619,299.309,89.929,299.309,91.429ZM10.319,126.66H6.36l0.57-3.18L1.59,128.249h1.5L1.8,136.138a6.77,6.77,0,0,0-.09,1.05c0,2.49,1.38,3.629,3.629,3.629a3.731,3.731,0,0,0,3.9-2.909,3.254,3.254,0,0,1-2.4,1.05c-0.81,0-1.92-.36-1.92-2.31a5.07,5.07,0,0,1,.09-0.9l1.08-7.5h3.989Zm13.89,5.459c0-3.78-2.49-5.85-5.579-5.85-4.8,0-7.409,4.56-7.409,8.669,0,3.75,2.46,5.879,5.579,5.879C21.719,140.817,24.209,136.348,24.209,132.119Zm-3.18.03c0,3.479-1.26,7.289-3.869,7.289-1.5,0-2.76-1.92-2.76-4.5,0-3.419,1.26-7.289,3.839-7.289C19.769,127.649,21.029,129.569,21.029,132.149Zm21.75-5.489H38.819l0.57-3.18-5.339,4.769h1.5l-1.29,7.889a6.77,6.77,0,0,0-.09,1.05c0,2.49,1.38,3.629,3.63,3.629a3.731,3.731,0,0,0,3.9-2.909,3.254,3.254,0,0,1-2.4,1.05c-0.81,0-1.92-.36-1.92-2.31a5.07,5.07,0,0,1,.09-0.9l1.08-7.5h3.989Zm14.34-.391-3.18.96a5.751,5.751,0,0,0-3.179-.96c-3.15,0-7.019,2.34-7.019,9.149,0,2.76,1.08,5.4,4.349,5.4a5.631,5.631,0,0,0,3.96-1.739,1.387,1.387,0,0,0,1.56,1.649c0.36,0,2.37-.06,2.82-0.149-0.84-.39-1.05-0.9-1.05-3.24A75.8,75.8,0,0,1,57.118,126.269Zm-3.779,3.03c-0.12.75-.48,2.91-0.57,3.45-0.24,1.439-.51,3.179-0.66,4.829a3.955,3.955,0,0,1-2.61,1.32c-0.93,0-2.55-.84-2.55-3.84,0-3.059,1.38-7.349,4.259-7.349A2.21,2.21,0,0,1,53.339,129.3Zm19.739,11.279a3.92,3.92,0,0,1-1.23-.9,15.186,15.186,0,0,1-1.41-2.64l-0.51-1.26c-0.9-2.189-2.19-3.389-3.959-3.389,0.72-1.29,2.4-3.66,4.589-3.66,2.04,0,2.31.69,2.31,0.69s0.09-.75.09-1.2a1.96,1.96,0,0,0-2.13-2.069c-4.139,0-6.059,5.219-6.929,6.809h-0.06l2.07-13.019-4.2.72a1.271,1.271,0,0,1,.66,1.38,12.646,12.646,0,0,1-.15,1.56l-2.4,15.058c-0.21,1.35-.51,1.68-0.99,1.92h4.559a1.3,1.3,0,0,1-.48-1.2,5.933,5.933,0,0,1,.12-1.17l0.78-4.949h0.3c1.17,0,2.01,2.1,2.49,3.179l1.44,3.12a1.344,1.344,0,0,0,1.32,1.049Zm13.68-7.739c0-4.32-1.92-6.57-5.429-6.57-3.9,0-6.959,3.42-6.959,7.949,0,4.11,2.46,6.6,6.149,6.6a6.2,6.2,0,0,0,5.939-4.829,6.767,6.767,0,0,1-4.859,2.64c-1.89,0-4.019-1.26-4.019-4.53a5.784,5.784,0,0,1,.12-1.259h9.059Zm-2.909-1.41H77.939c0.54-2.25,1.71-3.81,3.3-3.81C83.369,127.619,83.849,129.929,83.849,131.429ZM105,126.66h-3.96l0.57-3.18-5.339,4.769h1.5l-1.29,7.889a6.769,6.769,0,0,0-.09,1.05c0,2.49,1.38,3.629,3.629,3.629a3.732,3.732,0,0,0,3.9-2.909,3.255,3.255,0,0,1-2.4,1.05c-0.81,0-1.92-.36-1.92-2.31a5.07,5.07,0,0,1,.09-0.9l1.08-7.5h3.99Zm15.179,13.918c-0.81-.39-1.02-0.9-1.02-3.24,0-1.71.39-5.009,0.39-5.969,0-3.54-1.74-5.1-4.169-5.1a4.38,4.38,0,0,0-3.84,2.22l1.41-8.639-4.2.75c0.39,0.09.6,0.57,0.6,1.47a13.529,13.529,0,0,1-.21,2.19L106.92,138.6c-0.18,1.29-.51,1.74-0.99,1.98h4.619a1.641,1.641,0,0,1-.569-1.5,5.333,5.333,0,0,1,.06-0.93l1.229-7.859a3.314,3.314,0,0,1,2.7-1.95c1.44,0,2.43.87,2.43,3.03,0,2.369-.45,5.279-0.45,7.679a1.4,1.4,0,0,0,1.56,1.679C117.868,140.727,119.758,140.667,120.178,140.578Zm15.21-7.739c0-4.32-1.92-6.57-5.429-6.57-3.9,0-6.959,3.42-6.959,7.949,0,4.11,2.459,6.6,6.149,6.6a6.2,6.2,0,0,0,5.939-4.829,6.767,6.767,0,0,1-4.859,2.64c-1.89,0-4.02-1.26-4.02-4.53a5.784,5.784,0,0,1,.12-1.259h9.059Zm-2.91-1.41h-5.909c0.54-2.25,1.71-3.81,3.3-3.81C132,127.619,132.478,129.929,132.478,131.429Zm25.47,9.149c-0.81-.39-1.02-0.9-1.02-3.24,0-1.71.39-5.009,0.39-5.969,0-3.54-1.74-5.1-4.169-5.1a4.38,4.38,0,0,0-3.84,2.22l1.41-8.639-4.2.75c0.39,0.09.6,0.57,0.6,1.47a13.529,13.529,0,0,1-.21,2.19L144.69,138.6c-0.18,1.29-.51,1.74-0.99,1.98h4.619a1.641,1.641,0,0,1-.57-1.5,5.333,5.333,0,0,1,.06-0.93l1.23-7.859a3.314,3.314,0,0,1,2.7-1.95c1.44,0,2.429.87,2.429,3.03,0,2.369-.45,5.279-0.45,7.679a1.4,1.4,0,0,0,1.56,1.679C155.638,140.727,157.528,140.667,157.948,140.578Zm15.21-7.739c0-4.32-1.92-6.57-5.429-6.57-3.9,0-6.959,3.42-6.959,7.949,0,4.11,2.459,6.6,6.149,6.6a6.2,6.2,0,0,0,5.939-4.829,6.768,6.768,0,0,1-4.859,2.64c-1.89,0-4.02-1.26-4.02-4.53a5.784,5.784,0,0,1,.12-1.259h9.059Zm-2.91-1.41h-5.909c0.54-2.25,1.71-3.81,3.3-3.81C169.768,127.619,170.248,129.929,170.248,131.429Zm19.23-5.16-3.18.96a5.751,5.751,0,0,0-3.179-.96c-3.15,0-7.019,2.34-7.019,9.149,0,2.76,1.079,5.4,4.349,5.4a5.628,5.628,0,0,0,3.959-1.739,1.387,1.387,0,0,0,1.56,1.649c0.36,0,2.37-.06,2.82-0.149-0.84-.39-1.05-0.9-1.05-3.24A75.807,75.807,0,0,1,189.478,126.269Zm-3.78,3.03c-0.12.75-.48,2.91-0.57,3.45-0.24,1.439-.51,3.179-0.66,4.829a3.953,3.953,0,0,1-2.609,1.32c-0.93,0-2.55-.84-2.55-3.84,0-3.059,1.38-7.349,4.26-7.349A2.21,2.21,0,0,1,185.7,129.3Zm15.51-2.639h-3.959l0.57-3.18-5.34,4.769h1.5l-1.29,7.889a6.769,6.769,0,0,0-.09,1.05c0,2.49,1.38,3.629,3.63,3.629a3.731,3.731,0,0,0,3.9-2.909,3.254,3.254,0,0,1-2.4,1.05c-0.81,0-1.92-.36-1.92-2.31a5.07,5.07,0,0,1,.09-0.9l1.08-7.5h3.989Zm5.641,12.3a1.83,1.83,0,1,0-1.83,1.859A1.837,1.837,0,0,0,206.849,138.958Z"/>
  </g>
</svg>
