<svg id="shorts_copy" data-name="shorts copy" xmlns="http://www.w3.org/2000/svg" width="768" height="1061" viewBox="0 0 768 1061">
  <defs>
    <style>
      .cls-1 {
        fill: #fff;
      }

      .cls-1, .cls-2, .cls-3 {
        fill-rule: evenodd;
      }

      .cls-2 {
        fill: #b03f25;
      }

      .cls-3 {
        fill: #272727;
        opacity: 0.3;
      }
    </style>
  </defs>
  <path id="The_sky_s_the_limit_in_heat-regulating_Core_Temp_Shorts_featu" data-name="The sky’s the limit in heat-regulating Core Temp  Shorts, featu" class="cls-1" d="M71.444,858.457h2.4V842.031h5.835v-2.324H65.609v2.324h5.835v16.426Zm11.695,0h2.271v-6.549c0-3.09,1.69-4.833,3.829-4.833,1.848,0,3.116,1.373,3.116,3.592v7.79H94.6v-8.134c0-3.274-2.033-5.334-4.99-5.334a4.668,4.668,0,0,0-4.2,2.3v-8.635H83.139v19.806Zm15.576-6.6a6.96,6.96,0,0,0,12.78,3.724l-1.8-1.242a4.674,4.674,0,0,1-8.687-2.033h10.826a6.553,6.553,0,0,0,.026-0.687c-0.026-4.225-2.825-6.628-6.284-6.628A6.69,6.69,0,0,0,98.714,851.855ZM105.5,847a3.95,3.95,0,0,1,4.04,3.459h-8.37A4.315,4.315,0,0,1,105.5,847Zm26.69,7.79c0-1.98-1.241-3.248-3.485-3.987l-1.426-.476c-1.558-.5-2.033-1-2.033-1.848,0-.977.977-1.532,2.218-1.532a3.567,3.567,0,0,1,2.8,1.373l1.479-1.426a5.12,5.12,0,0,0-4.225-1.9c-2.614,0-4.462,1.452-4.462,3.591,0,1.849,1.135,3.143,3.274,3.83l1.293,0.422c1.717,0.555,2.35,1.188,2.35,2.113,0,1.135-1.029,1.8-2.323,1.8a3.544,3.544,0,0,1-3.38-2.087l-1.848,1a5.243,5.243,0,0,0,5.175,3.063C130.263,858.721,132.19,857.374,132.19,854.786Zm4.3,3.671h2.271v-6.6l7.155,6.6h3.063l-7.947-7.368,6.5-5.836h-3.01l-5.756,5.149V838.651h-2.271v19.806Zm18.8,5.52,8.66-18.724h-2.534L156.9,855.262l-4.542-10.009H149.85l5.782,12.517-2.878,6.207h2.535Zm15.365-21.418a2.335,2.335,0,0,0,.369-1.188,1.967,1.967,0,1,0-3.934,0,2.046,2.046,0,0,0,1.083,1.769l-1.769,3.777h1.531Zm12.066,12.227c0-1.98-1.241-3.248-3.486-3.987l-1.426-.476c-1.557-.5-2.033-1-2.033-1.848,0-.977.977-1.532,2.218-1.532a3.567,3.567,0,0,1,2.8,1.373l1.479-1.426a5.12,5.12,0,0,0-4.225-1.9c-2.614,0-4.462,1.452-4.462,3.591,0,1.849,1.135,3.143,3.274,3.83l1.294,0.422c1.716,0.555,2.35,1.188,2.35,2.113,0,1.135-1.03,1.8-2.324,1.8a3.544,3.544,0,0,1-3.38-2.087l-1.848,1a5.243,5.243,0,0,0,5.175,3.063C180.792,858.721,182.72,857.374,182.72,854.786Zm18.5,3.486v-2.033a5.027,5.027,0,0,1-1.61.264c-1.426,0-2.192-.555-2.192-2.245v-6.919h3.8v-2.086h-3.8v-3.671h-2.271v3.671h-2.8v2.086h2.8v7.21a3.717,3.717,0,0,0,4.04,4.04A6.308,6.308,0,0,0,201.225,858.272Zm3.959,0.185h2.271v-6.549c0-3.09,1.69-4.833,3.828-4.833,1.849,0,3.116,1.373,3.116,3.592v7.79h2.244v-8.134c0-3.274-2.033-5.334-4.99-5.334a4.668,4.668,0,0,0-4.2,2.3v-8.635h-2.271v19.806Zm15.576-6.6a6.96,6.96,0,0,0,12.779,3.724l-1.795-1.242a4.674,4.674,0,0,1-8.687-2.033h10.825a6.311,6.311,0,0,0,.027-0.687c-0.027-4.225-2.825-6.628-6.284-6.628A6.69,6.69,0,0,0,220.76,851.855ZM227.545,847a3.95,3.95,0,0,1,4.04,3.459h-8.37A4.316,4.316,0,0,1,227.545,847Zm18.136,11.461h2.271V838.651h-2.271v19.806ZM256.056,840.1a1.6,1.6,0,0,0-1.584-1.611,1.64,1.64,0,0,0-1.637,1.611,1.623,1.623,0,0,0,1.637,1.611A1.578,1.578,0,0,0,256.056,840.1Zm-2.746,18.354h2.271v-13.2H253.31v13.2Zm7.63,0h2.27v-6.549c0-2.984,1.5-4.833,3.644-4.833,1.716,0,2.588,1.479,2.588,3.618v7.764h2.27v-6.549c0-2.984,1.479-4.833,3.618-4.833,1.716,0,2.614,1.479,2.614,3.618v7.764h2.271V850.35c0-3.222-1.743-5.361-4.621-5.361a4.568,4.568,0,0,0-4.33,2.825,4.15,4.15,0,0,0-4.067-2.825,4.439,4.439,0,0,0-3.987,2.3v-2.033h-2.27v13.2ZM288.106,840.1a1.6,1.6,0,0,0-1.585-1.611,1.641,1.641,0,0,0-1.637,1.611,1.623,1.623,0,0,0,1.637,1.611A1.579,1.579,0,0,0,288.106,840.1Zm-2.746,18.354h2.27v-13.2h-2.27v13.2Zm14.784-.185v-2.033a5.027,5.027,0,0,1-1.61.264c-1.426,0-2.192-.555-2.192-2.245v-6.919h3.8v-2.086h-3.8v-3.671h-2.27v3.671h-2.8v2.086h2.8v7.21a3.716,3.716,0,0,0,4.039,4.04A6.308,6.308,0,0,0,300.144,858.272Zm14.2-18.169a1.6,1.6,0,0,0-1.585-1.611,1.641,1.641,0,0,0-1.637,1.611,1.623,1.623,0,0,0,1.637,1.611A1.579,1.579,0,0,0,314.347,840.1ZM311.6,858.457h2.27v-13.2H311.6v13.2Zm7.629,0H321.5v-6.549c0-3.09,1.69-4.833,3.828-4.833,1.849,0,3.116,1.373,3.116,3.592v7.79h2.244v-8.134c0-3.274-2.033-5.334-4.99-5.334a4.667,4.667,0,0,0-4.2,2.3v-2.033H319.23v13.2Zm24.1,0h2.27v-6.549c0-3.09,1.69-4.833,3.829-4.833,1.848,0,3.116,1.373,3.116,3.592v7.79h2.244v-8.134c0-3.274-2.033-5.334-4.99-5.334a4.669,4.669,0,0,0-4.2,2.3v-8.635h-2.27v19.806Zm15.575-6.6a6.96,6.96,0,0,0,12.78,3.724l-1.8-1.242a4.674,4.674,0,0,1-8.687-2.033h10.826a6.553,6.553,0,0,0,.026-0.687c-0.026-4.225-2.825-6.628-6.284-6.628A6.69,6.69,0,0,0,358.908,851.855ZM365.694,847a3.95,3.95,0,0,1,4.04,3.459h-8.37A4.315,4.315,0,0,1,365.694,847Zm9.608,4.859a6.607,6.607,0,0,0,6.469,6.866,5.789,5.789,0,0,0,4.647-2.3v2.033h2.271v-13.2h-2.271v2.033a5.789,5.789,0,0,0-4.647-2.3A6.607,6.607,0,0,0,375.3,851.855Zm11.3,0a4.51,4.51,0,1,1-4.488-4.78A4.508,4.508,0,0,1,386.6,851.855Zm14.572,6.417v-2.033a5.027,5.027,0,0,1-1.61.264c-1.426,0-2.192-.555-2.192-2.245v-6.919h3.8v-2.086h-3.8v-3.671H395.1v3.671h-2.8v2.086h2.8v7.21a3.717,3.717,0,0,0,4.04,4.04A6.308,6.308,0,0,0,401.175,858.272Zm3.22-6.074h6.733v-2.271H404.4V852.2Zm11.669,6.259h2.27v-6.549c0-3.09,1.822-4.543,3.486-4.543a3.31,3.31,0,0,1,1.241.212v-2.351a4.722,4.722,0,0,0-1.03-.105,3.927,3.927,0,0,0-3.7,2.693v-2.561h-2.27v13.2Zm9.213-6.6a6.96,6.96,0,0,0,12.78,3.724l-1.8-1.242a4.674,4.674,0,0,1-8.687-2.033H438.4a6.553,6.553,0,0,0,.026-0.687c-0.026-4.225-2.825-6.628-6.284-6.628A6.69,6.69,0,0,0,425.277,851.855ZM432.063,847a3.95,3.95,0,0,1,4.04,3.459h-8.37A4.315,4.315,0,0,1,432.063,847Zm22.942,10.7V845.253h-2.27v2.033a5.619,5.619,0,0,0-4.6-2.3,6.727,6.727,0,0,0,0,13.442,5.64,5.64,0,0,0,4.6-2.324v1.5a4.221,4.221,0,0,1-4.41,4.569,5.646,5.646,0,0,1-4.62-2.219l-1.585,1.585a7.839,7.839,0,0,0,6.232,2.694C452.1,864.241,455.005,862.1,455.005,857.691Zm-11.01-6a4.465,4.465,0,1,1,4.462,4.622A4.4,4.4,0,0,1,444,851.7Zm16.156,1.664c0,3.275,1.954,5.361,4.859,5.361a4.543,4.543,0,0,0,4.066-2.3v2.033h2.271v-13.2h-2.271V851.8c0,3.037-1.611,4.833-3.67,4.833-1.822,0-2.984-1.4-2.984-3.618v-7.764h-2.271v8.107Zm16.527,5.1h2.27V838.651h-2.27v19.806Zm6.6-6.6a6.607,6.607,0,0,0,6.469,6.866,5.789,5.789,0,0,0,4.647-2.3v2.033h2.271v-13.2h-2.271v2.033a5.789,5.789,0,0,0-4.647-2.3A6.607,6.607,0,0,0,483.277,851.855Zm11.3,0a4.51,4.51,0,1,1-4.488-4.78A4.508,4.508,0,0,1,494.578,851.855Zm14.572,6.417v-2.033a5.027,5.027,0,0,1-1.61.264c-1.426,0-2.192-.555-2.192-2.245v-6.919h3.8v-2.086h-3.8v-3.671h-2.271v3.671h-2.8v2.086h2.8v7.21a3.717,3.717,0,0,0,4.04,4.04A6.308,6.308,0,0,0,509.15,858.272Zm6.705-18.169a1.6,1.6,0,0,0-1.584-1.611,1.64,1.64,0,0,0-1.637,1.611,1.623,1.623,0,0,0,1.637,1.611A1.578,1.578,0,0,0,515.855,840.1Zm-2.746,18.354h2.271v-13.2h-2.271v13.2Zm7.63,0h2.27v-6.549c0-3.09,1.69-4.833,3.829-4.833,1.848,0,3.115,1.373,3.115,3.592v7.79H532.2v-8.134c0-3.274-2.033-5.334-4.991-5.334a4.668,4.668,0,0,0-4.2,2.3v-2.033h-2.27v13.2Zm28.909-.766V845.253h-2.271v2.033a5.616,5.616,0,0,0-4.594-2.3,6.727,6.727,0,0,0,0,13.442,5.637,5.637,0,0,0,4.594-2.324v1.5a4.221,4.221,0,0,1-4.409,4.569,5.648,5.648,0,0,1-4.621-2.219l-1.584,1.585a7.836,7.836,0,0,0,6.231,2.694C546.744,864.241,549.648,862.1,549.648,857.691Zm-11.01-6a4.465,4.465,0,1,1,4.462,4.622A4.4,4.4,0,0,1,538.638,851.7Zm22.888-2.614a9.743,9.743,0,0,0,17.981,5.15l-2.06-1.241a7.368,7.368,0,1,1,0-7.818l2.06-1.241A9.743,9.743,0,0,0,561.526,849.082Zm34.691,2.773a6.9,6.9,0,1,0-6.892,6.866A6.776,6.776,0,0,0,596.217,851.855Zm-11.486,0a4.584,4.584,0,1,1,4.594,4.754A4.538,4.538,0,0,1,584.731,851.855Zm15.787,6.6h2.271v-6.549c0-3.09,1.822-4.543,3.485-4.543a3.31,3.31,0,0,1,1.241.212v-2.351a4.722,4.722,0,0,0-1.03-.105,3.927,3.927,0,0,0-3.7,2.693v-2.561h-2.271v13.2Zm9.214-6.6a6.96,6.96,0,0,0,12.779,3.724l-1.795-1.242a4.674,4.674,0,0,1-8.687-2.033h10.825a6.311,6.311,0,0,0,.027-0.687c-0.027-4.225-2.826-6.628-6.284-6.628A6.69,6.69,0,0,0,609.732,851.855ZM616.517,847a3.95,3.95,0,0,1,4.04,3.459h-8.37A4.316,4.316,0,0,1,616.517,847Zm21.41,11.461h2.4V842.031h5.835v-2.324H632.092v2.324h5.835v16.426Zm8.553-6.6a6.96,6.96,0,0,0,12.779,3.724l-1.795-1.242a4.674,4.674,0,0,1-8.687-2.033H659.6a6.553,6.553,0,0,0,.026-0.687c-0.026-4.225-2.825-6.628-6.284-6.628A6.69,6.69,0,0,0,646.48,851.855ZM653.266,847a3.951,3.951,0,0,1,4.04,3.459h-8.37A4.315,4.315,0,0,1,653.266,847ZM663.9,858.457h2.271v-6.549c0-2.984,1.5-4.833,3.643-4.833,1.717,0,2.588,1.479,2.588,3.618v7.764h2.271v-6.549c0-2.984,1.478-4.833,3.617-4.833,1.716,0,2.614,1.479,2.614,3.618v7.764h2.271V850.35c0-3.222-1.743-5.361-4.621-5.361a4.568,4.568,0,0,0-4.33,2.825,4.149,4.149,0,0,0-4.066-2.825,4.437,4.437,0,0,0-3.987,2.3v-2.033H663.9v13.2Zm24.42,5.52H690.6v-7.553a5.789,5.789,0,0,0,4.647,2.3,6.878,6.878,0,0,0,0-13.732,5.789,5.789,0,0,0-4.647,2.3v-2.033h-2.271v18.724Zm11.063-12.122a4.5,4.5,0,1,1-4.489-4.78A4.508,4.508,0,0,1,699.387,851.855ZM80.511,897.4c0.977,1.927,3.485,3.38,6.575,3.38,3.485,0,5.967-2.007,5.967-5.2,0-2.772-1.584-4.357-4.357-5.413l-2.271-.872c-1.9-.713-2.825-1.426-2.825-3.01,0-1.559,1.532-2.589,3.38-2.589a4.641,4.641,0,0,1,3.723,1.849l1.8-1.584a6.835,6.835,0,0,0-5.466-2.562c-3.353,0-5.862,1.928-5.862,4.991,0,2.562,1.32,4.094,4.251,5.176l2.482,0.951c1.743,0.66,2.693,1.664,2.693,3.169,0,1.743-1.531,2.8-3.459,2.8a5.238,5.238,0,0,1-4.647-2.561Zm16.843,3.063h2.271v-6.549c0-3.09,1.69-4.833,3.829-4.833,1.848,0,3.115,1.373,3.115,3.591v7.791h2.245v-8.134c0-3.275-2.033-5.334-4.991-5.334a4.668,4.668,0,0,0-4.2,2.3v-8.636H97.354v19.807Zm29.359-6.6a6.9,6.9,0,1,0-6.892,6.866A6.776,6.776,0,0,0,126.713,893.863Zm-11.486,0a4.584,4.584,0,1,1,4.594,4.753A4.538,4.538,0,0,1,115.227,893.863Zm15.787,6.6h2.27v-6.549c0-3.09,1.822-4.543,3.486-4.543a3.31,3.31,0,0,1,1.241.212v-2.351a4.722,4.722,0,0,0-1.03-.105,3.929,3.929,0,0,0-3.7,2.693v-2.561h-2.27v13.2Zm17.874-.185v-2.033a5.038,5.038,0,0,1-1.611.264c-1.426,0-2.192-.555-2.192-2.245v-6.919h3.8v-2.086h-3.8V883.59h-2.27v3.671h-2.8v2.086h2.8v7.21a3.716,3.716,0,0,0,4.039,4.04A6.319,6.319,0,0,0,148.888,900.28Zm12.513-3.486c0-1.98-1.241-3.248-3.485-3.987l-1.426-.476c-1.558-.5-2.033-1-2.033-1.848,0-.978.977-1.532,2.218-1.532a3.568,3.568,0,0,1,2.8,1.373l1.478-1.426a5.117,5.117,0,0,0-4.224-1.9c-2.614,0-4.462,1.452-4.462,3.591,0,1.849,1.135,3.143,3.274,3.829l1.293,0.423c1.717,0.555,2.35,1.188,2.35,2.113,0,1.135-1.029,1.8-2.323,1.8a3.543,3.543,0,0,1-3.38-2.086l-1.848,1a5.242,5.242,0,0,0,5.175,3.063C159.474,900.729,161.4,899.382,161.4,896.794Zm7.127,3.09a2.258,2.258,0,0,0,.37-1.188,1.954,1.954,0,1,0-3.908,0,1.965,1.965,0,0,0,1.083,1.769l-1.769,3.777h1.5Zm13.253,0.581h2.27V889.347h3.829v-2.086h-3.829v-2.43c0-1.664.74-2.245,2.192-2.245a5.328,5.328,0,0,1,1.637.264v-2.007a6,6,0,0,0-2.059-.343,3.77,3.77,0,0,0-4.04,4.093v2.668h-2.8v2.086h2.8v11.118Zm8.263-6.6a6.959,6.959,0,0,0,12.779,3.723l-1.8-1.241a4.674,4.674,0,0,1-8.687-2.033h10.825a6.311,6.311,0,0,0,.027-0.687c-0.027-4.225-2.825-6.628-6.284-6.628A6.69,6.69,0,0,0,190.044,893.863ZM196.829,889a3.95,3.95,0,0,1,4.04,3.459H192.5A4.316,4.316,0,0,1,196.829,889Zm9.609,4.859a6.607,6.607,0,0,0,6.469,6.866,5.79,5.79,0,0,0,4.647-2.3v2.033h2.271v-13.2h-2.271v2.033a5.79,5.79,0,0,0-4.647-2.3A6.606,6.606,0,0,0,206.438,893.863Zm11.3,0a4.51,4.51,0,1,1-4.489-4.78A4.508,4.508,0,0,1,217.739,893.863Zm14.572,6.417v-2.033a5.033,5.033,0,0,1-1.611.264c-1.426,0-2.191-.555-2.191-2.245v-6.919h3.8v-2.086h-3.8V883.59h-2.271v3.671h-2.8v2.086h2.8v7.21a3.717,3.717,0,0,0,4.04,4.04A6.317,6.317,0,0,0,232.311,900.28Zm3.774-4.912c0,3.275,1.954,5.361,4.858,5.361a4.542,4.542,0,0,0,4.066-2.3v2.033h2.271v-13.2h-2.271v6.549c0,3.037-1.61,4.833-3.67,4.833-1.822,0-2.983-1.4-2.983-3.618v-7.764h-2.271v8.107Zm16.526,5.1h2.271v-6.549c0-3.09,1.822-4.543,3.485-4.543a3.306,3.306,0,0,1,1.241.212v-2.351a4.709,4.709,0,0,0-1.03-.105,3.927,3.927,0,0,0-3.7,2.693v-2.561h-2.271v13.2Zm13.465-18.354a1.6,1.6,0,0,0-1.585-1.611,1.64,1.64,0,0,0-1.637,1.611,1.623,1.623,0,0,0,1.637,1.611A1.579,1.579,0,0,0,266.076,882.111Zm-2.746,18.354h2.27v-13.2h-2.27v13.2Zm7.629,0h2.271v-6.549c0-3.09,1.689-4.833,3.828-4.833,1.848,0,3.116,1.373,3.116,3.591v7.791h2.244v-8.134c0-3.275-2.033-5.334-4.99-5.334a4.667,4.667,0,0,0-4.2,2.3v-2.033h-2.271v13.2Zm28.909-.766V887.261H297.6v2.033A5.619,5.619,0,0,0,293,887a6.727,6.727,0,0,0,0,13.442,5.64,5.64,0,0,0,4.6-2.324v1.5a4.221,4.221,0,0,1-4.41,4.569,5.646,5.646,0,0,1-4.62-2.219l-1.585,1.585a7.839,7.839,0,0,0,6.232,2.694C296.964,906.249,299.868,904.109,299.868,899.7Zm-11.01-6a4.465,4.465,0,1,1,4.462,4.622A4.4,4.4,0,0,1,288.858,893.7Zm36.592,0.159a6.905,6.905,0,1,0-6.892,6.866A6.776,6.776,0,0,0,325.45,893.863Zm-11.486,0a4.584,4.584,0,1,1,4.594,4.753A4.538,4.538,0,0,1,313.964,893.863Zm15.6,1.5c0,3.275,1.954,5.361,4.858,5.361a4.543,4.543,0,0,0,4.066-2.3v2.033h2.271v-13.2H338.49v6.549c0,3.037-1.61,4.833-3.67,4.833-1.822,0-2.984-1.4-2.984-3.618v-7.764h-2.27v8.107Zm16.526,5.1h2.271v-6.549c0-3.09,1.822-4.543,3.485-4.543a3.306,3.306,0,0,1,1.241.212v-2.351a4.716,4.716,0,0,0-1.03-.105,3.927,3.927,0,0,0-3.7,2.693v-2.561h-2.271v13.2Zm29.543-3.275-1.98-1.109a4.475,4.475,0,0,1-4.119,2.535,4.755,4.755,0,0,1,0-9.507,4.474,4.474,0,0,1,4.119,2.536l1.98-1.11a6.838,6.838,0,0,0-6.1-3.538,6.866,6.866,0,1,0,0,13.732A6.837,6.837,0,0,0,375.635,897.19Zm16.738-3.327a6.905,6.905,0,1,0-6.892,6.866A6.776,6.776,0,0,0,392.373,893.863Zm-11.486,0a4.584,4.584,0,1,1,4.594,4.753A4.538,4.538,0,0,1,380.887,893.863Zm28.54,0a6.905,6.905,0,1,0-6.892,6.866A6.776,6.776,0,0,0,409.427,893.863Zm-11.486,0a4.584,4.584,0,1,1,4.594,4.753A4.538,4.538,0,0,1,397.941,893.863Zm15.787,6.6H416V880.658h-2.27v19.807Zm6.6-6.6a6.96,6.96,0,0,0,12.78,3.723l-1.8-1.241a4.674,4.674,0,0,1-8.687-2.033H433.45a6.553,6.553,0,0,0,.026-0.687C433.45,889.4,430.651,887,427.192,887A6.69,6.69,0,0,0,420.327,893.863ZM427.113,889a3.95,3.95,0,0,1,4.04,3.459h-8.37A4.315,4.315,0,0,1,427.113,889Zm19.193,7.79c0-1.98-1.241-3.248-3.485-3.987l-1.426-.476c-1.558-.5-2.033-1-2.033-1.848,0-.978.977-1.532,2.218-1.532a3.568,3.568,0,0,1,2.8,1.373l1.478-1.426a5.118,5.118,0,0,0-4.224-1.9c-2.614,0-4.463,1.452-4.463,3.591,0,1.849,1.136,3.143,3.274,3.829l1.294,0.423c1.716,0.555,2.35,1.188,2.35,2.113,0,1.135-1.03,1.8-2.323,1.8a3.542,3.542,0,0,1-3.38-2.086l-1.848,1a5.242,5.242,0,0,0,5.175,3.063C444.379,900.729,446.306,899.382,446.306,896.794Zm11.3,3.486v-2.033a5.033,5.033,0,0,1-1.611.264c-1.425,0-2.191-.555-2.191-2.245v-6.919h3.8v-2.086h-3.8V883.59h-2.271v3.671h-2.8v2.086h2.8v7.21a3.717,3.717,0,0,0,4.04,4.04A6.317,6.317,0,0,0,457.605,900.28Zm18.163,0v-2.033a5.033,5.033,0,0,1-1.611.264c-1.426,0-2.191-.555-2.191-2.245v-6.919h3.8v-2.086h-3.8V883.59H469.7v3.671h-2.8v2.086h2.8v7.21a3.717,3.717,0,0,0,4.04,4.04A6.317,6.317,0,0,0,475.768,900.28Zm2.744-6.417a6.96,6.96,0,0,0,12.78,3.723l-1.8-1.241a4.673,4.673,0,0,1-8.686-2.033h10.825a6.311,6.311,0,0,0,.027-0.687c-0.027-4.225-2.826-6.628-6.285-6.628A6.69,6.69,0,0,0,478.512,893.863ZM485.3,889a3.95,3.95,0,0,1,4.04,3.459h-8.37A4.315,4.315,0,0,1,485.3,889Zm22.626,8.186-1.981-1.109a4.474,4.474,0,0,1-4.119,2.535,4.755,4.755,0,0,1,0-9.507,4.473,4.473,0,0,1,4.119,2.536l1.981-1.11a6.838,6.838,0,0,0-6.1-3.538,6.866,6.866,0,1,0,0,13.732A6.837,6.837,0,0,0,507.924,897.19Zm3.984,3.275h2.271v-6.549c0-3.09,1.69-4.833,3.828-4.833,1.849,0,3.116,1.373,3.116,3.591v7.791h2.244v-8.134c0-3.275-2.033-5.334-4.99-5.334a4.668,4.668,0,0,0-4.2,2.3v-8.636h-2.271v19.807Zm16.605,0h2.271v-6.549c0-3.09,1.69-4.833,3.829-4.833,1.848,0,3.115,1.373,3.115,3.591v7.791h2.245v-8.134c0-3.275-2.033-5.334-4.991-5.334a4.668,4.668,0,0,0-4.2,2.3v-2.033h-2.271v13.2Zm29.359-6.6a6.9,6.9,0,1,0-6.892,6.866A6.776,6.776,0,0,0,557.872,893.863Zm-11.486,0a4.584,4.584,0,1,1,4.594,4.753A4.538,4.538,0,0,1,546.386,893.863Zm15.787,6.6h2.271V880.658h-2.271v19.807Zm20.382-6.6a6.9,6.9,0,1,0-6.891,6.866A6.775,6.775,0,0,0,582.555,893.863Zm-11.485,0a4.584,4.584,0,1,1,4.594,4.753A4.538,4.538,0,0,1,571.07,893.863Zm28.09,5.836V887.261h-2.27v2.033a5.619,5.619,0,0,0-4.6-2.3,6.727,6.727,0,0,0,0,13.442,5.64,5.64,0,0,0,4.6-2.324v1.5a4.221,4.221,0,0,1-4.41,4.569,5.646,5.646,0,0,1-4.62-2.219l-1.585,1.585a7.839,7.839,0,0,0,6.232,2.694C596.256,906.249,599.16,904.109,599.16,899.7Zm-11.01-6a4.465,4.465,0,1,1,4.462,4.622A4.4,4.4,0,0,1,588.15,893.7ZM608,905.985l8.66-18.724h-2.534l-4.515,10.009-4.542-10.009h-2.508l5.782,12.517-2.878,6.207H608Zm17.872-12.122a6.959,6.959,0,0,0,12.779,3.723l-1.795-1.241a4.674,4.674,0,0,1-8.687-2.033H639a6.553,6.553,0,0,0,.026-0.687C639,889.4,636.2,887,632.74,887A6.69,6.69,0,0,0,625.875,893.863ZM632.661,889a3.951,3.951,0,0,1,4.04,3.459h-8.37A4.315,4.315,0,0,1,632.661,889Zm14.546,11.461h1.9l6.1-13.2h-2.535l-4.515,9.982-4.515-9.982h-2.534Zm10.031-6.6a6.96,6.96,0,0,0,12.78,3.723l-1.8-1.241a4.674,4.674,0,0,1-8.687-2.033h10.826a6.553,6.553,0,0,0,.026-0.687C670.361,889.4,667.562,887,664.1,887A6.69,6.69,0,0,0,657.238,893.863ZM664.024,889a3.95,3.95,0,0,1,4.04,3.459h-8.37A4.315,4.315,0,0,1,664.024,889Zm10.638,11.461h2.271v-6.549c0-3.09,1.822-4.543,3.485-4.543a3.306,3.306,0,0,1,1.241.212v-2.351a4.707,4.707,0,0,0-1.029-.105,3.927,3.927,0,0,0-3.7,2.693v-2.561h-2.271v13.2Zm12.409-1.769a1.954,1.954,0,1,0-1.954,1.98A1.99,1.99,0,0,0,687.071,898.7Z"/>
  <g id="CTA_black_copy" data-name="CTA_black copy">
    <path class="cls-2" d="M407.993,942.2H708.011v60H407.993V942.2Z"/>
    <path id="shop_shorts" data-name="shop shorts" class="cls-1" d="M487.948,979.644c2.6,0,4.384-1.62,4.4-3.943a3.924,3.924,0,0,0-2.929-3.817l-0.867-.324c-1.3-.486-1.906-0.792-1.906-1.476a1.265,1.265,0,0,1,1.49-.973,2.7,2.7,0,0,1,2.132,1.063l1.8-1.981a5.044,5.044,0,0,0-3.968-1.765c-2.461,0-4.246,1.459-4.246,3.944,0,1.746,1.109,2.989,3.1,3.691l0.867,0.306c1.23,0.432,1.715.882,1.715,1.53a1.257,1.257,0,0,1-1.49,1.063A3.193,3.193,0,0,1,485.5,975.5l-2.114,1.855A5.329,5.329,0,0,0,487.948,979.644Zm9.425-.216h2.756v-5.059h4.956v5.059h2.755V966.644h-2.755v5.006h-4.956v-5.006h-2.756v12.784Zm21.851,0.216a6.613,6.613,0,1,0-6.36-6.608A6.5,6.5,0,0,0,519.224,979.644Zm0-2.772a3.845,3.845,0,1,1,3.569-3.836A3.729,3.729,0,0,1,519.224,976.872Zm19.891-5.852a4.27,4.27,0,0,0-4.332-4.376h-4.176v12.784h2.755v-4.051h1.421A4.254,4.254,0,0,0,539.115,971.02Zm-2.668,0a1.649,1.649,0,0,1-1.7,1.674h-1.386v-3.349h1.386A1.639,1.639,0,0,1,536.447,971.02Zm17.673,8.624c2.6,0,4.384-1.62,4.4-3.943a3.922,3.922,0,0,0-2.928-3.817l-0.867-.324c-1.3-.486-1.906-0.792-1.906-1.476a1.265,1.265,0,0,1,1.49-.973,2.7,2.7,0,0,1,2.132,1.063l1.8-1.981a5.045,5.045,0,0,0-3.968-1.765c-2.461,0-4.246,1.459-4.246,3.944,0,1.746,1.109,2.989,3.1,3.691L554,974.369c1.23,0.432,1.715.882,1.715,1.53a1.257,1.257,0,0,1-1.49,1.063,3.193,3.193,0,0,1-2.548-1.459l-2.114,1.855A5.329,5.329,0,0,0,554.12,979.644Zm9.425-.216H566.3v-5.059h4.956v5.059h2.755V966.644h-2.755v5.006H566.3v-5.006h-2.756v12.784Zm21.851,0.216a6.613,6.613,0,1,0-6.36-6.608A6.5,6.5,0,0,0,585.4,979.644Zm0-2.772a3.845,3.845,0,1,1,3.569-3.836A3.729,3.729,0,0,1,585.4,976.872Zm11.383,2.556h2.755v-5.275h0.451l4.089,5.275h3.31l-4.349-5.635a3.284,3.284,0,0,0,2.408-3.295,3.7,3.7,0,0,0-3.812-3.854h-4.852v12.784Zm2.755-7.706v-2.449H601.3a1.242,1.242,0,0,1,1.4,1.225,1.262,1.262,0,0,1-1.4,1.224h-1.768Zm13.671,7.706h2.773V969.381h3.171v-2.737h-9.08v2.737h3.136v10.047Zm14.243,0.216c2.6,0,4.385-1.62,4.4-3.943a3.924,3.924,0,0,0-2.929-3.817l-0.866-.324c-1.3-.486-1.906-0.792-1.906-1.476a1.265,1.265,0,0,1,1.49-.973,2.694,2.694,0,0,1,2.131,1.063l1.8-1.981a5.046,5.046,0,0,0-3.969-1.765c-2.46,0-4.245,1.459-4.245,3.944,0,1.746,1.109,2.989,3.1,3.691l0.866,0.306c1.23,0.432,1.716.882,1.716,1.53a1.257,1.257,0,0,1-1.491,1.063,3.19,3.19,0,0,1-2.547-1.459l-2.114,1.855A5.327,5.327,0,0,0,627.448,979.644Z"/>
  </g>
  <g id="CTA_black_copy_2" data-name="CTA_black copy 2">
    <path class="cls-2" d="M59.993,942.2H360.011v60H59.993V942.2Z"/>
    <path id="shop_the_look" data-name="shop the look" class="cls-1" d="M128.356,979.644c2.6,0,4.384-1.62,4.4-3.943a3.924,3.924,0,0,0-2.929-3.817l-0.866-.324c-1.3-.486-1.907-0.792-1.907-1.476a1.265,1.265,0,0,1,1.491-.973,2.7,2.7,0,0,1,2.131,1.063l1.8-1.981a5.044,5.044,0,0,0-3.968-1.765c-2.461,0-4.246,1.459-4.246,3.944,0,1.746,1.109,2.989,3.1,3.691l0.867,0.306c1.23,0.432,1.715.882,1.715,1.53a1.257,1.257,0,0,1-1.49,1.063,3.19,3.19,0,0,1-2.547-1.459l-2.115,1.855A5.33,5.33,0,0,0,128.356,979.644Zm9.425-.216h2.756v-5.059h4.956v5.059h2.755V966.644h-2.755v5.006h-4.956v-5.006h-2.756v12.784Zm21.851,0.216a6.613,6.613,0,1,0-6.36-6.608A6.5,6.5,0,0,0,159.632,979.644Zm0-2.772a3.845,3.845,0,1,1,3.57-3.836A3.729,3.729,0,0,1,159.632,976.872Zm19.892-5.852a4.271,4.271,0,0,0-4.333-4.376h-4.176v12.784h2.755v-4.051h1.421A4.255,4.255,0,0,0,179.524,971.02Zm-2.669,0a1.649,1.649,0,0,1-1.7,1.674H173.77v-3.349h1.387A1.638,1.638,0,0,1,176.855,971.02Zm15.715,8.408h2.773V969.381h3.171v-2.737h-9.081v2.737h3.137v10.047Zm10.743,0h2.755v-5.059h4.956v5.059h2.755V966.644h-2.755v5.006h-4.956v-5.006h-2.755v12.784Zm16.183,0h7.8v-2.736h-5.043v-2.287h4v-2.737h-4v-2.287h5.043v-2.737h-7.8v12.784Zm19.944,0h7.85v-2.736H242.2V966.644H239.44v12.784Zm17.8,0.216a6.613,6.613,0,1,0-6.36-6.608A6.5,6.5,0,0,0,257.235,979.644Zm0-2.772a3.845,3.845,0,1,1,3.57-3.836A3.729,3.729,0,0,1,257.235,976.872Zm17.05,2.772a6.613,6.613,0,1,0-6.36-6.608A6.5,6.5,0,0,0,274.285,979.644Zm0-2.772a3.845,3.845,0,1,1,3.57-3.836A3.729,3.729,0,0,1,274.285,976.872Zm11.383,2.556h2.738V973.7l5.008,5.725h3.535l-5.84-6.644,4.853-6.14h-3.38l-4.176,5.348v-5.348h-2.738v12.784Z"/>
  </g>
  <path id="smart_shorts" data-name="smart shorts" class="cls-2" d="M374.889,186.819c14.4,0,24.286-8.641,24.382-21.026,0.1-10.274-6.335-16.8-16.223-20.355l-4.8-1.728c-7.2-2.592-10.559-4.225-10.559-7.873,0-3.552,4.127-5.185,8.255-5.185a15.16,15.16,0,0,1,11.807,5.665l9.983-10.561c-6.335-6.817-13.727-9.409-21.982-9.409-13.631,0-23.518,7.777-23.518,21.026,0,9.313,6.143,15.938,17.182,19.683l4.8,1.632c6.816,2.3,9.5,4.7,9.5,8.161,0,3.264-3.167,5.664-8.255,5.664a17.829,17.829,0,0,1-14.111-7.777l-11.711,9.89C354.923,182.306,364.138,186.819,374.889,186.819Zm75.934-15.65,19.87-27.555v42.053h15.359V117.5H472.133l-21.31,29.379L429.512,117.5H415.593v68.168h15.263V143.614Zm48.1,14.5h15.935l6.047-14.4h28.222l6.048,14.4h15.935L541.926,117.5H528.1Zm27.55-27.651,8.543-20.547,8.544,20.547H526.471Zm57.505,27.651h15.263V157.536h2.5l22.654,28.131h18.335L618.63,155.615c8.639-3.072,13.343-8.737,13.343-17.57,0-11.329-8.256-20.546-21.119-20.546H583.976v68.168Zm15.263-41.093V131.517h9.791c4.512,0,7.776,2.4,7.776,6.528,0,3.937-3.264,6.529-7.776,6.529h-9.791Zm64.224,41.093h15.359V132.093h17.567V117.5h-50.3v14.594h17.374v53.574ZM374.889,264.834c14.4,0,24.286-8.641,24.382-21.027,0.1-10.273-6.335-16.8-16.223-20.354l-4.8-1.728c-7.2-2.593-10.559-4.225-10.559-7.873,0-3.553,4.127-5.185,8.255-5.185a15.157,15.157,0,0,1,11.807,5.665l9.983-10.561c-6.335-6.817-13.727-9.409-21.982-9.409-13.631,0-23.518,7.776-23.518,21.026,0,9.313,6.143,15.938,17.182,19.682l4.8,1.632c6.816,2.305,9.5,4.705,9.5,8.161,0,3.265-3.167,5.665-8.255,5.665a17.829,17.829,0,0,1-14.111-7.777l-11.711,9.889C354.923,260.321,364.138,264.834,374.889,264.834Zm40.7-1.152h15.263V236.7H458.31v26.98h15.263V195.514H458.31v26.691H430.856V195.514H415.593v68.168Zm109.534,1.152A35.236,35.236,0,1,0,489.9,229.6,35.317,35.317,0,0,0,525.127,264.834Zm0-14.786c-11.135,0-19.871-9.409-19.871-20.45s8.736-20.451,19.871-20.451c11.039,0,19.775,9.409,19.775,20.451S536.166,250.048,525.127,250.048Zm51.553,13.634h15.263V235.55h2.5l22.654,28.132h18.335l-24.1-30.052c8.64-3.072,13.343-8.737,13.343-17.57,0-11.329-8.255-20.546-21.118-20.546H576.68v68.168Zm15.263-41.093V209.531h9.791c4.512,0,7.775,2.4,7.775,6.529,0,3.936-3.263,6.529-7.775,6.529h-9.791Zm64.224,41.093h15.359V210.107h17.567V195.514h-50.3v14.593h17.375v53.575Zm67.391,1.152c14.4,0,24.286-8.641,24.382-21.027,0.1-10.273-6.335-16.8-16.222-20.354l-4.8-1.728c-7.2-2.593-10.559-4.225-10.559-7.873,0-3.553,4.127-5.185,8.255-5.185a15.157,15.157,0,0,1,11.807,5.665l9.983-10.561c-6.335-6.817-13.726-9.409-21.982-9.409-13.631,0-23.518,7.776-23.518,21.026,0,9.313,6.143,15.938,17.183,19.682l4.8,1.632c6.816,2.305,9.5,4.705,9.5,8.161,0,3.265-3.168,5.665-8.256,5.665a17.83,17.83,0,0,1-14.111-7.777l-11.711,9.889C703.592,260.321,712.807,264.834,723.558,264.834Z"/>
  <path id="_1" data-name="1" class="cls-3" d="M288.809,203.08h35.329V36.933H278.047L252.778,71.8h36.031V203.08Z"/>
</svg>
